<svg xmlns="http://www.w3.org/2000/svg" viewBox="0 0 1600 900"><defs><style>.cls-1{fill:#070707;}.cls-1,.cls-2{opacity:0.92;}.cls-2{fill:#efca16;}.cls-3{fill:#eac62f;}</style></defs><title>frontpage</title><g id="Layer_1" data-name="Layer 1"><circle class="cls-1" cx="180" cy="223" r="22"/><circle class="cls-2" cx="258.5" cy="89.5" r="23.5"/><circle class="cls-1" cx="101.5" cy="314.5" r="27.5"/><circle class="cls-1" cx="244.5" cy="441.5" r="28.5"/><circle class="cls-2" cx="129.5" cy="520.5" r="28.5"/><circle class="cls-2" cx="372" cy="266" r="21"/><circle class="cls-1" cx="712.5" cy="227.5" r="26.5"/><circle class="cls-1" cx="566.5" cy="246.5" r="19.5"/><circle class="cls-2" cx="654.5" cy="405.5" r="24.5"/><circle class="cls-1" cx="361.5" cy="381.5" r="10.5"/><circle class="cls-1" cx="415" cy="492" r="22"/><circle class="cls-1" cx="288.5" cy="582.5" r="15.5"/><circle class="cls-1" cx="82" cy="645" r="8"/><circle class="cls-2" cx="198" cy="689" r="18"/><ellipse class="cls-1" cx="695.5" cy="556" rx="16.5" ry="17"/><circle class="cls-2" cx="611" cy="481" r="11"/><circle class="cls-1" cx="393.5" cy="802.5" r="21.5"/><circle class="cls-2" cx="213.5" cy="818.5" r="15.5"/><circle class="cls-1" cx="92.5" cy="799.5" r="18.5"/><circle class="cls-1" cx="926.5" cy="74.5" r="26.5"/><circle class="cls-1" cx="819" cy="145" r="19"/><circle class="cls-1" cx="768.5" cy="314.5" r="10.5"/><circle class="cls-1" cx="800" cy="392" r="21"/><circle class="cls-1" cx="891.5" cy="551.5" r="30.5"/><circle class="cls-1" cx="896.5" cy="455.5" r="14.5"/><circle class="cls-1" cx="784.5" cy="497.5" r="16.5"/><circle class="cls-1" cx="659.5" cy="682.5" r="37.5"/><ellipse class="cls-1" cx="517.5" cy="713" rx="31.5" ry="32"/><circle class="cls-1" cx="951" cy="184" r="29"/><circle class="cls-1" cx="1020.5" cy="386.5" r="26.5"/><circle class="cls-1" cx="1116.5" cy="296.5" r="50.5"/><circle class="cls-2" cx="1133.5" cy="83.5" r="17.5"/><circle class="cls-1" cx="1092.5" cy="165.5" r="10.5"/><circle class="cls-1" cx="377" cy="36" r="16"/><circle class="cls-1" cx="365.5" cy="169.5" r="14.5"/><circle class="cls-1" cx="1157" cy="683" r="24"/><circle class="cls-1" cx="1063" cy="574" r="53"/><circle class="cls-1" cx="983.5" cy="720.5" r="30.5"/><circle class="cls-1" cx="836.5" cy="818.5" r="15.5"/><circle class="cls-1" cx="692" cy="854" r="20"/><circle class="cls-1" cx="748.5" cy="760.5" r="9.5"/><circle class="cls-1" cx="1035.5" cy="828.5" r="25.5"/><circle class="cls-1" cx="1112.5" cy="760.5" r="9.5"/><circle class="cls-1" cx="1169.5" cy="442.5" r="12.5"/><circle class="cls-1" cx="1145.5" cy="526.5" r="12.5"/><circle class="cls-1" cx="1057" cy="460" r="10"/><circle class="cls-1" cx="1220.5" cy="164.5" r="19.5"/><circle class="cls-1" cx="1305" cy="234" r="11"/><circle class="cls-1" cx="1288" cy="487" r="17"/><circle class="cls-1" cx="1302.5" cy="612.5" r="14.5"/><circle class="cls-2" cx="1338" cy="733" r="12"/><ellipse class="cls-1" cx="1254" cy="814.5" rx="14" ry="14.5"/><circle class="cls-2" cx="1380" cy="78" r="42"/><circle class="cls-1" cx="1501" cy="176" r="20"/><circle class="cls-1" cx="1405.5" cy="274.5" r="18.5"/><circle class="cls-1" cx="1396.5" cy="433.5" r="33.5"/><circle class="cls-1" cx="1539" cy="388" r="17"/><circle class="cls-1" cx="1482" cy="44" r="8"/><ellipse class="cls-1" cx="1543" cy="240.5" rx="6" ry="6.5"/><circle class="cls-1" cx="1529.5" cy="311.5" r="7.5"/><circle class="cls-1" cx="1549" cy="514" r="11"/><circle class="cls-1" cx="1279.5" cy="391.5" r="8.5"/><circle class="cls-2" cx="1420.5" cy="561.5" r="12.5"/><circle class="cls-1" cx="1522.5" cy="636.5" r="15.5"/><circle class="cls-1" cx="1422" cy="671" r="11"/><circle class="cls-1" cx="1442.5" cy="760.5" r="9.5"/><circle class="cls-1" cx="1538" cy="797" r="16"/><circle class="cls-1" cx="1487.5" cy="867.5" r="13.5"/><circle class="cls-1" cx="1163.5" cy="852.5" r="18.5"/><circle class="cls-1" cx="1230" cy="718" r="10"/><circle class="cls-1" cx="1242" cy="48" r="12"/><circle class="cls-1" cx="789.5" cy="30.5" r="10.5"/><circle class="cls-1" cx="545" cy="48" r="12"/><circle class="cls-1" cx="594" cy="112" r="8"/><circle class="cls-1" cx="450.5" cy="260.5" r="13.5"/><circle class="cls-1" cx="296" cy="704" r="14"/><ellipse class="cls-1" cx="358" cy="569.5" rx="7" ry="7.5"/><ellipse class="cls-1" cx="83" cy="439.5" rx="9" ry="9.5"/></g><g id="Layer_2" data-name="Layer 2"><path class="cls-2" d="M501.5063,251.5117c-7.32.96-9.6,2.52-9.9594,7.92-.36,4.68-.72,8.76-.72,19.1993v47.7578h-6.72l-50.0381-59.9976V293.51a182.2854,182.2854,0,0,0,.6,18.5991c.48,5.28,3,8.04,11.8794,8.5195v4.44H416.79v-4.44c6.84-.6,9.84-2.4,10.56-8.0395.48-4.32.72-8.64.72-19.0791v-28.439c0-3.96-.24-6.6-2.52-9.72-2.16-3-5.04-3.36-10.08-3.84v-4.4394h23.399L484.5869,300.23V278.6309c0-10.44-.12-14.3995-.48-18.8394-.36-5.16-2.28-7.68-12.24-8.28v-4.4394h29.6391Z"/><path class="cls-2" d="M561.2676,275.8711c-5.76.84-6.96,2.0395-9.96,8.5195-3,6.24-6.3594,15.2393-13.3193,31.9185a364.67,364.67,0,0,0-12.7193,34.1987c-.84,2.64-2.28,3.48-4.32,3.48-4.68,0-9.48-3.48-9.48-7.68,0-1.92.72-2.88,3.24-4.44,4.68-2.64,7.9194-4.92,10.08-8.64a43.5618,43.5618,0,0,0,3-6.72,6.148,6.148,0,0,0-.4805-4.56C521.0693,304.67,513.39,288.2305,511.23,283.19s-3.6-6.48-9.3594-7.3193v-4.08h29.9986v4.08c-5.16.84-6,1.68-4.68,5.3994l9.3593,25.3193c2.64-6.6,6.96-17.64,9.12-24.3593,1.2-3.84-.36-5.3994-6.3594-6.3594v-4.08h21.959Z"/><path class="cls-2" d="M599.0669,325.0688v-4.0795c5.0395-.72,5.4-1.2,5.4-9.48V290.99c0-8.5195-4.2-11.16-8.4-11.16-3.12,0-5.76,1.2-9,3.6v29.0385c0,7.32.48,7.8,5.3994,8.52v4.0795H564.6279v-4.0795c6.24-1.08,6.96-1.2,6.96-9V287.03c0-7.2-.96-7.56-6.24-8.64v-3.84a125.28,125.28,0,0,0,21.959-4.56c-.12,1.68-.24,5.88-.24,8.64,2.4-1.68,4.92-3.48,7.68-5.16,3.6-2.16,5.88-3.12,9.3593-3.12,9.72,0,15.8394,7.08,15.8394,19.3193V312.35c0,7.44.72,7.7993,6.48,8.64v4.0795Z"/><path class="cls-2" d="M667.3452,325.0688v-4.0795c5.04-.72,5.4-1.2,5.4-9.48V290.99c0-8.5195-4.2-11.16-8.4-11.16-3.12,0-5.76,1.2-9,3.6v29.0385c0,7.32.48,7.8,5.3994,8.52v4.0795H632.9062v-4.0795c6.24-1.08,6.96-1.2,6.96-9V287.03c0-7.2-.96-7.56-6.24-8.64v-3.84a125.2811,125.2811,0,0,0,21.9589-4.56c-.12,1.68-.24,5.88-.24,8.64,2.4-1.68,4.92-3.48,7.68-5.16,3.6-2.16,5.88-3.12,9.3594-3.12,9.72,0,15.8393,7.08,15.8393,19.3193V312.35c0,7.44.72,7.7993,6.48,8.64v4.0795Z"/><path class="cls-2" d="M749.0615,313.31c-7.32,10.7993-16.9194,13.1992-21.959,13.1992-16.08,0-25.1992-11.8794-25.1992-26.1592a31.54,31.54,0,0,1,9-21.5986c5.3994-5.4,12.1192-8.4,18.7188-8.4A19.6791,19.6791,0,0,1,749.4214,289.91c0,2.04-.12,4.08-1.56,4.44-2.28.6-19.1992,1.44-30.8384,1.92.48,12.7193,7.56,19.1992,16.1993,19.1992a20.6907,20.6907,0,0,0,13.6792-5.4ZM727.2227,275.271c-4.8,0-8.88,5.64-9.6,15.1191,4.9195-.12,9.4795-.24,14.5191-.36,1.68-.12,2.4-.36,2.4-2.4C734.6621,281.6309,731.9023,275.271,727.2227,275.271Z"/><path class="cls-2" d="M839.1787,266.9912c-1.3193-4.56-3.2392-9-5.28-11.2793-2.5195-2.64-4.0791-3.12-9.8388-3.12h-9c-4.0791,0-4.56.24-4.56,4.32V283.07h12.84c7.0791,0,8.0391-1.8,9.84-10.1992h4.4394V299.51h-4.5605c-1.3193-8.16-3.1191-10.1993-9.7188-10.1993H810.5v18.7188c0,11.04.72,11.88,11.5195,12.6v4.44H783.6211v-4.44c9.12-.84,10.2-1.56,10.2-12.6V263.8711c0-10.6792-1.08-11.6392-10.2-12.3594v-4.4394h40.6777c10.32,0,16.32-.12,18.24-.24.1191,2.04.72,12.3594,1.3193,19.44Z"/><path class="cls-2" d="M878.4189,325.0688H846.74v-4.0795c6.3594-.72,6.96-1.32,6.96-8.52V286.19c0-6-.48-6.6-6.12-7.8v-3.72a115.5487,115.5487,0,0,0,21.6-4.56V283.07c5.3994-8.2793,9.72-12.7192,14.6387-12.7192,4.44,0,7.8007,3,7.8007,7.2a11.6673,11.6673,0,0,1-6.12,10.2,3.299,3.299,0,0,1-3.72-.6c-2.04-1.68-3.6-3.6-5.6406-3.6-1.7989,0-4.7989,1.56-6.959,6.12v22.7988c0,7.2.84,7.56,9.2392,8.52Z"/><path class="cls-2" d="M935.6582,326.5088a11.05,11.05,0,0,1-7.4394-2.52,12.0792,12.0792,0,0,1-3.1192-4.44c-4.5605,3-10.4394,6.96-12.72,6.96-10.3194,0-16.3194-8.04-16.3194-15.48,0-6.3594,2.88-9.2393,9.2393-11.7593,7.08-2.64,16.56-5.52,19.3193-7.92v-5.28c0-6.24-2.2793-9.72-7.4394-9.72a5.9049,5.9049,0,0,0-4.8,2.4c-1.44,1.92-1.92,4.3193-2.88,7.9194-.84,3.24-2.76,4.08-5.16,4.08-3.1191,0-7.08-2.88-7.08-6.2393,0-2.16,1.44-3.72,4.2-5.64a59.0632,59.0632,0,0,1,19.1992-8.52,21.073,21.073,0,0,1,12.3594,3.48c5.16,3.6,6.6005,8.64,6.6005,14.7592V309.35c0,5.76,1.92,7.2,3.84,7.2a9.0024,9.0024,0,0,0,3.7187-.96l1.32,4.0795ZM924.6191,296.27c-2.16,1.2-4.32,2.4-6.72,3.72-3.72,1.92-5.88,4.08-5.88,8.16,0,6.72,4.68,9.12,7.32,9.12a6.7612,6.7612,0,0,0,5.2793-1.92Z"/><path class="cls-2" d="M986.6592,325.0688v-4.0795c5.04-.72,5.3994-1.2,5.3994-9.48V290.99c0-8.5195-4.1992-11.16-8.3994-11.16-3.12,0-5.76,1.2-8.999,3.6v29.0385c0,7.32.4794,7.8,5.3994,8.52v4.0795H952.2207v-4.0795c6.2393-1.08,6.959-1.2,6.959-9V287.03c0-7.2-.959-7.56-6.2393-8.64v-3.84a125.2708,125.2708,0,0,0,21.959-4.56c-.12,1.68-.2392,5.88-.2392,8.64,2.3994-1.68,4.9189-3.48,7.68-5.16,3.6-2.16,5.879-3.12,9.3594-3.12,9.7188,0,15.8389,7.08,15.8389,19.3193V312.35c0,7.44.72,7.7993,6.48,8.64v4.0795Z"/><path class="cls-2" d="M1082.7754,321.9492c-2.88.4795-13.92,1.92-23.5195,4.68v-6.96c-2.1592,1.44-5.1592,3.24-7.3194,4.68-2.88,1.8-4.68,2.16-5.999,2.16-10.2,0-24.72-8.76-24.72-26.6387,0-16.4394,14.5195-29.519,33.2392-29.519a26.998,26.998,0,0,1,4.7989.36V256.9116c0-6.36-.6-6.96-8.0391-7.9194v-3.96a165.8342,165.8342,0,0,0,23.6387-4.08v68.9971c0,6.48.7207,7.08,5.28,7.68l2.64.36Zm-23.5195-40.1987a9.3278,9.3278,0,0,0-8.9991-6c-3.72,0-11.76,2.52-11.76,19.9189,0,15.72,8.76,21.48,14.1591,21.5991a11.0333,11.0333,0,0,0,6.6-2.04Z"/><path class="cls-2" d="M1121.415,287.3906c-3.12-8.4-7.1992-12.24-12.8388-12.24a6.1759,6.1759,0,0,0-6.36,6.36c0,4.2,3,6.48,9.2393,9.2393,9.72,4.32,16.32,8.4,16.32,17.8794,0,12-11.4,17.8794-21.84,17.8794a39.7745,39.7745,0,0,1-15.2392-3.6c-.48-2.76-1.56-11.04-1.92-15.24l3.96-.72c2.52,7.56,7.4395,14.6392,15.2393,14.6392,4.56,0,6.84-2.76,6.84-6.24,0-3.72-1.8-6.48-9.2392-10.08-7.92-3.84-15.6-8.0395-15.6-17.999,0-9.48,7.8-16.9194,20.52-16.9194a55.3024,55.3024,0,0,1,12.959,1.8c.36,3.24,1.4394,10.9194,1.92,14.16Z"/><path class="cls-2" d="M1183.5732,313.31c-7.3193,10.7993-16.9189,13.1992-21.9589,13.1992-16.0791,0-25.1993-11.8794-25.1993-26.1592a31.54,31.54,0,0,1,9-21.5986c5.3995-5.4,12.1192-8.4,18.7188-8.4a19.68,19.68,0,0,1,19.8,19.5591c0,2.04-.12,4.08-1.5606,4.44-2.2792.6-19.1992,1.44-30.8388,1.92.48,12.7193,7.56,19.1992,16.2,19.1992a20.6893,20.6893,0,0,0,13.6787-5.4Zm-21.8388-38.0386c-4.8,0-8.88,5.64-9.6,15.1191,4.92-.12,9.4795-.24,14.5195-.36,1.68-.12,2.3994-.36,2.3994-2.4C1169.1738,281.6309,1166.4141,275.271,1161.7344,275.271Z"/><path class="cls-2" d="M1225.6914,325.0688v-4.0795c5.04-.72,5.4-1.2,5.4-9.48V290.99c0-8.5195-4.2-11.16-8.4-11.16-3.1191,0-5.76,1.2-8.999,3.6v29.0385c0,7.32.48,7.8,5.3994,8.52v4.0795h-27.8389v-4.0795c6.24-1.08,6.96-1.2,6.96-9V287.03c0-7.2-.96-7.56-6.24-8.64v-3.84a125.2825,125.2825,0,0,0,21.96-4.56c-.12,1.68-.24,5.88-.24,8.64,2.3994-1.68,4.92-3.48,7.68-5.16,3.6-2.16,5.88-3.12,9.3593-3.12,9.72,0,15.84,7.08,15.84,19.3193V312.35c0,7.44.72,7.7993,6.4795,8.64v4.0795Z"/><path class="cls-3" d="M430.9419,553.69v-2.7081c6.248-.64,6.5923-1.1718,6.564-8.8486l-.024-31.7041c-6.04,14.0684-13.8442,31.9561-18.5683,43.2608H416.47c-4.3325-11.0245-11.1885-28.3965-17.06-42.5655-1.1519,26.1289-1.18,31.5655-1.18,33.9688.08,4.3769,1.82,5.3281,7.6245,5.8886V553.69H386.3208v-2.7081c4.5884-.4277,6.6123-1.3359,7.2524-5.9677.376-2.793.6119-6.7647,2.5357-34.1455.2681-3.9522-.376-5.8321-7.312-6.4717v-2.708h16.1045l16.2241,37.1289L437.85,501.6885h15.8726v2.708c-6.5684.6963-7.3443,1.3642-7.1846,7.4844l.5283,30.2519c.1641,7.6768.4561,8.0244,7.1318,8.8486V553.69Z"/><path class="cls-3" d="M496.7383,551.7979a139.4086,139.4086,0,0,0-14.1646,2.8515V548.957c-3.644,3.0284-7.06,5.6924-11.46,5.6924-6.2447,0-10.3125-3.956-10.3125-11.6357V526.8164c0-3.9033-.5362-4.332-2.64-4.8359l-1.8759-.4522v-2.3916c3.8559-.16,9.8125-.8037,13.6762-1.3877-.188,3.08-.24,7.128-.24,11.9395v11.4c0,5.8447,3.0039,7.6884,6.084,7.6884a9.009,9.009,0,0,0,6.768-2.8525V526.8691c0-3.9043-.5962-4.5166-3.0039-4.916l-2.456-.4248v-2.3916a143.0683,143.0683,0,0,0,14.4321-1.3877v26.3321c0,4.1044.5361,4.872,3.2642,5.0839l1.9282.1319Z"/><path class="cls-3" d="M499.8281,553.69v-2.5518c4.7559-.6367,5.084-1.0361,5.084-6.16V507.9043c0-4.4121-.4521-4.8916-4.9482-5.6885v-2.3916a73.5732,73.5732,0,0,0,13.8686-2.72v47.873c0,5.28.3237,5.628,5.1079,6.16V553.69Z"/><path class="cls-3" d="M539.0522,553.7139a8.4809,8.4809,0,0,1-3.2841.9355c-5.7959,0-9.14-2.9639-9.14-9.9365V522.0566h-5.26l-.4244-.96,2.2642-2.7881h3.42v-6.668c2.3-1.8086,5.66-4.2,8.0122-6.0078l1.0962.4717c-.1079,2.58-.24,6.96-.188,12.2041H543.94c.72.8.4283,3.0283-.584,3.748h-7.8081v19.9082c0,6.3243,2.56,7.2129,4.2759,7.2129a10.4945,10.4945,0,0,0,4.2041-.9687l.772,2.6006Z"/><path class="cls-3" d="M547.8931,553.69v-2.5518c4.5722-.5322,5.08-.88,5.08-6.4766V528.7529c0-5.22-.3437-5.54-4.4682-6.1318v-2.3887a74.0747,74.0747,0,0,0,13.3887-2.9922v27.4209c0,5.44.4038,5.9444,5.24,6.4766V553.69Zm8.9961-42.3653a5.3172,5.3172,0,0,1-5.2281-5.1758,5.24,5.24,0,0,1,5.3081-5.2324,5.1118,5.1118,0,0,1,5.1724,5.2324A5.2162,5.2162,0,0,1,556.8892,511.3242Z"/><path class="cls-3" d="M614.9771,553.69v-2.5518c3.7319-.4805,4.2919-.8008,4.2919-5.9326V531.5332c0-6.3047-2.7-8.3447-6.0483-8.3447-2.104,0-4.28.9-6.9561,3.0683.08.96.188,2.0762.188,3.3877v15.9366c0,4.6767.4082,5.0761,4.34,5.5566V553.69H593.1006v-2.5518c4.0239-.4805,4.4839-.7481,4.4839-5.6123v-14.28c0-5.7646-2.1-8.1084-5.732-8.1084-2.42,0-4.76,1.2237-7.0844,3.0156v19.3731c0,4.76.5083,5.1318,4.0283,5.6123V553.69H570.8677v-2.5518c4.7085-.5322,5.0322-.8525,5.0322-5.82v-16.82c0-4.7041-.1641-5.2842-4.1763-5.9287v-2.3633a67.4654,67.4654,0,0,0,13.0445-3.0967v6.168c1.7319-1.2276,3.2563-2.38,5.2441-3.5879,2.312-1.4356,4.1763-2.34,6.6323-2.34,4.2559,0,7.3282,2.4,8.876,6.2481,2.0322-1.5518,3.8-2.7559,5.8-4.1162a12.2072,12.2072,0,0,1,6.3721-2.1319c6.708,0,10.4443,4.6358,10.4443,12.6846v15.4922c0,4.7363.4277,5.0283,4.5723,5.6123V553.69Z"/><path class="cls-3" d="M668.1475,546.2129c-4.9644,6.9209-11.0845,8.4365-14.1646,8.4365-10.3843,0-16.4082-7.9482-16.4082-17.3564a20.8581,20.8581,0,0,1,5.72-14.26,17.3679,17.3679,0,0,1,12.2847-5.6846,12.895,12.895,0,0,1,12.8643,12.8164c-.0284,1.4444-.1641,2.58-1.2364,2.8477-1.5478.3721-12.4643.9883-20.84,1.3086.124,9.2637,5.4883,13.6123,11.22,13.6123a13.685,13.685,0,0,0,9.1763-3.7686Zm-14.2808-25.668c-3.3677,0-6.396,3.6475-7.1,10.0244,3.7-.0527,7.2441-.1045,11.0806-.24,1.2319-.0518,1.7119-.2959,1.7119-1.6006C659.6392,524.6445,657.4629,520.5449,653.8667,520.5449Z"/><path class="cls-3" d="M714.6548,551.6377a114.6628,114.6628,0,0,0-14.5327,3.0635v-4.836c-1.44.9327-3.4678,2.1045-4.9077,3.0362a9.8168,9.8168,0,0,1-4.8121,1.748c-6.66,0-15.92-6.0361-15.92-17.7041,0-11.0166,9.708-19.5967,21.6563-19.5967a16.0952,16.0952,0,0,1,3.9839.4639V507.7168c0-4.5488-.4556-4.8643-5.668-5.4482v-2.4444a99.5084,99.5084,0,0,0,14.6406-2.72V543.89c0,4.2637.5078,4.6641,3.52,5.0362l2.04.2119Zm-14.5327-26.8291a7.4755,7.4755,0,0,0-6.84-4.0283c-2.956,0-8.82,1.9883-8.82,13.56,0,10.2,5.896,14.4883,10.0283,14.5684a9.9547,9.9547,0,0,0,5.6319-1.8916Z"/><path class="cls-3" d="M717.9966,553.69v-2.5518c4.5722-.5322,5.08-.88,5.08-6.4766V528.7529c0-5.22-.3438-5.54-4.4683-6.1318v-2.3887a74.0747,74.0747,0,0,0,13.3887-2.9922v27.4209c0,5.44.4038,5.9444,5.24,6.4766V553.69Zm8.9961-42.3653a5.3172,5.3172,0,0,1-5.2281-5.1758,5.24,5.24,0,0,1,5.3082-5.2324,5.1118,5.1118,0,0,1,5.1723,5.2324A5.2162,5.2162,0,0,1,726.9927,511.3242Z"/><path class="cls-3" d="M772.1406,546.2129c-4.9643,6.9209-11.0844,8.4365-14.1645,8.4365-10.3843,0-16.4082-7.9482-16.4082-17.3564a20.8581,20.8581,0,0,1,5.72-14.26,17.3679,17.3679,0,0,1,12.2847-5.6846,12.8949,12.8949,0,0,1,12.8642,12.8164c-.0283,1.4444-.164,2.58-1.2363,2.8477-1.5479.3721-12.4644.9883-20.84,1.3086.124,9.2637,5.4882,13.6123,11.22,13.6123a13.6849,13.6849,0,0,0,9.1762-3.7686ZM757.86,520.5449c-3.3677,0-6.396,3.6475-7.1,10.0244,3.7-.0527,7.2441-.1045,11.08-.24,1.232-.0518,1.7119-.2959,1.7119-1.6006C763.6323,524.6445,761.4561,520.5449,757.86,520.5449Z"/><path class="cls-3" d="M818.6465,551.6377a114.66,114.66,0,0,0-14.5322,3.0635v-4.836c-1.44.9327-3.4678,2.1045-4.9078,3.0362a9.8165,9.8165,0,0,1-4.812,1.748c-6.66,0-15.92-6.0361-15.92-17.7041,0-11.0166,9.708-19.5967,21.6563-19.5967a16.0952,16.0952,0,0,1,3.9839.4639V507.7168c0-4.5488-.4561-4.8643-5.668-5.4482v-2.4444a99.4959,99.4959,0,0,0,14.6406-2.72V543.89c0,4.2637.5078,4.6641,3.52,5.0362l2.0391.2119Zm-14.5322-26.8291a7.4755,7.4755,0,0,0-6.84-4.0283c-2.956,0-8.82,1.9883-8.82,13.56,0,10.2,5.896,14.4883,10.0283,14.5684a9.9538,9.9538,0,0,0,5.6319-1.8916Z"/><path class="cls-3" d="M853.2061,546.2129c-4.9639,6.9209-11.085,8.4365-14.1651,8.4365-10.3838,0-16.4082-7.9482-16.4082-17.3564a20.8589,20.8589,0,0,1,5.7207-14.26,17.366,17.366,0,0,1,12.2842-5.6846A12.895,12.895,0,0,1,853.502,530.165c-.0284,1.4444-.1641,2.58-1.2364,2.8477-1.5478.3721-12.4648.9883-20.84,1.3086.123,9.2637,5.4883,13.6123,11.22,13.6123a13.6852,13.6852,0,0,0,9.1768-3.7686Zm-14.28-25.668c-3.3682,0-6.3965,3.6475-7.1006,10.0244,3.7-.0527,7.2441-.1045,11.081-.24,1.2315-.0518,1.711-.2959,1.711-1.6006C844.6973,524.6445,842.5215,520.5449,838.9258,520.5449Z"/><path class="cls-3" d="M880.5234,528.4c-1.8554-5.2637-4.4082-8.0479-8.56-8.0479a4.4184,4.4184,0,0,0-4.5479,4.5762c0,3.0518,2.2236,4.6279,6.4395,6.4961,6.5088,2.88,10.6845,5.544,10.6845,11.584,0,7.7764-7.292,11.6406-14.0283,11.6406a24.3091,24.3091,0,0,1-9.9355-2.3721c-.3487-2.0078-1.0684-7.1923-1.336-9.9365l2.5274-.4512c1.5957,5.0674,4.708,9.6758,10.0488,9.6758,3.0391,0,4.9795-1.9238,4.9795-4.6084,0-2.872-1.5361-4.74-6.3-6.9716-5.252-2.504-10.3731-5.2481-10.3731-11.6924,0-6.1524,5.1729-10.9444,13.3165-10.9444a38.607,38.607,0,0,1,8.3613,1.1436c.2392,2.0762.9033,7.1689,1.2519,9.2451Z"/><path class="cls-3" d="M889.2949,553.69v-2.5518c4.5723-.5322,5.08-.88,5.08-6.4766V528.7529c0-5.22-.3438-5.54-4.4688-6.1318v-2.3887a74.0709,74.0709,0,0,0,13.3887-2.9922v27.4209c0,5.44.4043,5.9444,5.24,6.4766V553.69Zm8.9961-42.3653a5.3176,5.3176,0,0,1-5.2285-5.1758,5.24,5.24,0,0,1,5.3086-5.2324,5.112,5.112,0,0,1,5.1719,5.2324A5.2164,5.2164,0,0,1,898.291,511.3242Z"/><path class="cls-3" d="M924.0381,541.4893a5.0219,5.0219,0,0,0-1.86,3.1679c0,1.336,1.4121,3.04,5.168,3.04,2.7,0,5.6963-.1319,8.3359-.1319,4.9649,0,12.0967,1.42,12.0967,9.6,0,8.9444-10.62,16.4209-21.2607,16.4209-9.9756,0-14.752-5.1757-14.8086-9.6884a5.75,5.75,0,0,1,2.2607-4.4561c1.86-1.5762,4.3037-3.3838,6.1963-4.668a11.1066,11.1066,0,0,1-6-4.372,6.9179,6.9179,0,0,1-1.168-4.0645,21.57,21.57,0,0,0,8.1915-5.7275Zm3.84.8c-8.5322,0-14.5361-4.7676-14.5361-12.08,0-8.8086,8.2637-12.9444,15.1289-12.9444a18.3989,18.3989,0,0,1,8.5635,2.0518,57.0494,57.0494,0,0,0,10.9287-1.1475l.4277.668c-.48,1.3838-1.6035,3.8838-2.96,4.708-1.3037,0-3.6846-.32-4.8037-.4a10.693,10.693,0,0,1,2.06,6.8125C942.6865,538.209,935.3828,542.2891,927.8779,542.2891Zm1.2686,12.7246c-4.0244,0-5.8887.48-7.1211,1.6279-1.5635,1.4238-2.7988,3.252-2.7988,5.1563,0,4.2959,4.1953,7.5761,10.8242,7.5761,6.664,0,10.6719-3.4,10.6719-8a5.5822,5.5822,0,0,0-4.0918-5.5283A24.2517,24.2517,0,0,0,929.1465,555.0137Zm-1.2168-34.877c-2.8711,0-5.6035,3.0723-5.6035,9.08,0,5.748,2.3164,10.2,6.3,10.2,3.2607-.0557,5.4961-3.2236,5.4961-9.2363C934.1221,524.7207,931.9941,520.1367,927.93,520.1367Z"/><path class="cls-3" d="M974.0039,553.69v-2.5518c3.8086-.4805,4.1328-.8848,4.1328-6.376V531.249c0-5.6523-2.52-8.1123-6.1885-8.1123-2.5,0-4.7363,1.1924-7.0087,3.0156v19.1368c0,5.1045.3769,5.3681,4.16,5.8486V553.69H950.9883v-2.5518c4.5508-.6641,5.0312-.8281,5.0312-6.0566v-16.584c0-4.9405-.6113-5.1807-4.4121-5.9v-2.3916a68.7587,68.7587,0,0,0,13.4365-3.0967c-.0517,1.3721-.1044,4.0879-.1044,5.9561,1.6005-1.12,3.3085-2.3194,5.2324-3.5235,2.3437-1.44,4.06-2.1924,6.3808-2.1924,6.4512,0,10.5039,4.72,10.5039,12.74v15.1484c0,5.1279.4805,5.3682,4.6,5.9V553.69Z"/><path class="cls-3" d="M1013.5137,520.0928a95.6687,95.6687,0,0,0,13.6289-3.544v5.9844c.1875-.1084,5.8076-3.4248,6.0752-3.5322a10.5226,10.5226,0,0,1,5.0049-1.6524c8.8,0,13.9511,7.8282,13.9511,15.5928,0,11.8477-9.3916,19.58-19.7676,21.708a14.0661,14.0661,0,0,1-5.2636-.9717v10.02c0,4.9843.4834,5.4648,6.2275,6.1289v2.5h-20.5732v-2.5c4.9922-.5088,5.4248-1.1162,5.4248-5.8526V528.041c0-4.4883-.3682-4.9121-4.708-5.4765Zm13.6289,27.6728a11.1675,11.1675,0,0,0,6.9238,3.0156c5.1914,0,8.7871-5.4238,8.7871-14.1757,0-9.4209-4.9355-13.5723-9.5234-13.5723a11.1874,11.1874,0,0,0-6.1875,2.3477Z"/><path class="cls-3" d="M1077.2324,517.3486c10.8321,0,18.0645,8.1719,18.0645,18.0244,0,12.9082-9.3926,19.2764-18.2725,19.2764a18.0009,18.0009,0,0,1-18.54-18.2568A18.6629,18.6629,0,0,1,1077.2324,517.3486Zm-.96,3.0323c-3.9444,0-7.668,3.9921-7.668,13.6357,0,10.0049,3.7,17.52,9.2725,17.52,3.7119,0,7.3-2.6113,7.3-14.04C1085.1768,526.9932,1081.9609,520.3809,1076.2725,520.3809Z"/><path class="cls-3" d="M1120.7031,553.69h-20.1679v-2.5518c4.5195-.4805,4.9472-.88,4.9472-5.82V528.1045c0-4.4473-.3193-4.792-4.3877-5.5078v-2.3115a64.1333,64.1333,0,0,0,13.3086-3.125v8.6962c3.3194-5.0439,6.3682-8.5078,9.8994-8.5078,2.961,0,5.0049,1.9444,5.0049,4.4639a6.9571,6.9571,0,0,1-3.6045,5.96,1.9769,1.9769,0,0,1-2.34-.3155c-1.3037-1.1484-2.3164-2.26-3.7041-2.26-1.3682,0-3.7041,1.5439-5.2559,4.9472v15.1446c0,4.9687.5039,5.2646,6.3,5.8486Z"/><path class="cls-3" d="M1150.9648,553.7139a8.4772,8.4772,0,0,1-3.2832.9355c-5.7968,0-9.1406-2.9639-9.1406-9.9365V522.0566h-5.26l-.4238-.96,2.2637-2.7881h3.42v-6.668c2.3008-1.8086,5.66-4.2,8.0117-6.0078l1.0967.4717c-.1084,2.58-.24,6.96-.1885,12.2041h8.3926c.7207.8.4277,3.0283-.584,3.748h-7.8086v19.9082c0,6.3243,2.5606,7.2129,4.2764,7.2129a10.4965,10.4965,0,0,0,4.2041-.9687l.7715,2.6006Z"/><path class="cls-3" d="M1164.4854,518.3086v-1.8477a19.9429,19.9429,0,0,1,7.4042-15.1689,17.5629,17.5629,0,0,1,9.5323-4.1875,9.7188,9.7188,0,0,1,6.792,2.3516,3.016,3.016,0,0,1,.6357,3.32,6.4045,6.4045,0,0,1-2.5439,3.1836,2.0389,2.0389,0,0,1-2.7354-.1592c-1.8086-1.8047-4.1523-4.1123-6.5332-4.1123-3.4756,0-3.6836,4.2314-3.6309,13.0683v3.5518h7.752c.375.7725.0273,3.1357-1.0078,3.748h-6.7442V544.97c0,5.2393.6719,5.5274,6.1,6.168V553.69H1159.457v-2.5518c4.6758-.584,5.0284-.9561,5.0284-6V522.0566h-5.42l-.372-.9843,1.9677-2.7637Z"/><path class="cls-3" d="M1203.4355,517.3486c10.8331,0,18.0645,8.1719,18.0645,18.0244,0,12.9082-9.3916,19.2764-18.2715,19.2764a18.0012,18.0012,0,0,1-18.541-18.2568A18.6635,18.6635,0,0,1,1203.4355,517.3486Zm-.9589,3.0323c-3.9444,0-7.668,3.9921-7.668,13.6357,0,10.0049,3.6992,17.52,9.2715,17.52,3.7129,0,7.3008-2.6113,7.3008-14.04C1211.3809,526.9932,1208.1641,520.3809,1202.4766,520.3809Z"/><path class="cls-3" d="M1226.2266,553.69v-2.5518c4.7558-.6367,5.0839-1.0361,5.0839-6.16V507.9043c0-4.4121-.4531-4.8916-4.9492-5.6885v-2.3916a73.58,73.58,0,0,0,13.8692-2.72v47.873c0,5.28.3242,5.628,5.1074,6.16V553.69Z"/><path class="cls-3" d="M1249.1855,553.69v-2.5518c4.5723-.5322,5.08-.88,5.08-6.4766V528.7529c0-5.22-.3437-5.54-4.4687-6.1318v-2.3887a74.0717,74.0717,0,0,0,13.3886-2.9922v27.4209c0,5.44.4043,5.9444,5.24,6.4766V553.69Zm8.9961-42.3653a5.3177,5.3177,0,0,1-5.2285-5.1758,5.24,5.24,0,0,1,5.3086-5.2324,5.1114,5.1114,0,0,1,5.1719,5.2324A5.2158,5.2158,0,0,1,1258.1816,511.3242Z"/><path class="cls-3" d="M1291.5049,517.3486c10.833,0,18.0644,8.1719,18.0644,18.0244,0,12.9082-9.3916,19.2764-18.2724,19.2764a18,18,0,0,1-18.54-18.2568A18.6635,18.6635,0,0,1,1291.5049,517.3486Zm-.96,3.0323c-3.9433,0-7.6679,3.9921-7.6679,13.6357,0,10.0049,3.7,17.52,9.2714,17.52,3.7129,0,7.3008-2.6113,7.3008-14.04C1299.4492,526.9932,1296.2334,520.3809,1290.5449,520.3809Z"/><path class="cls-3" d="M353.6934,612.2812a31.5838,31.5838,0,0,1-.6329,6.24,27.9941,27.9941,0,0,1-2.0742,6.2578,25.5123,25.5123,0,0,1-3.8847,5.9414,27.3589,27.3589,0,0,1-5.8536,5.0449,23.7484,23.7484,0,0,1-6.7148,2.9356,37.0752,37.0752,0,0,1-6.75,1.16q-3.1992.2286-7.3477.2285H301.4863l1.02-3.2343a4.1763,4.1763,0,0,0,3.5507-1.3535,13.17,13.17,0,0,0,1.8282-3.99l9.1054-29.4961a13.9523,13.9523,0,0,0,.6328-3.0937q0-2.0391-1.2656-2.6016a9.1571,9.1571,0,0,0-3.1992-.668l.9492-3.2343h16.77a49.7425,49.7425,0,0,1,7.2421.457,17.1143,17.1143,0,0,1,6.0821,2.2148q5.8008,3.27,7.6465,7.9454A25.05,25.05,0,0,1,353.6934,612.2812Zm-10.16-3.164a17.6664,17.6664,0,0,0-1.1777-7.0137,9.2177,9.2177,0,0,0-3.0762-4.0078,10.8461,10.8461,0,0,0-4.1484-1.7578,25.7138,25.7138,0,0,0-4.9219-.4395h-1.7227l-10.5117,34.3125a17.636,17.636,0,0,0-.6328,3.0235q0,3.41,5.9766,3.41a15.6581,15.6581,0,0,0,10.4765-3.48,24.44,24.44,0,0,0,6.5742-9.211,36.8153,36.8153,0,0,0,2.4961-8.4726A43.3077,43.3077,0,0,0,343.5332,609.1172Z"/><path class="cls-3" d="M387.127,616.1133a8.0383,8.0383,0,0,1-.879,3.3222,13.21,13.21,0,0,1-3.2168,3.99,20.7849,20.7849,0,0,1-6.68,3.7265,42.8328,42.8328,0,0,1-10.9161,2.2149l-.8437.07a13.29,13.29,0,0,0-.2813,2.6016,4.871,4.871,0,0,0,1.2481,3.7441,5.2092,5.2092,0,0,0,3.6387,1.1426q5.2734,0,10.09-5.6953h3.7266a26.66,26.66,0,0,1-6.6094,6.6093,17.2114,17.2114,0,0,1-10.5117,3.27,11.6513,11.6513,0,0,1-7.2246-2.2676,7.826,7.826,0,0,1-3.0059-6.6621,20.3755,20.3755,0,0,1,2.9883-10.459,23.7149,23.7149,0,0,1,8.1562-8.2617,21.0584,21.0584,0,0,1,11.25-3.1817q4.8861,0,6.9786,1.6524A5.115,5.115,0,0,1,387.127,616.1133Zm-7.418-.1406a3.241,3.241,0,0,0-.8086-2.127,2.7348,2.7348,0,0,0-2.2149-.9668,6.9215,6.9215,0,0,0-4.5175,1.7051,15.8651,15.8651,0,0,0-3.4629,4.0254,28.1792,28.1792,0,0,0-2.3028,4.7109l-1.1074,2.9531q7.1367-1.1952,10.7754-4.0429T379.709,615.9727Z"/><path class="cls-3" d="M412.8965,611.2969l-.9844,3.2343H404.916l-5.3086,17.3672a10.1582,10.1582,0,0,0-.5976,2.7071,2.1146,2.1146,0,0,0,.4922,1.3535,1.515,1.515,0,0,0,1.23.6152,4.4846,4.4846,0,0,0,3.586-1.9863,29.4751,29.4751,0,0,0,2.7773-4.3067H410.4a22.4361,22.4361,0,0,1-4.4473,6.8028,13.6159,13.6159,0,0,1-4.6406,3.2344,11.6086,11.6086,0,0,1-3.9551.791,6.2218,6.2218,0,0,1-4.7109-1.7578,6.4686,6.4686,0,0,1-1.6875-4.6758,19.8926,19.8926,0,0,1,1.0547-5.4492l4.57-14.6954H390.01l1.0195-3.2343h6.5391l3.2343-10.7227H409.17l-3.2344,10.7227Z"/><path class="cls-3" d="M436.873,611.2969l-.9843,3.2343h-6.9961l-5.3086,17.3672a10.1594,10.1594,0,0,0-.5977,2.7071,2.1151,2.1151,0,0,0,.4922,1.3535,1.5152,1.5152,0,0,0,1.2305.6152,4.4843,4.4843,0,0,0,3.5859-1.9863,29.4673,29.4673,0,0,0,2.7774-4.3067h3.3047a22.438,22.438,0,0,1-4.4473,6.8028,13.6168,13.6168,0,0,1-4.6406,3.2344,11.6086,11.6086,0,0,1-3.9551.791,6.222,6.222,0,0,1-4.711-1.7578,6.4686,6.4686,0,0,1-1.6875-4.6758,19.8964,19.8964,0,0,1,1.0547-5.4492l4.57-14.6954h-6.5742l1.02-3.2343h6.539l3.2344-10.7227h8.3672l-3.2344,10.7227Z"/><path class="cls-3" d="M468.8652,616.1133a8.0379,8.0379,0,0,1-.8789,3.3222,13.21,13.21,0,0,1-3.2168,3.99,20.7855,20.7855,0,0,1-6.68,3.7265,42.831,42.831,0,0,1-10.916,2.2149l-.8437.07a13.29,13.29,0,0,0-.2813,2.6016,4.8707,4.8707,0,0,0,1.2481,3.7441,5.2091,5.2091,0,0,0,3.6386,1.1426q5.2735,0,10.09-5.6953h3.7266a26.6618,26.6618,0,0,1-6.6094,6.6093,17.2116,17.2116,0,0,1-10.5117,3.27,11.6518,11.6518,0,0,1-7.2247-2.2676A7.8259,7.8259,0,0,1,437.4,632.18a20.3755,20.3755,0,0,1,2.9883-10.459,23.7149,23.7149,0,0,1,8.1562-8.2617,21.0579,21.0579,0,0,1,11.25-3.1817q4.886,0,6.9785,1.6524A5.1147,5.1147,0,0,1,468.8652,616.1133Zm-7.4179-.1406a3.2415,3.2415,0,0,0-.8086-2.127,2.735,2.735,0,0,0-2.2149-.9668,6.9218,6.9218,0,0,0-4.5176,1.7051,15.8667,15.8667,0,0,0-3.4628,4.0254,28.1792,28.1792,0,0,0-2.3028,4.7109l-1.1074,2.9531q7.1367-1.1952,10.7754-4.0429T461.4473,615.9727Z"/><path class="cls-3" d="M520.65,616.1133a8.04,8.04,0,0,1-.8789,3.3222,13.2118,13.2118,0,0,1-3.2168,3.99,20.7866,20.7866,0,0,1-6.68,3.7265,42.8319,42.8319,0,0,1-10.916,2.2149l-.8438.07a13.29,13.29,0,0,0-.2812,2.6016,4.871,4.871,0,0,0,1.248,3.7441,5.21,5.21,0,0,0,3.6387,1.1426q5.2734,0,10.09-5.6953h3.7266a26.6583,26.6583,0,0,1-6.6094,6.6093,17.2114,17.2114,0,0,1-10.5117,3.27,11.6513,11.6513,0,0,1-7.2246-2.2676,7.826,7.826,0,0,1-3.0059-6.6621,20.3755,20.3755,0,0,1,2.9883-10.459,23.7152,23.7152,0,0,1,8.1563-8.2617,21.0579,21.0579,0,0,1,11.25-3.1817q4.8859,0,6.9785,1.6524A5.115,5.115,0,0,1,520.65,616.1133Zm-7.418-.1406a3.241,3.241,0,0,0-.8086-2.127,2.7346,2.7346,0,0,0-2.2148-.9668,6.9218,6.9218,0,0,0-4.5176,1.7051,15.8651,15.8651,0,0,0-3.4629,4.0254,28.1709,28.1709,0,0,0-2.3027,4.7109l-1.1074,2.9531q7.1367-1.1952,10.7754-4.0429T513.2324,615.9727Z"/><path class="cls-3" d="M554.4355,614.8828a6.5262,6.5262,0,0,1-1.23,3.92,3.69,3.69,0,0,1-3.0938,1.7051,4.1421,4.1421,0,0,1-3.0937-1.8633,2.2614,2.2614,0,0,0-1.6524-1.09q-.9492,0-2.6015,1.7754a27.3664,27.3664,0,0,0-3.3926,4.7285,65.842,65.842,0,0,0-3.4277,6.7676,70.3534,70.3534,0,0,0-2.918,7.8222l-.4219,1.4414h-8.2617l5.5195-19.7226a16.2176,16.2176,0,0,0,.8789-3.9727,1.5753,1.5753,0,0,0-.2461-.8261.8394.8394,0,0,0-.7734-.4043q-1.3711,0-2.7773,1.916a19.3447,19.3447,0,0,0-2.1094,3.498H521.6a26.0816,26.0816,0,0,1,4.166-6.31,13.3909,13.3909,0,0,1,4.1133-3.1114,9.0187,9.0187,0,0,1,3.6035-.8789q2.8125,0,3.6387,1.7579a8.07,8.07,0,0,1,.8262,3.4453q0,3.0585-1.9688,9.6328,2.004-3.4453,3.2871-5.5195a43.45,43.45,0,0,1,3.0586-4.2891,18.7522,18.7522,0,0,1,3.7617-3.6211,6.7355,6.7355,0,0,1,3.8848-1.4063q2.7071,0,3.5859,1.5293A6.1252,6.1252,0,0,1,554.4355,614.8828Z"/><path class="cls-3" d="M603.9707,616.1133a8.04,8.04,0,0,1-.8789,3.3222,13.21,13.21,0,0,1-3.2168,3.99,20.7866,20.7866,0,0,1-6.68,3.7265,42.8319,42.8319,0,0,1-10.916,2.2149l-.8438.07a13.2975,13.2975,0,0,0-.2812,2.6016,4.871,4.871,0,0,0,1.248,3.7441,5.21,5.21,0,0,0,3.6387,1.1426q5.2734,0,10.09-5.6953h3.7265a26.6583,26.6583,0,0,1-6.6094,6.6093,17.2114,17.2114,0,0,1-10.5117,3.27,11.6513,11.6513,0,0,1-7.2246-2.2676,7.8259,7.8259,0,0,1-3.0058-6.6621,20.3763,20.3763,0,0,1,2.9882-10.459,23.7152,23.7152,0,0,1,8.1563-8.2617,21.0579,21.0579,0,0,1,11.25-3.1817q4.8859,0,6.9785,1.6524A5.115,5.115,0,0,1,603.9707,616.1133Zm-7.418-.1406a3.241,3.241,0,0,0-.8086-2.127,2.7346,2.7346,0,0,0-2.2148-.9668,6.9218,6.9218,0,0,0-4.5176,1.7051,15.8651,15.8651,0,0,0-3.4629,4.0254,28.1786,28.1786,0,0,0-2.3027,4.7109l-1.1074,2.9531q7.1367-1.1952,10.7754-4.0429T596.5527,615.9727Z"/><path class="cls-3" d="M646.0879,630.8789a27.6769,27.6769,0,0,1-2.7246,4.0781,18.0135,18.0135,0,0,1-4.3418,3.92,10.0128,10.0128,0,0,1-5.59,1.705,6.2066,6.2066,0,0,1-4.1132-1.2656,4.141,4.141,0,0,1-1.5118-3.34,15.5776,15.5776,0,0,1,.8789-4.3946l2.5665-8.4726a19.3023,19.3023,0,0,0,1.09-4.7461,2.2886,2.2886,0,0,0-.4746-1.4063,1.5553,1.5553,0,0,0-1.3184-.6328q-1.8984,0-4.6406,3.1992a45.9464,45.9464,0,0,0-5.5723,8.6485,76.4964,76.4964,0,0,0-4.9043,11.9179h-8.3671l6.3632-20.6015a26.0155,26.0155,0,0,0,.8438-3.586,1.9806,1.9806,0,0,0-.211-.8613.81.81,0,0,0-.8085-.4394,3.3961,3.3961,0,0,0-2.6192,1.7226,19.6064,19.6064,0,0,0-2.1269,3.7617h-2.9532a19.69,19.69,0,0,1,4.1133-6.7851,9.1728,9.1728,0,0,1,7.0664-3.0235,5.288,5.288,0,0,1,4.0957,1.4766,4.5824,4.5824,0,0,1,1.3535,3.1289,15.14,15.14,0,0,1-.3867,2.7774q-.3874,1.8631-.8789,3.48l-1.2305,3.6211a67.8412,67.8412,0,0,1,8.1915-10.6,11.7238,11.7238,0,0,1,8.5078-3.8848,4.705,4.705,0,0,1,3.9375,1.5645,5.3766,5.3766,0,0,1,1.23,3.3926,20.248,20.248,0,0,1-.8437,4.2539l-3.6914,12.2344a14.2781,14.2781,0,0,0-.6328,3.1992,1.1187,1.1187,0,0,0,.2285.6679.72.72,0,0,0,.6152.3164,4.2876,4.2876,0,0,0,2.5137-1.3886,15.0211,15.0211,0,0,0,2.83-3.6387Z"/><path class="cls-3" d="M696.9238,616.2539a3.6974,3.6974,0,0,1-.9668,2.5313,3.3247,3.3247,0,0,1-2.6191,1.09,3.4811,3.4811,0,0,1-1.9863-.4922,3.2645,3.2645,0,0,1-1.125-1.3711q-.4044-.8789-1.002-2.6015a3.8728,3.8728,0,0,0-1.1074-1.8633,4.3271,4.3271,0,0,0-2.7949-.668,5.8946,5.8946,0,0,0-3.2871.9492,2.8689,2.8689,0,0,0-1.459,2.4961,3.6971,3.6971,0,0,0,.5976,2.0039,9.8692,9.8692,0,0,0,1.459,1.793q.8613.8438,2.69,2.3906a35.6736,35.6736,0,0,1,5.01,4.7461,7.3589,7.3589,0,0,1,1.5645,4.7813,7.9811,7.9811,0,0,1-1.336,4.3945,9.3805,9.3805,0,0,1-4.43,3.375,20.5782,20.5782,0,0,1-7.91,1.3008q-6.9266,0-9.7383-2.5489-2.8133-2.5488-2.8125-4.9394a3.9947,3.9947,0,0,1,1.09-2.7773,3.7133,3.7133,0,0,1,2.8828-1.1954q3.5859,0,4.1133,4.6055a6.4161,6.4161,0,0,0,1.1074,3.1113q.8613,1.1427,3.5683,1.1426a6.0457,6.0457,0,0,0,3.8672-1.1953,3.732,3.732,0,0,0,1.5117-3.0586,4.05,4.05,0,0,0-.51-1.9336,9.1413,9.1413,0,0,0-2.127-2.32q-2.8476-2.3907-4.6933-4.2188a16.4077,16.4077,0,0,1-2.795-3.5156,7.1381,7.1381,0,0,1-.9492-3.5508,7.3855,7.3855,0,0,1,1.09-3.5859,8.9914,8.9914,0,0,1,4.1133-3.3926,19.0933,19.0933,0,0,1,8.1914-1.459,21.09,21.09,0,0,1,5.3437.58,9.6849,9.6849,0,0,1,3.3574,1.4766,5.15,5.15,0,0,1,1.6348,1.8984A4.8381,4.8381,0,0,1,696.9238,616.2539Z"/><path class="cls-3" d="M735.1738,631.6523a25.111,25.111,0,0,1-2.2851,3.7969,17.3447,17.3447,0,0,1-2.8125,3.0235,12.5214,12.5214,0,0,1-3.1114,1.9687,8.2,8.2,0,0,1-3.2519.668q-3.6914,0-4.7285-2.2324a12.5534,12.5534,0,0,1-1.0371-5.3262A36.5166,36.5166,0,0,1,712.3926,639a9.9905,9.9905,0,0,1-6.2578,2.1094,5.1988,5.1988,0,0,1-3.4453-1.1426,6.6558,6.6558,0,0,1-2.0215-3.0762,12.9153,12.9153,0,0,1-.65-4.1484,24.0049,24.0049,0,0,1,2.4258-10.0195,25.66,25.66,0,0,1,6.5918-8.8594,13.5242,13.5242,0,0,1,8.9824-3.586,6.0216,6.0216,0,0,1,3.48.8789,4.7834,4.7834,0,0,1,1.74,1.9688,16.7755,16.7755,0,0,1,.8262,2.4258l1.3007-4.3946h7.77l-6.5391,21.4454a15.6128,15.6128,0,0,0-.7031,2.8125,1.0844,1.0844,0,0,0,.2988.7734.9176.9176,0,0,0,.6856.3164q2.2851,0,4.8867-4.8516ZM722.0605,617.625a6.2433,6.2433,0,0,0-.65-2.9531,2.4422,2.4422,0,0,0-2.3731-1.2305q-2.6367,0-5.1152,3.041a24.4759,24.4759,0,0,0-4.0078,7.3477,22.4837,22.4837,0,0,0-1.5293,7.26q0,4.254,2.6718,4.254a5.8837,5.8837,0,0,0,3.8145-1.7051,17.9272,17.9272,0,0,0,3.6035-4.5528,28.5591,28.5591,0,0,0,2.6543-5.9765A18.8156,18.8156,0,0,0,722.0605,617.625Z"/><path class="cls-3" d="M803.7637,630.8086q-5.3086,9.7734-12.9024,9.7734a5.6706,5.6706,0,0,1-4.166-1.4765,4.5818,4.5818,0,0,1-1.4941-3.34,14.1666,14.1666,0,0,1,.7734-3.8672l2.7422-8.789a17.8394,17.8394,0,0,0,.9492-4.043,2.6413,2.6413,0,0,0-.7734-2.0039,2.83,2.83,0,0,0-2.0391-.7383q-2.953,0-6.3105,3.252a35.77,35.77,0,0,0-6.24,8.4726,54.5626,54.5626,0,0,0-4.4648,10.3887l-.4922,1.6523h-8.3672l5.4141-17.6484a13.4543,13.4543,0,0,0,.6328-3.375,3.1433,3.1433,0,0,0-.5977-1.9512,2.3107,2.3107,0,0,0-1.9687-.791,8.0611,8.0611,0,0,0-4.9746,2.0742,25.2163,25.2163,0,0,0-4.8867,5.4141,55.2922,55.2922,0,0,0-4.2188,7.2949,58.9131,58.9131,0,0,0-3.1465,7.8223l-.3515,1.16h-8.3672l6.1523-20.1445a23.2865,23.2865,0,0,0,.9844-4.1133,1.15,1.15,0,0,0-.3692-.8965,1.1617,1.1617,0,0,0-.791-.3339,2.6181,2.6181,0,0,0-1.2656.4746,6.9714,6.9714,0,0,0-1.7051,1.67,19.6894,19.6894,0,0,0-1.9863,3.34H736.44a20.33,20.33,0,0,1,4.3769-6.8027,9.63,9.63,0,0,1,7.2246-3.0059,7.4993,7.4993,0,0,1,2.7774.5274,4.5209,4.5209,0,0,1,2.1269,1.6875,5.0652,5.0652,0,0,1,.791,2.918,24.7491,24.7491,0,0,1-1.16,5.9765l-1.02,3.375a48.2373,48.2373,0,0,1,4.2364-6.082,32.3786,32.3786,0,0,1,4.6582-4.6582,18.8106,18.8106,0,0,1,4.6406-2.8477,11.6443,11.6443,0,0,1,4.3945-.8965,7.33,7.33,0,0,1,4.7989,1.5118,4.959,4.959,0,0,1,1.8457,4.0429,22.1122,22.1122,0,0,1-1.09,5.5547l-.9492,3.0938a47.9,47.9,0,0,1,4.7988-6.75,26.316,26.316,0,0,1,6.1172-5.3086,13.4078,13.4078,0,0,1,7.2246-2.1446,6.8584,6.8584,0,0,1,3.7266.9141,5.7141,5.7141,0,0,1,2.1094,2.2324,5.636,5.636,0,0,1,.6679,2.5489,8.5814,8.5814,0,0,1-.1758,1.8457q-.1764.7909-.914,3.2519l-3.375,10.8985a12.1354,12.1354,0,0,0-.668,2.7773q0,1.16,1.09,1.16a4.5472,4.5472,0,0,0,2.4257-1.0722,13.3149,13.3149,0,0,0,3.1993-4.0254Z"/><path class="cls-3" d="M828.2676,591.5742l-12.3047,40.3242a18.3437,18.3437,0,0,0-.9492,3.7266,1.4772,1.4772,0,0,0,.2812.9492.9.9,0,0,0,.7383.3516q.9141,0,2.5313-1.6524a12.9125,12.9125,0,0,0,2.5664-3.7617h3.3046a31.233,31.233,0,0,1-4.6054,6.4336,9.3445,9.3445,0,0,1-7.2071,3.1641,6.0429,6.0429,0,0,1-4.2363-1.459,4.6091,4.6091,0,0,1-1.6-3.5332,21.69,21.69,0,0,1,1.09-5.3086l9-29.32a16.9973,16.9973,0,0,0,.8789-3.8321,1.5553,1.5553,0,0,0-1.002-1.6171,12.0122,12.0122,0,0,0-3.7441-.3868l.8437-3.2343h3.7617q2.4258,0,4.43-.1758a22.17,22.17,0,0,0,3.8321-.668Z"/><path class="cls-3" d="M847.92,631.6523a24.101,24.101,0,0,1-4.289,6.2579,9.4826,9.4826,0,0,1-7.3125,3.1992,6.0611,6.0611,0,0,1-4.43-1.459,4.7038,4.7038,0,0,1-1.4766-3.4629,18.1238,18.1238,0,0,1,1.3008-5.66l4.5351-12.41a7.9286,7.9286,0,0,0,.668-2.2852,1.087,1.087,0,0,0-1.02-1.0195q-1.1953,0-2.6192,1.8633a19.4786,19.4786,0,0,0-2.1269,3.34h-3.0938a18.1641,18.1641,0,0,1,5.3965-7.1894,10.8778,10.8778,0,0,1,6.627-2.5489,6.2542,6.2542,0,0,1,3.85,1.1426,3.6094,3.6094,0,0,1,1.5293,3.041,11.3374,11.3374,0,0,1-.7735,4.043l-5.4843,14.7305a7.4528,7.4528,0,0,0-.5625,2.4609,1.29,1.29,0,0,0,.334.8262.9426.9426,0,0,0,.7207.4043,3.19,3.19,0,0,0,2.18-1.125,20.2792,20.2792,0,0,0,2.8125-4.1485Zm2.6016-35.5429a4.4343,4.4343,0,0,1-1.3535,3.2519,4.3544,4.3544,0,0,1-3.1817,1.3535,4.4012,4.4012,0,0,1-3.2871-1.3535,4.494,4.494,0,0,1-1.3183-3.2519,4.6083,4.6083,0,0,1,6.9082-3.92,4.5994,4.5994,0,0,1,1.6347,1.6171A4.4078,4.4078,0,0,1,850.5215,596.1094Z"/><path class="cls-3" d="M890.6,630.8789a27.661,27.661,0,0,1-2.7246,4.0781,18.0135,18.0135,0,0,1-4.3418,3.92,10.01,10.01,0,0,1-5.59,1.705,6.2085,6.2085,0,0,1-4.1133-1.2656,4.1412,4.1412,0,0,1-1.5117-3.34,15.574,15.574,0,0,1,.8789-4.3946l2.5664-8.4726a19.2781,19.2781,0,0,0,1.09-4.7461,2.2886,2.2886,0,0,0-.4746-1.4063,1.5553,1.5553,0,0,0-1.3184-.6328q-1.8984,0-4.6406,3.1992a45.9666,45.9666,0,0,0-5.5722,8.6485,76.4769,76.4769,0,0,0-4.9043,11.9179h-8.3672l6.3633-20.6015a26.0069,26.0069,0,0,0,.8437-3.586,1.9819,1.9819,0,0,0-.2109-.8613.81.81,0,0,0-.8086-.4394,3.3969,3.3969,0,0,0-2.6192,1.7226,19.6331,19.6331,0,0,0-2.1269,3.7617h-2.9531a19.6884,19.6884,0,0,1,4.1132-6.7851,9.1743,9.1743,0,0,1,7.0664-3.0235,5.2879,5.2879,0,0,1,4.0957,1.4766,4.58,4.58,0,0,1,1.3536,3.1289,15.1329,15.1329,0,0,1-.3868,2.7774q-.3867,1.8631-.8789,3.48l-1.23,3.6211a67.8656,67.8656,0,0,1,8.1914-10.6,11.7247,11.7247,0,0,1,8.5078-3.8848,4.7044,4.7044,0,0,1,3.9375,1.5645,5.3767,5.3767,0,0,1,1.2305,3.3926,20.25,20.25,0,0,1-.8438,4.2539l-3.6914,12.2344a14.2781,14.2781,0,0,0-.6328,3.1992,1.1227,1.1227,0,0,0,.2285.6679.7205.7205,0,0,0,.6152.3164,4.2863,4.2863,0,0,0,2.5137-1.3886,15.0211,15.0211,0,0,0,2.83-3.6387Z"/><path class="cls-3" d="M927.6191,613.02a1.8146,1.8146,0,0,1-.7558,1.67,2.7494,2.7494,0,0,1-1.459.4746,3.195,3.195,0,0,1-1.8281-.6329,1.7947,1.7947,0,0,0-1.0547-.4218,1.5107,1.5107,0,0,0-1.3711.9844,12.2054,12.2054,0,0,1,1.1074,2.2148,8.0905,8.0905,0,0,1,.4043,2.7773,10.3667,10.3667,0,0,1-.6328,3.3223,10.2114,10.2114,0,0,1-2.2676,3.6035,12.49,12.49,0,0,1-4.7461,2.9531,21.6539,21.6539,0,0,1-7.7168,1.1954q-4.3945,0-5.8886.7734a2.4332,2.4332,0,0,0-1.4942,2.25,1.4839,1.4839,0,0,0,.5274,1.1426,4.8859,4.8859,0,0,0,1.6.8613q1.0722.3867,3.832,1.1426t5.3965,1.5293q9.4922,2.707,9.4922,8.789a7.6814,7.6814,0,0,1-1.793,4.8868,12.9959,12.9959,0,0,1-6.0117,3.7265,34.4034,34.4034,0,0,1-11.1094,1.4766,44.1273,44.1273,0,0,1-6.3984-.5449,18.3878,18.3878,0,0,1-6.6973-2.3379,5.7065,5.7065,0,0,1-3.041-5.2032,6.0627,6.0627,0,0,1,2.6894-5.0976,4.0649,4.0649,0,0,1,2.1973-.7383,2.348,2.348,0,0,1,1.125.2461.767.767,0,0,1,.457.7031,2.7452,2.7452,0,0,1-.7031,1.3711,4.8207,4.8207,0,0,0-1.2305,2.8125q0,3.375,3.8321,4.5352a26.9115,26.9115,0,0,0,7.84,1.16,19.2333,19.2333,0,0,0,7.8574-1.3359q2.9357-1.3359,2.9356-3.5156a2.4069,2.4069,0,0,0-.5977-1.7227,6.4709,6.4709,0,0,0-2.2675-1.2832q-1.67-.65-6.1348-2.0918a54.4366,54.4366,0,0,1-6.2051-2.2851,9.1317,9.1317,0,0,1-3.3223-2.4082,5.27,5.27,0,0,1-1.125-3.4278,5.7407,5.7407,0,0,1,2.5137-4.8164,13.21,13.21,0,0,1,5.9942-2.3906,8.1014,8.1014,0,0,1-4.0782-3.2695,8.5021,8.5021,0,0,1-1.3359-4.5,9.6025,9.6025,0,0,1,1.7754-5.4668,12.8594,12.8594,0,0,1,4.9746-4.2364,15.9088,15.9088,0,0,1,7.2773-1.6172q5.9766,0,9,2.8125a15.732,15.732,0,0,1,2.4434-2.039,5.3069,5.3069,0,0,1,2.9707-.7735,3.2239,3.2239,0,0,1,2.1973.7207A2.54,2.54,0,0,1,927.6191,613.02Zm-12.5859,4.1836a4.9961,4.9961,0,0,0-.457-2.1621,3.7212,3.7212,0,0,0-1.3887-1.5644,3.8528,3.8528,0,0,0-2.127-.5977,4.9429,4.9429,0,0,0-3.832,1.916,13.095,13.095,0,0,0-2.5137,4.57,15.3821,15.3821,0,0,0-.8613,4.6582,4.2686,4.2686,0,0,0,1.0371,3.1641,3.8136,3.8136,0,0,0,2.7949,1.0195q3.5508,0,5.4493-3.832A16.2484,16.2484,0,0,0,915.0332,617.2031Z"/><path class="cls-3" d="M982.0059,631.6523a25.07,25.07,0,0,1-2.2852,3.7969,17.337,17.337,0,0,1-2.8125,3.0235,12.5028,12.5028,0,0,1-3.1113,1.9687,8.2005,8.2005,0,0,1-3.252.668q-3.6914,0-4.7285-2.2324a12.5534,12.5534,0,0,1-1.0371-5.3262A36.4938,36.4938,0,0,1,959.2246,639a9.99,9.99,0,0,1-6.2578,2.1094,5.2,5.2,0,0,1-3.4453-1.1426,6.6558,6.6558,0,0,1-2.0215-3.0762,12.929,12.929,0,0,1-.65-4.1484,24.0049,24.0049,0,0,1,2.4258-10.0195,25.6612,25.6612,0,0,1,6.5918-8.8594,13.5251,13.5251,0,0,1,8.9824-3.586,6.022,6.022,0,0,1,3.4805.8789,4.7838,4.7838,0,0,1,1.74,1.9688,16.7755,16.7755,0,0,1,.8262,2.4258l1.3008-4.3946h7.7695l-6.5391,21.4454a15.6606,15.6606,0,0,0-.7031,2.8125,1.0844,1.0844,0,0,0,.2988.7734.9194.9194,0,0,0,.6856.3164q2.2851,0,4.8867-4.8516ZM968.8926,617.625a6.2433,6.2433,0,0,0-.65-2.9531,2.4412,2.4412,0,0,0-2.3731-1.2305q-2.6367,0-5.1152,3.041a24.4781,24.4781,0,0,0-4.0078,7.3477,22.4864,22.4864,0,0,0-1.5293,7.26q0,4.254,2.6719,4.254a5.8835,5.8835,0,0,0,3.8144-1.7051,17.9163,17.9163,0,0,0,3.6035-4.5528,28.5332,28.5332,0,0,0,2.6543-5.9765A18.7992,18.7992,0,0,0,968.8926,617.625Z"/><path class="cls-3" d="M1016.67,596.7422a3.7124,3.7124,0,0,1-1.0019,2.6016,3.2712,3.2712,0,0,1-2.5137,1.09,2.6144,2.6144,0,0,1-2.25-.9492,11.44,11.44,0,0,1-1.4063-3.0938,3.3732,3.3732,0,0,0-.65-1.2656,1.49,1.49,0,0,0-1.1778-.457,1.5393,1.5393,0,0,0-1.3887.7558,7.7943,7.7943,0,0,0-.8261,1.9864l-4.2539,13.8867h5.9062l-1.0195,3.2343h-5.9063l-6.1171,20.004a121.8046,121.8046,0,0,1-4.3946,12.2871,22.4312,22.4312,0,0,1-5.5195,7.6992,12.8947,12.8947,0,0,1-9,3.2168,9.4221,9.4221,0,0,1-6.0293-1.7051,4.9,4.9,0,0,1-2.127-3.85,4.0308,4.0308,0,0,1,1.125-2.83,3.7977,3.7977,0,0,1,2.918-1.2129q2.1445,0,2.8125,1.1426a7.2488,7.2488,0,0,1,.8438,2.9707q.2109,2.3907,2.039,2.3906a3.3964,3.3964,0,0,0,2.9531-1.9863,28.56,28.56,0,0,0,2.3555-6.1l9.8086-32.0274h-6.1875l.9844-3.2343h6.1875l.668-2.25a58.0773,58.0773,0,0,1,3.0234-8.35,18.5932,18.5932,0,0,1,4.9043-6.3457,12.093,12.093,0,0,1,8.1387-2.7774,9.8914,9.8914,0,0,1,3.48.6153,6.2163,6.2163,0,0,1,2.6367,1.7753A4.1519,4.1519,0,0,1,1016.67,596.7422Z"/><path class="cls-3" d="M1090.3223,630.8086q-5.3086,9.7734-12.9024,9.7734a5.6706,5.6706,0,0,1-4.166-1.4765,4.5837,4.5837,0,0,1-1.4941-3.34,14.1666,14.1666,0,0,1,.7734-3.8672l2.7422-8.789a17.8394,17.8394,0,0,0,.9492-4.043,2.6394,2.6394,0,0,0-.7734-2.0039,2.83,2.83,0,0,0-2.0391-.7383q-2.953,0-6.3105,3.252a35.7838,35.7838,0,0,0-6.24,8.4726,54.5626,54.5626,0,0,0-4.4648,10.3887l-.4922,1.6523h-8.3672l5.4141-17.6484a13.4589,13.4589,0,0,0,.6328-3.375,3.1433,3.1433,0,0,0-.5977-1.9512,2.31,2.31,0,0,0-1.9687-.791,8.0622,8.0622,0,0,0-4.9746,2.0742,25.2322,25.2322,0,0,0-4.8868,5.4141,55.303,55.303,0,0,0-4.2187,7.2949,58.9809,58.9809,0,0,0-3.1465,7.8223l-.3515,1.16h-8.3672l6.1523-20.1445a23.2369,23.2369,0,0,0,.9844-4.1133,1.15,1.15,0,0,0-.3692-.8965,1.1617,1.1617,0,0,0-.791-.3339,2.6215,2.6215,0,0,0-1.2656.4746,6.98,6.98,0,0,0-1.7051,1.67,19.6894,19.6894,0,0,0-1.9863,3.34h-3.0938a20.3319,20.3319,0,0,1,4.377-6.8027,9.63,9.63,0,0,1,7.2246-3.0059,7.4978,7.4978,0,0,1,2.7774.5274,4.5209,4.5209,0,0,1,2.1269,1.6875,5.066,5.066,0,0,1,.791,2.918,24.7491,24.7491,0,0,1-1.16,5.9765l-1.02,3.375a48.2892,48.2892,0,0,1,4.2364-6.082,32.3786,32.3786,0,0,1,4.6582-4.6582,18.8106,18.8106,0,0,1,4.6406-2.8477,11.6463,11.6463,0,0,1,4.3945-.8965,7.33,7.33,0,0,1,4.7989,1.5118,4.959,4.959,0,0,1,1.8457,4.0429,22.0892,22.0892,0,0,1-1.09,5.5547l-.9492,3.0938a47.8914,47.8914,0,0,1,4.7988-6.75,26.3139,26.3139,0,0,1,6.1172-5.3086,13.4078,13.4078,0,0,1,7.2246-2.1446,6.8574,6.8574,0,0,1,3.7266.9141,5.7141,5.7141,0,0,1,2.1094,2.2324,5.63,5.63,0,0,1,.6679,2.5489,8.5814,8.5814,0,0,1-.1758,1.8457q-.1756.7909-.914,3.2519l-3.375,10.8985a12.1354,12.1354,0,0,0-.668,2.7773q0,1.16,1.09,1.16a4.5472,4.5472,0,0,0,2.4257-1.0722,13.3149,13.3149,0,0,0,3.1993-4.0254Z"/><path class="cls-3" d="M1111.9434,631.6523a24.104,24.104,0,0,1-4.2891,6.2579,9.4823,9.4823,0,0,1-7.3125,3.1992,6.0613,6.0613,0,0,1-4.43-1.459,4.7038,4.7038,0,0,1-1.4766-3.4629,18.1238,18.1238,0,0,1,1.3008-5.66l4.5352-12.41a7.932,7.932,0,0,0,.668-2.2852,1.0872,1.0872,0,0,0-1.02-1.0195q-1.1954,0-2.6191,1.8633a19.486,19.486,0,0,0-2.127,3.34H1092.08a18.1622,18.1622,0,0,1,5.3965-7.1894,10.8773,10.8773,0,0,1,6.6269-2.5489,6.2542,6.2542,0,0,1,3.85,1.1426,3.6091,3.6091,0,0,1,1.5293,3.041,11.3394,11.3394,0,0,1-.7734,4.043l-5.4844,14.7305a7.4528,7.4528,0,0,0-.5625,2.4609,1.29,1.29,0,0,0,.334.8262.9429.9429,0,0,0,.7207.4043,3.1906,3.1906,0,0,0,2.18-1.125,20.2792,20.2792,0,0,0,2.8125-4.1485Zm2.6015-35.5429a4.434,4.434,0,0,1-1.3535,3.2519,4.3542,4.3542,0,0,1-3.1816,1.3535,4.4012,4.4012,0,0,1-3.2871-1.3535,4.4941,4.4941,0,0,1-1.3184-3.2519,4.6083,4.6083,0,0,1,6.9082-3.92,4.6005,4.6005,0,0,1,1.6348,1.6171A4.4087,4.4087,0,0,1,1114.5449,596.1094Z"/><path class="cls-3" d="M1138.2754,611.2969l-.9844,3.2343h-6.9961l-5.3086,17.3672a10.1785,10.1785,0,0,0-.5976,2.7071,2.1174,2.1174,0,0,0,.4922,1.3535,1.515,1.515,0,0,0,1.23.6152,4.4833,4.4833,0,0,0,3.586-1.9863,29.4337,29.4337,0,0,0,2.7773-4.3067h3.3047a22.4268,22.4268,0,0,1-4.4473,6.8028,13.6159,13.6159,0,0,1-4.6406,3.2344,11.6086,11.6086,0,0,1-3.9551.791,6.2226,6.2226,0,0,1-4.7109-1.7578,6.4686,6.4686,0,0,1-1.6875-4.6758,19.8964,19.8964,0,0,1,1.0547-5.4492l4.57-14.6954h-6.5742l1.02-3.2343h6.5391l3.2343-10.7227h8.3672l-3.2343,10.7227Z"/><path class="cls-3" d="M1192.7324,631.6523a25.0782,25.0782,0,0,1-2.2851,3.7969,17.3447,17.3447,0,0,1-2.8125,3.0235,12.5033,12.5033,0,0,1-3.1114,1.9687,8.2,8.2,0,0,1-3.2519.668q-3.6915,0-4.7285-2.2324a12.5534,12.5534,0,0,1-1.0371-5.3262A36.4938,36.4938,0,0,1,1169.9512,639a9.99,9.99,0,0,1-6.2578,2.1094,5.2,5.2,0,0,1-3.4454-1.1426,6.6564,6.6564,0,0,1-2.0214-3.0762,12.929,12.929,0,0,1-.65-4.1484,24.0049,24.0049,0,0,1,2.4258-10.0195,25.66,25.66,0,0,1,6.5918-8.8594,13.5249,13.5249,0,0,1,8.9824-3.586,6.0216,6.0216,0,0,1,3.48.8789,4.7834,4.7834,0,0,1,1.74,1.9688,16.7636,16.7636,0,0,1,.8261,2.4258l1.3008-4.3946h7.77l-6.5391,21.4454a15.651,15.651,0,0,0-.7031,2.8125,1.0844,1.0844,0,0,0,.2988.7734.919.919,0,0,0,.6855.3164q2.2852,0,4.8868-4.8516Zm-13.1133-14.0273a6.2445,6.2445,0,0,0-.65-2.9531,2.4413,2.4413,0,0,0-2.3731-1.2305q-2.6367,0-5.1152,3.041a24.4759,24.4759,0,0,0-4.0078,7.3477,22.4837,22.4837,0,0,0-1.5293,7.26q0,4.254,2.6718,4.254a5.8837,5.8837,0,0,0,3.8145-1.7051,17.9185,17.9185,0,0,0,3.6035-4.5528,28.5384,28.5384,0,0,0,2.6543-5.9765A18.7988,18.7988,0,0,0,1179.6191,617.625Z"/><path class="cls-3" d="M1226.4824,614.8828a6.5262,6.5262,0,0,1-1.23,3.92,3.6891,3.6891,0,0,1-3.0938,1.7051,4.1429,4.1429,0,0,1-3.0937-1.8633,2.2614,2.2614,0,0,0-1.6524-1.09q-.9492,0-2.6016,1.7754a27.3986,27.3986,0,0,0-3.3925,4.7285,65.8415,65.8415,0,0,0-3.4278,6.7676,70.3529,70.3529,0,0,0-2.9179,7.8222l-.4219,1.4414h-8.2617l5.52-19.7226a16.1981,16.1981,0,0,0,.8789-3.9727,1.5707,1.5707,0,0,0-.2461-.8261.84.84,0,0,0-.7734-.4043q-1.3711,0-2.7774,1.916a19.3436,19.3436,0,0,0-2.1093,3.498h-3.2344a26.108,26.108,0,0,1,4.166-6.31,13.3909,13.3909,0,0,1,4.1133-3.1114,9.0206,9.0206,0,0,1,3.6035-.8789q2.8125,0,3.6387,1.7579a8.0622,8.0622,0,0,1,.8261,3.4453q0,3.0585-1.9687,9.6328,2.0039-3.4453,3.2871-5.5195a43.45,43.45,0,0,1,3.0586-4.2891,18.7653,18.7653,0,0,1,3.7617-3.6211,6.7365,6.7365,0,0,1,3.8848-1.4063q2.7071,0,3.5859,1.5293A6.12,6.12,0,0,1,1226.4824,614.8828Z"/><path class="cls-3" d="M1261.6738,620.5078a17.6241,17.6241,0,0,1-1.6347,7.3125,23.7614,23.7614,0,0,1-11.4961,11.5137,19.1257,19.1257,0,0,1-8.1035,1.7754q-5.6953,0-8.8243-2.8653a8.8557,8.8557,0,0,1-3.1289-6.7324,25.5781,25.5781,0,0,1,1.3008-6.75l7.6992-25.1367a10.2755,10.2755,0,0,0,.4219-2.0039,1.5313,1.5313,0,0,0-1.1074-1.582,9.26,9.26,0,0,0-2.9707-.3868h-1.02l1.02-3.2343a61.007,61.007,0,0,0,12.0937-.8438h2.3555l-7.2773,23.66q.4922-.3867,1.7226-1.4063a20.3774,20.3774,0,0,1,2.32-1.6875,14.631,14.631,0,0,1,7.1367-1.8633,9.8428,9.8428,0,0,1,4.7286,1.16,8.6354,8.6354,0,0,1,3.4628,3.4629A11.2415,11.2415,0,0,1,1261.6738,620.5078Zm-8.6484.1406a6.9391,6.9391,0,0,0-1.1953-4.2011,4.1166,4.1166,0,0,0-3.5508-1.6348q-5.8008,0-9.5625,8.5781a35.3719,35.3719,0,0,0-1.916,5.8008,21.2309,21.2309,0,0,0-.6856,4.043,5.0187,5.0187,0,0,0,1.2832,3.5156,4.6317,4.6317,0,0,0,3.6036,1.4062,8.5,8.5,0,0,0,6.5566-3.041,20.0181,20.0181,0,0,0,4.0957-7.2246A23.8124,23.8124,0,0,0,1253.0254,620.6484Z"/><path class="cls-3" d="M1297.041,616.1133a8.0317,8.0317,0,0,1-.8789,3.3222,13.21,13.21,0,0,1-3.2168,3.99,20.78,20.78,0,0,1-6.68,3.7265,42.8227,42.8227,0,0,1-10.916,2.2149l-.8437.07a13.3288,13.3288,0,0,0-.2813,2.6016,4.8707,4.8707,0,0,0,1.2481,3.7441,5.2108,5.2108,0,0,0,3.6386,1.1426q5.2735,0,10.09-5.6953h3.7265a26.6509,26.6509,0,0,1-6.6093,6.6093,17.2119,17.2119,0,0,1-10.5118,3.27,11.6513,11.6513,0,0,1-7.2246-2.2676,7.8259,7.8259,0,0,1-3.0058-6.6621,20.3755,20.3755,0,0,1,2.9883-10.459,23.7183,23.7183,0,0,1,8.1562-8.2617,21.0591,21.0591,0,0,1,11.25-3.1817q4.8867,0,6.9785,1.6524A5.1133,5.1133,0,0,1,1297.041,616.1133Zm-7.418-.1406a3.2414,3.2414,0,0,0-.8085-2.127,2.7336,2.7336,0,0,0-2.2149-.9668,6.9218,6.9218,0,0,0-4.5176,1.7051,15.875,15.875,0,0,0-3.4629,4.0254,28.1786,28.1786,0,0,0-2.3027,4.7109l-1.1074,2.9531q7.1367-1.1952,10.7754-4.0429T1289.623,615.9727Z"/><path class="cls-3" d="M1317.7129,614.6016a12.23,12.23,0,0,1-.8086,3.6562l-5.8711,19.3711a75.95,75.95,0,0,1-2.6894,7.541,32.8961,32.8961,0,0,1-3.4981,6.3281,15.8839,15.8839,0,0,1-4.9043,4.5528,12.9533,12.9533,0,0,1-6.6973,1.6875,9.2675,9.2675,0,0,1-5.4843-1.5645,4.7122,4.7122,0,0,1-2.2149-3.99,4.0186,4.0186,0,0,1,1.1426-2.9707,3.8863,3.8863,0,0,1,2.8652-1.1426q2.32,0,3.0059,1.4238a6.6216,6.6216,0,0,1,.6855,2.9q0,2.25,1.5821,2.25a3.2022,3.2022,0,0,0,2.8828-1.9511,34.01,34.01,0,0,0,2.2851-6.1348l8.2969-27.3516a32.7693,32.7693,0,0,0,.8438-3.375.886.886,0,0,0-.9844-1.0195q-2.2851,0-4.9219,5.1328h-3.2344a18.88,18.88,0,0,1,5.7657-7.3828,11.451,11.451,0,0,1,6.6093-2.2852,5.5685,5.5685,0,0,1,3.9551,1.3008A4.0256,4.0256,0,0,1,1317.7129,614.6016Zm4.2539-18.4922a4.4343,4.4343,0,0,1-1.3535,3.2519,4.3544,4.3544,0,0,1-3.1817,1.3535,4.4706,4.4706,0,0,1-3.2168-1.3535,4.5,4.5,0,0,1-.0527-6.4511,4.4465,4.4465,0,0,1,3.2695-1.336,4.3928,4.3928,0,0,1,2.25.6153,4.6526,4.6526,0,0,1,1.67,1.6347A4.337,4.337,0,0,1,1321.9668,596.1094Z"/><path class="cls-3" d="M1363.9434,591.5742l-12.4805,40.4649a17.2287,17.2287,0,0,0-.7734,3.5156q0,1.23,1.16,1.2305a3.8289,3.8289,0,0,0,2.4609-1.3184,14.4666,14.4666,0,0,0,2.5665-3.498h3.375a18.4117,18.4117,0,0,1-2.18,3.6562,16.3,16.3,0,0,1-3.9727,3.832,9.2959,9.2959,0,0,1-5.4141,1.6524q-6.0819,0-6.082-6.5391,0-.2461.0176-.457t.0176-.4922a22.6838,22.6838,0,0,1-3.34,3.5332,18.2057,18.2057,0,0,1-4.4472,2.8477,11.9413,11.9413,0,0,1-4.9746,1.1074,7.0763,7.0763,0,0,1-5.7657-2.4082,9.2147,9.2147,0,0,1-2.0039-6.1,21.5448,21.5448,0,0,1,1.5645-7.9454,26.25,26.25,0,0,1,4.2715-7.2246,21.5288,21.5288,0,0,1,6.2929-5.2031,15.3931,15.3931,0,0,1,7.4532-1.9512,7.6251,7.6251,0,0,1,4.43,1.0547,10.5744,10.5744,0,0,1,2.5664,2.6368l4.1485-13.711a9.7273,9.7273,0,0,0,.7383-2.6367,1.5608,1.5608,0,0,0-.5977-1.3711,3.1161,3.1161,0,0,0-1.5293-.51q-.9317-.0879-2.76-.0879l.8438-3.2343q3.5859-.07,5.625-.1407t3.3223-.2109q1.2831-.1405,3.0058-.4922Zm-17.1563,26.6836a5.7869,5.7869,0,0,0-1.1953-3.7617,3.8326,3.8326,0,0,0-3.1289-1.4766q-3.0586,0-5.8535,3.0762a23.7573,23.7573,0,0,0-4.4824,7.3652,21.1967,21.1967,0,0,0-1.6875,7.6289,4.41,4.41,0,0,0,1.16,3.41,3.9419,3.9419,0,0,0,2.7422,1.0547,7.6322,7.6322,0,0,0,4.623-1.7051,17.6927,17.6927,0,0,0,4.0957-4.4824,25.2988,25.2988,0,0,0,2.7247-5.6426A17.2182,17.2182,0,0,0,1346.7871,618.2578Z"/><path class="cls-3" d="M1394.6348,616.1133a8.0317,8.0317,0,0,1-.8789,3.3222,13.2118,13.2118,0,0,1-3.2168,3.99,20.7811,20.7811,0,0,1-6.68,3.7265,42.8236,42.8236,0,0,1-10.916,2.2149l-.8438.07a13.3282,13.3282,0,0,0-.2812,2.6016,4.871,4.871,0,0,0,1.248,3.7441,5.2109,5.2109,0,0,0,3.6387,1.1426q5.2734,0,10.09-5.6953h3.7266a26.6514,26.6514,0,0,1-6.6094,6.6093,17.2114,17.2114,0,0,1-10.5117,3.27,11.6513,11.6513,0,0,1-7.2246-2.2676,7.826,7.826,0,0,1-3.0059-6.6621,20.3755,20.3755,0,0,1,2.9883-10.459,23.7186,23.7186,0,0,1,8.1563-8.2617,21.0591,21.0591,0,0,1,11.25-3.1817q4.8867,0,6.9785,1.6524A5.1136,5.1136,0,0,1,1394.6348,616.1133Zm-7.418-.1406a3.241,3.241,0,0,0-.8086-2.127,2.7334,2.7334,0,0,0-2.2148-.9668,6.9216,6.9216,0,0,0-4.5176,1.7051,15.875,15.875,0,0,0-3.4629,4.0254,28.1709,28.1709,0,0,0-2.3027,4.7109l-1.1075,2.9531q7.1367-1.1952,10.7754-4.0429T1387.2168,615.9727Z"/><path class="cls-3" d="M515.957,683.1416a3.7124,3.7124,0,0,1-1.0019,2.6016,3.2719,3.2719,0,0,1-2.5137,1.09,2.6141,2.6141,0,0,1-2.25-.9492,11.425,11.425,0,0,1-1.4062-3.0938,3.382,3.382,0,0,0-.65-1.2656,1.49,1.49,0,0,0-1.1778-.457,1.5386,1.5386,0,0,0-1.3886.7558,7.7778,7.7778,0,0,0-.8262,1.9864l-4.2539,13.8867h5.9062l-1.0195,3.2344h-5.9062l-6.1172,20.0039a121.8046,121.8046,0,0,1-4.3946,12.2871,22.4369,22.4369,0,0,1-5.5195,7.6992,12.8938,12.8938,0,0,1-9,3.2168,9.4231,9.4231,0,0,1-6.0293-1.7051,4.9,4.9,0,0,1-2.127-3.85,4.0308,4.0308,0,0,1,1.125-2.83,3.7985,3.7985,0,0,1,2.918-1.2129q2.1445,0,2.8125,1.1426a7.2488,7.2488,0,0,1,.8438,2.9707q.2109,2.3907,2.039,2.3906a3.3967,3.3967,0,0,0,2.9532-1.9863,28.54,28.54,0,0,0,2.3554-6.1l9.8086-32.0273h-6.1875l.9844-3.2344h6.1875l.668-2.25a58.0172,58.0172,0,0,1,3.0234-8.35,18.5932,18.5932,0,0,1,4.9043-6.3457,12.0923,12.0923,0,0,1,8.1387-2.7774,9.8955,9.8955,0,0,1,3.48.6153,6.2165,6.2165,0,0,1,2.6368,1.7754A4.1544,4.1544,0,0,1,515.957,683.1416Z"/><path class="cls-3" d="M536.77,701.2822a6.5262,6.5262,0,0,1-1.23,3.92,3.69,3.69,0,0,1-3.0938,1.7051,4.1421,4.1421,0,0,1-3.0937-1.8633,2.2614,2.2614,0,0,0-1.6524-1.09q-.9492,0-2.6015,1.7754a27.37,27.37,0,0,0-3.3926,4.7285,65.8518,65.8518,0,0,0-3.4278,6.7676,70.3545,70.3545,0,0,0-2.9179,7.8223l-.4219,1.4414h-8.2617l5.5195-19.7227a16.2176,16.2176,0,0,0,.8789-3.9727,1.5753,1.5753,0,0,0-.2461-.8261.84.84,0,0,0-.7734-.4043q-1.3712,0-2.7774,1.916a19.347,19.347,0,0,0-2.1093,3.498h-3.2344a26.0816,26.0816,0,0,1,4.166-6.31,13.3888,13.3888,0,0,1,4.1133-3.1113,9.017,9.017,0,0,1,3.6035-.8789q2.8125,0,3.6387,1.7578a8.07,8.07,0,0,1,.8261,3.4453q0,3.0585-1.9687,9.6328,2.0039-3.4454,3.2871-5.5195a43.4733,43.4733,0,0,1,3.0586-4.2891,18.7522,18.7522,0,0,1,3.7617-3.6211,6.7354,6.7354,0,0,1,3.8848-1.4062q2.7071,0,3.5859,1.5293A6.1246,6.1246,0,0,1,536.77,701.2822Z"/><path class="cls-3" d="M572.77,718.0518a25.1149,25.1149,0,0,1-2.2851,3.7968,17.3447,17.3447,0,0,1-2.8125,3.0235,12.5185,12.5185,0,0,1-3.1114,1.9687,8.2,8.2,0,0,1-3.2519.668q-3.6913,0-4.7285-2.2324a12.5534,12.5534,0,0,1-1.0371-5.3262,36.5119,36.5119,0,0,1-5.5547,5.4492,9.99,9.99,0,0,1-6.2578,2.1094,5.1988,5.1988,0,0,1-3.4453-1.1426,6.6558,6.6558,0,0,1-2.0215-3.0762,12.9153,12.9153,0,0,1-.65-4.1484,24.0049,24.0049,0,0,1,2.4258-10.0195,25.66,25.66,0,0,1,6.5918-8.8594,13.524,13.524,0,0,1,8.9824-3.5859,6.0214,6.0214,0,0,1,3.4805.8789,4.7836,4.7836,0,0,1,1.74,1.9687,16.7755,16.7755,0,0,1,.8262,2.4258l1.3007-4.3945h7.77l-6.5391,21.4453a15.617,15.617,0,0,0-.7031,2.8125,1.0844,1.0844,0,0,0,.2988.7734.9173.9173,0,0,0,.6856.3164q2.2851,0,4.8867-4.8515Zm-13.1133-14.0274a6.2433,6.2433,0,0,0-.65-2.9531,2.4422,2.4422,0,0,0-2.3731-1.2305q-2.6367,0-5.1152,3.041A24.4759,24.4759,0,0,0,547.51,710.23a22.4837,22.4837,0,0,0-1.5293,7.26q0,4.2539,2.6718,4.2539a5.8837,5.8837,0,0,0,3.8145-1.7051,17.9284,17.9284,0,0,0,3.6035-4.5527,28.5621,28.5621,0,0,0,2.6543-5.9766A18.8156,18.8156,0,0,0,559.6562,704.0244Z"/><path class="cls-3" d="M624.9414,679.1689,613.5508,716.54a21.5727,21.5727,0,0,0-1.0547,4.6758,1.548,1.548,0,0,0,.6855,1.3535,4.0262,4.0262,0,0,0,1.8106.6153q1.125.1405,3.0937.2109l-.914,3.0938H596.1484l1.02-3.0938h2.2851a7.5676,7.5676,0,0,0,2.461-.2988,2.81,2.81,0,0,0,1.4062-1.3887,24.2689,24.2689,0,0,0,1.4766-3.8672l7.6992-25.1367q.703-2.3905.7031-2.3555a9.7808,9.7808,0,0,0,.4219-2.18,1.85,1.85,0,0,0-1.5117-1.9335,13.1357,13.1357,0,0,0-3.5156-.4219h-2.6719l.9492-3.0235q5.0274-.4569,7.5586-.8789a21.9883,21.9883,0,0,0,4.06-1.0019,18.8907,18.8907,0,0,0,3.3575-1.74Z"/><path class="cls-3" d="M639.6367,722.9033a4.6834,4.6834,0,0,1-4.6055,4.6055,4.309,4.309,0,0,1-3.1992-1.3711,4.6418,4.6418,0,0,1-.7382-5.5371,4.378,4.378,0,0,1,1.6347-1.6348,4.6956,4.6956,0,0,1,5.5547.7207A4.3213,4.3213,0,0,1,639.6367,722.9033Z"/><path class="cls-3" d="M697.2227,702.6533a3.6977,3.6977,0,0,1-.9668,2.5313,3.3251,3.3251,0,0,1-2.6192,1.09,3.4807,3.4807,0,0,1-1.9863-.4922,3.2645,3.2645,0,0,1-1.125-1.3711q-.4043-.8789-1.002-2.6015a3.8721,3.8721,0,0,0-1.1074-1.8633,4.3271,4.3271,0,0,0-2.7949-.668,5.8948,5.8948,0,0,0-3.2871.9492,2.8691,2.8691,0,0,0-1.459,2.4961,3.6961,3.6961,0,0,0,.5977,2.0039,9.861,9.861,0,0,0,1.4589,1.793q.8614.8438,2.6895,2.3906a35.6754,35.6754,0,0,1,5.01,4.7461,7.3594,7.3594,0,0,1,1.5644,4.7813,7.9816,7.9816,0,0,1-1.3359,4.3945,9.3808,9.3808,0,0,1-4.43,3.375,20.5778,20.5778,0,0,1-7.91,1.3008q-6.9264,0-9.7383-2.5488t-2.8124-4.94a3.9946,3.9946,0,0,1,1.09-2.7773,3.7134,3.7134,0,0,1,2.8828-1.1953q3.5859,0,4.1133,4.6054a6.4171,6.4171,0,0,0,1.1074,3.1113q.8613,1.1427,3.5684,1.1426a6.0461,6.0461,0,0,0,3.8672-1.1953,3.7323,3.7323,0,0,0,1.5117-3.0586,4.0494,4.0494,0,0,0-.51-1.9336,9.1405,9.1405,0,0,0-2.1269-2.32q-2.8478-2.3906-4.6934-4.2187a16.4066,16.4066,0,0,1-2.7949-3.5157,7.138,7.138,0,0,1-.9492-3.5507,7.3853,7.3853,0,0,1,1.09-3.586,8.9931,8.9931,0,0,1,4.1133-3.3926,19.0937,19.0937,0,0,1,8.1914-1.4589,21.09,21.09,0,0,1,5.3437.58,9.6874,9.6874,0,0,1,3.3575,1.4766,5.1513,5.1513,0,0,1,1.6347,1.8984A4.8382,4.8382,0,0,1,697.2227,702.6533Z"/><path class="cls-3" d="M731.0078,702.5127a8.0383,8.0383,0,0,1-.8789,3.3223,13.2113,13.2113,0,0,1-3.2168,3.99,20.7874,20.7874,0,0,1-6.68,3.7266,42.8366,42.8366,0,0,1-10.916,2.2148l-.8437.07a13.29,13.29,0,0,0-.2813,2.6016,4.8705,4.8705,0,0,0,1.2481,3.7441,5.2091,5.2091,0,0,0,3.6386,1.1426q5.2736,0,10.09-5.6953h3.7265a26.6613,26.6613,0,0,1-6.6093,6.6094,17.2124,17.2124,0,0,1-10.5118,3.2695,11.6513,11.6513,0,0,1-7.2246-2.2676,7.8259,7.8259,0,0,1-3.0058-6.6621,20.3763,20.3763,0,0,1,2.9882-10.459,23.7152,23.7152,0,0,1,8.1563-8.2617,21.0578,21.0578,0,0,1,11.25-3.1816q4.8859,0,6.9785,1.6523A5.1148,5.1148,0,0,1,731.0078,702.5127Zm-7.418-.1406a3.241,3.241,0,0,0-.8086-2.127,2.7346,2.7346,0,0,0-2.2148-.9668,6.9218,6.9218,0,0,0-4.5176,1.7051,15.8651,15.8651,0,0,0-3.4629,4.0254,28.1824,28.1824,0,0,0-2.3027,4.7109l-1.1074,2.9532q7.1367-1.1954,10.7754-4.043T723.59,702.3721Z"/><path class="cls-3" d="M799.6328,717.208q-5.3085,9.7734-12.9023,9.7734a5.67,5.67,0,0,1-4.166-1.4765,4.5819,4.5819,0,0,1-1.4942-3.34,14.1624,14.1624,0,0,1,.7735-3.8671l2.7421-8.7891a17.8358,17.8358,0,0,0,.9493-4.043,2.641,2.641,0,0,0-.7735-2.0039,2.83,2.83,0,0,0-2.039-.7383q-2.9532,0-6.3106,3.252a35.7719,35.7719,0,0,0-6.24,8.4726,54.5568,54.5568,0,0,0-4.4649,10.3887l-.4922,1.6524h-8.3671l5.414-17.6485a13.4528,13.4528,0,0,0,.6328-3.375,3.1438,3.1438,0,0,0-.5976-1.9512,2.3109,2.3109,0,0,0-1.9688-.791,8.0612,8.0612,0,0,0-4.9746,2.0743,25.2232,25.2232,0,0,0-4.8867,5.414,55.3033,55.3033,0,0,0-4.2188,7.2949,58.9176,58.9176,0,0,0-3.1464,7.8223l-.3516,1.16h-8.3672l6.1524-20.1446a23.2918,23.2918,0,0,0,.9843-4.1133,1.1491,1.1491,0,0,0-.3691-.8964,1.1618,1.1618,0,0,0-.791-.334,2.6181,2.6181,0,0,0-1.2656.4746,6.97,6.97,0,0,0-1.7051,1.67,19.697,19.697,0,0,0-1.9864,3.34h-3.0937a20.3326,20.3326,0,0,1,4.3769-6.8028,9.63,9.63,0,0,1,7.2247-3.0058,7.4987,7.4987,0,0,1,2.7773.5273,4.5223,4.5223,0,0,1,2.127,1.6875,5.066,5.066,0,0,1,.791,2.918,24.7455,24.7455,0,0,1-1.16,5.9765l-1.0195,3.375a48.2266,48.2266,0,0,1,4.2363-6.082,32.3837,32.3837,0,0,1,4.6582-4.6582,18.8124,18.8124,0,0,1,4.6406-2.8477,11.6447,11.6447,0,0,1,4.3946-.8964,7.33,7.33,0,0,1,4.7988,1.5117A4.9587,4.9587,0,0,1,772,702.2314a22.1147,22.1147,0,0,1-1.09,5.5547l-.9493,3.0938a47.9117,47.9117,0,0,1,4.7989-6.75,26.3119,26.3119,0,0,1,6.1172-5.3086,13.4072,13.4072,0,0,1,7.2246-2.1445,6.8583,6.8583,0,0,1,3.7265.914,5.7126,5.7126,0,0,1,2.1094,2.2324,5.6365,5.6365,0,0,1,.668,2.5489,8.5814,8.5814,0,0,1-.1758,1.8457q-.1766.7909-.9141,3.2519l-3.375,10.8985a12.1332,12.1332,0,0,0-.6679,2.7773q0,1.16,1.09,1.16a4.5481,4.5481,0,0,0,2.4258-1.0723,13.3108,13.3108,0,0,0,3.1992-4.0254Z"/><path class="cls-3" d="M833.0664,702.5127a8.0321,8.0321,0,0,1-.8789,3.3223,13.2113,13.2113,0,0,1-3.2168,3.99,20.783,20.783,0,0,1-6.68,3.7266,42.8273,42.8273,0,0,1-10.916,2.2148l-.8438.07a13.3359,13.3359,0,0,0-.2812,2.6016,4.8709,4.8709,0,0,0,1.248,3.7441,5.2113,5.2113,0,0,0,3.6387,1.1426q5.2734,0,10.09-5.6953h3.7265a26.6527,26.6527,0,0,1-6.6093,6.6094,17.2124,17.2124,0,0,1-10.5118,3.2695,11.6513,11.6513,0,0,1-7.2246-2.2676,7.8259,7.8259,0,0,1-3.0058-6.6621A20.3763,20.3763,0,0,1,804.59,708.12a23.72,23.72,0,0,1,8.1563-8.2617,21.059,21.059,0,0,1,11.25-3.1816q4.8867,0,6.9785,1.6523A5.1137,5.1137,0,0,1,833.0664,702.5127Zm-7.418-.1406a3.241,3.241,0,0,0-.8086-2.127,2.7333,2.7333,0,0,0-2.2148-.9668,6.9218,6.9218,0,0,0-4.5176,1.7051,15.875,15.875,0,0,0-3.4629,4.0254,28.1824,28.1824,0,0,0-2.3027,4.7109l-1.1074,2.9532q7.1367-1.1954,10.7754-4.043T825.6484,702.3721Z"/><path class="cls-3" d="M866.043,702.6533a3.6977,3.6977,0,0,1-.9668,2.5313,3.3244,3.3244,0,0,1-2.6192,1.09,3.4818,3.4818,0,0,1-1.9863-.4922,3.2682,3.2682,0,0,1-1.125-1.3711q-.4042-.8789-1.0019-2.6015a3.873,3.873,0,0,0-1.1075-1.8633,4.3252,4.3252,0,0,0-2.7949-.668,5.8962,5.8962,0,0,0-3.2871.9492,2.8691,2.8691,0,0,0-1.459,2.4961,3.7,3.7,0,0,0,.5977,2.0039,9.8784,9.8784,0,0,0,1.459,1.793q.8613.8438,2.6894,2.3906a35.6754,35.6754,0,0,1,5.01,4.7461,7.3567,7.3567,0,0,1,1.5644,4.7813,7.9816,7.9816,0,0,1-1.3359,4.3945,9.3758,9.3758,0,0,1-4.43,3.375,20.5778,20.5778,0,0,1-7.91,1.3008q-6.9256,0-9.7382-2.5488t-2.8125-4.94a3.9946,3.9946,0,0,1,1.09-2.7773,3.7141,3.7141,0,0,1,2.8828-1.1953q3.5859,0,4.1133,4.6054a6.4272,6.4272,0,0,0,1.1074,3.1113q.8613,1.1427,3.5684,1.1426a6.0449,6.0449,0,0,0,3.8672-1.1953,3.7309,3.7309,0,0,0,1.5117-3.0586,4.0437,4.0437,0,0,0-.51-1.9336,9.1309,9.1309,0,0,0-2.1269-2.32q-2.8478-2.3906-4.6934-4.2187a16.4066,16.4066,0,0,1-2.7949-3.5157,7.138,7.138,0,0,1-.9492-3.5507,7.3863,7.3863,0,0,1,1.09-3.586,8.9984,8.9984,0,0,1,4.1133-3.3926,19.0937,19.0937,0,0,1,8.1914-1.4589,21.0882,21.0882,0,0,1,5.3438.58,9.6833,9.6833,0,0,1,3.3574,1.4766,5.1513,5.1513,0,0,1,1.6347,1.8984A4.8305,4.8305,0,0,1,866.043,702.6533Z"/><path class="cls-3" d="M891.8125,697.6963l-.9844,3.2344H883.832l-5.3086,17.3672a10.1772,10.1772,0,0,0-.5976,2.707,2.1174,2.1174,0,0,0,.4922,1.3535,1.5147,1.5147,0,0,0,1.23.6152,4.4833,4.4833,0,0,0,3.586-1.9863,29.438,29.438,0,0,0,2.7773-4.3066h3.3047a22.4275,22.4275,0,0,1-4.4473,6.8027,13.6159,13.6159,0,0,1-4.6406,3.2344,11.6082,11.6082,0,0,1-3.9551.791,6.2222,6.2222,0,0,1-4.7109-1.7578,6.4686,6.4686,0,0,1-1.6875-4.6758,19.8978,19.8978,0,0,1,1.0547-5.4492l4.57-14.6953h-6.5742l1.0195-3.2344h6.5391l3.2344-10.7227h8.3671l-3.2343,10.7227Z"/><path class="cls-3" d="M923.8047,702.5127a8.0321,8.0321,0,0,1-.8789,3.3223,13.2128,13.2128,0,0,1-3.2168,3.99,20.783,20.783,0,0,1-6.68,3.7266,42.8273,42.8273,0,0,1-10.916,2.2148l-.8438.07a13.3282,13.3282,0,0,0-.2812,2.6016,4.8709,4.8709,0,0,0,1.248,3.7441,5.2111,5.2111,0,0,0,3.6387,1.1426q5.2734,0,10.09-5.6953h3.7266a26.6516,26.6516,0,0,1-6.6094,6.6094,17.2119,17.2119,0,0,1-10.5117,3.2695,11.6513,11.6513,0,0,1-7.2246-2.2676,7.826,7.826,0,0,1-3.0059-6.6621,20.3755,20.3755,0,0,1,2.9883-10.459,23.72,23.72,0,0,1,8.1563-8.2617,21.059,21.059,0,0,1,11.25-3.1816q4.8867,0,6.9785,1.6523A5.1137,5.1137,0,0,1,923.8047,702.5127Zm-7.418-.1406a3.241,3.241,0,0,0-.8086-2.127,2.7333,2.7333,0,0,0-2.2148-.9668,6.9218,6.9218,0,0,0-4.5176,1.7051,15.875,15.875,0,0,0-3.4629,4.0254A28.1746,28.1746,0,0,0,903.08,709.72l-1.1074,2.9532q7.1367-1.1954,10.7753-4.043T916.3867,702.3721Z"/><path class="cls-3" d="M957.59,701.2822a6.5262,6.5262,0,0,1-1.23,3.92,3.689,3.689,0,0,1-3.0938,1.7051,4.1429,4.1429,0,0,1-3.0937-1.8633,2.2614,2.2614,0,0,0-1.6524-1.09q-.9492,0-2.6015,1.7754a27.3971,27.3971,0,0,0-3.3926,4.7285,65.8523,65.8523,0,0,0-3.4277,6.7676,70.355,70.355,0,0,0-2.918,7.8223l-.4219,1.4414h-8.2617l5.5195-19.7227a16.1933,16.1933,0,0,0,.8789-3.9727,1.5707,1.5707,0,0,0-.2461-.8261.8394.8394,0,0,0-.7734-.4043q-1.3711,0-2.7773,1.916a19.3481,19.3481,0,0,0-2.1094,3.498h-3.2344a26.111,26.111,0,0,1,4.166-6.31,13.3888,13.3888,0,0,1,4.1133-3.1113,9.0189,9.0189,0,0,1,3.6035-.8789q2.8125,0,3.6387,1.7578a8.0623,8.0623,0,0,1,.8262,3.4453q0,3.0585-1.9688,9.6328,2.004-3.4454,3.2871-5.5195a43.4733,43.4733,0,0,1,3.0586-4.2891,18.7653,18.7653,0,0,1,3.7617-3.6211,6.7366,6.7366,0,0,1,3.8848-1.4062q2.707,0,3.5859,1.5293A6.12,6.12,0,0,1,957.59,701.2822Z"/><path class="cls-3" d="M1013.0312,707.1182a20.0645,20.0645,0,0,1-1.4238,7.3652,22.4047,22.4047,0,0,1-3.9726,6.5742,19.6288,19.6288,0,0,1-6.0293,4.6934,16.0114,16.0114,0,0,1-7.3125,1.7578,10.12,10.12,0,0,1-4.9219-1.0195,11.66,11.66,0,0,1-3.2695-2.7422L982.34,736.0518a9.7046,9.7046,0,0,0-.4921,2.1093,1.5782,1.5782,0,0,0,1.23,1.6,13.437,13.437,0,0,0,3.8672.4043h1.7227l-.9141,3.0938H965.5l.9492-3.0938H967.82a12.586,12.586,0,0,0,3.4981-.3515,2.8064,2.8064,0,0,0,1.6523-1.3008,21.12,21.12,0,0,0,1.3887-3.6563L983.5,704.9033a8.7579,8.7579,0,0,0,.4922-2.5312,1.8075,1.8075,0,0,0-.3164-1.0547.95.95,0,0,0-.8086-.457,3.4758,3.4758,0,0,0-2.18,1.248,14.838,14.838,0,0,0-2.6719,4.5176h-3.375a38.5071,38.5071,0,0,1,2.0918-4.2364,13.8557,13.8557,0,0,1,3.4981-3.85,8.8438,8.8438,0,0,1,5.66-1.8632q5.9063,0,5.9063,5.9765,5.5546-5.9766,11.4258-5.9765a9.1657,9.1657,0,0,1,5.9414,1.7929,9.2616,9.2616,0,0,1,3.041,4.166A13.6521,13.6521,0,0,1,1013.0312,707.1182Zm-8.6484-.8438a6.9,6.9,0,0,0-1.1426-3.9023,3.6754,3.6754,0,0,0-3.2519-1.7227,6.7383,6.7383,0,0,0-4.6934,2.1445,20.6379,20.6379,0,0,0-3.9551,5.4844,30.6948,30.6948,0,0,0-1.81,4.2363,35.9058,35.9058,0,0,0-1.1074,3.92,14.4778,14.4778,0,0,0-.3867,2.9179,5.9205,5.9205,0,0,0,1.371,3.9024,4.5108,4.5108,0,0,0,3.6563,1.6523,7.5309,7.5309,0,0,0,5.9063-3.1992,22.9577,22.9577,0,0,0,4.0078-7.6289A26.25,26.25,0,0,0,1004.3828,706.2744Z"/><path class="cls-3" d="M1052.8633,718.0518a25.0743,25.0743,0,0,1-2.2852,3.7968,17.337,17.337,0,0,1-2.8125,3.0235,12.4981,12.4981,0,0,1-3.1113,1.9687,8.2005,8.2005,0,0,1-3.252.668q-3.6914,0-4.7285-2.2324a12.5534,12.5534,0,0,1-1.0371-5.3262,36.4845,36.4845,0,0,1-5.5547,5.4492,9.9887,9.9887,0,0,1-6.2578,2.1094,5.2,5.2,0,0,1-3.4453-1.1426,6.6558,6.6558,0,0,1-2.0215-3.0762,12.929,12.929,0,0,1-.65-4.1484,24.0049,24.0049,0,0,1,2.4258-10.0195,25.6625,25.6625,0,0,1,6.5918-8.8594,13.5252,13.5252,0,0,1,8.9824-3.5859,6.021,6.021,0,0,1,3.48.8789,4.7836,4.7836,0,0,1,1.74,1.9687,16.7755,16.7755,0,0,1,.8262,2.4258l1.3008-4.3945h7.77l-6.539,21.4453a15.66,15.66,0,0,0-.7032,2.8125,1.084,1.084,0,0,0,.2989.7734.9187.9187,0,0,0,.6855.3164q2.2851,0,4.8867-4.8515ZM1039.75,704.0244a6.2433,6.2433,0,0,0-.65-2.9531,2.4412,2.4412,0,0,0-2.373-1.2305q-2.6367,0-5.1153,3.041a24.4781,24.4781,0,0,0-4.0078,7.3477,22.4864,22.4864,0,0,0-1.5293,7.26q0,4.2539,2.6719,4.2539a5.8833,5.8833,0,0,0,3.8144-1.7051,17.92,17.92,0,0,0,3.6036-4.5527,28.5414,28.5414,0,0,0,2.6543-5.9766A18.7988,18.7988,0,0,0,1039.75,704.0244Zm9.2812-17.93a6.7222,6.7222,0,0,1-6.75,6.7852,6.6506,6.6506,0,0,1-3.4277-.8965,7.0208,7.0208,0,0,1-2.4785-2.4609,6.6536,6.6536,0,0,1-.0176-6.82,6.8794,6.8794,0,0,1,5.9238-3.3574,6.7219,6.7219,0,0,1,6.75,6.75Zm-2.8476,0a3.9341,3.9341,0,0,0-.5449-2.0215,4.055,4.055,0,0,0-1.4766-1.4765,3.9339,3.9339,0,0,0-2.0215-.5449,3.8436,3.8436,0,0,0-2.8652,1.2128,3.9354,3.9354,0,0,0-1.1777,2.83,3.8681,3.8681,0,0,0,1.1777,2.9,4.1418,4.1418,0,0,0,5.7129,0A3.8394,3.8394,0,0,0,1046.1836,686.0947Z"/><path class="cls-3" d="M1133.7578,678.8174l-.9844,3.2344a14.6715,14.6715,0,0,0-1.8457.1054,9.7261,9.7261,0,0,0-1.8632.4571,16.2385,16.2385,0,0,0-2.6895,1.3007,43.0337,43.0337,0,0,0-3.9023,2.6016l-17.1563,12.41,11.0391,20.0742a15.4827,15.4827,0,0,0,1.6,2.5488,4.1013,4.1013,0,0,0,1.8633,1.3184,9.9718,9.9718,0,0,0,3.1464.3867l-1.0195,3.2344H1100.5l1.02-3.2344a13.9266,13.9266,0,0,0,3.6563-.3867,1.7474,1.7474,0,0,0,1.3711-1.8633,4.13,4.13,0,0,0-.5625-2.0039l-8.0156-14.625-6.68,4.9219-2.32,7.4882a13.4717,13.4717,0,0,0-.6329,3.0938,2.7779,2.7779,0,0,0,1.336,2.5664,6.3511,6.3511,0,0,0,3.34.8086l-.9492,3.2344H1071.918l1.02-3.2344q2.953,0,4.0781-1.2656a10.9786,10.9786,0,0,0,1.9688-4.0782l8.93-29.4257a16.9721,16.9721,0,0,0,.7031-3.0235q0-3.41-4.6055-3.41l1.0195-3.2344h20.9532l-.9492,3.2344a14.44,14.44,0,0,0-3.6563.3339,3.4232,3.4232,0,0,0-1.916,1.459,13.9745,13.9745,0,0,0-1.4941,3.5508l-5.0977,16.5586,21.0234-15.4687q3.1641-2.3907,3.1641-4.1133,0-2.32-4.2539-2.32h-.9844l.9844-3.2344Z"/><path class="cls-3" d="M1170.5664,690.4189h-3.3047a22.1007,22.1007,0,0,0-3.041-5.6953,5.7574,5.7574,0,0,0-2.9707-2.0566,22.0159,22.0159,0,0,0-4.7109-.3691h-5.2032l-5.3789,17.7539h2.3555a14.9149,14.9149,0,0,0,5.0449-.668,5.4488,5.4488,0,0,0,2.7246-2.1094,17.4565,17.4565,0,0,0,1.8282-4.2539h3.4453l-5.7657,18.7734h-3.4453a15.7472,15.7472,0,0,0,.8438-4.3242q0-2.5664-1.7051-3.2519a10.9719,10.9719,0,0,0-4.0957-.6856h-2.32l-4.1836,13.5352a9.1225,9.1225,0,0,0-.4922,2.8125,2.4358,2.4358,0,0,0,.5977,1.6875,4.6112,4.6112,0,0,0,2.373,1.0722,21.7,21.7,0,0,0,4.6582.4043q6.2929,0,9.5449-2.496a21.9574,21.9574,0,0,0,5.7129-6.961h3.5508l-3.9727,12.9024h-38.32l1.02-3.2344a4.3031,4.3031,0,0,0,3.6386-1.4414,12.1077,12.1077,0,0,0,1.8457-3.9024l9.07-29.8125a11.6606,11.6606,0,0,0,.6328-2.7773,2.6611,2.6611,0,0,0-1.3008-2.5488,6.4432,6.4432,0,0,0-3.1641-.7207l.9492-3.2344h33.1875Z"/><path class="cls-3" d="M1213.2812,723.2549l-.9492,3.2344h-21.6562l.9844-3.2344a10.9674,10.9674,0,0,0,4.1836-.6328,3.8488,3.8488,0,0,0,2.1093-2.3028,14.2757,14.2757,0,0,0,.6328-4.8339v-5.9766h-14.9765l-5.1328,7.4883q-1.8633,2.7772-1.8633,4.0078,0,2.25,4.3242,2.25h2.0039l-.9844,3.2344h-17.0859l1.0195-3.2344a8.0679,8.0679,0,0,0,4.834-2.4082,40.9,40.9,0,0,0,5.2559-6.24l25.84-36.6328h6.1172l-.4922,39.7266a8.7777,8.7777,0,0,0,.5274,3.498,3.0031,3.0031,0,0,0,1.7578,1.6A10.676,10.676,0,0,0,1213.2812,723.2549Zm-14.3437-35.6485-12.9727,18.668h12.6211Z"/></g></svg>
