<svg xmlns="http://www.w3.org/2000/svg" viewBox="0 0 502.6131 792.0329"><defs><style>.cls-1,.cls-12,.cls-18{fill:none;}.cls-1{stroke:#777173;}.cls-1,.cls-10,.cls-11,.cls-12,.cls-18,.cls-2,.cls-3,.cls-4,.cls-5,.cls-6,.cls-7,.cls-8,.cls-9{stroke-miterlimit:10;}.cls-2,.cls-5{fill:#b5aeb0;}.cls-2{stroke:#686164;}.cls-3{fill:#706d6e;}.cls-10,.cls-11,.cls-3,.cls-9{stroke:#706d6e;}.cls-4{fill:#f4456f;stroke:#f4456f;}.cls-5{stroke:#b5aeb0;}.cls-6{fill:#e25081;stroke:#e25081;}.cls-7{fill:#d3728d;stroke:#d3728d;}.cls-8{fill:#efabbe;stroke:#efabbe;}.cls-9{fill:#73d2ef;}.cls-10{fill:#444343;}.cls-11{fill:#fcf7f7;}.cls-12{stroke:#514f50;stroke-width:3px;}.cls-13{fill:#8b42ea;}.cls-14{fill:#5712c4;}.cls-15{fill:#b7b206;}.cls-16{fill:#381c66;}.cls-17{fill:#583699;}.cls-18{stroke:#756c6f;stroke-width:0.25px;}</style></defs><title>Asset 1</title><g id="Layer_2" data-name="Layer 2"><g id="kæphest"><path class="cls-1" d="M200.3693,243.5913s14.0919-.8807,25.5415-5.2845c0,0,18.4957-9.6881,22.8994-14.0919" transform="translate(-151.0867)"/><path class="cls-2" d="M200.3693,243.5913s27.303.8808,48.4409-19.3764h0" transform="translate(-151.0867)"/></g><g id="outline"><path class="cls-3" d="M413.5093,310.5279,651.31,771.157s6.1374,11.33-3.7094,17.7462c-8.2672,5.3863-19.4293,2.1553-24.0437-6.5662L380.9218,323.739S395.0137,326.3812,413.5093,310.5279Z" transform="translate(-151.0867)"/><path class="cls-4" d="M300.3337,236.9857S296.37,313.17,356.2609,324.62c0,0,82.79,14.0919,95.5608-74.4229,0,0,12.7708-73.5421-49.3217-132.9924,0,0-36.11-34.349-65.1751-40.5142L300.3337,61.7177s-51.0832-22.8994-88.0744,88.0744c0,0,37.872,3.5229,47.56,72.221Z" transform="translate(-151.0867)"/><path class="cls-4" d="M259.4417,221.6241c1.36,1.1359,23.978,21.0369-18.8892,54.1323a.2368.2368,0,0,1-.3772-.2392c1.5244-5.8711,12.5421-48.8877,8.74-51.2487a.232.232,0,0,0-.2132-.006c-2.2133.9663-38.3238,16.1833-83.5282.845a.2329.2329,0,0,1-.0646-.0333c-1.0016-.7324-26.8235-20.1777-4.3864-62.4881a.2.2,0,0,1,.0258-.0392c.6163-.73,22.4131-26.1952,51.9112-13.2125a.2017.2017,0,0,0,.0759.0186c1.2883.0553,36.2395,2.1955,46.63,72.1307A.2177.2177,0,0,0,259.4417,221.6241Z" transform="translate(-151.0867)"/><path class="cls-5" d="M248.81,224.2149s1.7615,27.3031-8.8075,51.9639c0,0-24.6608,9.6882-39.6334-32.5875,0,0-28.9661-5.9636-35.7865-18.7287a.27.27,0,0,1,.34-.3744C170.3361,226.6518,208.0652,240.5129,248.81,224.2149Z" transform="translate(-151.0867)"/><path class="cls-6" d="M300.7741,62.158s-10.569-26.4223-13.2112-26.4223L246.1679.506s-27.303.8807-3.5229,42.2757c0,0,14.9353,17.22,33.0092,19.1791C275.6542,61.9608,283.1592,61.2773,300.7741,62.158Z" transform="translate(-151.0867)"/><path class="cls-6" d="M328.0771,81.5344s20.2571,5.2845-8.8074-62.5328c0,0-24.2929-16.3438-28,21.333C291.27,40.3346,307.82,83.2959,328.0771,81.5344Z" transform="translate(-151.0867)"/><path class="cls-7" d="M314.866,62.158s-3.523-35.23-7.046-36.11c0,0-13.2111-2.6422-11.45,13.2112C296.37,39.2587,300.7741,55.1121,314.866,62.158Z" transform="translate(-151.0867)"/><path class="cls-7" d="M279.6362,57.7543s-20.2571-7.9267-22.0186-26.4223c0,0-12.33-19.3764-14.9726-19.3764,0,0-8.8075,18.4957,3.5229,29.0646C246.1679,41.02,263.7828,60.3966,279.6362,57.7543Z" transform="translate(-151.0867)"/><path class="cls-8" d="M329.5008,45.5969s70.07,10.41,102.2519,82.7286c0,0,31.25,56.4218,20.5093,88.8435,0,0-5.436-89.533-100.1317-135.49-.54.4694-14.3-4.0018-17.0072-6.31C335.1231,75.3692,332.4809,52.47,329.5008,45.5969Z" transform="translate(-151.0867)"/><path class="cls-8" d="M300.3337,61.7177s21.5782,12.7708-22.459,26.8627a213.602,213.602,0,0,1-32.5875,15.8534s-3.523-6.3313,0-19.9C245.2872,84.534,264.6636,53.3506,300.3337,61.7177Z" transform="translate(-151.0867)"/></g><g id="detaljer"><ellipse class="cls-9" cx="160.6967" cy="126.012" rx="15.413" ry="16.2938"/><circle class="cls-10" cx="160.6967" cy="126.012" r="11.89"/><ellipse class="cls-11" cx="156.7333" cy="121.6083" rx="4.4037" ry="3.9633"/><circle class="cls-12" cx="129.8706" cy="200.8752" r="10.1286"/><path class="cls-13" d="M269.8256,199.2407c-6.3744-7.4878-40.4942-46.2781-47.388-48.9892a.3007.3007,0,0,1-.0881-.0506c-.4656-.38-5.08-4.0644-9.1519-4.3541a.3961.3961,0,0,1-.3653-.5038c.2783-.9663.9536-3.0373,1.6289-3.0373.8807,0,8.8074-.8807,19.3763,5.2845,0,0,10.5628,5.2814,22.8885,22.0039.0072.01.0149.0192.0229.0281l19.5219,21.719a.399.399,0,0,1-.1038.6181c-1.2784.6863-4.8458,2.9441-5.4055,7.0132A.5342.5342,0,0,1,269.8256,199.2407Z" transform="translate(-151.0867)"/><path class="cls-13" d="M274.4885,210.0958c-.2969,3.3162-1.1969,11.9326-2.8369,16.0693a.6265.6265,0,0,0,.8519.8059,21.6637,21.6637,0,0,0,5.3129-3.5789c.0382-.0377.086-.0508.1224-.09a19.3778,19.3778,0,0,0,7.0989-12.3224.6051.6051,0,0,0-.78-.615c-1.7837.4629-6.1753,1.3117-8.7644-.6963A.62.62,0,0,0,274.4885,210.0958Z" transform="translate(-151.0867)"/><path class="cls-13" d="M284.04,189.8659c-.0195-.011,1.0188-.893,1.0342-.9093,1.3881-1.4786,56.2142-59.8955,56.2142-62.5042,0,0,9.5741-40.9077,8.8219-43.9864-.0063-.0258.0165-.042.0421-.0347l6.0821,1.7377a.0333.0333,0,0,1,.0254.0336c-.0513,1.157-3.5218,39.6075-7.0421,51.9321l-.0039.007c-.2944.2945-55.9409,55.9519-58.0655,62.2224a.033.033,0,0,1-.0653-.0061C291.0351,197.06,289.4463,192.9155,284.04,189.8659Z" transform="translate(-151.0867)"/><path class="cls-13" d="M323.6734,81.094s12.33,22.1741,17.6149,47.12l3.9883-17.4523s-11.0343-30.9886-12.7957-30.1078Z" transform="translate(-151.0867)"/><path class="cls-13" d="M288.6229,233.213a.3355.3355,0,0,1-.0906-.6331c4.1356-1.9377,20.44-10.0935,28.0952-21.5761,0,0,13.2111-18.4956,19.3763-46.68,0,0,1.12-9.8338,1.3211-16.2937l10.569-10.5689s-1.3267,32.2465-10.9581,53.1979c-.0473.1027-.091.2055-.1286.312-.865,2.4487-9.6829,24.3074-25.4642,36.7663C311.343,227.7379,301.3349,235.244,288.6229,233.213Z" transform="translate(-151.0867)"/><path class="cls-13" d="M299.453,190.3063c1.99,2.6024,13.47,11.67,18.0552,18.0552,0,0,7.9267,9.6882,14.0919,31.7068,0,0,10.5689,31.7068,14.0919,45.7987,0,0,12.33,35.23,28.1838,51.0832a80.5413,80.5413,0,0,0,39.6335,25.5415s18.4956,4.4038,24.6608-4.4037c0,0,5.2845-7.9267,0-11.45a12.6324,12.6324,0,0,0-8.8074-5.2845s9.674,7.2555,7.4261,10.1973a3.7268,3.7268,0,0,0-.4094.9125c-.8515,2.1013-3.0044,9.2941-27.2738,4.7436,0,0-19.3764-3.523-35.23-22.8994,0,0-25.5416-38.7527-29.0645-59.01,0,0-4.4038-41.395-10.569-51.9639,0,0-7.9267-21.1379-18.4956-26.4223a58.86,58.86,0,0,0-18.0552-8.3671C297.5268,188.5047,299.35,190.1717,299.453,190.3063Z" transform="translate(-151.0867)"/><path class="cls-14" d="M291.17,197.2666c1.5671-2.2426,4.688-6.5315,6.6613-8.0639a.4446.4446,0,0,1,.573.029c1.3322,1.2048,7.1953,6.5117,9.7668,8.9179a.4577.4577,0,0,1-.3883.7868c-3.5149-.6041-12.3208-1.9466-16.131-.9665A.4545.4545,0,0,1,291.17,197.2666Z" transform="translate(-151.0867)"/><polygon class="cls-15" points="189.074 126.783 198.906 136.286 201.749 119.109 193.284 108.397 189.074 126.783"/><circle class="cls-16" cx="37.8329" cy="186.3429" r="3.9633"/><circle class="cls-17" cx="37.3925" cy="186.7833" r="2.6422"/><path class="cls-18" d="M199.9289,244.0317s26.9009,5.6772,49.3216-20.2571" transform="translate(-151.0867)"/></g></g></svg>
