<svg xmlns="http://www.w3.org/2000/svg" viewBox="0 0 1562 860.4135"><defs><style>.cls-1{fill:#efca16;}.cls-1,.cls-2{opacity:0.92;}.cls-2{fill:#070707;}</style></defs><title>Asset 4</title><g id="Layer_2" data-name="Layer 2"><g id="Layer_1-2" data-name="Layer 1"><ellipse class="cls-1" cx="242" cy="450.5075" rx="21" ry="21.2368"/><ellipse class="cls-2" cx="166" cy="253.0902" rx="8" ry="8.0902"/><ellipse class="cls-1" cx="63.1301" cy="171.6429" rx="39.1301" ry="39.5714"/><ellipse class="cls-1" cx="191" cy="307.1241" rx="8" ry="8.0902"/><ellipse class="cls-2" cx="42" cy="48.2556" rx="14" ry="14.1579"/><ellipse class="cls-2" cx="151" cy="542.0583" rx="7" ry="7.5846"/><ellipse class="cls-2" cx="116" cy="668.265" rx="9" ry="9.6071"/><ellipse class="cls-1" cx="212" cy="668.5075" rx="21" ry="21.2368"/><ellipse class="cls-2" cx="150.7825" cy="411.1974" rx="17.7825" ry="17.9831"/><ellipse class="cls-1" cx="107" cy="808.2744" rx="18" ry="18.203"/><ellipse class="cls-1" cx="234" cy="171.1241" rx="8" ry="8.0902"/><ellipse class="cls-2" cx="14" cy="313.2556" rx="14" ry="14.1579"/><ellipse class="cls-2" cx="219" cy="624.0583" rx="7" ry="7.5846"/><ellipse class="cls-2" cx="42" cy="780.265" rx="9" ry="9.6071"/><ellipse class="cls-1" cx="28" cy="662.5075" rx="21" ry="21.2368"/><ellipse class="cls-2" cx="134" cy="327.0902" rx="8" ry="8.0902"/><ellipse class="cls-1" cx="28" cy="406.2744" rx="18" ry="18.203"/><ellipse class="cls-1" cx="151" cy="730.1241" rx="8" ry="8.0902"/><ellipse class="cls-2" cx="206.8978" cy="815.8139" rx="44.1022" ry="44.5996"/><ellipse class="cls-2" cx="35" cy="618.0583" rx="7" ry="7.5846"/><ellipse class="cls-2" cx="71.5506" cy="512.0432" rx="20.4494" ry="21.8289"/><ellipse class="cls-1" cx="199" cy="83.1241" rx="8" ry="8.0902"/><ellipse class="cls-2" cx="159" cy="13.0902" rx="8" ry="8.0902"/><ellipse class="cls-1" cx="525" cy="458.5075" rx="21" ry="21.2368"/><ellipse class="cls-2" cx="449" cy="261.0902" rx="8" ry="8.0902"/><ellipse class="cls-1" cx="399" cy="109.2744" rx="18" ry="18.203"/><ellipse class="cls-1" cx="474" cy="315.1241" rx="8" ry="8.0902"/><ellipse class="cls-2" cx="325" cy="56.2556" rx="14" ry="14.1579"/><ellipse class="cls-2" cx="434" cy="550.0583" rx="7" ry="7.5846"/><ellipse class="cls-2" cx="399" cy="676.265" rx="9" ry="9.6071"/><ellipse class="cls-1" cx="495" cy="676.5075" rx="21" ry="21.2368"/><ellipse class="cls-2" cx="433.7825" cy="419.1974" rx="17.7825" ry="17.9831"/><ellipse class="cls-1" cx="390" cy="816.2744" rx="18" ry="18.203"/><ellipse class="cls-1" cx="517" cy="179.1241" rx="8" ry="8.0902"/><ellipse class="cls-2" cx="297" cy="321.2556" rx="14" ry="14.1579"/><ellipse class="cls-2" cx="502" cy="632.0583" rx="7" ry="7.5846"/><ellipse class="cls-2" cx="325" cy="788.265" rx="9" ry="9.6071"/><ellipse class="cls-1" cx="311" cy="670.5075" rx="21" ry="21.2368"/><ellipse class="cls-2" cx="417" cy="335.0902" rx="8" ry="8.0902"/><ellipse class="cls-1" cx="311" cy="414.2744" rx="18" ry="18.203"/><ellipse class="cls-1" cx="434" cy="738.1241" rx="8" ry="8.0902"/><ellipse class="cls-2" cx="354.8978" cy="194.8139" rx="44.1022" ry="44.5996"/><ellipse class="cls-2" cx="318" cy="626.0583" rx="7" ry="7.5846"/><ellipse class="cls-2" cx="354.5506" cy="520.0432" rx="20.4494" ry="21.8289"/><ellipse class="cls-1" cx="482" cy="91.1241" rx="8" ry="8.0902"/><ellipse class="cls-2" cx="442" cy="21.0902" rx="8" ry="8.0902"/><ellipse class="cls-1" cx="872" cy="211.5075" rx="21" ry="21.2368"/><ellipse class="cls-2" cx="717" cy="248.0902" rx="8" ry="8.0902"/><ellipse class="cls-1" cx="667" cy="96.2744" rx="18" ry="18.203"/><ellipse class="cls-1" cx="742" cy="302.1241" rx="8" ry="8.0902"/><ellipse class="cls-2" cx="72" cy="256.2556" rx="14" ry="14.1579"/><ellipse class="cls-2" cx="702" cy="537.0583" rx="7" ry="7.5846"/><ellipse class="cls-2" cx="667" cy="663.265" rx="9" ry="9.6071"/><ellipse class="cls-1" cx="763" cy="663.5075" rx="21" ry="21.2368"/><ellipse class="cls-2" cx="701.7825" cy="406.1974" rx="17.7825" ry="17.9831"/><ellipse class="cls-1" cx="658" cy="803.2744" rx="18" ry="18.203"/><ellipse class="cls-1" cx="785" cy="166.1241" rx="8" ry="8.0902"/><ellipse class="cls-2" cx="565" cy="308.2556" rx="14" ry="14.1579"/><ellipse class="cls-2" cx="770" cy="619.0583" rx="7" ry="7.5846"/><ellipse class="cls-2" cx="593" cy="775.265" rx="9" ry="9.6071"/><ellipse class="cls-1" cx="579" cy="657.5075" rx="21" ry="21.2368"/><ellipse class="cls-2" cx="607" cy="211.0902" rx="8" ry="8.0902"/><ellipse class="cls-1" cx="1141" cy="219.2744" rx="18" ry="18.203"/><ellipse class="cls-1" cx="702" cy="725.1241" rx="8" ry="8.0902"/><ellipse class="cls-2" cx="1381.8978" cy="69.8139" rx="44.1022" ry="44.5996"/><ellipse class="cls-2" cx="586" cy="613.0583" rx="7" ry="7.5846"/><ellipse class="cls-2" cx="622.5506" cy="507.0432" rx="20.4494" ry="21.8289"/><ellipse class="cls-1" cx="750" cy="78.1241" rx="8" ry="8.0902"/><ellipse class="cls-2" cx="710" cy="8.0902" rx="8" ry="8.0902"/><ellipse class="cls-1" cx="1079" cy="449.5075" rx="21" ry="21.2368"/><ellipse class="cls-2" cx="1003" cy="252.0902" rx="8" ry="8.0902"/><ellipse class="cls-1" cx="953" cy="100.2744" rx="18" ry="18.203"/><ellipse class="cls-1" cx="1028" cy="306.1241" rx="8" ry="8.0902"/><ellipse class="cls-2" cx="879" cy="47.2556" rx="14" ry="14.1579"/><ellipse class="cls-2" cx="988" cy="541.0583" rx="7" ry="7.5846"/><ellipse class="cls-2" cx="953" cy="667.265" rx="9" ry="9.6071"/><ellipse class="cls-1" cx="1049" cy="667.5075" rx="21" ry="21.2368"/><ellipse class="cls-2" cx="987.7825" cy="410.1974" rx="17.7825" ry="17.9831"/><ellipse class="cls-1" cx="944" cy="807.2744" rx="18" ry="18.203"/><ellipse class="cls-1" cx="1071" cy="170.1241" rx="8" ry="8.0902"/><ellipse class="cls-2" cx="851" cy="312.2556" rx="14" ry="14.1579"/><ellipse class="cls-2" cx="1056" cy="623.0583" rx="7" ry="7.5846"/><ellipse class="cls-2" cx="814" cy="780.265" rx="9" ry="9.6071"/><ellipse class="cls-1" cx="865" cy="725.5075" rx="21" ry="21.2368"/><ellipse class="cls-2" cx="971" cy="326.0902" rx="8" ry="8.0902"/><ellipse class="cls-1" cx="865" cy="405.2744" rx="18" ry="18.203"/><ellipse class="cls-1" cx="988" cy="729.1241" rx="8" ry="8.0902"/><ellipse class="cls-2" cx="524.8978" cy="555.8139" rx="44.1022" ry="44.5996"/><ellipse class="cls-2" cx="872" cy="617.0583" rx="7" ry="7.5846"/><ellipse class="cls-2" cx="908.5506" cy="511.0432" rx="20.4494" ry="21.8289"/><ellipse class="cls-1" cx="1036" cy="82.1241" rx="8" ry="8.0902"/><ellipse class="cls-2" cx="996" cy="12.0902" rx="8" ry="8.0902"/><ellipse class="cls-1" cx="1316" cy="472.5075" rx="21" ry="21.2368"/><ellipse class="cls-2" cx="1240" cy="275.0902" rx="8" ry="8.0902"/><ellipse class="cls-1" cx="1190" cy="123.2744" rx="18" ry="18.203"/><ellipse class="cls-1" cx="1265" cy="329.1241" rx="8" ry="8.0902"/><ellipse class="cls-2" cx="1116" cy="70.2556" rx="14" ry="14.1579"/><ellipse class="cls-2" cx="1225" cy="564.0583" rx="7" ry="7.5846"/><ellipse class="cls-2" cx="1190" cy="690.265" rx="9" ry="9.6071"/><ellipse class="cls-1" cx="1286" cy="690.5075" rx="21" ry="21.2368"/><ellipse class="cls-2" cx="1224.7825" cy="433.1974" rx="17.7825" ry="17.9831"/><ellipse class="cls-1" cx="1181" cy="830.2744" rx="18" ry="18.203"/><ellipse class="cls-1" cx="1308" cy="193.1241" rx="8" ry="8.0902"/><ellipse class="cls-2" cx="1088" cy="335.2556" rx="14" ry="14.1579"/><ellipse class="cls-2" cx="1293" cy="646.0583" rx="7" ry="7.5846"/><ellipse class="cls-2" cx="1116" cy="802.265" rx="9" ry="9.6071"/><ellipse class="cls-1" cx="1102" cy="684.5075" rx="21" ry="21.2368"/><ellipse class="cls-2" cx="1208" cy="349.0902" rx="8" ry="8.0902"/><ellipse class="cls-1" cx="832" cy="542.2744" rx="18" ry="18.203"/><ellipse class="cls-1" cx="1225" cy="752.1241" rx="8" ry="8.0902"/><ellipse class="cls-2" cx="1359.8978" cy="815.8139" rx="44.1022" ry="44.5996"/><ellipse class="cls-2" cx="1109" cy="640.0583" rx="7" ry="7.5846"/><ellipse class="cls-2" cx="1145.5506" cy="534.0432" rx="20.4494" ry="21.8289"/><ellipse class="cls-1" cx="1273" cy="105.1241" rx="8" ry="8.0902"/><ellipse class="cls-2" cx="1233" cy="35.0902" rx="8" ry="8.0902"/><ellipse class="cls-1" cx="1419" cy="244.5075" rx="21" ry="21.2368"/><ellipse class="cls-1" cx="1456" cy="150.2744" rx="18" ry="18.203"/><ellipse class="cls-2" cx="1500" cy="700.265" rx="9" ry="9.6071"/><ellipse class="cls-1" cx="1491" cy="840.2744" rx="18" ry="18.203"/><ellipse class="cls-2" cx="1398" cy="345.2556" rx="14" ry="14.1579"/><ellipse class="cls-2" cx="1426" cy="812.265" rx="9" ry="9.6071"/><ellipse class="cls-1" cx="1412" cy="694.5075" rx="21" ry="21.2368"/><ellipse class="cls-2" cx="1518" cy="359.0902" rx="8" ry="8.0902"/><ellipse class="cls-1" cx="649" cy="283.2744" rx="18" ry="18.203"/><ellipse class="cls-2" cx="1419" cy="650.0583" rx="7" ry="7.5846"/><ellipse class="cls-2" cx="1432.5506" cy="471.0432" rx="20.4494" ry="21.8289"/><ellipse class="cls-1" cx="1379" cy="575.2744" rx="18" ry="18.203"/><ellipse class="cls-1" cx="1541" cy="206.5075" rx="21" ry="21.2368"/><ellipse class="cls-2" cx="1548" cy="42.2556" rx="14" ry="14.1579"/><ellipse class="cls-2" cx="709" cy="195.265" rx="9" ry="9.6071"/><ellipse class="cls-2" cx="1520" cy="307.2556" rx="14" ry="14.1579"/><ellipse class="cls-2" cx="1548" cy="774.265" rx="9" ry="9.6071"/><ellipse class="cls-1" cx="1534" cy="656.5075" rx="21" ry="21.2368"/><ellipse class="cls-2" cx="981" cy="158.0902" rx="8" ry="8.0902"/><ellipse class="cls-1" cx="1534" cy="400.2744" rx="18" ry="18.203"/><ellipse class="cls-2" cx="1541" cy="612.0583" rx="7" ry="7.5846"/><ellipse class="cls-2" cx="587.5506" cy="382.0432" rx="20.4494" ry="21.8289"/><ellipse class="cls-1" cx="1501" cy="537.2744" rx="18" ry="18.203"/></g></g></svg>
