<svg xmlns="http://www.w3.org/2000/svg" viewBox="0 0 10497 910"><defs><style>.cls-1,.cls-5,.cls-6,.cls-9{fill:none;}.cls-1,.cls-3,.cls-5,.cls-8{stroke:#000;}.cls-1,.cls-3,.cls-5,.cls-6,.cls-8{stroke-miterlimit:10;}.cls-1,.cls-3{stroke-width:3px;}.cls-2{fill:#008427;}.cls-3,.cls-7{fill:#fff;}.cls-4{fill:#d9e021;}.cls-5,.cls-6,.cls-8{stroke-width:2px;}.cls-6{stroke:#1c280a;}.cls-8{fill:#c1272d;}</style></defs><title>slangesnak10</title><g id="Layer_4" data-name="Layer 4"><path class="cls-1" d="M160,326.39" transform="translate(0.06 8)"/><path class="cls-1" d="M1326.15,685.27" transform="translate(0.06 8)"/><path class="cls-2" d="M1450.62,775c-.61-1.52-1.17-3-1.7-4.59,0,1.73,0,3.47-.05,5.21Z" transform="translate(0.06 8)"/><path class="cls-2" d="M1438.82,774.71a5,5,0,0,1-5-4.94,212.17,212.17,0,0,1,2.65-29.41c-32.64,11.32-69.14,30.43-87.39,36.1-46-.79-20.47-41-19.93-70.08-3.49-116-156.92-95.71-226-54.5-32,19-77.2,57.07-112.21,64.92-21.89,7.5-38.67,8.42-55.45-9.08-79.75-92-128.29-67.88-240.09-42.34-90.19,26.25-136.09.22-192.75-67.61-41.13-63.43-104.73-232.67-94.15-307.59,18.27-58.38,3.74-90.5-57.3-106-27.56-52.36-75.85-128.79-140.8-74.72-17.22-3-33.4-6-33.62,16.37-21.61,24.2-20.17,43.09,1.79,66.44-44.19,6.12-98.24,20.28-81.63,76.87,4.73,37.6,34.74,91.28,71.75,43.74,7.57,10.85,47.21,41.91,59.53,46.67,29.23-15.64,34.15-44.15,51.87-57,29.46,19.76,46.1,36.38,66.57,64.05C382,418.58,378,529.33,403.31,595.28c55.61,112.21,164.6,206.43,295.3,176.6,43.83-19.57,88.73-26.63,136-16.86,8.73-.28,43.24,26.85,50.32,32.51,93.45,58.46,118.88,14.52,201.18-36.87,20-12.67,154.48-66.58,157.15-24.07-23,82.62,36.42,149.52,112.72,88.07,17.43-13.27,51.93-24.75,82.88-35.51Z" transform="translate(0.06 8)"/><path class="cls-3" d="M217.33,162.45c-3.25,17.23-17.09,32.68-35.68,29.7s-26-21.8-22.79-39,17.08-32.68,35.68-29.7S220.57,145.23,217.33,162.45Z" transform="translate(0.06 8)"/><path class="cls-3" d="M286,159.05c-4.28,22.79-22.07,36.33-45.23,32.64s-35-21.93-30.72-44.72,22.07-36.33,45.23-32.64S290.32,136.26,286,159.05Z" transform="translate(0.06 8)"/><path class="cls-4" d="M1433.85,769.77c0-2.76.12-5.5.29-8.24-35.69,11.22-74.46,34.51-103,50.53-55.09,13.73-53.28-52.43-66.31-87.72-32.67-54.39-147.56-21.13-188.47,6.11-48.19,28.41-110.81,82.14-163.46,30-14.58-16-34.18-21.44-54.55-21.27-55.51-1.13-118.9-26.06-172.2,6.33-62.4,37.93-202.3-80.05-231.86-130.64-37.21-54-42.67-118.54-55.56-181C390,396.43,363.24,352.07,361.08,316c16.79-19.19,18.74-44.66,14.22-68.93-35.16-65.47-121.28-63-174.62-20.6-24.61-2-84.31-17-104.4-1.6-8.62,16-.64,33.16.57,50.2,4.42,35.26,35.89,85.45,70.83,43.67,17.81,4.61,90.4,14.82,102.26-19.86,17-1,16.71,19.12,14.4,17.66-2.58-1.64,54.63,51,64.44,61.37,24.55,64.92,27.41,146.38,44.58,214.86C423.64,713.62,540.77,808,666.66,780.82c26.52-8.72,59-18.27,86.16-23.43,37.19-2.11,63.4,1.93,96.41,19.3,18.27,10.72,51.51,48.95,69.39,50.47,85.74,34.6,155.14-91.84,247.64-109.8,35.65-4.3,58.28-8.51,55.8,34.52,0,44.34,2.94,92.37,57.34,95.41,30.65,1.71,54.71-10.75,78-28.38,25.37-16.48,50.11-34.13,76.45-49C1433.86,769.85,1433.85,769.81,1433.85,769.77Z" transform="translate(0.06 8)"/><path class="cls-5" d="M234.53,313.14c5.08-21.3-25.18-67-35-85.9" transform="translate(0.06 8)"/><path class="cls-6" d="M266.58,297" transform="translate(0.06 8)"/><path class="cls-6" d="M287.5,226.25" transform="translate(0.06 8)"/><path class="cls-5" d="M279.64,221.61c18.3,13,30.3,9.81,45.3-6" transform="translate(0.06 8)"/><path class="cls-6" d="M314.87,204.12" transform="translate(0.06 8)"/><path class="cls-5" d="M172.61,314.46c79.08,10.66,113.37-4,120.68-86.32" transform="translate(0.06 8)"/><path class="cls-5" d="M314.92,204.13c5.9,10.43,15,17.86,26.86,18.53s18.39,6,23.66,16.16" transform="translate(0.06 8)"/><path class="cls-5" d="M180.63,230.16c13.09,4.76,18.53,13.11,2.56,19.15" transform="translate(0.06 8)"/><path class="cls-5" d="M105,236.89c18,2.46,14,11.73,3.15,21.24" transform="translate(0.06 8)"/><path class="cls-6" d="M174.82,313.8" transform="translate(0.06 8)"/><path class="cls-6" d="M283.9,312.72" transform="translate(0.06 8)"/><path class="cls-5" d="M284.41,312.35c17.14-5.18,38.79-11.62,48.43-28.07" transform="translate(0.06 8)"/><path class="cls-5" d="M308.59,338.2c13.85,1,24.42-.06,37.22-5.74" transform="translate(0.06 8)"/><path class="cls-5" d="M335.17,362.15c8.08,2.75,16.82,6.43,24.56,1.19" transform="translate(0.06 8)"/><path class="cls-5" d="M350.74,383.38c5.06,2.66,18.2,12.53,23.3,5.32" transform="translate(0.06 8)"/><path class="cls-5" d="M357.84,410c7.57,4.66,16.28,9.37,25.15,5.7" transform="translate(0.06 8)"/><path class="cls-5" d="M364.52,440.54c8.29,4.41,17.38,8.75,26.35,3.94" transform="translate(0.06 8)"/><path class="cls-5" d="M370.31,481.56c9.52,4.77,18.6,7.78,28.26,1.88" transform="translate(0.06 8)"/><path class="cls-5" d="M375.38,514.24c9.21,3.75,16.76,4,25.48-1" transform="translate(0.06 8)"/><path class="cls-5" d="M383.49,552.71c11.3,3.85,20.93,4.34,31.81-.91" transform="translate(0.06 8)"/><path class="cls-5" d="M396.78,605.56c14.28,2.72,27.1,3.51,37.13-8.36" transform="translate(0.06 8)"/><path class="cls-5" d="M417.36,646.27a162,162,0,0,0,47.3-3.07" transform="translate(0.06 8)"/><path class="cls-5" d="M440.1,679.4a170.41,170.41,0,0,0,52-7.65" transform="translate(0.06 8)"/><path class="cls-5" d="M475.14,724c16.21-6.39,36.45-15,44.41-31.51" transform="translate(0.06 8)"/><path class="cls-5" d="M523.13,766.27c13-9.77,21.38-18.89,26-34.87" transform="translate(0.06 8)"/><path class="cls-5" d="M583.3,785.18c6.61-9.4,11-18.4,12.63-29.84" transform="translate(0.06 8)"/><path class="cls-5" d="M645,785.18c2.76-6.64-.5-12.82-3.57-18.78" transform="translate(0.06 8)"/><path class="cls-5" d="M691.16,773.57c-.12-6.75-1.45-11.72-5.9-17" transform="translate(0.06 8)"/><path class="cls-5" d="M735.61,761.32c-.66-6.11-.16-11.17-3.38-16.69" transform="translate(0.06 8)"/><path class="cls-5" d="M872.71,792.13a116.33,116.33,0,0,0,33.54-21" transform="translate(0.06 8)"/><path class="cls-5" d="M918.4,827.7c13.19-7.68,24.7-17,33.45-29.54" transform="translate(0.06 8)"/><path class="cls-5" d="M1002.76,818c5.78-11.14,12.28-23.36,12.51-36.17" transform="translate(0.06 8)"/><path class="cls-5" d="M1049.47,777.66c7-7.26,11.07-14.46,12.48-24.52" transform="translate(0.06 8)"/><path class="cls-5" d="M1113.1,735.63c5-4.21,11.43-9.16,12.08-16.13" transform="translate(0.06 8)"/><path class="cls-5" d="M835.43,769.89c7.52-3.16,15.76-5.7,21.43-11.9" transform="translate(0.06 8)"/><path class="cls-5" d="M1222.62,739.66c7.32.17,13.83-2.41,19.79-6.5" transform="translate(0.06 8)"/><path class="cls-5" d="M1222.46,775.66c8.21,3,15.09,1.89,22.94-1.66" transform="translate(0.06 8)"/><path class="cls-5" d="M1232.71,820.91c11.36-1.71,19.8-5.64,27.12-14.63" transform="translate(0.06 8)"/><path class="cls-5" d="M1289.31,847.79c5.34-7.23,9.39-14.23,10.55-23.25" transform="translate(0.06 8)"/><path class="cls-5" d="M227,110.88c19-8.52,34.11-14.86,51.78-.32" transform="translate(0.06 8)"/><path class="cls-5" d="M164.49,113.32c17.43-8.62,49.65,1.59,50,2.06" transform="translate(0.06 8)"/><path d="M248.47,163.45c-1.22,6.48-6.7,11.55-13.49,10.46s-10.12-7.54-8.9-14,6.7-11.55,13.49-10.46S249.69,157,248.47,163.45Z" transform="translate(0.06 8)"/><path d="M204.86,162c-.35,6.6-5.15,12.27-12,12s-11.07-6.16-10.73-12.76,5.14-12.27,12-12S205.2,155.37,204.86,162Z" transform="translate(0.06 8)"/><path class="cls-7" d="M236.24,155.47c-6.16-1-7.92,8-1.76,9.05S242.41,156.49,236.24,155.47Z" transform="translate(0.06 8)"/><path class="cls-7" d="M193.77,153.06c-6.16-1-7.92,8-1.76,9.05S199.94,154.07,193.77,153.06Z" transform="translate(0.06 8)"/><path d="M181.94,314.85s-29.2,2.69-30,6.78c-3.17,11.31,22.76,36.6,39,40.22,20.87,4.65,72-19,77-35s13.14-24.24,13.14-24.24l-11.14-5.76c-1.12,11.89-44.14,26.87-88,18" transform="translate(0.06 8)"/><path class="cls-6" d="M90.73,380" transform="translate(0.06 8)"/><path class="cls-8" d="M163.91,333.31C117.26,366.52,93.29,422.16,135,472c-34-13.55-35.34-23.74-32.55-58.36Q87,435.85,73,458.93a228,228,0,0,1,30.14-60.47c17.59-34.4,35.93-66.85,73.64-82.23C177.47,335.24,184.54,318.63,163.91,333.31Z" transform="translate(0.06 8)"/><path class="cls-4" d="M270.48,297.41c27.3,7.77,24,8.46,6,27.25-20.39,19.19-39.91,39.9-68.27,46.4s-41.16,7.33-49.39-24.25.38-27.8,28.78-25.47A119.94,119.94,0,0,0,270.48,297.41Z" transform="translate(0.06 8)"/><path class="cls-9" d="M1500.88,759.84a29.52,29.52,0,0,0-1.47-7.85c-.94,12.52-.94,25.1-.94,37.64,0,5.13-6.67,6.58-9.32,2.53l-.26-.43c-.9,6.44-1.79,12.85-3,19.09-.92,4.69-8.87,4.86-9.64,0a203.46,203.46,0,0,1-2.16-21.41,5,5,0,0,1-.5-2.26v-4.39l-.16-.64a5,5,0,0,1-2.52-.54,62.33,62.33,0,0,1-2.4,14.35c-1.38,4.5-8.53,5-9.64,0-.64-2.87-1.31-5.79-2-8.73h0a75.57,75.57,0,0,1-8-16.78c-.08,5.57-.1,11.16-.1,16.74,0,6.44-10,6.43-10,0V774.71a5,5,0,0,1-5-4.94c.09-15.56,2.92-30.67,5.15-46,.83-5.73,9.82-4.1,9.82,1.33v.86a5.41,5.41,0,0,1,2.48,4.11c.23,1.79.45,3.6.68,5.41a5.26,5.26,0,0,1,3.23-.38c.49-5,.94-10,1-15,.06-6.45,9.88-6.43,10,0,0,1,.08,2,.16,3a5.31,5.31,0,0,1,7.11,3.07l.06.17c0-.44,0-.88,0-1.33.11-5.94,7.88-6.41,9.82-1.33a25.06,25.06,0,0,0,2.51,4.82c0-.33.07-.67.08-1,.21-5.54,6.7-6.28,9.28-2.35a4.8,4.8,0,0,1,5.51,3.5c0,.18.1.37.16.55V-1H-.06V899h1501V760.44A5.54,5.54,0,0,1,1500.88,759.84Z" transform="translate(0.06 8)"/><path class="cls-9" d="M1499.41,752c-.94,12.52-.94,25.1-.94,37.64,0,5.13-6.67,6.58-9.32,2.53l-.26-.43c-.9,6.44-1.79,12.85-3,19.09-.92,4.69-8.87,4.86-9.64,0a203.46,203.46,0,0,1-2.16-21.41,5,5,0,0,1-.5-2.26v-4.39l-.16-.64a5,5,0,0,1-2.52-.54,62.33,62.33,0,0,1-2.4,14.35c-1.38,4.5-8.53,5-9.64,0-.64-2.87-1.31-5.79-2-8.73h0a75.57,75.57,0,0,1-8-16.78c-.08,5.57-.1,11.16-.1,16.74,0,6.44-10,6.43-10,0V774.71a5,5,0,0,1-5-4.94c.09-15.56,2.92-30.67,5.15-46,.83-5.73,9.82-4.1,9.82,1.33v.86a5.41,5.41,0,0,1,2.48,4.11c.23,1.79.45,3.6.68,5.41a5.26,5.26,0,0,1,3.23-.38c.49-5,.94-10,1-15,.06-6.45,9.88-6.43,10,0,0,1,.08,2,.16,3a5.31,5.31,0,0,1,7.11,3.07l.06.17c0-.44,0-.88,0-1.33.11-5.94,7.88-6.41,9.82-1.33a25.06,25.06,0,0,0,2.51,4.82c0-.33.07-.67.08-1,.21-5.54,6.7-6.28,9.28-2.35a4.9,4.9,0,0,1,4.67,1.79V-3H-.06V897h1500V753.83C1499.78,753.21,1499.6,752.6,1499.41,752Z" transform="translate(0.06 8)"/><path class="cls-1" d="M1653.69,329.81" transform="translate(0.06 8)"/><path class="cls-1" d="M2824.58,683.89" transform="translate(0.06 8)"/><path class="cls-2" d="M2983.93,732.63a4.27,4.27,0,0,1,3.94,3.54c0,.19.07.39.11.59v-4.08a31.34,31.34,0,0,0-4.24-1.36C2983.8,731.76,2983.87,732.2,2983.93,732.63Z" transform="translate(0.06 8)"/><path class="cls-2" d="M2955.7,732.53a1.49,1.49,0,0,1,0-.21c-36.39,7.76-83.83,34.7-108.07,42.73-45.1-3.5-22.17-40.58-19.83-70.2-8.07-116.07-153.65-96.22-226.94-53.41-33.89,19.8-70.61,55.26-111.2,64.32-24.18,7.93-36.35,8.47-55.68-8.74-80.58-91.11-134.76-66.43-240.1-41.94-88.88,25.23-135.37.5-193.26-67-46.54-72-107.86-219.32-98.24-305.32,17.4-59,2.66-89.64-57.81-105.63-28.25-53.09-74.49-127.33-140.88-74.36-18.79-3-30.72-6.47-33.59,16.46-21.32,25.58-20,41.91,1.92,66.45-44.89,6.57-96.56,19.46-81.46,77.09,6,38.7,32.6,89.76,71.8,43.56,13.22,16.49,40.39,37.7,59.59,46.53,26.14-15.76,30.66-39.64,51.81-57.17a286.87,286.87,0,0,1,67.33,63.49c41.79,61.95,33,156.65,59.87,226.8,58.3,111.84,162.18,204,296.29,175.61,43.32-19,89.19-26.18,135.91-17.09,18.55,4.62,35.73,20.71,50.22,32.48,93.84,56.47,121.81,12.77,201.78-37.47,19.51-12.26,151.55-66.77,156.37-24.08-20.93,82.59,34.72,148.61,113,87.81,10.64-7.67,64.33-24.18,102.49-41.47C2955.9,758.72,2955.7,745.66,2955.7,732.53Z" transform="translate(0.06 8)"/><path class="cls-3" d="M1710.32,165.63c-3.46,18.44-15.07,32.36-35.08,29.18s-26-19.8-22.54-38.24,15.07-32.36,35.07-29.17S1713.77,147.2,1710.32,165.63Z" transform="translate(0.06 8)"/><path class="cls-3" d="M1778.9,162c-4.47,24-20.11,36.11-44.54,32.29s-34.83-20-30.37-44,20.11-36.11,44.54-32.28S1783.36,138,1778.9,162Z" transform="translate(0.06 8)"/><path class="cls-4" d="M2956,754.47c-45.57,6.87-86.93,33.95-126.3,56.21-55.58,11.7-53.78-51.29-66.41-87.61-35.39-54.07-144.66-21.92-188.42,6.43-49.58,29.7-109.07,81.25-163.4,30.24-15.59-15.1-33.23-20.65-54.4-21.14-58.62-1.85-117.5-24.47-172.72,6.5-64.64,36.25-199.42-76.75-232-129.82-36.88-53.52-44.23-117.92-58-179.73-10.7-39.62-35.22-75.53-39.29-116.91,16-20.32,18.07-43.95,13.82-68.81-37.75-65.85-120.12-62.31-174.69-20.1-28.61-2.73-79.28-17.24-104.36-1.33-6.72,17.09-1.45,32.7.65,50.21,5.86,36.41,33.52,83.92,70.92,43.52,28.58,6.61,88.08,12.82,101.84-20.38,13.3,4.59,14.22,6.51,17.32,19.19,3.47,14.17,49.34,44.15,62.45,59.35,27.62,67.84,29.11,143.53,48.08,212.82,33.48,122.29,144.87,212.6,274.21,187.55,28.31-9.51,56.89-17.78,86.12-23.68,34.62-1.71,65.37,3.38,96.42,19.15,21.21,13.62,45.31,45.6,69.45,50.34,85.72,31.32,163.77-91.75,247.45-110.22,34.77-4.23,56.62-9.5,55.88,34.5-.1,44.11,2.73,91.22,57.19,94.94,30.7,2.1,54.2-11.48,78.22-28.13,32.69-21.67,64.66-44.44,100-61.53Z" transform="translate(0.06 8)"/><path class="cls-5" d="M1728.23,316.35c3.52-26.4-22.84-63-35.18-85.82" transform="translate(0.06 8)"/><path class="cls-6" d="M1760.26,300.11" transform="translate(0.06 8)"/><path class="cls-6" d="M1781,229.32" transform="translate(0.06 8)"/><path class="cls-5" d="M1773.14,224.69c20.38,12.45,28.45,10,45.26-6.13" transform="translate(0.06 8)"/><path class="cls-6" d="M1808.31,207.11" transform="translate(0.06 8)"/><path class="cls-5" d="M1666.31,317.84c77.64,9.81,112.48-3.75,120.48-86.65" transform="translate(0.06 8)"/><path class="cls-5" d="M1808.4,207.13c6.39,10.34,14.73,16.88,26.75,18.41s17.75,6.07,23.88,16.13" transform="translate(0.06 8)"/><path class="cls-5" d="M1674.18,233.51c13.29,5.81,18.33,11.43,2.59,19.14" transform="translate(0.06 8)"/><path class="cls-5" d="M1598.61,240.44c18,4,14.06,10.64,3.18,21.23" transform="translate(0.06 8)"/><path class="cls-6" d="M1668.52,317.17" transform="translate(0.06 8)"/><path class="cls-6" d="M1777.64,315.77" transform="translate(0.06 8)"/><path class="cls-5" d="M1778.15,315.39c18.95-5.87,36.23-11.8,48.44-28.25" transform="translate(0.06 8)"/><path class="cls-5" d="M1802.58,341.06c13.34.61,24.91-.88,37.33-5.92" transform="translate(0.06 8)"/><path class="cls-5" d="M1829.51,364.75c8.65,2.89,16.16,5.44,24.7,1" transform="translate(0.06 8)"/><path class="cls-5" d="M1845.44,385.76c7,3.91,16,11.18,23.46,5.16" transform="translate(0.06 8)"/><path class="cls-5" d="M1853,412.15c8.29,4.8,15.74,8.31,25.34,5.53" transform="translate(0.06 8)"/><path class="cls-5" d="M1860.17,442.37c8.93,4.49,16.75,7.68,26.48,3.8" transform="translate(0.06 8)"/><path class="cls-5" d="M1866.58,483c10,4.59,18.16,6.76,28.38,1.76" transform="translate(0.06 8)"/><path class="cls-5" d="M1872.12,515.47c9.31,3.28,16.6,3.38,25.52-1.06" transform="translate(0.06 8)"/><path class="cls-5" d="M1880.68,553.68c11.42,3.37,20.81,3.59,31.9-1" transform="translate(0.06 8)"/><path class="cls-5" d="M1894.53,606.21c14.68,2.41,26,2.42,37.14-8.45" transform="translate(0.06 8)"/><path class="cls-5" d="M1915.46,646.7a188.42,188.42,0,0,0,47.4-3.22" transform="translate(0.06 8)"/><path class="cls-5" d="M1938.43,679.68a197.8,197.8,0,0,0,52.07-7.8" transform="translate(0.06 8)"/><path class="cls-5" d="M1973.72,724.1c17.84-7.25,33.94-14.74,44.38-31.6" transform="translate(0.06 8)"/><path class="cls-5" d="M2021.8,766.26c12.49-9.85,20.78-19.73,25.92-34.92" transform="translate(0.06 8)"/><path class="cls-5" d="M2082,785.06c6.31-9.41,10.58-18.65,12.59-29.85" transform="translate(0.06 8)"/><path class="cls-5" d="M2143.65,785c2.07-7.05-.38-12.49-3.59-18.77" transform="translate(0.06 8)"/><path class="cls-5" d="M2189.82,773.28c-.33-6.62-1.85-11.68-5.92-17" transform="translate(0.06 8)"/><path class="cls-5" d="M2234.24,760.94c-.53-5.9-.7-11.28-3.4-16.68" transform="translate(0.06 8)"/><path class="cls-5" d="M2371.35,791.52a136,136,0,0,0,33.51-21.1" transform="translate(0.06 8)"/><path class="cls-5" d="M2417.08,827c13.17-8.07,24.11-17.21,33.41-29.59" transform="translate(0.06 8)"/><path class="cls-5" d="M2501.42,817.16c6-11.72,11.35-22.89,12.46-36.19" transform="translate(0.06 8)"/><path class="cls-5" d="M2548.07,776.75c6.69-7.39,10.63-14.7,12.44-24.54" transform="translate(0.06 8)"/><path class="cls-5" d="M2611.64,734.62c5.5-4.61,10.51-8.86,12.05-16.16" transform="translate(0.06 8)"/><path class="cls-5" d="M2334.06,769.34c7.8-3.19,15.2-6,21.4-11.93" transform="translate(0.06 8)"/><path class="cls-5" d="M2721.14,738.45c7.47-.23,13.52-2.51,19.78-6.53" transform="translate(0.06 8)"/><path class="cls-5" d="M2721,774.46c8.31,2.48,15,1.59,22.94-1.7" transform="translate(0.06 8)"/><path class="cls-5" d="M2731.33,819.69c11.23-2.12,19.4-6.14,27.1-14.68" transform="translate(0.06 8)"/><path class="cls-5" d="M2788,846.48c5.2-7.31,8.94-14.38,10.52-23.28" transform="translate(0.06 8)"/><path class="cls-5" d="M1720.31,114.08c20.87-9.17,31.48-14,51.76-.45" transform="translate(0.06 8)"/><path class="cls-5" d="M1657.83,116.69c16.38-5.26,33.84-3.86,50,1.93" transform="translate(0.06 8)"/><path d="M1741.71,166.58c-1.21,6.52-6.46,11.39-13.27,10.31s-10-7.26-8.8-13.77,6.46-11.39,13.27-10.32S1742.92,160.06,1741.71,166.58Z" transform="translate(0.06 8)"/><path d="M1698.1,165.24c-.33,6.63-4.92,12.07-11.8,11.87s-10.92-5.9-10.59-12.53,4.92-12.07,11.8-11.87S1698.44,158.61,1698.1,165.24Z" transform="translate(0.06 8)"/><path class="cls-7" d="M1729.62,158.91c-6-1-7.66,7.55-1.71,8.55S1735.57,159.91,1729.62,158.91Z" transform="translate(0.06 8)"/><path class="cls-7" d="M1687.16,156.61c-6-1-7.66,7.55-1.71,8.55S1693.11,157.61,1687.16,156.61Z" transform="translate(0.06 8)"/><path d="M1675.64,318.21c-9,1-22.93.6-29.94,6.9.58,18.76,23,34.93,39,39.6,20.58,6,69.13-18,76.16-33.3s5.4-15.23,14.07-26c-4.08-1.31-7.5-3.7-11.33-5.44-6.75,23.22-70.49,21.21-88,18.25" transform="translate(0.06 8)"/><path class="cls-6" d="M1583.91,383.09" transform="translate(0.06 8)"/><path class="cls-8" d="M1656.6,334.39c-45.93,34.08-69.74,90.95-26.87,140.72-34.25-13.31-35.37-23.1-33.56-57.78-9.94,15.06-19.61,30.34-28.87,45.86,7-21.84,17-42,29.21-61.3,11.75-24.81,40.76-83.26,73.78-81.06C1659.86,343.06,1676.91,319.32,1656.6,334.39Z" transform="translate(0.06 8)"/><path class="cls-4" d="M1762.55,301.27c28.66,3.75,24.94,4.93,9.61,26.16-17.5,21.94-35.1,45.08-62.88,53.9s-40.75,11.05-52.08-19.48-2.51-27.86,26.22-28C1713.45,333.65,1741.29,323.35,1762.55,301.27Z" transform="translate(0.06 8)"/><path class="cls-9" d="M2990.86,799.28c-.16,1.37-.32,2.73-.51,4.09-.71,5.18-8.38,4.33-9.64,0a197.34,197.34,0,0,1-4.8-21.33,4.79,4.79,0,0,1-5.31-4.82c0-3.37-.17-6.73-.36-10.09l-.37,0c-.4,5.48-1,11-1.87,16.42-.75,4.74-9,4.82-9.64,0-2.34-17-2.66-33.9-2.66-51a4.53,4.53,0,0,1,3.65-4.68c1.17-4.65,2.73-9.28,4-14,.88-3.36,5.93-5.19,8.35-2.2a19.56,19.56,0,0,1,3.22,6.2c2.71-.34,5.7,1.25,5.7,4.78v.54a4.13,4.13,0,0,1,2.3,3.1c.4,2.12.73,4.26,1,6.39a4.27,4.27,0,0,1,3.94,3.54c0,.19.07.39.11.59,0-3.07,0-6.14,0-9.19,0-6.45,10-6.44,10,0,0,12,0,24-.92,36q1-6,1.8-12-.3-376.77.09-753.56C2499.13-2,1999.35.45,1499.53,1.76q.48,363.5,1.26,727a101.91,101.91,0,0,0,5.08,13.18,27.4,27.4,0,0,1,2.56,4.06c2.15,4.3,2.41,9.13,2.45,13.85.07,6.47-9.75,6.41-10,0,0-.14,0-.28,0-.42l.3,142.5c498.94-1.29,998.62-4.73,1497.86-5.59q-.08-47.85-.12-95.7C2996.51,802.72,2992.05,802.45,2990.86,799.28Z" transform="translate(0.06 8)"/><path class="cls-9" d="M3000.28,798.41c-1.05,4.25-7.91,4.92-9.42.87-.16,1.37-.32,2.73-.51,4.09-.71,5.18-8.38,4.33-9.64,0a197.34,197.34,0,0,1-4.8-21.33,4.79,4.79,0,0,1-5.31-4.82c0-3.37-.17-6.73-.36-10.09l-.37,0c-.4,5.48-1,11-1.87,16.42-.75,4.74-9,4.82-9.64,0-2.34-17-2.66-33.9-2.66-51a4.53,4.53,0,0,1,3.65-4.68c1.17-4.65,2.73-9.28,4-14,.88-3.36,5.93-5.19,8.35-2.2a19.56,19.56,0,0,1,3.22,6.2c2.71-.34,5.7,1.25,5.7,4.78v.54a4.13,4.13,0,0,1,2.3,3.1c.4,2.12.73,4.26,1,6.39a4.27,4.27,0,0,1,3.94,3.54c0,.19.07.39.11.59,0-3.07,0-6.14,0-9.19,0-6.45,10-6.44,10,0,0,12,0,24-.92,36,1.26-7.84,2.35-15.7,3.34-23.59a5.33,5.33,0,0,1,1.45-3.1q-.27-369.94.1-739.88C2500.13-3,1998.35-.54,1496.53.77q.63,362.34,1.31,724.7a4.7,4.7,0,0,1,2.94,3.25,99.53,99.53,0,0,0,5.09,13.21,27.4,27.4,0,0,1,2.56,4.06c2.15,4.3,2.41,9.13,2.45,13.85.07,6.47-9.75,6.41-10,0a29.52,29.52,0,0,0-1.47-7.85c-.94,12.52-.94,25.1-.94,37.64a5.05,5.05,0,0,1-.51,2.23q.09,54.54.19,109.06c500.94-1.29,1002.62-4.74,1503.86-5.6q-.08-51.89-.13-103.77Q3001.12,795,3000.28,798.41Z" transform="translate(0.06 8)"/><path class="cls-1" d="M3159.4,328.39" transform="translate(0.06 8)"/><path class="cls-1" d="M4325.58,687.27" transform="translate(0.06 8)"/><path class="cls-2" d="M4455.2,772.25V740a4.53,4.53,0,0,1,2.62-4.3c-36.55,7.37-84.77,34.71-109.28,42.79-45.11-3.58-22.11-40.61-19.76-70.23-7.82-116.08-153.62-96.49-226.87-53.8-33.87,19.74-70.82,55.14-111.31,64.13-24.24,7.89-36.38,8.4-55.7-8.84-80.47-91.23-134.67-66.66-240.08-42.35-88.91,25.08-135.4.45-192.75-67.61-46.16-72.79-104.36-221.24-94.15-307.59,17.76-59.13,3.37-89.74-57.3-106-28.16-53.14-74.28-127.52-140.8-74.72-18.77-3.09-30.72-6.55-33.62,16.37-21.4,25.54-20,41.87,1.8,66.44-44.91,6.46-96.64,19.2-81.64,76.87,5.94,38.71,32.45,89.83,71.75,43.74,13.2,16.52,40.34,37.79,59.53,46.67,26.16-15.67,30.69-39.52,51.87-57a275.56,275.56,0,0,1,66.57,64.05c40.79,62.64,30.5,157.9,56.66,228.62C3459.83,709.92,3564,802,3698,773.88c43.37-19,89.25-26,136-16.86,18.56,4.65,35.7,20.77,50.19,32.56,93.75,56.63,121.81,13,201.86-37.12,19.53-12.22,151.68-66.51,156.43-23.81-21,82.56,34.54,148.66,112.91,88,10.55-7.58,63.29-23.73,101.39-40.76A4.62,4.62,0,0,1,4455.2,772.25Z" transform="translate(0.06 8)"/><path class="cls-3" d="M3216.34,164.39c-3.49,18.44-15.14,32.32-35.15,29.09s-26-19.86-22.48-38.29,15.14-32.32,35.14-29.09S3219.83,146,3216.34,164.39Z" transform="translate(0.06 8)"/><path class="cls-3" d="M3285,161c-4.52,24-20.19,36.05-44.61,32.16s-34.81-20-30.3-44.08,20.19-36.05,44.61-32.16S3289.46,136.94,3285,161Z" transform="translate(0.06 8)"/><path class="cls-4" d="M4455.2,758.35c-44.89,7.22-85.74,33.81-124.64,55.71-55.61,11.61-53.72-51.36-66.31-87.72-35.32-54.13-144.64-22.16-188.47,6.11-49.63,29.63-109.2,81.06-163.46,30-15.58-15.13-33.21-20.71-54.39-21.24-58.62-1.93-117.46-24.7-172.77,6.22-64.77,36.2-199.23-77-231.36-130.54-36.57-54-42.92-118.88-55.66-181-10-39.92-34-76.36-37.63-117.85,16.17-20.3,18.32-44,14.22-68.93-37.31-66.08-120.08-62.57-174.62-20.6-28.61-2.81-79.27-17.45-104.4-1.6-6.76,17.07-1.5,32.69.56,50.2,5.8,36.41,33.38,84,70.87,43.69,28.55,6.68,88,13.08,101.87-20.09,13.32,4.71,14.13,6.49,17.25,19.29,3.49,14.3,48.59,44.36,61.6,59.95,26.57,68.46,26.86,144.78,45.07,214.48,32.13,123,143.78,213.35,273.14,188.56,28.35-9.48,56.93-17.68,86.18-23.54,34.62-1.65,65.38,3.49,96.41,19.31,21.2,13.66,45.25,45.68,69.39,50.47,85.71,31.46,163.91-91.48,247.63-109.8,34.79-4.17,56.64-9.4,55.87,34.58-.21,44.15,2.64,91.22,57.07,95,30.67,2.16,54.23-11.4,78.26-28,32.17-21.26,63.64-43.58,98.32-60.5Z" transform="translate(0.06 8)"/><path class="cls-5" d="M3234,315.14c3.58-26.45-22.69-63-35-85.9" transform="translate(0.06 8)"/><path class="cls-6" d="M3266,299" transform="translate(0.06 8)"/><path class="cls-6" d="M3286.93,228.25" transform="translate(0.06 8)"/><path class="cls-5" d="M3279.07,223.61c20.36,12.49,28.44,10.11,45.3-6" transform="translate(0.06 8)"/><path class="cls-6" d="M3314.3,206.12" transform="translate(0.06 8)"/><path class="cls-5" d="M3172,316.46c77.58,10,112.53-3.41,120.68-86.32" transform="translate(0.06 8)"/><path class="cls-5" d="M3314.38,206.14c6.37,10.35,14.71,16.91,26.72,18.48s17.74,6.13,23.81,16.22" transform="translate(0.06 8)"/><path class="cls-5" d="M3180.06,232.16c13.28,5.84,18.33,11.48,2.56,19.15" transform="translate(0.06 8)"/><path class="cls-5" d="M3104.45,238.89c18,4.07,14.06,10.67,3.15,21.24" transform="translate(0.06 8)"/><path class="cls-6" d="M3174.25,315.8" transform="translate(0.06 8)"/><path class="cls-6" d="M3283.33,314.72" transform="translate(0.06 8)"/><path class="cls-5" d="M3283.84,314.35c18.95-5.81,36.2-11.67,48.43-28.07" transform="translate(0.06 8)"/><path class="cls-5" d="M3308,340.2c13.3.69,24.82-.75,37.22-5.74" transform="translate(0.06 8)"/><path class="cls-5" d="M3334.6,364.15c8.59,3,16,5.56,24.56,1.19" transform="translate(0.06 8)"/><path class="cls-5" d="M3350.17,385.38c6.93,4,15.81,11.34,23.3,5.32" transform="translate(0.06 8)"/><path class="cls-5" d="M3357.27,412c8.21,4.89,15.56,8.44,25.15,5.7" transform="translate(0.06 8)"/><path class="cls-5" d="M3364,442.54c8.87,4.58,16.61,7.8,26.35,3.94" transform="translate(0.06 8)"/><path class="cls-5" d="M3369.74,483.56c9.91,4.68,18,6.87,28.26,1.88" transform="translate(0.06 8)"/><path class="cls-5" d="M3374.81,516.24c9.29,3.35,16.55,3.45,25.48-1" transform="translate(0.06 8)"/><path class="cls-5" d="M3382.92,554.71c11.38,3.44,20.73,3.68,31.82-.91" transform="translate(0.06 8)"/><path class="cls-5" d="M3396.21,607.56c14.68,2.48,26,2.49,37.13-8.36" transform="translate(0.06 8)"/><path class="cls-5" d="M3416.79,648.27a187.61,187.61,0,0,0,47.3-3.07" transform="translate(0.06 8)"/><path class="cls-5" d="M3439.53,681.4a196.83,196.83,0,0,0,52-7.65" transform="translate(0.06 8)"/><path class="cls-5" d="M3474.57,726c17.85-7.22,33.93-14.68,44.41-31.51" transform="translate(0.06 8)"/><path class="cls-5" d="M3522.56,768.27c12.5-9.82,20.8-19.69,26-34.87" transform="translate(0.06 8)"/><path class="cls-5" d="M3582.73,787.18c6.33-9.41,10.61-18.64,12.63-29.84" transform="translate(0.06 8)"/><path class="cls-5" d="M3644.4,787.18c2.08-7-.36-12.49-3.57-18.78" transform="translate(0.06 8)"/><path class="cls-5" d="M3690.59,775.57c-.31-6.61-1.83-11.68-5.89-17" transform="translate(0.06 8)"/><path class="cls-5" d="M3735,763.32c-.52-5.91-.69-11.29-3.38-16.69" transform="translate(0.06 8)"/><path class="cls-5" d="M3872.14,794.13a136,136,0,0,0,33.54-21" transform="translate(0.06 8)"/><path class="cls-5" d="M3917.83,829.7c13.17-8.06,24.13-17.17,33.45-29.54" transform="translate(0.06 8)"/><path class="cls-5" d="M4002.19,820c6-11.71,11.38-22.88,12.51-36.17" transform="translate(0.06 8)"/><path class="cls-5" d="M4048.9,779.66c6.7-7.38,10.66-14.68,12.48-24.52" transform="translate(0.06 8)"/><path class="cls-5" d="M4112.54,737.63c5.51-4.6,10.52-8.83,12.07-16.13" transform="translate(0.06 8)"/><path class="cls-5" d="M3834.86,771.89c7.81-3.19,15.22-6,21.43-11.9" transform="translate(0.06 8)"/><path class="cls-5" d="M4222.05,741.66c7.47-.22,13.53-2.5,19.79-6.5" transform="translate(0.06 8)"/><path class="cls-5" d="M4221.89,777.66c8.3,2.49,15,1.61,22.94-1.66" transform="translate(0.06 8)"/><path class="cls-5" d="M4232.14,822.91c11.23-2.1,19.41-6.11,27.12-14.63" transform="translate(0.06 8)"/><path class="cls-5" d="M4288.74,849.79c5.21-7.3,9-14.36,10.55-23.25" transform="translate(0.06 8)"/><path class="cls-5" d="M3226.43,112.88c20.9-9.12,31.52-14,51.78-.32" transform="translate(0.06 8)"/><path class="cls-5" d="M3163.92,115.32c16.4-5.22,33.87-3.77,50,2.06" transform="translate(0.06 8)"/><path d="M3247.74,165.42c-1.23,6.52-6.49,11.37-13.29,10.28s-10-7.28-8.78-13.8,6.48-11.37,13.29-10.27S3249,158.9,3247.74,165.42Z" transform="translate(0.06 8)"/><path d="M3204.12,164c-.34,6.63-4.95,12.06-11.83,11.83s-10.92-5.92-10.57-12.55,5-12.06,11.83-11.83S3204.47,157.34,3204.12,164Z" transform="translate(0.06 8)"/><path class="cls-7" d="M3235.65,157.72c-6-1-7.67,7.53-1.72,8.55S3241.61,158.74,3235.65,157.72Z" transform="translate(0.06 8)"/><path class="cls-7" d="M3193.18,155.31c-5.95-1-7.67,7.53-1.72,8.54S3199.13,156.33,3193.18,155.31Z" transform="translate(0.06 8)"/><path d="M3181.37,316.85c-9,.93-22.94.54-30,6.83.54,18.76,22.94,35,39,39.69,20.56,6,69.12-17.76,76.18-33.06s5.43-15.22,14.13-26c-4.07-1.32-7.49-3.73-11.3-5.48-6.81,23.2-70.54,21-88,18" transform="translate(0.06 8)"/><path class="cls-6" d="M3097.5,368.61" transform="translate(0.06 8)"/><path class="cls-8" d="M3173.76,333.43c-52.85,24.75-74.75,75.6-26.38,122.8-35.83-7.78-37.16-22.88-35.75-55.74A424.39,424.39,0,0,0,3085.1,447c3.05-22.78,12.92-42.41,26-61,13.82-38.32,31-57.19,72.34-65.63C3193.75,330.39,3197.13,322.48,3173.76,333.43Z" transform="translate(0.06 8)"/><path class="cls-4" d="M3266.37,301.71c31-7.29,23.43-.58,14.61,21.9-10.49,22.31-22.49,46.37-45.79,57.35s-37.58,18.23-57.7-2.78-15.53-24.44,13.41-35.73C3221.16,330.65,3247.54,337.44,3266.37,301.71Z" transform="translate(0.06 8)"/><path class="cls-9" d="M4491.09,761.87a17,17,0,0,1-.7-2.44,5.34,5.34,0,0,1-.43-2.07c0-.27,0-.53,0-.79a5.87,5.87,0,0,1-2.27.79c-.17,5-.12,10-.12,14.89,0,2.72-2.47,4.72-4.94,5q0,2.47,0,4.95c0,6.45-10,6.44-10,0,0-1.95,0-3.89,0-5.84a4.7,4.7,0,0,1-2.4-3.41v9.25c0,5.8-8.14,6.6-9.82,1.33-.71-2.21-1.31-4.44-1.84-6.68a4.55,4.55,0,0,1-3.31-4.58V740a4.72,4.72,0,0,1,5-4.83v-2.62c0-4.32,4.5-5.74,7.46-4.26a5.23,5.23,0,0,1,2.37-.56c0-.88.09-1.75.1-2.63.08-5.46,8.91-7,9.82-1.33q.83,5.19,1.3,10.4a4.16,4.16,0,0,1,1.29-1v-13c0-6,7.88-6.32,9.82-1.33a114.23,114.23,0,0,1,3.82,11.52,4.58,4.58,0,0,1,3.78,4.32q0-368.31,0-736.63h-1509q-.09,362.58-.08,725.15c2.95-1.21,7.11.26,7.11,4.42,0,12,0,24-.92,36,1.26-7.84,2.35-15.7,3.34-23.59a5.35,5.35,0,0,1,4.92-4.77c.08-.51.15-1,.22-1.53.79-5.54,8-3.87,9.64,0a90.83,90.83,0,0,1,4.4,13.72,138.55,138.55,0,0,1,3.34-16.2c1.72-6.24,11-3.59,9.64,2.66-2,9.08-.54,18.92,1.53,28,32-3.27,63.47-12.38,94.11-21.78,6.18-1.89,8.79,7.76,2.66,9.65-32.77,10.05-66.36,19.53-100.64,22.52a4.48,4.48,0,0,1-3.17-1.16c-.51,6.18-1,12.36-1.76,18.5-.77,6.43-9.22,6.41-10,0-1.16-9.55-1.85-19.17-3.29-28.63a256.31,256.31,0,0,0-1.6,26.15c0,4.78-5.51,6-8.34,3.7q-.84,3.78-1.77,7.56c-1,4.21-7.78,4.9-9.37,1q0,48.48.1,97c502.87-.84,1006,1.68,1508.93,1.66q0-59.49,0-119C4496.06,774.05,4493.26,767.58,4491.09,761.87Z" transform="translate(0.06 8)"/><path class="cls-9" d="M4491.09,761.87a17,17,0,0,1-.7-2.44,5.34,5.34,0,0,1-.43-2.07c0-.27,0-.53,0-.79a5.87,5.87,0,0,1-2.27.79c-.17,5-.12,10-.12,14.89,0,2.72-2.47,4.72-4.94,5q0,2.47,0,4.95c0,6.45-10,6.44-10,0,0-1.95,0-3.89,0-5.84a4.7,4.7,0,0,1-2.4-3.41v9.25c0,5.8-8.14,6.6-9.82,1.33-.71-2.21-1.31-4.44-1.84-6.68a4.55,4.55,0,0,1-3.31-4.58V740a4.72,4.72,0,0,1,5-4.83v-2.62c0-4.32,4.5-5.74,7.46-4.26a5.23,5.23,0,0,1,2.37-.56c0-.88.09-1.75.1-2.63.08-5.46,8.91-7,9.82-1.33q.83,5.19,1.3,10.4a4.16,4.16,0,0,1,1.29-1v-13c0-6,7.88-6.32,9.82-1.33,1.38,3.52,2.57,7.1,3.59,10.71q0-365.25,0-730.5h-1500q-.09,362.28-.08,724.54a4.56,4.56,0,0,1,2.11,4c0,12,0,24-.92,36,1.26-7.84,2.35-15.7,3.34-23.59a5.35,5.35,0,0,1,4.92-4.77c.08-.51.15-1,.22-1.53.79-5.54,8-3.87,9.64,0a90.83,90.83,0,0,1,4.4,13.72,138.55,138.55,0,0,1,3.34-16.2c1.72-6.24,11-3.59,9.64,2.66-2,9.08-.54,18.92,1.53,28,32-3.27,63.47-12.38,94.11-21.78,6.18-1.89,8.79,7.76,2.66,9.65-32.77,10.05-66.36,19.53-100.64,22.52a4.48,4.48,0,0,1-3.17-1.16c-.51,6.18-1,12.36-1.76,18.5-.77,6.43-9.22,6.41-10,0-1.16-9.55-1.85-19.17-3.29-28.63a256.31,256.31,0,0,0-1.6,26.15c0,4.78-5.51,6-8.34,3.7q-.84,3.78-1.77,7.56a4.92,4.92,0,0,1-4.37,3.52q0,47.7.1,95.4c499.87-.84,1000,1.67,1499.93,1.67q0-63.12,0-126.25A95.17,95.17,0,0,1,4491.09,761.87Z" transform="translate(0.06 8)"/><path class="cls-9" d="M4491.09,761.87a17,17,0,0,1-.7-2.44,5.34,5.34,0,0,1-.43-2.07c0-.27,0-.53,0-.79a5.87,5.87,0,0,1-2.27.79c-.17,5-.12,10-.12,14.89,0,2.72-2.47,4.72-4.94,5q0,2.47,0,4.95c0,6.45-10,6.44-10,0,0-1.95,0-3.89,0-5.84a4.7,4.7,0,0,1-2.4-3.41v9.25c0,5.8-8.14,6.6-9.82,1.33-.71-2.21-1.31-4.44-1.84-6.68a4.55,4.55,0,0,1-3.31-4.58V740a4.72,4.72,0,0,1,5-4.83v-2.62c0-4.32,4.5-5.74,7.46-4.26a5.23,5.23,0,0,1,2.37-.56c0-.88.09-1.75.1-2.63.08-5.46,8.91-7,9.82-1.33q.83,5.19,1.3,10.4a4.16,4.16,0,0,1,1.29-1v-13c0-6,7.88-6.32,9.82-1.33a114.23,114.23,0,0,1,3.82,11.52,4.59,4.59,0,0,1,3.78,4.32q0-366.31,0-732.63h-1509q-.08,360.57-.08,721.15c2.95-1.21,7.11.26,7.11,4.42,0,12,0,24-.92,36,1.26-7.84,2.35-15.7,3.34-23.59a5.35,5.35,0,0,1,4.92-4.77c.08-.51.15-1,.22-1.53.79-5.54,8-3.87,9.64,0a90.83,90.83,0,0,1,4.4,13.72,138.55,138.55,0,0,1,3.34-16.2c1.72-6.24,11-3.59,9.64,2.66-2,9.08-.54,18.92,1.53,28,32-3.27,63.47-12.38,94.11-21.78,6.18-1.89,8.79,7.76,2.66,9.65-32.77,10.05-66.36,19.53-100.64,22.52a4.48,4.48,0,0,1-3.17-1.16c-.51,6.18-1,12.36-1.76,18.5-.77,6.43-9.22,6.41-10,0-1.16-9.55-1.85-19.17-3.29-28.63a256.31,256.31,0,0,0-1.6,26.15c0,4.78-5.51,6-8.34,3.7q-.84,3.78-1.77,7.56c-1,4.21-7.78,4.9-9.37,1q0,50.48.11,101C3493.88,899.5,3997,902,4499.94,902q0-61.49,0-123C4496.06,774.05,4493.26,767.58,4491.09,761.87Z" transform="translate(0.06 8)"/><path class="cls-9" d="M4491.09,761.87a17,17,0,0,1-.7-2.44,5.34,5.34,0,0,1-.43-2.07c0-.27,0-.53,0-.79a5.87,5.87,0,0,1-2.27.79c-.17,5-.12,10-.12,14.89,0,2.72-2.47,4.72-4.94,5q0,2.47,0,4.95c0,6.45-10,6.44-10,0,0-1.95,0-3.89,0-5.84a4.7,4.7,0,0,1-2.4-3.41v9.25c0,5.8-8.14,6.6-9.82,1.33-.71-2.21-1.31-4.44-1.84-6.68a4.55,4.55,0,0,1-3.31-4.58V740a4.72,4.72,0,0,1,5-4.83v-2.62c0-4.32,4.5-5.74,7.46-4.26a5.23,5.23,0,0,1,2.37-.56c0-.88.09-1.75.1-2.63.08-5.46,8.91-7,9.82-1.33q.83,5.19,1.3,10.4a4.16,4.16,0,0,1,1.29-1v-13c0-6,7.88-6.32,9.82-1.33a114.23,114.23,0,0,1,3.82,11.52,4.59,4.59,0,0,1,3.78,4.32q0-367.32,0-734.63h-1500q0,372-.07,744c.18-1.32.35-2.65.52-4a5.35,5.35,0,0,1,4.92-4.77c.08-.51.15-1,.22-1.53.79-5.54,8-3.87,9.64,0a90.83,90.83,0,0,1,4.4,13.72,138.55,138.55,0,0,1,3.34-16.2c1.72-6.24,11-3.59,9.64,2.66-2,9.08-.54,18.92,1.53,28,32-3.27,63.47-12.38,94.11-21.78,6.18-1.89,8.79,7.76,2.66,9.65-32.77,10.05-66.36,19.53-100.64,22.52a4.48,4.48,0,0,1-3.17-1.16c-.51,6.18-1,12.36-1.76,18.5-.77,6.43-9.22,6.41-10,0-1.16-9.55-1.85-19.17-3.29-28.63a256.31,256.31,0,0,0-1.6,26.15c0,4.78-5.51,6-8.34,3.7q-.84,3.78-1.77,7.56a4.09,4.09,0,0,1-.37.94q0,49.49.1,99c499.87-.85,1000,1.67,1499.93,1.67q0-60.48,0-121C4496.06,774.05,4493.26,767.58,4491.09,761.87Z" transform="translate(0.06 8)"/><path class="cls-1" d="M4661,321.39" transform="translate(0.06 8)"/><path class="cls-1" d="M5827.18,680.27" transform="translate(0.06 8)"/><path class="cls-2" d="M5969.6,727.24c-36.74,4.3-94.78,36.56-119.45,44.22-46-.79-20.48-41-19.94-70.08-3.49-116-156.91-95.71-226-54.5-32,19-77.2,57.07-112.21,64.92-21.89,7.5-38.67,8.42-55.45-9.08-79.75-92-128.29-67.88-240.09-42.34-90.19,26.25-136.09.22-192.75-67.61-41.12-63.43-104.73-232.67-94.15-307.59,18.27-58.38,3.74-90.5-57.3-106-27.56-52.36-75.85-128.79-140.8-74.72-17.22-3-33.4-6-33.62,16.37-21.61,24.2-20.16,43.09,1.8,66.44-44.19,6.12-98.25,20.28-81.64,76.87,4.74,37.6,34.74,91.28,71.75,43.74,7.57,10.85,47.21,41.91,59.53,46.67,29.23-15.64,34.15-44.15,51.87-57,29.47,19.76,46.1,36.38,66.57,64.05,35.39,51.92,31.35,162.67,56.67,228.62,55.6,112.21,164.59,206.43,295.3,176.6,43.82-19.57,88.73-26.63,136-16.86,8.73-.28,43.24,26.85,50.32,32.51,93.45,58.46,118.88,14.52,201.19-36.87,20-12.67,154.47-66.58,157.15-24.07-23,82.62,36.41,149.52,112.72,88.07,23.39-17.82,77.58-32.4,112.62-46.38Z" transform="translate(0.06 8)"/><path class="cls-3" d="M4718.36,157.45c-3.25,17.23-17.08,32.68-35.68,29.7s-26-21.8-22.79-39,17.09-32.68,35.68-29.7S4721.6,140.23,4718.36,157.45Z" transform="translate(0.06 8)"/><path class="cls-3" d="M4787.07,154.05c-4.28,22.79-22.07,36.33-45.23,32.64s-35-21.93-30.72-44.72,22.07-36.33,45.23-32.64S4791.35,131.26,4787.07,154.05Z" transform="translate(0.06 8)"/><path class="cls-4" d="M4771,293.85c17-1,16.71,19.12,14.4,17.66-2.58-1.64,54.63,51,64.44,61.37,24.55,64.92,27.42,146.38,44.58,214.86,30.28,120.88,147.42,215.26,273.3,188.08,26.53-8.72,59-18.27,86.16-23.43,37.19-2.11,63.41,1.93,96.41,19.3,18.27,10.72,51.51,48.95,69.4,50.47,85.74,34.6,155.13-91.84,247.63-109.8,35.65-4.3,58.28-8.51,55.81,34.52,0,44.34,2.93,92.37,57.33,95.41,30.66,1.71,54.71-10.75,78-28.38,34.24-22.24,67.34-46.63,104.77-63.46-42,4.16-94.77,36.25-131.05,56.61-55.08,13.73-53.28-52.43-66.31-87.72-32.67-54.39-147.56-21.13-188.46,6.11-48.2,28.41-110.82,82.14-163.47,30-14.58-16-34.17-21.44-54.54-21.27-55.52-1.13-118.91-26.06-172.21,6.33-62.4,37.93-202.3-80.05-231.86-130.64-37.21-54-42.67-118.54-55.56-181-8.74-37.39-35.48-81.75-37.64-117.85,16.79-19.19,18.74-44.66,14.23-68.93-35.16-65.47-121.29-63-174.63-20.6-24.61-2-84.3-17-104.4-1.6-8.62,16-.64,33.16.57,50.2,4.42,35.26,35.89,85.45,70.83,43.67C4686.52,318.32,4759.12,328.53,4771,293.85Z" transform="translate(0.06 8)"/><path class="cls-5" d="M4735.56,308.14c5.08-21.3-25.18-67-35-85.9" transform="translate(0.06 8)"/><path class="cls-6" d="M4767.62,292" transform="translate(0.06 8)"/><path class="cls-6" d="M4788.53,221.25" transform="translate(0.06 8)"/><path class="cls-5" d="M4780.68,216.61c18.29,13,30.29,9.81,45.29-6" transform="translate(0.06 8)"/><path class="cls-6" d="M4815.9,199.12" transform="translate(0.06 8)"/><path class="cls-5" d="M4673.64,309.46c79.08,10.66,113.37-4,120.68-86.32" transform="translate(0.06 8)"/><path class="cls-5" d="M4816,199.13c5.9,10.43,15,17.86,26.86,18.53s18.39,6,23.67,16.16" transform="translate(0.06 8)"/><path class="cls-5" d="M4681.67,225.16c13.08,4.76,18.52,13.11,2.55,19.15" transform="translate(0.06 8)"/><path class="cls-5" d="M4606.05,231.89c18,2.46,13.95,11.73,3.15,21.24" transform="translate(0.06 8)"/><path class="cls-6" d="M4675.85,308.8" transform="translate(0.06 8)"/><path class="cls-6" d="M4784.93,307.72" transform="translate(0.06 8)"/><path class="cls-5" d="M4785.44,307.35c17.14-5.18,38.79-11.62,48.44-28.07" transform="translate(0.06 8)"/><path class="cls-5" d="M4809.62,333.2c13.85,1,24.42-.06,37.22-5.74" transform="translate(0.06 8)"/><path class="cls-5" d="M4836.21,357.15c8.07,2.75,16.81,6.43,24.55,1.19" transform="translate(0.06 8)"/><path class="cls-5" d="M4851.78,378.38c5.05,2.66,18.19,12.53,23.29,5.32" transform="translate(0.06 8)"/><path class="cls-5" d="M4858.87,405c7.57,4.66,16.28,9.37,25.15,5.7" transform="translate(0.06 8)"/><path class="cls-5" d="M4865.55,435.54c8.29,4.41,17.38,8.75,26.35,3.94" transform="translate(0.06 8)"/><path class="cls-5" d="M4871.34,476.56c9.52,4.77,18.6,7.78,28.26,1.88" transform="translate(0.06 8)"/><path class="cls-5" d="M4876.42,509.24c9.2,3.75,16.75,4,25.47-1" transform="translate(0.06 8)"/><path class="cls-5" d="M4884.52,547.71c11.3,3.85,20.93,4.34,31.82-.91" transform="translate(0.06 8)"/><path class="cls-5" d="M4897.81,600.56c14.29,2.72,27.1,3.51,37.13-8.36" transform="translate(0.06 8)"/><path class="cls-5" d="M4918.39,641.27a161.92,161.92,0,0,0,47.3-3.07" transform="translate(0.06 8)"/><path class="cls-5" d="M4941.13,674.4a170.47,170.47,0,0,0,52-7.65" transform="translate(0.06 8)"/><path class="cls-5" d="M4976.17,719c16.21-6.39,36.46-15,44.41-31.51" transform="translate(0.06 8)"/><path class="cls-5" d="M5024.16,761.27c13.05-9.77,21.39-18.89,26-34.87" transform="translate(0.06 8)"/><path class="cls-5" d="M5084.33,780.18c6.62-9.4,11-18.4,12.63-29.84" transform="translate(0.06 8)"/><path class="cls-5" d="M5146,780.18c2.76-6.64-.49-12.82-3.56-18.78" transform="translate(0.06 8)"/><path class="cls-5" d="M5192.19,768.57c-.12-6.75-1.45-11.72-5.89-17" transform="translate(0.06 8)"/><path class="cls-5" d="M5236.64,756.32c-.66-6.11-.16-11.17-3.37-16.69" transform="translate(0.06 8)"/><path class="cls-5" d="M5373.74,787.13a116.19,116.19,0,0,0,33.54-21" transform="translate(0.06 8)"/><path class="cls-5" d="M5419.43,822.7c13.19-7.68,24.7-17,33.45-29.54" transform="translate(0.06 8)"/><path class="cls-5" d="M5503.79,813c5.79-11.14,12.28-23.36,12.51-36.17" transform="translate(0.06 8)"/><path class="cls-5" d="M5550.5,772.66c7-7.26,11.07-14.46,12.48-24.52" transform="translate(0.06 8)"/><path class="cls-5" d="M5614.14,730.63c5-4.21,11.42-9.16,12.07-16.13" transform="translate(0.06 8)"/><path class="cls-5" d="M5336.46,764.89c7.52-3.16,15.76-5.7,21.43-11.9" transform="translate(0.06 8)"/><path class="cls-5" d="M5723.65,734.66c7.32.17,13.83-2.41,19.79-6.5" transform="translate(0.06 8)"/><path class="cls-5" d="M5723.49,770.66c8.21,3,15.09,1.89,22.94-1.66" transform="translate(0.06 8)"/><path class="cls-5" d="M5733.74,815.91c11.36-1.71,19.8-5.64,27.12-14.63" transform="translate(0.06 8)"/><path class="cls-5" d="M5790.35,842.79c5.33-7.23,9.39-14.23,10.55-23.25" transform="translate(0.06 8)"/><path class="cls-5" d="M4728,105.88c19-8.52,34.11-14.86,51.78-.32" transform="translate(0.06 8)"/><path class="cls-5" d="M4665.52,108.32c17.44-8.62,49.65,1.59,50,2.06" transform="translate(0.06 8)"/><path d="M4749.5,158.45c-1.22,6.48-6.7,11.55-13.49,10.46s-10.12-7.54-8.9-14,6.7-11.55,13.49-10.46S4750.72,152,4749.5,158.45Z" transform="translate(0.06 8)"/><path d="M4705.89,157c-.34,6.6-5.14,12.27-12,12s-11.07-6.16-10.73-12.76,5.15-12.27,12-12S4706.23,150.37,4705.89,157Z" transform="translate(0.06 8)"/><path class="cls-7" d="M4737.27,150.47c-6.16-1-7.92,8-1.75,9.05S4743.44,151.49,4737.27,150.47Z" transform="translate(0.06 8)"/><path class="cls-7" d="M4694.8,148.06c-6.16-1-7.92,8-1.76,9.05S4701,149.07,4694.8,148.06Z" transform="translate(0.06 8)"/><path d="M4683,309.85s-29.2,2.69-30,6.78c-3.17,11.31,22.76,36.6,39,40.22,20.87,4.65,72-19,77-35s13.14-24.24,13.14-24.24L4771,291.85c-1.12,11.89-44.14,26.87-88,18" transform="translate(0.06 8)"/><path class="cls-6" d="M4597.71,362.41" transform="translate(0.06 8)"/><path class="cls-8" d="M4672,327c-52.33,24.12-70.36,75.79-22.34,121.88-35.72-6.34-37.68-23.16-36.6-55.13-9.9,14.87-18.15,30.59-25.76,46.79,2-23,12-42.35,24.68-61.16,11-36.88,27.78-57.34,67.67-64.72C4690.81,319.92,4695.18,316.33,4672,327Z" transform="translate(0.06 8)"/><path class="cls-4" d="M4768.2,294.63c31.41-8.53,22.46.27,14.37,21.91-9.95,22.17-23,47.21-45.73,57.69s-38.8,17.39-58.08-2.46-16.35-23.77,12.75-36C4721.93,322.92,4748.3,333,4768.2,294.63Z" transform="translate(0.06 8)"/><path class="cls-9" d="M6000.09,752a15,15,0,0,0,1.85,9.82v-9.52A5.78,5.78,0,0,1,6000.09,752Z" transform="translate(0.06 8)"/><path class="cls-9" d="M5996,770.37a5,5,0,0,1-3.84,1.74c0,.88-.09,1.75-.1,2.63-.1,6.44-10,6.43-10,0,0-3.78,0-7.55-.05-11.33a4.41,4.41,0,0,1-2.37,3.16v8.17c0,6.44-10,6.43-10,0v-72c0-6.45,10-6.43,10,0v4.37c.68,2.72,1.32,5.45,1.9,8.17a4.7,4.7,0,0,1,5.37,3.51c.28,1,.54,2,.79,3,1.54-3.47,3-7,4.47-10.48,1.65-4.08,8.56-5.36,9.64,0,0,.28.11.56.17.84V-8h-1498V766.5c.18.38.36.77.55,1.15,4.47-7.6,9.44-14.9,13.46-22.75,2.39-4.66,9.1-2.13,9.32,2.53.11,2.24.86,4.73,2.49,5.61,5.68,3.05.62,11.68-5.05,8.63a11.63,11.63,0,0,1-3.27-2.6c-4.14,6.86-8.57,13.54-12.23,20.67a5,5,0,0,1-5.27,2.38V892h1498V775.45A26.12,26.12,0,0,1,5996,770.37Z" transform="translate(0.06 8)"/><path class="cls-9" d="M5996,770.37a5,5,0,0,1-3.84,1.74c0,.88-.09,1.75-.1,2.63-.1,6.44-10,6.43-10,0,0-3.78,0-7.55-.05-11.33a4.41,4.41,0,0,1-2.37,3.16v8.17c0,6.44-10,6.43-10,0v-72c0-6.45,10-6.43,10,0v4.37c.68,2.72,1.32,5.45,1.9,8.17a4.7,4.7,0,0,1,5.37,3.51c.28,1,.54,2,.79,3,1.54-3.47,3-7,4.47-10.48,1.65-4.08,8.56-5.36,9.64,0l1.17,5.79V-8h-1500V764.33c.49,1.12,1,2.23,1.55,3.32,4.47-7.6,9.44-14.9,13.46-22.75,2.39-4.66,9.1-2.13,9.32,2.53.11,2.24.86,4.73,2.49,5.61,5.68,3.05.62,11.68-5.05,8.63a11.63,11.63,0,0,1-3.27-2.6c-4.14,6.86-8.57,13.54-12.23,20.67a5.07,5.07,0,0,1-6.27,2.1V892h1500v-116A26.17,26.17,0,0,1,5996,770.37Z" transform="translate(0.06 8)"/><path class="cls-9" d="M6000.09,752a14.73,14.73,0,0,0,2.67,11,1.92,1.92,0,0,0,.18.22V752.17A5.85,5.85,0,0,1,6000.09,752Z" transform="translate(0.06 8)"/><path class="cls-1" d="M6165.67,332.39" transform="translate(0.06 8)"/><path class="cls-1" d="M7331.85,691.27" transform="translate(0.06 8)"/><path class="cls-2" d="M7479.64,759.83a5,5,0,0,1-.6-2.47v-7.45a4.62,4.62,0,0,1,1.46-3.54,63.83,63.83,0,0,0,1-8.6c-35.87.24-100.32,36.5-126.69,44.69-46-.79-20.47-41-19.94-70.08-3.49-116-156.91-95.71-226-54.5-32,19-77.19,57.07-112.2,64.92-21.89,7.5-38.67,8.42-55.45-9.08-79.76-92-128.3-67.88-240.1-42.34-90.18,26.25-136.09.22-192.74-67.61-41.13-63.43-104.73-232.67-94.16-307.59,18.28-58.38,3.74-90.5-57.3-106C6329.33,137.86,6281,61.43,6216.1,115.5c-17.22-3-33.41-6-33.63,16.37-21.61,24.2-20.16,43.09,1.8,66.44-44.19,6.12-98.25,20.28-81.63,76.87,4.73,37.6,34.73,91.28,71.75,43.74,7.56,10.85,47.21,41.91,59.53,46.67,29.23-15.64,34.15-44.15,51.86-57,29.47,19.76,46.11,36.38,66.58,64.05,35.38,51.92,31.34,162.67,56.66,228.62,55.6,112.21,164.6,206.43,295.3,176.6,43.83-19.57,88.73-26.63,136-16.86,8.74-.28,43.24,26.85,50.33,32.51,93.45,58.46,118.87,14.52,201.18-36.87,20-12.67,154.48-66.58,157.15-24.07-23,82.62,36.41,149.52,112.72,88.07,24.92-19,84.77-34.29,119.21-49.1C7480.48,767.65,7480,763.75,7479.64,759.83Z" transform="translate(0.06 8)"/><path class="cls-3" d="M6223,168.45c-3.24,17.23-17.08,32.68-35.68,29.7s-26-21.8-22.78-39,17.08-32.68,35.68-29.7S6226.28,151.23,6223,168.45Z" transform="translate(0.06 8)"/><path class="cls-3" d="M6291.75,165.05c-4.28,22.79-22.07,36.33-45.24,32.64s-35-21.93-30.72-44.72,22.07-36.33,45.24-32.64S6296,142.26,6291.75,165.05Z" transform="translate(0.06 8)"/><path class="cls-4" d="M6275.65,304.85c17-1,16.71,19.12,14.4,17.66-2.58-1.64,54.63,51,64.43,61.37,24.56,64.92,27.42,146.38,44.59,214.86,30.28,120.88,147.41,215.26,273.29,188.08,26.53-8.72,59-18.27,86.17-23.43,37.19-2.11,63.4,1.93,96.41,19.3,18.27,10.72,51.51,48.95,69.39,50.47,85.74,34.6,155.13-91.84,247.63-109.8,35.66-4.3,58.28-8.51,55.81,34.52,0,44.34,2.94,92.37,57.33,95.41,30.66,1.71,54.71-10.75,78-28.38,34.23-22.24,67.33-46.63,104.77-63.46-42,4.16-94.77,36.25-131.06,56.61-55.08,13.73-53.27-52.43-66.31-87.72-32.67-54.39-147.55-21.13-188.46,6.11-48.19,28.41-110.81,82.14-163.46,30-14.58-16-34.18-21.44-54.55-21.27-55.51-1.13-118.91-26.06-172.2,6.33-62.4,37.93-202.3-80.05-231.87-130.64-37.21-54-42.67-118.54-55.55-181-8.74-37.39-35.48-81.75-37.65-117.85,16.79-19.19,18.74-44.66,14.23-68.93-35.16-65.47-121.29-63-174.62-20.6-24.61-2-84.31-17-104.4-1.6-8.63,16-.65,33.16.56,50.2,4.42,35.26,35.89,85.45,70.84,43.67C6191.2,329.32,6263.79,339.53,6275.65,304.85Z" transform="translate(0.06 8)"/><path class="cls-5" d="M6240.24,319.14c5.08-21.3-25.18-67-35-85.9" transform="translate(0.06 8)"/><path class="cls-6" d="M6272.29,303" transform="translate(0.06 8)"/><path class="cls-6" d="M6293.21,232.25" transform="translate(0.06 8)"/><path class="cls-5" d="M6285.35,227.61c18.3,13,30.29,9.81,45.29-6" transform="translate(0.06 8)"/><path class="cls-6" d="M6320.57,210.12" transform="translate(0.06 8)"/><path class="cls-5" d="M6178.32,320.46c79.08,10.66,113.37-4,120.67-86.32" transform="translate(0.06 8)"/><path class="cls-5" d="M6320.62,210.13c5.91,10.43,15,17.86,26.86,18.53s18.39,6,23.67,16.16" transform="translate(0.06 8)"/><path class="cls-5" d="M6186.34,236.16c13.09,4.76,18.53,13.11,2.56,19.15" transform="translate(0.06 8)"/><path class="cls-5" d="M6110.73,242.89c18,2.46,13.94,11.73,3.14,21.24" transform="translate(0.06 8)"/><path class="cls-6" d="M6180.53,319.8" transform="translate(0.06 8)"/><path class="cls-6" d="M6289.61,318.72" transform="translate(0.06 8)"/><path class="cls-5" d="M6290.12,318.35c17.14-5.18,38.79-11.62,48.43-28.07" transform="translate(0.06 8)"/><path class="cls-5" d="M6314.3,344.2c13.85,1,24.42-.06,37.22-5.74" transform="translate(0.06 8)"/><path class="cls-5" d="M6340.88,368.15c8.07,2.75,16.82,6.43,24.56,1.19" transform="translate(0.06 8)"/><path class="cls-5" d="M6356.45,389.38c5.06,2.66,18.19,12.53,23.29,5.32" transform="translate(0.06 8)"/><path class="cls-5" d="M6363.55,416c7.57,4.66,16.28,9.37,25.15,5.7" transform="translate(0.06 8)"/><path class="cls-5" d="M6370.23,446.54c8.29,4.41,17.38,8.75,26.34,3.94" transform="translate(0.06 8)"/><path class="cls-5" d="M6376,487.56c9.52,4.77,18.6,7.78,28.26,1.88" transform="translate(0.06 8)"/><path class="cls-5" d="M6381.09,520.24c9.2,3.75,16.76,4,25.48-1" transform="translate(0.06 8)"/><path class="cls-5" d="M6389.19,558.71c11.31,3.85,20.93,4.34,31.82-.91" transform="translate(0.06 8)"/><path class="cls-5" d="M6402.48,611.56c14.29,2.72,27.1,3.51,37.13-8.36" transform="translate(0.06 8)"/><path class="cls-5" d="M6423.07,652.27a161.87,161.87,0,0,0,47.29-3.07" transform="translate(0.06 8)"/><path class="cls-5" d="M6445.8,685.4a170.43,170.43,0,0,0,52-7.65" transform="translate(0.06 8)"/><path class="cls-5" d="M6480.84,730c16.22-6.39,36.46-15,44.42-31.51" transform="translate(0.06 8)"/><path class="cls-5" d="M6528.83,772.27c13.05-9.77,21.39-18.89,26-34.87" transform="translate(0.06 8)"/><path class="cls-5" d="M6589,791.18c6.61-9.4,11-18.4,12.63-29.84" transform="translate(0.06 8)"/><path class="cls-5" d="M6650.68,791.18c2.75-6.64-.5-12.82-3.57-18.78" transform="translate(0.06 8)"/><path class="cls-5" d="M6696.87,779.57c-.13-6.75-1.46-11.72-5.9-17" transform="translate(0.06 8)"/><path class="cls-5" d="M6741.31,767.32c-.65-6.11-.15-11.17-3.37-16.69" transform="translate(0.06 8)"/><path class="cls-5" d="M6878.41,798.13a116.06,116.06,0,0,0,33.54-21" transform="translate(0.06 8)"/><path class="cls-5" d="M6924.1,833.7c13.19-7.68,24.7-17,33.46-29.54" transform="translate(0.06 8)"/><path class="cls-5" d="M7008.47,824c5.78-11.14,12.27-23.36,12.5-36.17" transform="translate(0.06 8)"/><path class="cls-5" d="M7055.17,783.66c7-7.26,11.07-14.46,12.49-24.52" transform="translate(0.06 8)"/><path class="cls-5" d="M7118.81,741.63c5-4.21,11.43-9.16,12.07-16.13" transform="translate(0.06 8)"/><path class="cls-5" d="M6841.14,775.89c7.52-3.16,15.75-5.7,21.42-11.9" transform="translate(0.06 8)"/><path class="cls-5" d="M7228.33,745.66c7.31.17,13.82-2.41,19.79-6.5" transform="translate(0.06 8)"/><path class="cls-5" d="M7228.17,781.66c8.2,3,15.09,1.89,22.93-1.66" transform="translate(0.06 8)"/><path class="cls-5" d="M7238.41,826.91c11.37-1.71,19.8-5.64,27.12-14.63" transform="translate(0.06 8)"/><path class="cls-5" d="M7295,853.79c5.34-7.23,9.39-14.23,10.55-23.25" transform="translate(0.06 8)"/><path class="cls-5" d="M6232.71,116.88c19-8.52,34.11-14.86,51.78-.32" transform="translate(0.06 8)"/><path class="cls-5" d="M6170.2,119.32c17.43-8.62,49.64,1.59,50.05,2.06" transform="translate(0.06 8)"/><path d="M6254.18,169.45c-1.22,6.48-6.71,11.55-13.5,10.46s-10.12-7.54-8.9-14,6.71-11.55,13.5-10.46S6255.4,163,6254.18,169.45Z" transform="translate(0.06 8)"/><path d="M6210.56,168c-.34,6.6-5.14,12.27-12,12s-11.07-6.16-10.73-12.76,5.14-12.27,12-12S6210.9,161.37,6210.56,168Z" transform="translate(0.06 8)"/><path class="cls-7" d="M6242,161.47c-6.17-1-7.93,8-1.76,9.05S6248.11,162.49,6242,161.47Z" transform="translate(0.06 8)"/><path class="cls-7" d="M6199.48,159.06c-6.17-1-7.93,8-1.76,9.05S6205.64,160.07,6199.48,159.06Z" transform="translate(0.06 8)"/><path d="M6187.65,320.85s-29.21,2.69-30,6.78c-3.17,11.31,22.75,36.6,39,40.22,20.86,4.65,72-19,77-35s13.13-24.24,13.13-24.24l-11.13-5.76c-1.12,11.89-44.14,26.87-88,18" transform="translate(0.06 8)"/><path class="cls-6" d="M6110.36,392.25" transform="translate(0.06 8)"/><path class="cls-8" d="M6174.46,336.83c-49.62,32.79-46.44,100.78,2.47,134.4-36.87-2.09-40.45-15.58-45.39-48.86-6.77,16.67-12.6,33.63-17.7,50.91-.53-23.15,5.81-44.25,13.84-65.69,3.51-36.4,13.92-78.45,56.78-84C6194.66,339.21,6196.4,322.33,6174.46,336.83Z" transform="translate(0.06 8)"/><path class="cls-4" d="M6271.3,307c30.4-9.76,23.7-3.61,17.36,20.31-7.16,24.2-15,50.39-37,65s-34.84,23.27-57.05,2.83-17-23.22,11-36.79C6234.9,344.1,6257.9,343.17,6271.3,307Z" transform="translate(0.06 8)"/><path class="cls-9" d="M7498.9,777.22v-.16a23.42,23.42,0,0,1-4.38-3.31,4.76,4.76,0,0,1-3,.9v7.53c0,6.45-9.92,6.43-10,0-.09-7.49-1.18-14.9-1.88-22.35a5,5,0,0,1-.6-2.47v-7.45a4.62,4.62,0,0,1,1.46-3.54,61.63,61.63,0,0,0,1-8.87v-7.45c0-6.45,10-6.44,10,0v3.3a5.22,5.22,0,0,1,2.4-.69.53.53,0,0,0,0-.13,5,5,0,0,1,9.82-1.33c.88,2.73,1.59,5.48,2.19,8.25V5h-1544V900h1544V781.76C7503,782.9,7498.9,781.1,7498.9,777.22Zm-1468.35,2.34c-12.16,2-26.12.61-34.59-9.19a5,5,0,0,1-3.84,1.74c0,.88-.09,1.75-.1,2.63-.1,6.44-10,6.43-10,0,0-3.78,0-7.55-.05-11.33a4.41,4.41,0,0,1-2.37,3.16v8.17c0,6.44-10,6.43-10,0v-72c0-6.45,10-6.43,10,0v4.37c.68,2.72,1.32,5.45,1.9,8.17a4.7,4.7,0,0,1,5.37,3.51c.28,1,.54,2,.79,3,1.54-3.47,3-7,4.47-10.48,1.65-4.08,8.56-5.36,9.64,0,1.36,6.75,2.78,13.47,3.79,20.25a4.73,4.73,0,0,1,1.35,3.42v12.42c0,4-3.89,5.54-6.82,4.52a14.73,14.73,0,0,0,2.67,11c5.61,7.57,16.6,8.34,25.13,6.91C6034.2,768.86,6036.88,778.5,6030.55,779.56Z" transform="translate(0.06 8)"/><path class="cls-9" d="M7498.9,777.22v-.16a23.42,23.42,0,0,1-4.38-3.31,4.76,4.76,0,0,1-3,.9v7.53c0,6.45-9.92,6.43-10,0-.09-7.49-1.18-14.9-1.88-22.35a5,5,0,0,1-.6-2.47v-7.45a4.62,4.62,0,0,1,1.46-3.54,61.63,61.63,0,0,0,1-8.87v-7.45c0-6.45,10-6.44,10,0v3.3a5.22,5.22,0,0,1,2.4-.69.53.53,0,0,0,0-.13,5,5,0,0,1,9.82-1.33c.88,2.73,1.59,5.48,2.19,8.25V0h-1500V732.05a4.75,4.75,0,0,1,1,3v12.42a4.76,4.76,0,0,1-1,3v15.75c6,4.56,14.83,4.91,22,3.72,6.31-1,9,8.59,2.66,9.65-8.13,1.35-17.05,1.16-24.61-2V900h1500V781.76C7503,782.9,7498.9,781.1,7498.9,777.22Z" transform="translate(0.06 8)"/><rect class="cls-9" x="6006" y="529" width="62" height="5"/><path class="cls-1" d="M7658.78,324.73" transform="translate(0.06 8)"/><path class="cls-2" d="M8968.61,730.45c-36.66,3.71-95.73,36.6-120.68,44.35-46-.79-20.47-41-19.94-70.08-3.49-116-156.91-95.71-226-54.5-32,19-77.2,57.07-112.21,64.92-21.89,7.5-38.67,8.42-55.45-9.07-79.75-92.05-128.3-67.88-240.1-42.35-90.18,26.25-136.09.22-192.74-67.61-41.13-63.43-104.73-232.66-94.15-307.59,18.27-58.38,3.73-90.5-57.3-106-27.57-52.36-75.86-128.79-140.8-74.72-17.22-3-33.41-6-33.63,16.38-21.61,24.19-20.16,43.08,1.8,66.43-44.19,6.13-98.25,20.28-81.63,76.87,4.73,37.6,34.73,91.28,71.75,43.74,7.56,10.86,47.21,41.92,59.53,46.67,29.23-15.63,34.15-44.15,51.87-57,29.46,19.76,46.1,36.38,66.57,64.05,35.38,51.93,31.34,162.67,56.66,228.62,55.6,112.22,164.6,206.43,295.3,176.6,43.83-19.57,88.73-26.63,136-16.86,8.73-.27,43.23,26.85,50.32,32.51,93.45,58.46,118.87,14.52,201.18-36.86,20-12.67,154.48-66.59,157.15-24.08-23,82.62,36.41,149.52,112.72,88.07,23.67-18,78.86-32.74,113.85-46.87Z" transform="translate(0.06 8)"/><path class="cls-2" d="M8990.24,753.63a9.35,9.35,0,0,1-1.7.76v2.29c1.19-.72,2.3-1.43,3.31-2.15A5.55,5.55,0,0,1,8990.24,753.63Z" transform="translate(0.06 8)"/><path class="cls-3" d="M7716.14,160.79c-3.24,17.23-17.08,32.69-35.68,29.7s-26-21.8-22.78-39,17.08-32.68,35.68-29.7S7719.39,143.57,7716.14,160.79Z" transform="translate(0.06 8)"/><path class="cls-3" d="M7784.86,157.39c-4.28,22.8-22.07,36.33-45.24,32.65s-35-21.94-30.72-44.73S7731,109,7754.14,112.67,7789.14,134.6,7784.86,157.39Z" transform="translate(0.06 8)"/><path class="cls-4" d="M7768.76,297.2c17-1,16.71,19.11,14.4,17.65-2.58-1.64,54.63,51,64.43,61.38,24.56,64.91,27.42,146.37,44.59,214.85,30.28,120.88,147.41,215.27,273.29,188.08,26.53-8.72,59-18.27,86.17-23.43,37.19-2.11,63.4,1.93,96.41,19.31,18.27,10.71,51.51,48.94,69.39,50.46,85.74,34.6,155.13-91.84,247.63-109.79,35.66-4.31,58.28-8.52,55.81,34.51.05,44.35,2.94,92.37,57.34,95.41,30.65,1.72,54.7-10.75,78-28.38,34.24-22.24,67.33-46.63,104.77-63.46-42,4.16-94.77,36.25-131.06,56.61-55.08,13.73-53.27-52.43-66.31-87.71-32.67-54.4-147.55-21.14-188.46,6.1-48.19,28.42-110.81,82.14-163.46,30-14.58-16-34.18-21.44-54.55-21.27-55.51-1.13-118.91-26-172.2,6.34-62.4,37.92-202.3-80.06-231.87-130.65-37.21-54-42.66-118.53-55.55-181-8.74-37.39-35.48-81.75-37.65-117.85,16.8-19.18,18.74-44.66,14.23-68.92-35.16-65.48-121.29-63-174.62-20.61-24.61-2-84.31-17-104.4-1.6-8.62,16.06-.65,33.16.56,50.2,4.42,35.26,35.9,85.45,70.84,43.68C7684.31,321.66,7756.9,331.87,7768.76,297.2Z" transform="translate(0.06 8)"/><path class="cls-5" d="M7733.35,311.48c5.08-21.3-25.18-67-35-85.9" transform="translate(0.06 8)"/><path class="cls-6" d="M7765.4,295.34" transform="translate(0.06 8)"/><path class="cls-6" d="M7786.32,224.6" transform="translate(0.06 8)"/><path class="cls-5" d="M7778.46,220c18.3,13,30.29,9.81,45.29-6" transform="translate(0.06 8)"/><path class="cls-6" d="M7813.68,202.46" transform="translate(0.06 8)"/><path class="cls-5" d="M7671.43,312.8c79.08,10.66,113.37-4,120.67-86.32" transform="translate(0.06 8)"/><path class="cls-5" d="M7813.73,202.47c5.91,10.44,15,17.86,26.87,18.54s18.38,6,23.66,16.15" transform="translate(0.06 8)"/><path class="cls-5" d="M7679.45,228.5c13.09,4.76,18.53,13.11,2.56,19.15" transform="translate(0.06 8)"/><path class="cls-5" d="M7603.84,235.24c18,2.45,13.94,11.72,3.15,21.23" transform="translate(0.06 8)"/><path class="cls-6" d="M7673.64,312.14" transform="translate(0.06 8)"/><path class="cls-6" d="M7782.72,311.07" transform="translate(0.06 8)"/><path class="cls-5" d="M7783.23,310.69c17.14-5.17,38.79-11.62,48.43-28.07" transform="translate(0.06 8)"/><path class="cls-5" d="M7807.41,336.55c13.85,1,24.42-.07,37.22-5.75" transform="translate(0.06 8)"/><path class="cls-5" d="M7834,360.49c8.07,2.75,16.82,6.43,24.56,1.19" transform="translate(0.06 8)"/><path class="cls-5" d="M7849.56,381.73c5.06,2.65,18.19,12.52,23.29,5.32" transform="translate(0.06 8)"/><path class="cls-5" d="M7856.66,408.37c7.57,4.66,16.28,9.37,25.15,5.7" transform="translate(0.06 8)"/><path class="cls-5" d="M7863.34,438.89c8.29,4.4,17.38,8.74,26.34,3.93" transform="translate(0.06 8)"/><path class="cls-5" d="M7869.13,479.9c9.52,4.77,18.6,7.78,28.26,1.88" transform="translate(0.06 8)"/><path class="cls-5" d="M7874.2,512.58c9.2,3.75,16.76,4,25.48-1" transform="translate(0.06 8)"/><path class="cls-5" d="M7882.3,551.05c11.31,3.85,20.93,4.34,31.82-.91" transform="translate(0.06 8)"/><path class="cls-5" d="M7895.59,603.9c14.29,2.73,27.1,3.51,37.13-8.36" transform="translate(0.06 8)"/><path class="cls-5" d="M7916.18,644.61a161.53,161.53,0,0,0,47.29-3.07" transform="translate(0.06 8)"/><path class="cls-5" d="M7938.91,677.74a170.43,170.43,0,0,0,52-7.65" transform="translate(0.06 8)"/><path class="cls-5" d="M7974,722.34c16.22-6.39,36.46-15,44.42-31.51" transform="translate(0.06 8)"/><path class="cls-5" d="M8021.94,764.61c13.05-9.77,21.39-18.89,26-34.87" transform="translate(0.06 8)"/><path class="cls-5" d="M8082.12,783.52c6.61-9.4,11-18.4,12.63-29.83" transform="translate(0.06 8)"/><path class="cls-5" d="M8143.79,783.52c2.75-6.64-.5-12.82-3.57-18.77" transform="translate(0.06 8)"/><path class="cls-5" d="M8190,771.91c-.13-6.75-1.46-11.72-5.9-17" transform="translate(0.06 8)"/><path class="cls-5" d="M8234.42,759.66c-.65-6.11-.15-11.17-3.37-16.69" transform="translate(0.06 8)"/><path class="cls-5" d="M8371.52,790.47a116.24,116.24,0,0,0,33.55-21.05" transform="translate(0.06 8)"/><path class="cls-5" d="M8417.21,826c13.19-7.67,24.7-16.94,33.46-29.54" transform="translate(0.06 8)"/><path class="cls-5" d="M8501.58,816.33c5.78-11.14,12.27-23.36,12.5-36.17" transform="translate(0.06 8)"/><path class="cls-5" d="M8548.28,776c7-7.26,11.07-14.46,12.49-24.52" transform="translate(0.06 8)"/><path class="cls-5" d="M8611.92,734c5-4.22,11.43-9.16,12.07-16.14" transform="translate(0.06 8)"/><path class="cls-5" d="M8334.25,768.23c7.52-3.16,15.75-5.7,21.42-11.9" transform="translate(0.06 8)"/><path class="cls-5" d="M8721.44,738c7.31.17,13.82-2.41,19.79-6.5" transform="translate(0.06 8)"/><path class="cls-5" d="M8721.28,774c8.2,3,15.09,1.89,22.94-1.66" transform="translate(0.06 8)"/><path class="cls-5" d="M8731.53,819.25c11.36-1.71,19.79-5.64,27.12-14.63" transform="translate(0.06 8)"/><path class="cls-5" d="M7725.82,109.22c19-8.51,34.11-14.86,51.78-.32" transform="translate(0.06 8)"/><path class="cls-5" d="M7663.31,111.66c17.43-8.61,49.64,1.59,50,2.06" transform="translate(0.06 8)"/><path d="M7747.29,161.79c-1.22,6.49-6.7,11.55-13.5,10.46s-10.12-7.54-8.9-14,6.71-11.55,13.5-10.46S7748.51,155.3,7747.29,161.79Z" transform="translate(0.06 8)"/><path d="M7703.67,160.31c-.34,6.61-5.14,12.27-12,12.05s-11.07-6.17-10.73-12.77,5.14-12.26,12-12S7704,153.71,7703.67,160.31Z" transform="translate(0.06 8)"/><path class="cls-7" d="M7735.06,153.81c-6.17-1-7.92,8-1.76,9.05S7741.23,154.83,7735.06,153.81Z" transform="translate(0.06 8)"/><path class="cls-7" d="M7692.59,151.4c-6.17-1-7.93,8-1.76,9S7698.75,152.42,7692.59,151.4Z" transform="translate(0.06 8)"/><path d="M7680.76,313.2s-29.21,2.68-30,6.78c-3.17,11.3,22.75,36.6,39,40.22,20.86,4.64,72-19,77-35S7779.9,301,7779.9,301l-11.14-5.75c-1.12,11.88-44.14,26.86-88,18" transform="translate(0.06 8)"/><path class="cls-6" d="M7593.82,373.57" transform="translate(0.06 8)"/><path class="cls-8" d="M7666.29,331.13c-55.77,25.46-61.29,86.64-12.76,126-36.73-5.77-39.07-18-41.88-52-7.86,16.12-14.94,32.57-21.37,49.33,1.69-22.85,9-43.68,18.81-64.21,9.73-41.11,25.61-64.36,69.44-72.74C7684.14,332.42,7691,319.88,7666.29,331.13Z" transform="translate(0.06 8)"/><path class="cls-4" d="M7765.08,298.53c30.09-6.22,24.65-2.29,15.82,21.6-9.55,23.28-18.71,47.54-41.8,60.68s-35.73,20.65-56.56-1.86-14.36-25,13.92-35.55C7726,332.39,7749.26,331.16,7765.08,298.53Z" transform="translate(0.06 8)"/><path class="cls-9" d="M8999.75,759.67c-2.85.56-6.31-1.29-6.31-4.8v0a5.34,5.34,0,0,1-3.2-1.21,9.35,9.35,0,0,1-1.7.76v20.35c0,4-4.57,5.84-7.51,4.4-.83,10.12-1.44,20.27-2.42,30.35-.61,6.29-10,6.55-10,0V715.15c0-6.44,10-6.43,10,0V731.6c0-.13.07-.27.11-.4,1.12-3.83,5.57-4.4,8.08-2.4a15.57,15.57,0,0,1,6.63-8,5.14,5.14,0,0,1,6.51,1.28V-3h-1521V878h1521V759.83ZM7537.23,770.82c-8,6.66-18.81,11.08-29.28,9.41-2.51,3.49-9.05,1.9-9.05-3v-.16a23.42,23.42,0,0,1-4.38-3.31,4.76,4.76,0,0,1-3,.9v7.53c0,6.45-9.92,6.43-10,0-.09-7.49-1.18-14.9-1.88-22.35a5,5,0,0,1-.6-2.47v-7.45a4.62,4.62,0,0,1,1.46-3.54,61.63,61.63,0,0,0,1-8.87v-7.45c0-6.45,10-6.44,10,0v3.3a5.22,5.22,0,0,1,2.4-.69.53.53,0,0,0,0-.13,5,5,0,0,1,9.82-1.33,89.54,89.54,0,0,1,2.49,9.66c2.55-1.51,6.13-.89,7.27,2.23a4.87,4.87,0,0,1,2.84,4.34c.13,5.13,1.14,10.15,1.83,15.22a53.69,53.69,0,0,1,.65,7.07,30.65,30.65,0,0,0,11.32-6C7535.08,759.67,7542.18,766.71,7537.23,770.82Z" transform="translate(0.06 8)"/><path class="cls-9" d="M8999.75,759.67c-2.85.56-6.31-1.29-6.31-4.8v0a5.34,5.34,0,0,1-3.2-1.21,9.35,9.35,0,0,1-1.7.76v20.35c0,4-4.57,5.84-7.51,4.4-.83,10.12-1.44,20.27-2.42,30.35-.61,6.29-10,6.55-10,0V715.15c0-6.44,10-6.43,10,0V731.6c0-.13.07-.27.11-.4,1.12-3.83,5.57-4.4,8.08-2.4a15.57,15.57,0,0,1,6.63-8,5.14,5.14,0,0,1,6.51,1.28V-3h-1500V727.75a4.88,4.88,0,0,1,3.81,3.45,89.54,89.54,0,0,1,2.49,9.66c2.55-1.51,6.13-.89,7.27,2.23a4.87,4.87,0,0,1,2.84,4.34c.13,5.13,1.14,10.15,1.83,15.22a53.69,53.69,0,0,1,.65,7.07,30.65,30.65,0,0,0,11.32-6c4.93-4.08,12,3,7.08,7.07-8,6.66-18.81,11.08-29.28,9.41-1.89,2.63-6.06,2.37-8,0V897h1500V759.83Z" transform="translate(0.06 8)"/><path class="cls-9" d="M7525.39,767h-6.71c.07.9.13,1.81.15,2.72A29.4,29.4,0,0,0,7525.39,767Z" transform="translate(0.06 8)"/><path class="cls-9" d="M7538.87,767a4.11,4.11,0,0,1-1.64,3.82c-8,6.66-18.81,11.08-29.28,9.41a4.4,4.4,0,0,1-2,1.53V788h74V767Z" transform="translate(0.06 8)"/><path class="cls-1" d="M9156.36,323.73" transform="translate(0.06 8)"/><path class="cls-1" d="M10322.54,682.61" transform="translate(0.06 8)"/><path class="cls-2" d="M10492.43,735.57c-.66-.53-1.39-1.06-2.2-1.59.36,1.23.73,2.46,1.08,3.7l.63-.79C10492.11,736.45,10492.26,736,10492.43,735.57Z" transform="translate(0.06 8)"/><path class="cls-2" d="M10460.7,767.2a4.47,4.47,0,0,1-4.82-3.55c-2.44-10.42-2.64-21.27-2.66-32-36.39,8.47-85.53,35.22-107.71,42.11-46-.79-20.48-41-19.94-70.08-3.49-116-156.91-95.71-226-54.5-32,19-77.2,57.07-112.2,64.92-21.89,7.5-38.68,8.42-55.46-9.07-79.75-92.05-128.29-67.88-240.09-42.35-90.18,26.25-136.09.22-192.74-67.61-41.13-63.43-104.74-232.66-94.16-307.59,18.27-58.38,3.74-90.5-57.3-106-27.56-52.36-75.85-128.79-140.79-74.72-17.23-3-33.41-6-33.63,16.38-21.61,24.19-20.16,43.08,1.8,66.43-44.19,6.13-98.25,20.28-81.64,76.87,4.74,37.6,34.74,91.28,71.76,43.74,7.56,10.86,47.2,41.92,59.53,46.67,29.23-15.63,34.15-44.15,51.86-57,29.47,19.76,46.11,36.38,66.58,64.05,35.38,51.93,31.34,162.67,56.66,228.62,55.6,112.22,164.6,206.43,295.3,176.6,43.83-19.57,88.73-26.63,135.95-16.86,8.73-.27,43.24,26.85,50.33,32.51,93.44,58.46,118.87,14.52,201.18-36.86,20-12.67,154.48-66.59,157.15-24.08-23,82.62,36.41,149.52,112.72,88.07,22.46-17.11,73.33-31.24,108.36-44.71Z" transform="translate(0.06 8)"/><path class="cls-3" d="M9213.72,159.79c-3.24,17.23-17.08,32.69-35.68,29.7s-26-21.8-22.78-39,17.08-32.68,35.68-29.7S9217,142.57,9213.72,159.79Z" transform="translate(0.06 8)"/><path class="cls-3" d="M9282.43,156.39c-4.28,22.8-22.07,36.33-45.23,32.65s-35-21.94-30.72-44.73,22.07-36.33,45.23-32.64S9286.71,133.6,9282.43,156.39Z" transform="translate(0.06 8)"/><path class="cls-4" d="M10454.14,753.34c-41.22,5.84-91.6,36.41-126.62,56.06-55.08,13.73-53.27-52.43-66.31-87.71-32.67-54.4-147.56-21.14-188.46,6.1-48.2,28.42-110.82,82.14-163.46,30-14.59-16-34.18-21.44-54.55-21.27-55.52-1.13-118.91-26-172.21,6.34-62.39,37.92-202.29-80.06-231.86-130.65-37.21-54-42.67-118.53-55.55-181-8.74-37.39-35.48-81.75-37.65-117.85,16.79-19.18,18.74-44.66,14.23-68.92-35.16-65.48-121.29-63-174.62-20.61-24.61-2-84.31-17-104.4-1.6-8.63,16.06-.65,33.16.56,50.2,4.42,35.26,35.89,85.45,70.84,43.68,17.8,4.6,90.4,14.81,102.26-19.86,17-1,16.71,19.11,14.4,17.65-2.58-1.64,54.63,51,64.43,61.38,24.55,64.91,27.42,146.37,44.59,214.85C9420,711,9537.17,805.35,9663.05,778.16c26.53-8.72,59-18.27,86.16-23.43,37.2-2.11,63.41,1.93,96.41,19.31,18.28,10.71,51.51,48.94,69.4,50.46,85.74,34.6,155.13-91.84,247.63-109.79,35.65-4.31,58.28-8.52,55.81,34.51,0,44.35,2.94,92.37,57.33,95.41,30.66,1.72,54.71-10.75,78-28.38,32.93-21.39,64.82-44.75,100.51-61.47C10454.25,754.3,10454.19,753.82,10454.14,753.34Z" transform="translate(0.06 8)"/><path class="cls-5" d="M9230.93,310.48c5.08-21.3-25.18-67-35-85.9" transform="translate(0.06 8)"/><path class="cls-6" d="M9263,294.34" transform="translate(0.06 8)"/><path class="cls-6" d="M9283.9,223.6" transform="translate(0.06 8)"/><path class="cls-5" d="M9276,219c18.3,13,30.29,9.81,45.29-6" transform="translate(0.06 8)"/><path class="cls-6" d="M9311.26,201.46" transform="translate(0.06 8)"/><path class="cls-5" d="M9169,311.8c79.09,10.66,113.37-4,120.68-86.32" transform="translate(0.06 8)"/><path class="cls-5" d="M9311.31,201.47c5.9,10.44,15,17.86,26.86,18.54s18.39,6,23.67,16.15" transform="translate(0.06 8)"/><path class="cls-5" d="M9177,227.5c13.09,4.76,18.53,13.11,2.55,19.15" transform="translate(0.06 8)"/><path class="cls-5" d="M9101.42,234.24c18,2.45,13.94,11.72,3.14,21.23" transform="translate(0.06 8)"/><path class="cls-6" d="M9171.22,311.14" transform="translate(0.06 8)"/><path class="cls-6" d="M9280.29,310.07" transform="translate(0.06 8)"/><path class="cls-5" d="M9280.8,309.69c17.15-5.17,38.8-11.62,48.44-28.07" transform="translate(0.06 8)"/><path class="cls-5" d="M9305,335.55c13.84,1,24.42-.07,37.22-5.75" transform="translate(0.06 8)"/><path class="cls-5" d="M9331.57,359.49c8.07,2.75,16.82,6.43,24.56,1.19" transform="translate(0.06 8)"/><path class="cls-5" d="M9347.14,380.73c5.06,2.65,18.19,12.52,23.29,5.32" transform="translate(0.06 8)"/><path class="cls-5" d="M9354.23,407.37c7.57,4.66,16.28,9.37,25.16,5.7" transform="translate(0.06 8)"/><path class="cls-5" d="M9360.92,437.89c8.28,4.4,17.37,8.74,26.34,3.93" transform="translate(0.06 8)"/><path class="cls-5" d="M9366.7,478.9c9.52,4.77,18.61,7.78,28.26,1.88" transform="translate(0.06 8)"/><path class="cls-5" d="M9371.78,511.58c9.2,3.75,16.75,4,25.47-1" transform="translate(0.06 8)"/><path class="cls-5" d="M9379.88,550.05c11.31,3.85,20.93,4.34,31.82-.91" transform="translate(0.06 8)"/><path class="cls-5" d="M9393.17,602.9c14.29,2.73,27.1,3.51,37.13-8.36" transform="translate(0.06 8)"/><path class="cls-5" d="M9413.76,643.61a161.53,161.53,0,0,0,47.29-3.07" transform="translate(0.06 8)"/><path class="cls-5" d="M9436.49,676.74a170.43,170.43,0,0,0,52-7.65" transform="translate(0.06 8)"/><path class="cls-5" d="M9471.53,721.34c16.21-6.39,36.46-15,44.42-31.51" transform="translate(0.06 8)"/><path class="cls-5" d="M9519.52,763.61c13-9.77,21.39-18.89,26-34.87" transform="translate(0.06 8)"/><path class="cls-5" d="M9579.7,782.52c6.61-9.4,11-18.4,12.62-29.83" transform="translate(0.06 8)"/><path class="cls-5" d="M9641.36,782.52c2.76-6.64-.49-12.82-3.56-18.77" transform="translate(0.06 8)"/><path class="cls-5" d="M9687.56,770.91c-.13-6.75-1.46-11.72-5.9-17" transform="translate(0.06 8)"/><path class="cls-5" d="M9732,758.66c-.66-6.11-.16-11.17-3.37-16.69" transform="translate(0.06 8)"/><path class="cls-5" d="M10045.86,775c7-7.26,11.07-14.46,12.48-24.52" transform="translate(0.06 8)"/><path class="cls-5" d="M10109.5,733c5-4.22,11.42-9.16,12.07-16.14" transform="translate(0.06 8)"/><path class="cls-5" d="M9831.83,767.23c7.52-3.16,15.75-5.7,21.42-11.9" transform="translate(0.06 8)"/><path class="cls-5" d="M10219,737c7.31.17,13.82-2.41,19.78-6.5" transform="translate(0.06 8)"/><path class="cls-5" d="M9223.4,108.22c19-8.51,34.11-14.86,51.77-.32" transform="translate(0.06 8)"/><path class="cls-5" d="M9160.89,110.66c17.43-8.61,49.64,1.59,50,2.06" transform="translate(0.06 8)"/><path d="M9244.87,160.79c-1.22,6.49-6.71,11.55-13.5,10.46s-10.12-7.54-8.9-14,6.7-11.55,13.5-10.46S9246.09,154.3,9244.87,160.79Z" transform="translate(0.06 8)"/><path d="M9201.25,159.31c-.34,6.61-5.14,12.27-12,12.05s-11.07-6.17-10.72-12.77,5.14-12.26,12-12S9201.59,152.71,9201.25,159.31Z" transform="translate(0.06 8)"/><path class="cls-7" d="M9232.64,152.81c-6.17-1-7.93,8-1.76,9.05S9238.8,153.83,9232.64,152.81Z" transform="translate(0.06 8)"/><path class="cls-7" d="M9190.17,150.4c-6.17-1-7.93,8-1.76,9S9196.33,151.42,9190.17,150.4Z" transform="translate(0.06 8)"/><path d="M9178.33,312.2s-29.2,2.68-30,6.78c-3.16,11.3,22.76,36.6,39,40.22,20.86,4.64,72-19,77-35S9277.47,300,9277.47,300l-11.13-5.75c-1.12,11.88-44.15,26.86-88,18" transform="translate(0.06 8)"/><path class="cls-6" d="M9080.71,355.62" transform="translate(0.06 8)"/><path class="cls-8" d="M9162,328.88c-58,16.49-83.95,70.9-48.39,124.21-33-16.6-32.5-28.24-25.25-62q-18.18,19.88-34.67,41.21c8.61-21.26,21.5-39.27,36.76-56.22,22.91-37.52,42.89-53.52,87.7-59.67C9183.41,333.76,9187.65,321.59,9162,328.88Z" transform="translate(0.06 8)"/><path class="cls-4" d="M9263.91,296.43c29.75-1.76,25.26.65,13,23.45-13.15,21.77-24.68,44-49.25,55s-37.05,17-55.55-8-11.11-26.65,17.73-33.67C9220,325.9,9244.22,325.09,9263.91,296.43Z" transform="translate(0.06 8)"/><path class="cls-9" d="M10494.83,754.87c3.7,5.23-4.94,10.18-8.66,5a8.92,8.92,0,0,1-.65-1.11c0,.36,0,.71,0,1.07a4.9,4.9,0,0,1-2.93,4.39c-1.6,3.34-7.07,4.62-8.87.62-.39-.88-.72-1.78-1-2.68a5.23,5.23,0,0,1-.78-.11,131.15,131.15,0,0,0-1.27,17.64c0,6.44-10,6.44-10,0,0-4.16,0-8.33,0-12.5a4.47,4.47,0,0,1-4.82-3.55c-2.76-11.76-2.66-24.07-2.66-36.08,0-5.84,8.21-6.38,9.75-1.65a5.22,5.22,0,0,1,3.53-.64,5.74,5.74,0,0,1,6.47,3.44c.21.62.42,1.24.62,1.86a5.66,5.66,0,0,1,4.45-3c.12-5.77,8.09-6.62,9.83-1.32,1.23,3.78,2.34,7.61,3.44,11.44l.63-.79c.41-1.06.81-2.12,1.18-3.21a5.74,5.74,0,0,1,3.82-3.42V-4h-1501V720.12a5,5,0,0,1,4.84,3.63c2.2,8.83,4.08,17.56,3.36,26.5,8.51,8,19.06,13.17,31.54,12,6.41-.59,6.35,9.42,0,10-13.85,1.26-26-4.12-35.93-12.62a5.7,5.7,0,0,1-3.81-.62V893h1501V750.52Q10495.91,752.71,10494.83,754.87Z" transform="translate(0.06 8)"/><path class="cls-9" d="M10494.83,754.87c3.7,5.23-4.94,10.18-8.66,5a8.92,8.92,0,0,1-.65-1.11c0,.36,0,.71,0,1.07a4.9,4.9,0,0,1-2.93,4.39c-1.6,3.34-7.07,4.62-8.87.62-.39-.88-.72-1.78-1-2.68a5.23,5.23,0,0,1-.78-.11,131.15,131.15,0,0,0-1.27,17.64c0,6.44-10,6.44-10,0,0-4.16,0-8.33,0-12.5a4.47,4.47,0,0,1-4.82-3.55c-2.76-11.76-2.66-24.07-2.66-36.08,0-5.84,8.21-6.38,9.75-1.65a5.22,5.22,0,0,1,3.53-.64,5.74,5.74,0,0,1,6.47,3.44c.21.62.42,1.24.62,1.86a5.66,5.66,0,0,1,4.45-3c.12-5.77,8.09-6.62,9.83-1.32,1.23,3.78,2.34,7.61,3.44,11.44l.63-.79c.41-1.06.81-2.12,1.18-3.21a5.74,5.74,0,0,1,3.82-3.42V-5h-1500V720.23a4.85,4.85,0,0,1,3.84,3.52c2.2,8.83,4.08,17.56,3.36,26.5,8.51,8,19.06,13.17,31.54,12,6.41-.59,6.35,9.42,0,10-13.85,1.26-26-4.12-35.93-12.62a5.6,5.6,0,0,1-2.81-.19V895h1500V750.52Q10495.91,752.71,10494.83,754.87Z" transform="translate(0.06 8)"/></g></svg>
