<svg xmlns="http://www.w3.org/2000/svg" xmlns:xlink="http://www.w3.org/1999/xlink" viewBox="0 0 701 699.1805"><defs><style>.cls-1{fill:#070707;}.cls-1,.cls-2{opacity:0.86;}.cls-2{fill:#efca16;}</style></defs><title>Asset 6</title><g id="Layer_2" data-name="Layer 2"><g id="Layer_1-2" data-name="Layer 1"><image width="736" height="736" transform="translate(0 0.1805) scale(0.9524 0.9497)" xlink:href="../cvimg1.png"/><ellipse class="cls-1" cx="23" cy="101.0564" rx="8" ry="8.0902"/><ellipse class="cls-2" cx="63" cy="245.0902" rx="8" ry="8.0902"/><ellipse class="cls-1" cx="23" cy="480.0244" rx="7" ry="7.5846"/><ellipse class="cls-2" cx="84" cy="606.4737" rx="21" ry="21.2368"/><ellipse class="cls-1" cx="22.7825" cy="349.1635" rx="17.7825" ry="17.9831"/><ellipse class="cls-2" cx="106" cy="109.0902" rx="8" ry="8.0902"/><ellipse class="cls-1" cx="91" cy="562.0244" rx="7" ry="7.5846"/><ellipse class="cls-2" cx="105" cy="358.4737" rx="21" ry="21.2368"/><ellipse class="cls-1" cx="175" cy="190.0564" rx="8" ry="8.0902"/><ellipse class="cls-2" cx="23" cy="668.0902" rx="8" ry="8.0902"/><ellipse class="cls-2" cx="71" cy="21.0902" rx="8" ry="8.0902"/><ellipse class="cls-2" cx="461" cy="141.4737" rx="21" ry="21.2368"/><ellipse class="cls-2" cx="256" cy="26.2406" rx="18" ry="18.203"/><ellipse class="cls-1" cx="291" cy="467.0244" rx="7" ry="7.5846"/><ellipse class="cls-1" cx="256" cy="593.2312" rx="9" ry="9.6071"/><ellipse class="cls-2" cx="352" cy="593.4737" rx="21" ry="21.2368"/><ellipse class="cls-2" cx="420" cy="72.0902" rx="8" ry="8.0902"/><ellipse class="cls-1" cx="63" cy="174.2218" rx="14" ry="14.1579"/><ellipse class="cls-1" cx="359" cy="549.0244" rx="7" ry="7.5846"/><ellipse class="cls-1" cx="196" cy="141.0564" rx="8" ry="8.0902"/><ellipse class="cls-2" cx="291" cy="655.0902" rx="8" ry="8.0902"/><ellipse class="cls-1" cx="90.8978" cy="507.7801" rx="44.1022" ry="44.5996"/><ellipse class="cls-1" cx="175" cy="543.0244" rx="7" ry="7.5846"/><ellipse class="cls-1" cx="211.5506" cy="437.0094" rx="20.4494" ry="21.8289"/><ellipse class="cls-2" cx="339" cy="8.0902" rx="8" ry="8.0902"/><ellipse class="cls-2" cx="668" cy="379.4737" rx="21" ry="21.2368"/><ellipse class="cls-1" cx="592" cy="182.0564" rx="8" ry="8.0902"/><ellipse class="cls-2" cx="542" cy="30.2406" rx="18" ry="18.203"/><ellipse class="cls-2" cx="617" cy="236.0902" rx="8" ry="8.0902"/><ellipse class="cls-1" cx="577" cy="471.0244" rx="7" ry="7.5846"/><ellipse class="cls-1" cx="542" cy="597.2312" rx="9" ry="9.6071"/><ellipse class="cls-2" cx="585" cy="550.4737" rx="21" ry="21.2368"/><ellipse class="cls-1" cx="576.7825" cy="340.1635" rx="17.7825" ry="17.9831"/><ellipse class="cls-2" cx="660" cy="100.0902" rx="8" ry="8.0902"/><ellipse class="cls-1" cx="468" cy="293.2218" rx="14" ry="14.1579"/><ellipse class="cls-1" cx="645" cy="553.0244" rx="7" ry="7.5846"/><ellipse class="cls-2" cx="454" cy="655.4737" rx="21" ry="21.2368"/><ellipse class="cls-1" cx="560" cy="256.0564" rx="8" ry="8.0902"/><ellipse class="cls-2" cx="506" cy="379.2406" rx="18" ry="18.203"/><ellipse class="cls-2" cx="577" cy="659.0902" rx="8" ry="8.0902"/><ellipse class="cls-1" cx="461" cy="547.0244" rx="7" ry="7.5846"/><ellipse class="cls-1" cx="432.5506" cy="467.0094" rx="20.4494" ry="21.8289"/><ellipse class="cls-2" cx="625" cy="12.0902" rx="8" ry="8.0902"/><ellipse class="cls-1" cx="677" cy="265.2218" rx="14" ry="14.1579"/><ellipse class="cls-2" cx="225" cy="556.2406" rx="18" ry="18.203"/><ellipse class="cls-1" cx="284" cy="349.2312" rx="9" ry="9.6071"/><ellipse class="cls-1" cx="570" cy="88.0564" rx="8" ry="8.0902"/><ellipse class="cls-1" cx="176.5506" cy="312.0094" rx="20.4494" ry="21.8289"/></g></g></svg>