<svg xmlns="http://www.w3.org/2000/svg" xmlns:xlink="http://www.w3.org/1999/xlink" viewBox="0 0 800 800"><defs><style>.cls-1,.cls-2{fill:#ead3c9;}.cls-2{stroke:#d6c4bd;}.cls-10,.cls-11,.cls-12,.cls-13,.cls-2,.cls-4,.cls-5,.cls-7,.cls-8,.cls-9{stroke-miterlimit:10;}.cls-3{fill:url(#linear-gradient);}.cls-4{fill:#f2ece9;stroke:#f2ece9;}.cls-5{fill:#3baeed;stroke:#3baeed;}.cls-6{fill:#5e391d;}.cls-11,.cls-7,.cls-9{fill:none;}.cls-7{stroke:#966b6b;}.cls-8{fill:#914e4e;}.cls-8,.cls-9{stroke:#914e4e;}.cls-10{fill:#070707;stroke:#070707;}.cls-11,.cls-12{stroke:#30251c;}.cls-12,.cls-14{fill:#30251c;}.cls-13{fill:#ceafa5;stroke:#ceafa5;}</style><linearGradient id="linear-gradient" x1="378.8628" y1="276.5" x2="378.8628" y2="66.4237" gradientUnits="userSpaceOnUse"><stop offset="0" stop-color="#7f5800"/><stop offset="1" stop-color="#553b00"/></linearGradient></defs><title>mandibaad</title><g id="Layer_8" data-name="Layer 8"><path class="cls-1" d="M278.303,268.5149S261.0812,242,248.1649,259c0,0-6.4581,10,2.1527,24,0,0,13.9927,22,15.0691,31,0,0,8.165,17.1335,18.6133,7.0667C284,321.0667,273.9975,289.03,278.303,268.5149Z"/><path class="cls-1" d="M474.7169,273.5149S491.9986,247,504.96,264c0,0,6.4806,10-2.16,24,0,0-14.0414,22-15.1215,31,0,0-8.1935,17.1334-18.6782,7.0667C469,326.0668,479.0373,294.03,474.7169,273.5149Z"/><path class="cls-1" d="M297.4733,511.2147c-9.8864.6413-17.4335-.0842-25.8133,6.2205-3.2519,6.2437-2.6766,12.4139.2344,18.6284,12.1047-2.2541,25.6961-1.9072,36.6209-8.1731C305.208,522.1469,301.3088,516.62,297.4733,511.2147Z"/><path class="cls-1" d="M351.95,400.3734c-16.8353.1107-24.0037,7.9308-28.4177,23.466-5.5381,19.034-15.6583,79.7817-27.6189,87.37,3.26,6.6522,5.3289,12.7207,10.6288,18.1947,7.5438-.2724,12.854-6.0833,17.483-11.34,7.98-22.1134,8.0165-34.07,9.127-57.6371C331.5083,438.3373,333.333,414.7436,351.95,400.3734Z"/><path class="cls-1" d="M449,526c6.923-3.9547,10.3616-11.8387,12.2651-19.27,11.714,1.0306,19.78,9.5776,25.7306,18.9314.0093,7.4607-1.4326,22.3723-7.8626,18.6987C468,538,458.853,532.7023,449,526Z"/><path class="cls-1" d="M406.928,400.4077c13.0626-1.5963,22.2012,4.4435,30.3114,14.1177,8.3385,18.8894,15.0228,40.8434,16.3788,61.4131.0615,12.7185-4.5556,23.7847,8.8044,31.1542,1.3853,8.3594-7.2041,14.746-12.8232,18.9914-5.6907-2.6818-9.8478-6.5271-12.003-12.4851-6.8551-12.5266-4.0839-25.41-2.79-38.8752-1.6077-17.83-4.3217-36.6575-9.16-53.8633C425.0934,411.011,414.2933,404.6632,406.928,400.4077Z"/><path class="cls-1" d="M280,146s-9,154,0,166c0,0,1,37,36,54l40,21s30,21,58,0l36-26s21-15,24-50c0,0,11.5-89.5,6.5-164.5,0,0-16-57-102-50C378.5,96.5,304.5,86.5,280,146Z"/><path class="cls-2" d="M358.5,388.5v12S328,394,328,448c0,0-2,50,5,68,0,0,10,24,53.5,20.5,0,0,32,1,45.5-20.5,0,0,10-49,0-85,0,0-2.5-25.5-25-31l-.1335-8.5385"/><path class="cls-1" d="M391,673.7863s28-25.8757,54-24.7506c0,0,20,3.375,24,22.5,0,0,5,21.3756-24,21.3756C445,692.9118,407,699.662,391,673.7863Z"/><path class="cls-1" d="M382.5,673.5s-6.5735-15.9643-52.4814-16.9522c-2.982-.0642-5.1732,2.0613-7.8441,3.3889C314,664,309.8968,674.7226,308.5,684.5c0,0,17,29,68,3C376.5,687.5,380.5,686.5,382.5,673.5Z"/><path class="cls-1" d="M341.1294,511l-4.2353,123.195S331.3882,659.7736,328,663.95c0,0,39.3882-9.9183,54.6353,9.9182l3.3882-73.0817S392.6941,656.2516,391,674c0,0,26.3647-24.1447,45-19.9686,0,0-6.6841-38.1022-5.9457-49.8737a4.093,4.093,0,0,0,.0028-.4866L424.9882,511S390.2588,559.0252,341.1294,511Z"/><path class="cls-3" d="M276,268.5149s-10.8665-14.8936-15.4332-15.2042C260.5668,253.3107,239,168,255,141c0,0,4-24,38-28,0,0-3.5-6.5-7.5-8.5,0,0,6,2,9,5,0,0,0-7-6-10,0,0,5,0,8,6,0,0-2-11-7-13,0,0,5-1,10,10,0,0,18-38,65-36l7,3-5,4s27-7,47,0c0,0-4,2-5,5,0,0,11-1,15,0,0,0,22,3,28,11,0,0,17,8,20,23a44.6528,44.6528,0,0,1,21,28s18,11,15,33c0,0,5,18-6,44l-9.9265,40.8107L475.5,276.5s0-96,1-100c0,0-3-22-31-36,0,0-20,1-25-1,0,0,3,6,8,6,0,0-9,0-15-6,0,0-1,3,6,6,0,0-4,3-13-6,0,0-55,5-71-3,0,0-18,6-27,4,0,0-4,27-12,33,0,0-8,8-12,9C284.5,182.5,283.5,249.53,276,268.5149Z"/><path class="cls-4" d="M316,252a26.3172,26.3172,0,0,1,5-33c10.2719-9.0212,25.1815-7.234,34,0,12.2426,10.0428,12.3693,30.2749,4,38-3.017,2.7848-6.5778,3.4272-10,4C333.942,263.52,321.1187,255.6092,316,252Z"/><path class="cls-4" d="M450.1254,254a26.3173,26.3173,0,0,0-5-33c-10.2719-9.0212-25.1815-7.234-34,0-12.2426,10.0428-12.3693,30.2749-4,38,3.017,2.7848,6.5778,3.4272,10,4C432.1834,265.52,445.0067,257.6092,450.1254,254Z"/><path class="cls-5" d="M322,237c.5817-7.6795,6.75-14.9675,15-16a16.6415,16.6415,0,0,1,15,6,17.3114,17.3114,0,0,1-2,23c-7.1848,6.5517-18.3887,5.0273-24-1C321.5513,244.2214,321.9231,238.0147,322,237Z"/><path class="cls-5" d="M411,239c.5817-7.6795,6.75-14.9675,15-16a16.6415,16.6415,0,0,1,15,6,17.3114,17.3114,0,0,1-2,23c-7.1848,6.5517-18.3887,5.0273-24-1C410.5513,246.2214,410.9231,240.0147,411,239Z"/><path class="cls-6" d="M355.7345,185.8574s-19.9132-.6817-33.1315,4.0383c0,0-9.95,9-12.9982,12.9632,0,0-3.22-11.56,10.3149-22.5965,0,0,26.784-10.0557,37.0639-6.6908C356.9836,173.5716,362.3986,185.5582,355.7345,185.8574Z"/><path class="cls-6" d="M409.0748,185.2331s19.9244-.137,33.0087,4.9426c0,0,9.7,9.2686,12.639,13.3138,0,0,3.5348-11.4676-9.6933-22.87,0,0-26.4991-10.7842-36.8672-7.7016C408.162,172.9178,402.4214,184.7519,409.0748,185.2331Z"/><path class="cls-7" d="M369,289c-1.88.9085,15.5,13.5,28,0"/><path class="cls-8" d="M327.5,330s52.2591-13.625,109-.5C436.5,329.5,379.5,318.5,327.5,330Z"/><path class="cls-8" d="M331.5,332.5s-2-2-8-5"/><path class="cls-8" d="M432.5,332.5s2-2,8-5"/><path class="cls-9" d="M363,336s17.5-6.5,34,0"/><path class="cls-10" d="M420,240c-.2048-4.5471,5.1635-8.5933,10-8,2.93.3594,6.3041,2.4994,7,6,.808,4.0648-2.394,7.96-6,9C426.0936,248.4156,420.2079,244.6138,420,240Z"/><path class="cls-10" d="M332,240c-.2048-4.5471,5.1635-8.5933,10-8,2.93.3594,6.3041,2.5,7,6,.808,4.0648-2.394,7.96-6,9C338.0936,248.4156,332.2079,244.6138,332,240Z"/><path class="cls-11" d="M293,244c2.277-15.0211,10.3508-23.8225,14-26,12.9653-7.7366,43.54-12.669,58,4,12.6044,14.53,9.5516,37.919-3,51-17.4877,18.2251-49.1671,12.0144-62-4C298.889,267.6137,290.9683,257.4038,293,244Z"/><path class="cls-11" d="M467.737,246c-2.277-15.0211-10.3508-23.8225-14-26-12.9653-7.7366-43.54-12.669-58,4-12.6043,14.53-9.5516,37.919,3,51,17.4877,18.2251,49.1671,12.0144,62-4C461.848,269.6137,469.7688,259.4038,467.737,246Z"/><path class="cls-12" d="M370.8471,231.942s8.1529-5.942,19.8546,0l-1.4873,4.0269s-9.2144-2.9689-17.1505,0Z"/><polygon class="cls-12" points="294.906 235.969 281.594 237.186 280.999 242.847 293 243 294.906 235.969"/><polygon class="cls-12" points="463.999 233.622 476.443 234.839 477 240.5 466.5 240.5 463.999 233.622"/><path class="cls-11" d="M295.3138,244.1615c2.1543-14.2119,9.7932-22.539,13.2458-24.5992,12.2668-7.32,41.1942-11.9864,54.8751,3.7845,11.9253,13.7471,9.037,35.8761-2.8384,48.2523-16.5455,17.2432-46.5181,11.3671-58.66-3.7845C300.8856,266.503,293.3915,256.8431,295.3138,244.1615Z"/><path class="cls-11" d="M465.7549,246.1615c-2.1543-14.2119-9.7932-22.539-13.2457-24.5992-12.2668-7.32-41.1943-11.9864-54.8752,3.7845-11.9253,13.7471-9.037,35.8761,2.8384,48.2523,16.5455,17.2432,46.5181,11.3671,58.66-3.7845C460.1831,268.503,467.6772,258.8431,465.7549,246.1615Z"/><circle class="cls-13" cx="380.5" cy="482.5" r="2"/><circle class="cls-13" cx="354.5" cy="442.5" r="2"/><circle class="cls-13" cx="408.5" cy="442.5" r="2"/><path class="cls-14" d="M293.9334,246.4633a1.5009,1.5009,0,0,0,0-3,1.5009,1.5009,0,0,0,0,3Z"/><path class="cls-14" d="M294.0526,248.2334a1.1257,1.1257,0,0,0,0-2.25,1.1257,1.1257,0,0,0,0,2.25Z"/><path class="cls-14" d="M292.68,248.7774a42.8173,42.8173,0,0,0,2.43,11.86c.4857,1.3528,2.6606.7694,2.17-.5981a40.6794,40.6794,0,0,1-2.3494-11.2617c-.0907-1.4381-2.3413-1.4484-2.25,0Z"/><path class="cls-14" d="M302.5242,268.555a25.3844,25.3844,0,0,1-4.7217-7.9367c-.4981-1.3464-2.6736-.7641-2.17.5981a28.4409,28.4409,0,0,0,5.3,8.9295c.9543,1.0926,2.54-.5041,1.5909-1.5909Z"/><path class="cls-14" d="M305.17,271.3846l-1.9832-2.0536c-1.0078-1.0435-2.5975.5485-1.591,1.591,9.683,10.0291,24.6125,14.5654,38.4149,13.1441,13.1434-1.3535,23.8286-9.9144,28.893-21.943.561-1.3325-1.6154-1.9146-2.17-.5982-10.6652,25.3315-45.8735,26.1117-63.5473,7.8061l-1.591,1.591,1.9832,2.0536c1.0078,1.0435,2.5977-.5486,1.591-1.591Z"/><path class="cls-14" d="M368.8909,263.0344a7.763,7.763,0,0,0,.77-1.4012,1.1638,1.1638,0,0,0-.4036-1.5392,1.1329,1.1329,0,0,0-1.5393.4036,7.7563,7.7563,0,0,1-.77,1.4012,1.1356,1.1356,0,0,0,.4036,1.5392,1.1479,1.1479,0,0,0,1.5393-.4036Z"/><path class="cls-14" d="M370.1142,260.8126a56.8559,56.8559,0,0,0,2.3548-6.7993,1.1259,1.1259,0,0,0-2.17-.5981,56.8605,56.8605,0,0,1-2.3548,6.7992c-.5587,1.3338,1.6176,1.9161,2.17.5982Z"/><path class="cls-14" d="M372.4555,253.4448a19.9072,19.9072,0,0,0,.84-9.2795c-.1951-1.4281-2.3633-.82-2.17.5982a17.4693,17.4693,0,0,1-.84,8.0832c-.4684,1.3735,1.7041,1.9631,2.17.5981Z"/><path class="cls-14" d="M295.8793,243.588a35.9307,35.9307,0,0,1,3.76-12.5546c1.7527-3.3387,4.1417-7.9533,7.4367-9.8756a1.5011,1.5011,0,0,0-1.5141-2.59c-3.8341,2.2368-6.5177,7.1559-8.513,10.9518a40.0485,40.0485,0,0,0-4.1693,14.0688c-.227,1.9133,2.7749,1.897,3,0Z"/><path class="cls-14" d="M306.9869,220.82a1.5009,1.5009,0,0,0,0-3,1.5009,1.5009,0,0,0,0,3Z"/><path class="cls-14" d="M308.8959,219.3785a74.2983,74.2983,0,0,1,19.7634-5.6165c1.4278-.2022.82-2.37-.5982-2.17a76.3156,76.3156,0,0,0-20.3008,5.8433c-1.3215.5846-.178,2.5239,1.1356,1.9428Z"/><path class="cls-14" d="M329.8952,213.2592a65.821,65.821,0,0,1,20.908,2.1613,1.126,1.126,0,0,0,.5982-2.17,67.6825,67.6825,0,0,0-21.5062-2.2416c-1.44.08-1.4491,2.3306,0,2.25Z"/><path class="cls-14" d="M351.8225,215.7783a25.0268,25.0268,0,0,1,12.0928,7.5063l1.591-1.591-3.9274-3.2541c-1.0985-.91-2.6842.6145-1.591,1.591a31.627,31.627,0,0,1,10.7914,23.9071,1.1257,1.1257,0,0,0,2.25,0,33.9251,33.9251,0,0,0-11.45-25.4981l-1.591,1.591,3.9274,3.2541a1.1257,1.1257,0,0,0,1.591-1.591,27.3851,27.3851,0,0,0-13.0856-8.0849,1.126,1.126,0,0,0-.5982,2.17Z"/><path class="cls-14" d="M390.236,232.6534a44.3121,44.3121,0,0,0,5.3922,39.8215c.8168,1.1843,2.7677.06,1.9428-1.1356a42.1878,42.1878,0,0,1-5.1654-38.0878c.4761-1.3706-1.6967-1.96-2.17-.5981Z"/><path class="cls-14" d="M401.5281,277.7171a1.1257,1.1257,0,0,0,0-2.25,1.1257,1.1257,0,0,0,0,2.25Z"/><path class="cls-14" d="M405.2433,277.6782c-4.1253-1.8269-6.4729-5.5322-8.7169-9.2639l-1.7669,1.3633c4.0147,5.1548,8.1006,11.3655,14.7517,13.1288a1.13,1.13,0,0,0,.8669-2.0562l-4.7852-3.2912c-1.196-.8226-2.3224,1.1265-1.1356,1.9428l4.7852,3.2912.8668-2.0562c-6.1033-1.6181-10.0759-7.8215-13.7589-12.55-.7929-1.0182-2.4126.2894-1.7669,1.3633,2.4263,4.0348,5.0692,8.0982,9.5242,10.0711,1.3121.581,2.4583-1.3571,1.1356-1.9428Z"/><path class="cls-14" d="M411.017,283.3535c13.1553,3.8864,26.1368,4.0331,38.3434-2.9533,11.8017-6.7546,17.45-16.8563,19.0162-30.1355.1693-1.4351-2.0822-1.423-2.25,0-.6974,5.9144-1.9969,12.31-5.4994,17.25a39.3012,39.3012,0,0,1-13.7209,11.6669c-11.3957,6.0087-23.23,5.565-35.2911,2.0018a1.126,1.126,0,0,0-.5982,2.17Z"/><path class="cls-14" d="M468.3922,249.5692a21.471,21.471,0,0,0-2.5343-12.7782c-.59-1.0964-2.5332-.3369-2.0562.8669a79.87,79.87,0,0,1,2.3809,7.8145c.3319,1.1772,2.3313,1.0025,2.21-.2991a30.23,30.23,0,0,0-3.6948-12.0418c-.7015-1.267-2.6454-.1334-1.9428,1.1356a27.446,27.446,0,0,1,3.3876,10.9062l2.21-.2991a79.8687,79.8687,0,0,0-2.381-7.8144l-2.0562.8668a19.4657,19.4657,0,0,1,2.2271,11.6426c-.1566,1.4375,2.0946,1.4264,2.25,0Z"/><path class="cls-14" d="M465.6787,236.6868A31.0785,31.0785,0,0,0,447.3364,217.12c-1.346-.5343-1.93,1.6408-.5982,2.17a28.6672,28.6672,0,0,1,16.7709,17.9956c.4407,1.3733,2.6138.7862,2.17-.5981Z"/><path class="cls-14" d="M392.5541,232.484a4.109,4.109,0,0,1,.9326-2.295l-2.0562-.2687.0146.144,1.9428,1.1356a26.6267,26.6267,0,0,1,4.7712-6.5279,1.1256,1.1256,0,0,0-1.591-1.5909,28.6162,28.6162,0,0,0-5.123,6.9832,1.1259,1.1259,0,0,0,1.9428,1.1356,1.8972,1.8972,0,0,0,.2122-1.8778,1.1431,1.1431,0,0,0-2.0562-.2687,6.1808,6.1808,0,0,0-1.24,3.4306c-.1112,1.444,2.1393,1.4369,2.25,0Z"/><path class="cls-14" d="M392.2963,233.2673a1.1257,1.1257,0,0,0,0-2.25,1.1257,1.1257,0,0,0,0,2.25Z"/><path class="cls-14" d="M399.2,223.67c6.6172-6.5381,16.0911-7.3044,24.8239-8.7027,1.4259-.2284.8207-2.3969-.5981-2.17-9.1995,1.4731-18.8765,2.4242-25.8168,9.2814-1.0316,1.0192.56,2.61,1.591,1.591Z"/><path class="cls-14" d="M424.2791,214.836c3.5737.279,7.2686.3268,10.8007.931,2.4982.4273,9.6483,1.6311,11.4533,3.1689,1.0964.9341,2.6953-.65,1.591-1.591-2.8594-2.4362-6.7418-2.32-10.2415-3.2933-4.34-1.2066-9.1292-1.1163-13.6035-1.4656-1.4438-.1127-1.4365,2.1379,0,2.25Z"/><circle class="cls-4" cx="346" cy="235" r="1.5"/><circle class="cls-4" cx="422" cy="236" r="1.5"/><path class="cls-7" d="M269.5,276.5s-6-11-12-11c0,0-7,9,6,17,0,0,9,11,6,23,0,0,2,14,11,7"/><path class="cls-7" d="M486.618,280.5s6-11,12-11c0,0,7,9-6,17,0,0-9,11-6,23,0,0-2,14-11,7"/></g></svg>
