<svg xmlns="http://www.w3.org/2000/svg" xmlns:xlink="http://www.w3.org/1999/xlink" viewBox="0 0 1800 600"><defs><style>.cls-1,.cls-2{fill:#f4840b;}.cls-2,.cls-4,.cls-50,.cls-56{stroke:#000;}.cls-2,.cls-4,.cls-50,.cls-56,.cls-70{stroke-miterlimit:10;}.cls-2{stroke-width:3px;}.cls-3{font-size:35.7446px;}.cls-3,.cls-32,.cls-62{font-family:MyriadPro-Regular, Myriad Pro;}.cls-5,.cls-57,.cls-62,.cls-8{fill:#f4f2ef;}.cls-5,.cls-56{stroke-width:1.25px;}.cls-6{letter-spacing:0.018em;}.cls-7{letter-spacing:-0.0001em;}.cls-9{letter-spacing:-0.008em;}.cls-10{letter-spacing:0.024em;}.cls-11{letter-spacing:-0.006em;}.cls-12{letter-spacing:-0.006em;}.cls-13{letter-spacing:-0.004em;}.cls-14{letter-spacing:0.009em;}.cls-15{letter-spacing:0.017em;}.cls-16{letter-spacing:-0.012em;}.cls-17{letter-spacing:-0.083em;}.cls-18{letter-spacing:0.003em;}.cls-19{letter-spacing:0.009em;}.cls-20{letter-spacing:-0.025em;}.cls-21{letter-spacing:-0.086em;}.cls-22{letter-spacing:-0.01em;}.cls-23{letter-spacing:-0.053em;}.cls-24{letter-spacing:0em;}.cls-25{letter-spacing:-0.004em;}.cls-26{letter-spacing:-0.007em;}.cls-27{letter-spacing:0.0001em;}.cls-28{letter-spacing:-0.01em;}.cls-29{letter-spacing:0.018em;}.cls-30{letter-spacing:-0.053em;}.cls-31{fill:none;}.cls-32{font-size:27.7053px;}.cls-33{letter-spacing:0.004em;}.cls-34{letter-spacing:0.004em;}.cls-35{letter-spacing:-0.004em;}.cls-36{letter-spacing:0em;}.cls-37{letter-spacing:0.0171em;}.cls-38{letter-spacing:-0.012em;}.cls-39{letter-spacing:0.03em;}.cls-40{letter-spacing:-0.013em;}.cls-41{letter-spacing:0em;}.cls-42{letter-spacing:0.018em;}.cls-43{letter-spacing:-0.004em;}.cls-44{letter-spacing:-0.01em;}.cls-45{letter-spacing:0.017em;}.cls-46{letter-spacing:0.0001em;}.cls-47{letter-spacing:-0.008em;}.cls-48{letter-spacing:-0.01em;}.cls-49{letter-spacing:-0.0029em;}.cls-50{letter-spacing:0.003em;}.cls-51{letter-spacing:-0.004em;}.cls-52{letter-spacing:-0.003em;}.cls-53{letter-spacing:0.017em;}.cls-54{letter-spacing:-0.0129em;}.cls-55{letter-spacing:-0.053em;}.cls-57{letter-spacing:-0.041em;}.cls-58{letter-spacing:-0.064em;}.cls-59{letter-spacing:-0.007em;}.cls-60{letter-spacing:-0.006em;}.cls-61{letter-spacing:-0.005em;}.cls-62{font-size:39.5298px;}.cls-63{letter-spacing:0.009em;}.cls-64{letter-spacing:-0.01em;}.cls-65{letter-spacing:-0.012em;}.cls-66{letter-spacing:0.018em;}.cls-67{letter-spacing:-0.013em;}.cls-68{letter-spacing:-0.004em;}.cls-69{letter-spacing:-0.008em;}.cls-70{fill:#070707;stroke:#070707;}.cls-71{letter-spacing:0.012em;}.cls-72{letter-spacing:-0.039em;}.cls-73{letter-spacing:0.004em;}.cls-74{letter-spacing:0.014em;}</style><symbol id="bubble1" data-name="bubble1" viewBox="0 0 600.139 600"><ellipse class="cls-1" cx="307.9844" cy="276.812" rx="258.1465" ry="180.812"/><path d="M307.9845,97.5a351.779,351.779,0,0,1,100.2121,14.2029c30.6071,9.09,58.0822,22.0938,81.6619,38.65,23.5013,16.5015,41.9382,35.6935,54.7986,57.0429,13.2538,22.0024,19.9741,45.3574,19.9741,69.4161s-6.72,47.4138-19.9741,69.4162c-12.86,21.3493-31.2973,40.5413-54.7986,57.0428-23.58,16.5566-51.0548,29.56-81.6619,38.65a360.6375,360.6375,0,0,1-200.4243,0c-30.6071-9.09-58.0822-22.0938-81.6618-38.65-23.5013-16.5015-41.9383-35.6935-54.7987-57.0428C58.058,324.226,51.3377,300.8709,51.3377,276.8122s6.72-47.4137,19.9741-69.4161c12.86-21.3494,31.2974-40.5414,54.7987-57.0429,23.58-16.5565,51.0547-29.56,81.6618-38.65A351.78,351.78,0,0,1,307.9845,97.5m0-3c-143.399,0-259.6468,81.6239-259.6468,182.3122S164.5855,459.1245,307.9845,459.1245s259.6467-81.624,259.6467-182.3123S451.3834,94.5,307.9845,94.5Z"/><path class="cls-2" d="M157.5864,418.219s6.9213,48.9518-42.1385,71.1625c0,0,57.025-4.06,92.3828-51.5411"/><text></text><text></text><text class="cls-3" transform="translate(48.5112 203.8838) scale(0.5173 1)"><tspan class="cls-4"><tspan class="cls-5" xml:space="preserve">                                                          </tspan><tspan x="439.4956" y="0">ÅH N</tspan><tspan class="cls-6" x="515.7743" y="0">E</tspan><tspan class="cls-7" x="534.003" y="0">J !</tspan></tspan><tspan class="cls-8"><tspan x="0" y="42.8936" xml:space="preserve">              </tspan><tspan class="cls-9" x="106.0853" y="42.8936">S</tspan><tspan x="123.421" y="42.8936">yndfloden sta</tspan><tspan class="cls-10" x="327.2702" y="42.8936">r</tspan><tspan class="cls-11" x="339.8156" y="42.8936">t</tspan><tspan x="351.4322" y="42.8936">ede da du del</tspan><tspan class="cls-12" x="553.8872" y="42.8936">t</tspan><tspan x="565.5029" y="42.8936">e billedet uden sa</tspan><tspan class="cls-13" x="828.5084" y="42.8936">m</tspan><tspan class="cls-14" x="858.1753" y="42.8936">t</tspan><tspan x="870.329" y="42.8936">y</tspan><tspan class="cls-15" x="887.1644" y="42.8936">k</tspan><tspan x="904.536" y="42.8936">k</tspan><tspan class="cls-16" x="921.2998" y="42.8936">e</tspan><tspan x="938.779" y="42.8936">...</tspan><tspan x="0" y="85.7871" xml:space="preserve">        </tspan><tspan class="cls-17" x="60.6203" y="85.7871"> </tspan><tspan x="65.2313" y="85.7871">“</tspan><tspan class="cls-18" x="77.8843" y="85.7871">S</tspan><tspan x="95.6127" y="85.7871">a</tspan><tspan class="cls-13" x="112.8418" y="85.7871">m</tspan><tspan class="cls-19" x="142.5096" y="85.7871">t</tspan><tspan x="154.6624" y="85.7871">y</tspan><tspan class="cls-15" x="171.4978" y="85.7871">k</tspan><tspan x="188.8694" y="85.7871">k</tspan><tspan class="cls-20" x="205.6331" y="85.7871">e</tspan><tspan class="cls-21" x="222.6479" y="85.7871">”</tspan><tspan x="232.2267" y="85.7871" xml:space="preserve"> be</tspan><tspan class="cls-19" x="278.0504" y="85.7871">t</tspan><tspan class="cls-22" x="290.2031" y="85.7871">y</tspan><tspan x="306.6808" y="85.7871">de</tspan><tspan class="cls-23" x="344.7485" y="85.7871">r</tspan><tspan class="cls-24" x="354.5424" y="85.7871">, </tspan><tspan class="cls-25" x="369.5184" y="85.7871">a</tspan><tspan x="386.6049" y="85.7871">t man har fået l</tspan><tspan class="cls-26" x="610.2194" y="85.7871">o</tspan><tspan class="cls-27" x="629.5921" y="85.7871">v til </tspan><tspan class="cls-13" x="690.572" y="85.7871">a</tspan><tspan x="707.6567" y="85.7871">t vide</tspan><tspan class="cls-28" x="790.69" y="85.7871">r</tspan><tspan x="802.0206" y="85.7871">esende </tspan><tspan x="0" y="128.6807" xml:space="preserve">                              billedet af dem det </tspan><tspan class="cls-29" x="516.4577" y="128.6807">k</tspan><tspan x="533.8652" y="128.6807">an gå ud </tspan><tspan class="cls-26" x="670.7293" y="128.6807">o</tspan><tspan class="cls-28" x="690.102" y="128.6807">v</tspan><tspan x="706.9374" y="128.6807">e</tspan><tspan class="cls-30" x="724.8451" y="128.6807">r</tspan><tspan class="cls-27" x="734.6391" y="128.6807">.</tspan></tspan></text><text></text><text></text><rect class="cls-31" width="600.1387" height="600"/></symbol><symbol id="bubble33" data-name="bubble33" viewBox="0 0 600.749 600"><ellipse class="cls-1" cx="308.1626" cy="276.312" rx="258.0869" ry="180.812"/><path d="M308.1625,97a351.6232,351.6232,0,0,1,100.1886,14.2028c30.6,9.09,58.0686,22.0937,81.6428,38.65,23.4958,16.5015,41.9284,35.6935,54.7858,57.0428,13.2508,22.0025,19.9695,45.3576,19.9695,69.4164s-6.7187,47.414-19.9695,69.4165c-12.8574,21.3492-31.29,40.5412-54.7858,57.0428-23.5742,16.5564-51.0428,29.56-81.6428,38.65a360.4735,360.4735,0,0,1-200.3771,0c-30.6-9.09-58.0686-22.0938-81.6428-38.65-23.4958-16.5016-41.9284-35.6936-54.7858-57.0428-13.2509-22.0025-19.97-45.3576-19.97-69.4165s6.7187-47.4139,19.97-69.4164c12.8574-21.3493,31.29-40.5413,54.7858-57.0428,23.5742-16.5565,51.0428-29.56,81.6428-38.65A351.623,351.623,0,0,1,308.1625,97m0-3C164.7968,94,48.5758,175.6239,48.5758,276.3122s116.221,182.3123,259.5867,182.3123,259.5867-81.624,259.5867-182.3123S451.5284,94,308.1625,94Z"/><path class="cls-2" d="M157.7993,417.719s6.92,48.9518-42.1288,71.1625c0,0,57.0118-4.06,92.3614-51.5411"/><text></text><text></text><text></text><rect class="cls-31" x="0.7493" width="600" height="600"/><text class="cls-32" transform="translate(1.25 179.0386) scale(0.5995 1)"><tspan class="cls-8"><tspan xml:space="preserve">                                          </tspan><tspan class="cls-33" x="246.6762" y="0">D</tspan><tspan x="265.2375" y="0">et er då</tspan><tspan class="cls-34" x="351.9539" y="0">r</tspan><tspan x="361.1238" y="0">lig stil </tspan><tspan class="cls-35" x="434.5407" y="0">a</tspan><tspan class="cls-36" x="447.784" y="0">t dele billeder der i</tspan><tspan class="cls-37" x="663.1875" y="0">k</tspan><tspan x="676.6532" y="0">ke er din</tspan><tspan class="cls-38" x="775.6974" y="0">e</tspan><tspan x="789.2445" y="0">.</tspan><tspan x="0" y="33.2466" xml:space="preserve">                                   </tspan><tspan class="cls-34" x="205.5632" y="33.2466">D</tspan><tspan x="224.1254" y="33.2466">e</tspan><tspan class="cls-39" x="238.0056" y="33.2466">r</tspan><tspan class="cls-40" x="247.8964" y="33.2466">f</tspan><tspan class="cls-41" x="255.6262" y="33.2466">or s</tspan><tspan class="cls-42" x="296.74" y="33.2466">k</tspan><tspan x="310.2317" y="33.2466">al man altid </tspan><tspan class="cls-43" x="450.7505" y="33.2466">v</tspan><tspan class="cls-41" x="463.9661" y="33.2466">æ</tspan><tspan class="cls-44" x="485.3815" y="33.2466">r</tspan><tspan x="494.1645" y="33.2466">e si</tspan><tspan class="cls-45" x="531.3719" y="33.2466">k</tspan><tspan class="cls-46" x="544.8359" y="33.2466">ker på, </tspan><tspan class="cls-35" x="627.3681" y="33.2466">a</tspan><tspan class="cls-46" x="640.6106" y="33.2466">t personen er </tspan><tspan x="0" y="66.4927" xml:space="preserve">                                                      o</tspan><tspan class="cls-42" x="332.3647" y="66.4927">k</tspan><tspan class="cls-47" x="345.8564" y="66.4927">a</tspan><tspan class="cls-36" x="358.989" y="66.4927">y med </tspan><tspan class="cls-35" x="436.3962" y="66.4927">a</tspan><tspan x="449.6395" y="66.4927">t billedet bli</tspan><tspan class="cls-48" x="587.2204" y="66.4927">v</tspan><tspan class="cls-46" x="600.269" y="66.4927">er del</tspan><tspan class="cls-49" x="665.1261" y="66.4927">t</tspan><tspan x="674.2145" y="66.4927">.</tspan></tspan><tspan class="cls-8" x="0" y="99.7393" xml:space="preserve">                                                                  </tspan><tspan class="cls-50" x="387.6332" y="99.7393">S</tspan><tspan class="cls-4" x="401.375" y="99.7393">å tænk dig godt om.</tspan><tspan class="cls-8"><tspan x="0" y="132.9858" xml:space="preserve">                                       Husk </tspan><tspan class="cls-51" x="292.2235" y="132.9858">a</tspan><tspan class="cls-36" x="305.4659" y="132.9858">t du </tspan><tspan class="cls-42" x="357.2744" y="132.9858">k</tspan><tspan x="370.7661" y="132.9858">an så</tspan><tspan class="cls-44" x="429.6943" y="132.9858">r</tspan><tspan class="cls-41" x="438.4773" y="132.9858">e and</tspan><tspan class="cls-48" x="502.5867" y="132.9858">r</tspan><tspan x="511.3688" y="132.9858">e mennesker med de</tspan><tspan class="cls-52" x="753.5098" y="132.9858">t</tspan><tspan x="762.5966" y="132.9858">, </tspan><tspan x="0" y="166.2319" xml:space="preserve">                                                            du s</tspan><tspan class="cls-53" x="400.1296" y="166.2319">k</tspan><tspan class="cls-34" x="413.5945" y="166.2319">r</tspan><tspan x="422.7644" y="166.2319">i</tspan><tspan class="cls-44" x="429.2472" y="166.2319">v</tspan><tspan class="cls-41" x="442.2966" y="166.2319">er eller o</tspan><tspan class="cls-54" x="542.0877" y="166.2319">ff</tspan><tspan x="557.8813" y="166.2319">e</tspan><tspan class="cls-35" x="571.7607" y="166.2319">n</tspan><tspan x="587.0265" y="166.2319">tliggø</tspan><tspan class="cls-55" x="655.4023" y="166.2319">r</tspan><tspan x="662.9937" y="166.2319">. </tspan></tspan><tspan class="cls-56"><tspan class="cls-8" x="0" y="199.478" xml:space="preserve">                                                  </tspan><tspan class="cls-57" x="293.6619" y="199.478"> </tspan><tspan class="cls-58" x="298.3992" y="199.478">T</tspan><tspan x="310.3954" y="199.478">ænk </tspan><tspan class="cls-59" x="366.0549" y="199.478">o</tspan><tspan class="cls-48" x="381.0715" y="199.478">v</tspan><tspan x="394.1201" y="199.478">er </tspan><tspan class="cls-40" x="422.933" y="199.478">h</tspan><tspan class="cls-44" x="437.9495" y="199.478">v</tspan><tspan class="cls-41" x="450.999" y="199.478">or din egen </tspan><tspan class="cls-60" x="588.996" y="199.478">g</tspan><tspan class="cls-61" x="604.3172" y="199.478">r</tspan><tspan class="cls-46" x="613.2378" y="199.478">ænse går!</tspan></tspan></text><rect class="cls-31" x="0.7493" width="600" height="600"/></symbol><symbol id="bubble2" data-name="bubble2" viewBox="0 0 600.749 600"><use id="bubble33-3" data-name="bubble33" width="600.7493" height="600" transform="translate(0.0001)" xlink:href="#bubble33"/></symbol><symbol id="finalbub" data-name="finalbub" viewBox="0 0 600 600"><ellipse class="cls-1" cx="323.6629" cy="261.6835" rx="258.0867" ry="180.812"/><path d="M323.6629,82.3715A351.6242,351.6242,0,0,1,423.8515,96.5743c30.6,9.09,58.0686,22.0937,81.6427,38.65C528.99,151.726,547.4225,170.918,560.28,192.2673c13.2509,22.0025,19.97,45.3576,19.97,69.4164s-6.7187,47.414-19.97,69.4165c-12.8574,21.3492-31.29,40.5412-54.7857,57.0427-23.5741,16.5565-51.0428,29.56-81.6427,38.65a360.4763,360.4763,0,0,1-200.3772,0c-30.6-9.09-58.0686-22.0938-81.6427-38.65-23.496-16.5015-41.9285-35.6935-54.7859-57.0427-13.2509-22.0025-19.97-45.3576-19.97-69.4165s6.7187-47.4139,19.97-69.4164c12.8574-21.3493,31.29-40.5413,54.7859-57.0428,23.5741-16.5565,51.0426-29.56,81.6427-38.65A351.6232,351.6232,0,0,1,323.6629,82.3715m0-3c-143.3659,0-259.5868,81.6239-259.5868,182.3122S180.297,443.9959,323.6629,443.9959,583.25,362.372,583.25,261.6837,467.0286,79.3715,323.6629,79.3715Z"/><path class="cls-2" d="M173.3,403.0905s6.92,48.9518-42.1288,71.1625c0,0,57.0119-4.06,92.3615-51.5411"/><text class="cls-62" transform="translate(52 210.4121) scale(0.4706 1)"><tspan xml:space="preserve">                               </tspan><tspan class="cls-63" x="259.7779" y="0">H</tspan><tspan x="285.9064" y="0">vis du vil vide me</tspan><tspan class="cls-64" x="568.1439" y="0">r</tspan><tspan class="cls-65" x="580.6737" y="0">e</tspan><tspan x="600.0039" y="0">, </tspan><tspan class="cls-66" x="616.5658" y="0">k</tspan><tspan x="635.8172" y="0">an du ano</tspan><tspan class="cls-67" x="800.3366" y="0">n</tspan><tspan x="821.7627" y="0">y</tspan><tspan class="cls-68" x="840.3811" y="0">m</tspan><tspan x="873.1916" y="0">t </tspan><tspan x="0" y="47.436" xml:space="preserve">                                                  stille spø</tspan><tspan class="cls-69" x="563.6719" y="47.436">r</tspan><tspan x="576.2827" y="47.436">gsmål på </tspan><tspan class="cls-70"><tspan x="0" y="94.8721" xml:space="preserve">                                             </tspan><tspan class="cls-71" x="377.0955" y="94.8721">ww</tspan><tspan class="cls-72" x="436.2316" y="94.8721">w</tspan><tspan x="463.7836" y="94.8721">.p</tspan><tspan class="cls-73" x="494.4588" y="94.8721">r</tspan><tspan x="507.5427" y="94.8721">i</tspan><tspan class="cls-68" x="516.7917" y="94.8721">va</tspan><tspan x="554.5432" y="94.8721">tsna</tspan><tspan class="cls-74" x="624.273" y="94.8721">k</tspan><tspan x="643.3646" y="94.8721">.dk</tspan></tspan></text><rect class="cls-31" width="600" height="600"/></symbol></defs><title>speech1</title><g id="bubbles"><use width="600.1387" height="600" transform="translate(1.5)" xlink:href="#bubble1"/><use id="bubble2-3" data-name="bubble2" width="600.7494" height="600" transform="translate(600.3751)" xlink:href="#bubble2"/><use width="600" height="600" transform="translate(1200)" xlink:href="#finalbub"/></g></svg>
