<svg xmlns="http://www.w3.org/2000/svg" xmlns:xlink="http://www.w3.org/1999/xlink" viewBox="0 0 600 600"><defs><style>.cls-1,.cls-2{fill:#f4840b;}.cls-2{stroke:#000;stroke-width:3px;}.cls-11,.cls-2{stroke-miterlimit:10;}.cls-3{font-size:39.5298px;fill:#f4f2ef;font-family:MyriadPro-Regular, Myriad Pro;}.cls-4{letter-spacing:0.009em;}.cls-5{letter-spacing:-0.01em;}.cls-6{letter-spacing:-0.012em;}.cls-7{letter-spacing:0.018em;}.cls-8{letter-spacing:-0.013em;}.cls-9{letter-spacing:-0.004em;}.cls-10{letter-spacing:-0.008em;}.cls-11{fill:#070707;stroke:#070707;}.cls-12{letter-spacing:0.012em;}.cls-13{letter-spacing:-0.039em;}.cls-14{letter-spacing:0.004em;}.cls-15{letter-spacing:0.014em;}.cls-16{fill:none;}</style><symbol id="finalbub" data-name="finalbub" viewBox="0 0 600 600"><ellipse class="cls-1" cx="323.6629" cy="261.6835" rx="258.0867" ry="180.812"/><path d="M323.6629,82.3715A351.6242,351.6242,0,0,1,423.8515,96.5743c30.6,9.09,58.0686,22.0937,81.6427,38.65C528.99,151.726,547.4225,170.918,560.28,192.2673c13.2509,22.0025,19.97,45.3576,19.97,69.4164s-6.7187,47.414-19.97,69.4165c-12.8574,21.3492-31.29,40.5412-54.7857,57.0427-23.5741,16.5565-51.0428,29.56-81.6427,38.65a360.4763,360.4763,0,0,1-200.3772,0c-30.6-9.09-58.0686-22.0938-81.6427-38.65-23.496-16.5015-41.9285-35.6935-54.7859-57.0427-13.2509-22.0025-19.97-45.3576-19.97-69.4165s6.7187-47.4139,19.97-69.4164c12.8574-21.3493,31.29-40.5413,54.7859-57.0428,23.5741-16.5565,51.0426-29.56,81.6427-38.65A351.6232,351.6232,0,0,1,323.6629,82.3715m0-3c-143.3659,0-259.5868,81.6239-259.5868,182.3122S180.297,443.9959,323.6629,443.9959,583.25,362.372,583.25,261.6837,467.0286,79.3715,323.6629,79.3715Z"/><path class="cls-2" d="M173.3,403.0905s6.92,48.9518-42.1288,71.1625c0,0,57.0119-4.06,92.3615-51.5411"/><text class="cls-3" transform="translate(52 210.4121) scale(0.4706 1)"><tspan xml:space="preserve">                               </tspan><tspan class="cls-4" x="259.7779" y="0">H</tspan><tspan x="285.9064" y="0">vis du vil vide me</tspan><tspan class="cls-5" x="568.1439" y="0">r</tspan><tspan class="cls-6" x="580.6737" y="0">e</tspan><tspan x="600.0039" y="0">, </tspan><tspan class="cls-7" x="616.5658" y="0">k</tspan><tspan x="635.8172" y="0">an du ano</tspan><tspan class="cls-8" x="800.3366" y="0">n</tspan><tspan x="821.7627" y="0">y</tspan><tspan class="cls-9" x="840.3811" y="0">m</tspan><tspan x="873.1916" y="0">t </tspan><tspan x="0" y="47.436" xml:space="preserve">                                                  stille spø</tspan><tspan class="cls-10" x="563.6719" y="47.436">r</tspan><tspan x="576.2827" y="47.436">gsmål på </tspan><tspan class="cls-11"><tspan x="0" y="94.8721" xml:space="preserve">                                             </tspan><tspan class="cls-12" x="377.0955" y="94.8721">ww</tspan><tspan class="cls-13" x="436.2316" y="94.8721">w</tspan><tspan x="463.7836" y="94.8721">.p</tspan><tspan class="cls-14" x="494.4588" y="94.8721">r</tspan><tspan x="507.5427" y="94.8721">i</tspan><tspan class="cls-9" x="516.7917" y="94.8721">va</tspan><tspan x="554.5432" y="94.8721">tsna</tspan><tspan class="cls-15" x="624.273" y="94.8721">k</tspan><tspan x="643.3646" y="94.8721">.dk</tspan></tspan></text><rect class="cls-16" width="600" height="600"/></symbol></defs><title>speech1</title><g id="Layer_6" data-name="Layer 6"><use width="600" height="600" transform="translate(0 -0.5)" xlink:href="#finalbub"/></g></svg>
