<svg xmlns="http://www.w3.org/2000/svg" viewBox="0 0 492.85 866.75"><defs><style>.cls-1{fill:#3d9ac9;stroke:#3d9ac9;}.cls-1,.cls-16,.cls-17,.cls-19,.cls-2,.cls-22,.cls-23,.cls-25,.cls-27,.cls-28,.cls-3,.cls-4,.cls-5,.cls-7,.cls-8{stroke-miterlimit:10;}.cls-16,.cls-2,.cls-7{fill:none;}.cls-2,.cls-23,.cls-3,.cls-7,.cls-8{stroke:#000;}.cls-4{fill:#e2d41e;stroke:#e2d41e;}.cls-5,.cls-6{fill:#a05d13;}.cls-5{stroke:#a05d13;}.cls-7,.cls-8{stroke-width:3px;}.cls-9{fill:#050403;}.cls-10{font-size:8px;font-family:MarkerFelt-Wide, Marker Felt;}.cls-11{letter-spacing:0.03em;}.cls-12{letter-spacing:0.05em;}.cls-13{letter-spacing:0.03em;}.cls-14{letter-spacing:0.04em;}.cls-15{letter-spacing:0.06em;}.cls-16{stroke:#050403;stroke-width:4px;}.cls-17,.cls-26{fill:#443f3f;}.cls-17{stroke:#443f3f;stroke-width:2px;}.cls-18{fill:#232020;}.cls-19{fill:#f4efef;stroke:#f4efef;}.cls-20{fill:#0c0c0c;}.cls-21{fill:#4e5254;}.cls-22{fill:#313333;stroke:#313333;}.cls-23{fill:#254948;}.cls-24{fill:#020202;}.cls-25{fill:#141486;stroke:#141486;}.cls-27,.cls-31{fill:#11631f;}.cls-27{stroke:#11631f;}.cls-28{fill:#27660c;stroke:#27660c;}.cls-29{fill:#0c0c0b;}.cls-30{fill:#57bc65;}</style></defs><title>Johnfinal</title><g id="krop"><path class="cls-1" d="M550.5,188.5s-38,17,0,261c0,0,8,104,25,153,0,0,21,93,109,96,0,0,76,21,103-69l8-146.52c0-1,.48-1.92.42-2.89C794.5,458.5,857.5,205.5,828.5,205.5,794.29,205.5,700.5,236.5,550.5,188.5Z" transform="translate(-450.18 -19.25)"/><path class="cls-2" d="M271.5,485.5" transform="translate(-450.18 -19.25)"/><path d="M808.54,414.28c9.82,2.23,21.61,4.92,27.77,13.67,4.06,5.76,4.38,13.31,5.17,20.07s1.53,13.81,2.17,20.73q3.87,41.51,3.86,83.25a1.5,1.5,0,0,0,3,0,907.43,907.43,0,0,0-4.83-93.13c-1.17-11.2-.65-25.88-8.64-34.8-7-7.76-17.94-10.48-27.69-12.69-1.88-.43-2.68,2.47-.8,2.89Z" transform="translate(-450.18 -19.25)"/><path d="M540.8,397.38A36.12,36.12,0,0,0,514,408.5c-8.4,8.81-9.76,20.6-11.64,32.11-4.6,28.15-11.15,56.95-9.09,85.63.14,1.91,3.14,1.93,3,0-1.86-25.87,3.56-51.59,7.7-77,1.79-11,2.23-24.08,8.31-33.72a33.08,33.08,0,0,1,28.53-15.14c1.93,0,1.93-3,0-3Z" transform="translate(-450.18 -19.25)"/><ellipse class="cls-3" cx="42.82" cy="518.25" rx="13.5" ry="11"/><ellipse class="cls-3" cx="399.32" cy="542.75" rx="13" ry="10.5"/><polygon class="cls-4" points="290.57 484.03 299.51 457.25 309.57 482.92 330.82 486.26 316.28 496.31 325.23 518.63 301.75 506.35 280.5 519.75 286.09 498.54 269.32 489.61 290.57 484.03"/><path class="cls-5" d="M560.11,532.5s129.13,69.62,229.76,53.31l-1.29,23.81s-108,29.07-222-41Z" transform="translate(-450.18 -19.25)"/><path class="cls-6" d="M562.53,536.06c-1.68,10-3,20,1.35,29.51.71,1.53,3.3.45,2.74-1.16a72.61,72.61,0,0,1-3.93-29h-3a175.63,175.63,0,0,0,3.8,28.76c.41,1.89,3.3,1.09,2.89-.8a170.7,170.7,0,0,1-3.69-28,1.5,1.5,0,0,0-3,0,74.87,74.87,0,0,0,4,29.75l2.74-1.16c-4-8.67-2.58-18.12-1.05-27.2.32-1.89-2.57-2.7-2.89-.8Z" transform="translate(-450.18 -19.25)"/><path class="cls-7" d="M788.5,629.5l40,238Z" transform="translate(-450.18 -19.25)"/><path class="cls-8" d="M590.14,638.36,550.5,867.5Z" transform="translate(-450.18 -19.25)"/><rect class="cls-8" x="361.32" y="848.25" width="38" height="17" rx="8.5" ry="8.5"/><rect class="cls-8" x="81.32" y="848.25" width="39" height="17" rx="8.5" ry="8.5"/></g><g id="detaljer"><path class="cls-9" d="M709.28,600.92l5.94-.39c1.92-.13,1.93-3.13,0-3l-5.94.39c-1.92.13-1.93,3.13,0,3Z" transform="translate(-450.18 -19.25)"/><path class="cls-9" d="M736.48,600.23a1.5,1.5,0,0,0,0-3,1.5,1.5,0,0,0,0,3Z" transform="translate(-450.18 -19.25)"/><path class="cls-9" d="M749.61,600.23a1.5,1.5,0,0,0,0-3,1.5,1.5,0,0,0,0,3Z" transform="translate(-450.18 -19.25)"/><path class="cls-9" d="M764.31,599a1.5,1.5,0,0,0,0-3,1.5,1.5,0,0,0,0,3Z" transform="translate(-450.18 -19.25)"/><text class="cls-10" transform="translate(285.51 494.91)"><tspan class="cls-11">S</tspan><tspan class="cls-12" x="4.3" y="0">H</tspan><tspan class="cls-13" x="9.46" y="0">E</tspan><tspan class="cls-14" x="13.56" y="0">R</tspan><tspan class="cls-15" x="18.66" y="0">I</tspan><tspan class="cls-13" x="21.09" y="0">F</tspan><tspan x="25.18" y="0">F</tspan></text><rect class="cls-16" x="699.5" y="584.5" width="27" height="31" rx="12" ry="12" transform="translate(-421.02 -52.29) rotate(2.71)"/></g><g id="ansigt"><path d="M747.6,310.45a9.67,9.67,0,0,0-3,0c-2.47.34-3.3,1-5.58-1.74a10.08,10.08,0,0,1-1-1.66c-3.13-5.92,7.17-10.93,11.55-7.38a5.83,5.83,0,0,1,1.45,7.27c-1.26,2.25-4.07,2.89-6.52,3.28-2.63.42-5.17.1-6.29-2.65a12.73,12.73,0,0,1-.59-5.24c0-.81-1-.93-1.4-.38-3.33,4.58.32,10.47,5.48,11.24a11.85,11.85,0,0,0,8.34-2.06c2.69-1.9,3.46-4.77,3.26-8-.36-5.58-9.1-6-12.84-3.46a5.79,5.79,0,0,0-2.6,6.06,4.88,4.88,0,0,0,1.94,2.87c.86.59,3.28.76,3.55,1.81l.52-.92c-4.21,1-3.22-4.4-3-5.94a.76.76,0,0,0-.52-.92c-3-.64-3.1,8.76,2.18,7.58a.76.76,0,0,0,.52-.92l-.83-3.41c-.25-1-1.6-4,1.51-2,.83.55,1.54,4.78.47,4.49-.42-.11-.07-3.52,0-3.88l-1.47.2,1.36,4.86a.75.75,0,0,0,1.45-.4l-1.74-7.31-1.37.58a51.32,51.32,0,0,0,3.76,5,.75.75,0,0,0,1.25-.33,14.61,14.61,0,0,0,.34-4.64c-.08-.95-1.55-1-1.5,0a32.33,32.33,0,0,0,1.15,7l1.25-.73a5.8,5.8,0,0,1-1.59-3.33l-.72.95q0,1.79-1.46,1.89a.76.76,0,0,0-.33,1.25,4.11,4.11,0,0,0,5.94-.85c2.17-2.83.16-6.37-1.89-8.57l-1.06,1.06a12.47,12.47,0,0,0,2.83,2.15.76.76,0,0,0,1.13-.65c-.11-6.45-9.43-2.11-12-.06l1.06,1.06c.31-.36,3.58-3.58,3.74-3.21.24.58-2.63,4.11-3,4.73l1.4.38a3.64,3.64,0,0,1,1.67-3.39c.71-.58-.2-1.5-.91-1.18a5.75,5.75,0,0,0-3.33,3.68c-.26.72.75,1.25,1.25.73a7.79,7.79,0,0,1,6.31-2.47L747,302l-1,3.4,1.47.2c-.05-1.07-.14-7-2.71-5.38-2.39,1.5.59,6,1.72,7.33a.76.76,0,0,0,1.18-.15,4.84,4.84,0,0,0,.14-5.19l-1.18.91a6.86,6.86,0,0,1,1.65,5.36.75.75,0,0,0,1.47.2l1.1-6c.17-.94-1.2-1.35-1.45-.4a22.73,22.73,0,0,0,0,2.36l1.1.45a5,5,0,0,0-2.57-3.77l-.18,1.37,2,1.73c-.23.94,1.22,1.34,1.45.4.64-2.61-1.22-4.49-3.84-3.58a.76.76,0,0,0-.18,1.37,3.36,3.36,0,0,1,1.88,2.87.76.76,0,0,0,1.1.45,2,2,0,0,0,1.11-1.07.77.77,0,0,0-.12-.91l-.33-1.28-1.45-.4-1.1,6,1.47.2a8.36,8.36,0,0,0-2.09-6.42c-.57-.67-1.57.19-1.18.91a3.09,3.09,0,0,1-.14,3.68l1.18-.15a8.7,8.7,0,0,1-2-4.24q-.23-1.29.14.48a16.56,16.56,0,0,1,.31,2.87.75.75,0,0,0,1.47.2l1-3.4a.76.76,0,0,0-.72-.95,9.14,9.14,0,0,0-7.37,2.91l1.25.73a4,4,0,0,1,2.64-2.78l-.91-1.18a5.3,5.3,0,0,0-2.11,4.45.76.76,0,0,0,1.4.38c1.14-1.79,3.75-4.32,3.27-6.58a.74.74,0,0,0-.52-.52c-2.26-.55-4.51,2.27-5.81,3.76a.75.75,0,0,0,1.06,1.06c1.19-1,9.32-5.67,9.39-1l1.13-.65a11.31,11.31,0,0,1-2.52-1.91c-.68-.69-1.72.36-1.06,1.06,1,1,2.78,3.19,2.37,4.81-.46,1.81-2.34,4.05-4.3,2.49l-.33,1.25c1.36-.38,3.2-1,3.24-2.76a2,2,0,0,0-2.17-2.08.76.76,0,0,0-.72.95,8.49,8.49,0,0,0,2,4c.5.59,1.44,0,1.25-.73a30.54,30.54,0,0,1-1.1-6.64h-1.5a12.46,12.46,0,0,1-.29,4.24l1.25-.33a48.3,48.3,0,0,1-3.53-4.67.75.75,0,0,0-1.37.58l1.74,7.31,1.45-.4-1.36-4.86a.75.75,0,0,0-1.47.2c-.17,1.55-.74,5.87,1.84,5.85s2-3.85,1.43-5.41-3-5.77-5.22-3.87c-1.9,1.66.46,6.84.89,8.61l.52-.92q-3.14-1.71-2.18-4.69l-.52-.92c-.56,3.37-.06,9,4.81,7.79a.76.76,0,0,0,.52-.92c-.58-2.28-3.08-1.57-4.55-3-2.93-2.76.48-6.46,3.31-7.12,1.71-.4,5.68-.32,7.24,1,2.22,1.87.76,6.9-.9,8.4a10.24,10.24,0,0,1-5.72,2.36c-4.85.5-10.13-4.23-6.65-9l-1.4-.38c-.23,6.3,2.36,10.59,9.21,9.27,2.69-.52,7.05-1.68,7.79-4.75.59-2.49,0-5.92-1.84-7.78-4-4-13.24-1.68-15.31,3.48-1.07,2.67.74,5.73,2.39,7.74,2.7,3.29,5.34,1,8.91,1.57.94.15,1.35-1.29.4-1.45Z" transform="translate(-450.18 -19.25)"/><path d="M736.67,305.17a5.37,5.37,0,0,0,2.87,3.41c.73.36,1.57-.57.91-1.18-2.07-1.91-1.1-4.9,1.13-6.24a9.54,9.54,0,0,1,4.51-1q2,1.28,1.15-.16l-.72.95a3.71,3.71,0,0,1,3.3,4.92c-.3.92,1.15,1.31,1.45.4a5.22,5.22,0,0,0-4.74-6.82.75.75,0,0,0-.72.95c.33.84.44,1.83,1.49,1.91a1.53,1.53,0,0,0,1.51-1.13c.69-2.1-2-2.57-3.49-2.53-2.7.07-5.68,1.14-6.95,3.7a5.08,5.08,0,0,0,1,6.07l.91-1.18a4.1,4.1,0,0,1-2.18-2.51c-.29-.92-1.74-.53-1.45.4Z" transform="translate(-450.18 -19.25)"/><path d="M730.13,305a283.79,283.79,0,0,1,34.19-11.1c1.87-.48,1.08-3.37-.8-2.89a283.79,283.79,0,0,0-34.19,11.1c-1.77.7-1,3.61.8,2.89Z" transform="translate(-450.18 -19.25)"/><path d="M736.67,315.08q8.28.29,16.54-.2c1.92-.11,1.93-3.12,0-3q-8.27.49-16.54.2c-1.93-.07-1.93,2.93,0,3Z" transform="translate(-450.18 -19.25)"/><path d="M647.74,302.4c-3.94-.69-8.46-.39-11.33,2.77-2.25,2.49-2.87,6.68-.78,9.45s7,3.55,10.34,3.12c3.67-.47,7-2.69,8-6.38,2.18-7.88-9.1-12.4-15-9-2.86,1.63-4.6,5.38-2.85,8.42,2.33,4,7.43,3.55,11.32,2.8l-.8-2.89c-1.26.4-6,1.91-6.34-.51l1.49-1.78,1.08,1.48q-3.48-.19-.74.33a2.17,2.17,0,0,1,2.23,2c.41,1.69,2.87,1.25,2.95-.4.1-2.07,1.42-3.78.52-5.84a3.09,3.09,0,0,0-3.09-2v3a5.35,5.35,0,0,1,2.48-.05c1.83,1,.64,3.23-.21,4.37-1.73,2.3-5.13,2.74-6.87.12l-2.05,2.05c4.11,3.16,11.51,2.93,14-2.24s-3.81-7.57-7.38-4.39a1.53,1.53,0,0,0-.23,1.82c.93,1.92,3.63,3,5.09.92s-.71-4-2.75-3.61-1.09,3.21.8,2.89l-.55-1.71-.23,1.82q1.49-1.71,1.54.57,1.14,1.45-.55,2.07a6.76,6.76,0,0,1-3,1,7.39,7.39,0,0,1-5.21-1.69c-1.2-.93-2.85.86-2.05,2.05a7.22,7.22,0,0,0,12.21-.3c1.16-1.81,2.07-4.66,1-6.68s-3.85-2.23-6-2c-1.86.23-2,3.06,0,3,.46,0-.4,4.18-.43,4.87l2.95-.4c-.61-2.5-2.8-4.51-5.52-4a3.59,3.59,0,0,0-2.87,4.81c2.19,5.62,10-1.95,3.74-4.85-2-.92-4.83-.47-5.38,2-.58,2.58,1.81,4.55,4.22,4.36s5.54-2.69,4.74-5.49c-.69-2.42-3.73-3.14-5.89-2.58a4.08,4.08,0,0,0-2.6,6.1c2,3.68,6.41,2.95,9.73,1.89a1.5,1.5,0,0,0-.8-2.89c-2.52.49-7.5,1.39-8.05-2.29-.43-2.85,2.64-4.12,5-4.07,4.12.07,10.2,3.12,6.71,7.95-2.27,3.14-10.25,4-12.47.24-1.08-1.83-.22-4.42,1.26-5.75,2.1-1.88,5.27-1.92,7.87-1.46,1.89.33,2.7-2.56.8-2.89Z" transform="translate(-450.18 -19.25)"/><path d="M641.74,304.94v2.89a1.5,1.5,0,0,0,3,0v-2.89a1.5,1.5,0,0,0-3,0Z" transform="translate(-450.18 -19.25)"/><path d="M656.76,303.76q-14.18-6.49-28.86-11.76c-1.82-.65-2.6,2.24-.8,2.89q14.32,5.14,28.14,11.46c1.74.8,3.27-1.79,1.51-2.59Z" transform="translate(-450.18 -19.25)"/><path d="M652.34,316.24q-11.62-.8-23.17-2.3c-1.91-.25-1.89,2.75,0,3q11.55,1.51,23.17,2.3c1.93.13,1.92-2.87,0-3Z" transform="translate(-450.18 -19.25)"/><path d="M747,315.08a51.2,51.2,0,0,0,9.11-.22c1.9-.21,1.92-3.22,0-3a51.2,51.2,0,0,1-9.11.22c-1.93-.13-1.92,2.88,0,3Z" transform="translate(-450.18 -19.25)"/><path d="M579.12,256.7a31.33,31.33,0,0,0-13.59,1.09c-.46.14-.26.87.2.72a30.46,30.46,0,0,1,13.19-1.09c.47.06.68-.66.2-.72Z" transform="translate(-450.18 -19.25)"/><path d="M580.06,229.91a26.74,26.74,0,0,0-18.71,6.78c-.36.32.17.85.53.53a25.9,25.9,0,0,1,18.18-6.56.38.38,0,0,0,0-.75Z" transform="translate(-450.18 -19.25)"/><path d="M573.92,221.72a25.82,25.82,0,0,0-20.24,10.49c-.29.39.36.76.65.38a25,25,0,0,1,19.59-10.12.38.38,0,0,0,0-.75Z" transform="translate(-450.18 -19.25)"/><path class="cls-17" d="M677.5,382.5s-9,51,76,26c0,0-25-13-44-31C709.5,377.5,689.5,359.5,677.5,382.5Z" transform="translate(-450.18 -19.25)"/><path class="cls-17" d="M677.5,382.5s-14,45-90,10c0,0,40-12,48-18C635.5,374.5,669.5,354.5,677.5,382.5Z" transform="translate(-450.18 -19.25)"/><path class="cls-18" d="M680.11,386.44a17.75,17.75,0,0,1,14.12-5.66c6.43.39,10.44,4.4,14.57,8.88,6.88,7.48,15.76,11.22,25.13,14.68,1.81.67,2.6-2.23.8-2.89-6.29-2.32-12.71-4.69-18.16-8.68-5.15-3.76-8.4-9.75-14.1-12.78-8.07-4.28-18.32-2.24-24.47,4.32-1.32,1.41.8,3.53,2.12,2.12Z" transform="translate(-450.18 -19.25)"/><path class="cls-18" d="M681.94,389.85a36.25,36.25,0,0,1,8.07-.43c4.41.45,6.93,3,9.8,6a39.27,39.27,0,0,0,13,8.92c10.89,4.72,23,5,34.63,5.18,1.93,0,1.93-3,0-3-13.24-.23-27.35-.5-38.92-7.79-4.5-2.84-7.32-7.54-11.76-10.3s-9.86-2.23-14.77-1.62c-1.89.23-1.91,3.24,0,3Z" transform="translate(-450.18 -19.25)"/><path class="cls-18" d="M678.19,389.25c8.39.69,12,9.17,17.51,14.27,4.62,4.28,10.51,6.26,16.65,7.16,6.88,1,13.93,1,20.87,1.34,6.75.3,13.88,1.41,20-2,1.69-.93.18-3.52-1.51-2.59-6.62,3.63-16,1.68-23.24,1.35s-14.51-.25-21.39-2.3c-7.51-2.24-11.29-7.53-16.24-13.1-3.45-3.88-7.41-6.73-12.69-7.16-1.92-.16-1.91,2.84,0,3Z" transform="translate(-450.18 -19.25)"/><path class="cls-18" d="M678.94,384.55c8.68-15.55,35,0,44,8.25,4.78,4.4,8.07,9.91,13.68,13.43a34.38,34.38,0,0,0,17,5.09c1.93.08,1.93-2.92,0-3-9.63-.39-17.37-4.77-23.51-12a58.34,58.34,0,0,0-17.48-14c-10.35-5.64-28.69-13-36.32.73-.94,1.69,1.65,3.2,2.59,1.51Z" transform="translate(-450.18 -19.25)"/><path class="cls-18" d="M676.88,389.09A38.43,38.43,0,0,0,693.05,407c8.62,4.83,18.54,5.31,28.19,5.56,1.93,0,1.93-3,0-3-9.11-.23-18.53-.59-26.68-5.15a35.77,35.77,0,0,1-15.09-16.81c-.79-1.76-3.38-.23-2.59,1.51Z" transform="translate(-450.18 -19.25)"/><path class="cls-18" d="M677.55,383.23c-5.31-3.38-11-6.55-17.34-7.35-7.61-1-14.8,1.84-21.75,4.57a156.62,156.62,0,0,1-48.32,10.79c-1.92.11-1.93,3.11,0,3a154.94,154.94,0,0,0,42.34-8.34c6.92-2.43,13.69-6,21-6.94,8.41-1.14,15.62,2.46,22.53,6.86,1.63,1,3.14-1.56,1.51-2.59Z" transform="translate(-450.18 -19.25)"/><path class="cls-18" d="M676,384.09A65.9,65.9,0,0,0,657,386.18c-7.36,2-14.23,5-21.86,5.9-13.72,1.59-28.41.83-42.13-.4-1.92-.17-1.91,2.83,0,3,13.75,1.23,28.38,1.93,42.13.4,6.35-.71,12.17-2.71,18.21-4.67A66.16,66.16,0,0,1,676,387.09c1.93.06,1.93-2.94,0-3Z" transform="translate(-450.18 -19.25)"/><path class="cls-18" d="M676,380.43c-13.69-15.12-38.34-8.42-52.44,2.87-1.51,1.21.63,3.32,2.12,2.12,12.82-10.26,35.77-16.6,48.2-2.87,1.3,1.43,3.41-.69,2.12-2.12Z" transform="translate(-450.18 -19.25)"/><path class="cls-18" d="M669.11,382.85a108.82,108.82,0,0,0-37.87,2.77c-1.87.47-1.08,3.37.8,2.89a106.42,106.42,0,0,1,37.07-2.66c1.92.2,1.9-2.8,0-3Z" transform="translate(-450.18 -19.25)"/><path class="cls-18" d="M670.2,383c-6,5.42-12.38,11-20.63,12.42-8.64,1.52-18,1.24-26.7,1.22a1.5,1.5,0,0,0,0,3c9.48,0,20,.59,29.25-1.68,8-1.94,14.26-7.51,20.2-12.84,1.44-1.29-.69-3.41-2.12-2.12Z" transform="translate(-450.18 -19.25)"/><path class="cls-19" d="M610.5,428.5s71,41,106,40c0,0,14-48-40-59C676.5,409.5,630.5,396.5,610.5,428.5Z" transform="translate(-450.18 -19.25)"/><path class="cls-20" d="M678.84,249.24c9,9.5,9.17,22.72,9,35.05a.38.38,0,0,0,.75,0c.19-12.56,0-25.93-9.2-35.58-.33-.35-.86.18-.53.53Z" transform="translate(-450.18 -19.25)"/><path class="cls-20" d="M696.38,284.21c-1.49-11.88-2.65-25.56,7.5-34.1.37-.31-.16-.84-.53-.53-10.29,8.66-9.23,22.54-7.71,34.63.06.47.81.48.75,0Z" transform="translate(-450.18 -19.25)"/><path class="cls-21" d="M620,434.06c-.41-3.74,1.95-7.76,3.32-11.19s2.72-7.16,5-10.31c.28-.39-.37-.77-.65-.38-2.28,3.2-3.59,6.87-5,10.49s-3.78,7.45-3.35,11.39c.05.47.8.48.75,0Z" transform="translate(-450.18 -19.25)"/><path class="cls-21" d="M632.61,440.82c3.74-11.46,7.56-22.89,13.19-33.59.22-.43-.42-.81-.65-.38-5.66,10.76-9.51,22.24-13.27,33.77-.15.46.57.66.72.2Z" transform="translate(-450.18 -19.25)"/><path class="cls-21" d="M645,447c4.8-13.72,10-27.17,16.79-40,.23-.43-.42-.81-.65-.38-6.86,12.92-12,26.42-16.86,40.21-.16.46.56.65.72.2Z" transform="translate(-450.18 -19.25)"/><path class="cls-21" d="M659,453.13q3.65-11.29,7.83-22.4c2.71-7.17,5.09-15.11,9.32-21.54.27-.4-.38-.78-.65-.38-3.92,6-6.19,13.32-8.72,19.94q-4.58,12-8.5,24.17c-.15.46.57.66.72.2Z" transform="translate(-450.18 -19.25)"/><path class="cls-21" d="M673.45,459.18c6.7-14.68,9.88-31.61,18.9-45.07.27-.4-.38-.78-.65-.38-9,13.48-12.2,30.4-18.9,45.07-.2.44.45.82.65.38Z" transform="translate(-450.18 -19.25)"/><path class="cls-21" d="M689.82,464.52c5-13.55,9.38-27.62,17.76-39.56.28-.4-.37-.77-.65-.38-8.42,12-12.77,26.13-17.84,39.74-.17.45.56.65.72.2Z" transform="translate(-450.18 -19.25)"/><path class="cls-21" d="M706.51,468.18c2.2-7.84,5.48-18,10.73-24.27.31-.37-.22-.9-.53-.53C711.3,449.86,708,460,705.79,468a.38.38,0,0,0,.72.2Z" transform="translate(-450.18 -19.25)"/><path class="cls-21" d="M624.7,415.37c15.69,6.8,32.07,12.31,47.53,19.58a83.78,83.78,0,0,0,20.26,6.62,87.92,87.92,0,0,1,24.71,9c.85.46,1.61-.84.76-1.3a89.1,89.1,0,0,0-21.6-8.4c-3.51-.84-7.1-1.3-10.61-2.12-4.55-1.07-8.56-3.14-12.75-5.1-15.48-7.24-31.83-12.78-47.53-19.58-.88-.38-1.64.91-.76,1.3Z" transform="translate(-450.18 -19.25)"/></g><g id="hat"><path class="cls-3" d="M450.5,128.5s207,173,492,31C942.5,159.5,679.5,265.5,450.5,128.5Z" transform="translate(-450.18 -19.25)"/><path class="cls-3" d="M450.5,128.5s94,37,109,30l-2,17C557.45,170.22,548.47,180.34,450.5,128.5Z" transform="translate(-450.18 -19.25)"/><path class="cls-3" d="M942.5,159.5s-91,10-114,6v23S944.5,167.5,942.5,159.5Z" transform="translate(-450.18 -19.25)"/><path class="cls-2" d="M450.5,128.5" transform="translate(-450.18 -19.25)"/><path d="M553.92,171.59a3.84,3.84,0,0,1-3.16-1.11c-1.38-1.37-3.4.69-2.12,2.12a14.27,14.27,0,0,0,4.38,3.31c1.73.84,3.25-1.75,1.51-2.59a12.06,12.06,0,0,1-3.77-2.84l-2.12,2.12a6.76,6.76,0,0,0,5.28,2c1.91-.15,1.93-3.15,0-3Z" transform="translate(-450.18 -19.25)"/><path d="M554,171.68l-.38,2.69,1.45-1.1c-5.8-.41-11.22-2.69-17.06-2.83a1.51,1.51,0,0,0-.76,2.8l10.66,7.1c1.33.88,2.69-.81,2.05-2.05a10.43,10.43,0,0,0-4-4.31,1.51,1.51,0,0,0-1.82,2.36,45.45,45.45,0,0,0,18.56,10.31,1.5,1.5,0,0,0,.8-2.89,42.13,42.13,0,0,1-17.23-9.54l-1.82,2.36a6.2,6.2,0,0,1,2.88,3.23l2.05-2.05-10.66-7.1-.76,2.8c5.81.14,11.27,2.42,17.06,2.83a1.5,1.5,0,0,0,1.45-1.1l.38-2.69c.26-1.89-2.63-2.7-2.89-.8Z" transform="translate(-450.18 -19.25)"/><path d="M628.55,203.8l-14.12-2.45c-1.53-.26-2.84,2-1.16,2.74a40.13,40.13,0,0,0,11.93,2.76c1.67.19,2.06-2.65.4-2.95q-20.71-3.67-41.17-8.59-10.22-2.48-20.36-5.28c-5.66-1.57-13.26-2.67-16.18-8.43l-2.05,2.05a78.71,78.71,0,0,0,31.29,10.23c1.36.15,1.89-1.7,1.06-2.56-7.27-7.57-17.93-8.36-27.85-8.66a1.52,1.52,0,0,0-1.06,2.56l1.24,1.38,1.82-2.36c-7-3.31-14.53-6.19-21-10.42-1.64-1.07-3.05,1.48-1.51,2.59a99,99,0,0,0,21.93,11.92c1.58.62,2.67-2,1.16-2.74q-16.88-8.42-33.58-17.21c-10.36-5.46-21.43-10.52-29.87-18.83-1.38-1.36-3.5.76-2.12,2.12,8.2,8.07,18.7,13.08,28.76,18.39q17.54,9.26,35.29,18.11l1.16-2.74a96,96,0,0,1-21.22-11.62l-1.51,2.59c6.5,4.24,14,7.11,21,10.42a1.51,1.51,0,0,0,1.82-2.36l-1.24-1.38-1.06,2.56c9.1.27,19,.81,25.73,7.78l1.06-2.56a75.1,75.1,0,0,1-29.78-9.82,1.51,1.51,0,0,0-2.05,2.05c2.15,4.26,6.18,6.25,10.55,7.68,7.27,2.38,14.8,4.17,22.21,6q23.18,5.83,46.74,10l.4-2.95a34.86,34.86,0,0,1-10.42-2.35l-1.16,2.74,14.12,2.45c1.89.33,2.7-2.56.8-2.89Z" transform="translate(-450.18 -19.25)"/><path d="M552.2,170.89a22.25,22.25,0,0,0,3.11,8,1.51,1.51,0,0,0,2.8-.76,29.57,29.57,0,0,0-2.44-10.56c-.76-1.77-3.35-.24-2.59,1.51a25.49,25.49,0,0,1,2,9l2.8-.76a20,20,0,0,1-2.81-7.27c-.34-1.9-3.23-1.09-2.89.8Z" transform="translate(-450.18 -19.25)"/><path d="M828,163a6.56,6.56,0,0,0,1.41,2.64,1.52,1.52,0,0,0,2.74-.36c.43-1.52.26-1.85-.71-3.09L830,164.67c26.38,3.55,52.85-.39,79.31,0v-3L829.5,162c-1.39,0-2.17,2.16-.76,2.8l9.44,4.26c1.75.79,3.27-1.8,1.51-2.59l-9.44-4.26-.76,2.8,79.83-.32a1.5,1.5,0,0,0,0-3c-26.17-.37-52.43,3.64-78.52.12a1.52,1.52,0,0,0-1.46,2.51l-.07.17,2.74-.36-1.1-1.92c-.66-1.8-3.56-1-2.89.8Z" transform="translate(-450.18 -19.25)"/><path d="M901.85,168.92a40.84,40.84,0,0,0,10.81-4.59c1.21-.73.78-2.89-.76-2.8l-2.57.16v3q14.17-1.3,28.39-1.69c1.93-.05,1.93-3.05,0-3q-14.23.39-28.39,1.69c-1.89.17-1.95,3.12,0,3l2.57-.16-.76-2.8A38.16,38.16,0,0,1,901.05,166a1.5,1.5,0,0,0,.8,2.89Z" transform="translate(-450.18 -19.25)"/><path d="M843.8,166.55a115.53,115.53,0,0,0-14.45-4c-1.88-.39-2.69,2.5-.8,2.89a115.53,115.53,0,0,1,14.45,4c1.83.63,2.61-2.27.8-2.89Z" transform="translate(-450.18 -19.25)"/><path class="cls-3" d="M557.5,175.5s-1-105,15-115c0,0,108-93,254,2,0,0,5-5,2,126C828.5,188.5,624.5,228.5,557.5,175.5Z" transform="translate(-450.18 -19.25)"/><path class="cls-2" d="M507.5,161.5" transform="translate(-450.18 -19.25)"/><path class="cls-22" d="M451.67,130.91c4.83,9,26.31,41.46,94.22,61.72a.41.41,0,0,0,.52-.32c.1-.58.74-1.68,3.44-3.41a.4.4,0,0,0,0-.71c-7.48-3.24-72.42-31.84-97.48-57.75A.4.4,0,0,0,451.67,130.91Z" transform="translate(-450.18 -19.25)"/><path class="cls-23" d="M462.5,196.5" transform="translate(-450.18 -19.25)"/><path d="M500.71,159.45c-1.34,0-3-1.44-4.2-2.09L492.22,155c-1.69-.94-3.2,1.65-1.51,2.59l5.52,3.07c1.43.8,2.81,1.77,4.49,1.81,1.93.05,1.93-2.95,0-3Z" transform="translate(-450.18 -19.25)"/><path d="M558.18,178.68a20.76,20.76,0,0,1-1.41,4.28c-2.37,4.22-3.79,3.44-7.2,2.34a73.68,73.68,0,0,1-10.43-4.61,206.14,206.14,0,0,1-18.79-10.8c-1.63-1-3.13,1.55-1.51,2.59,8.74,5.62,17.92,11,27.6,14.85,3,1.17,6.86,2.93,9.93,1.26s3.87-6.2,4.71-9.11a1.5,1.5,0,0,0-2.89-.8Z" transform="translate(-450.18 -19.25)"/><path d="M498.68,151.36c-5.89-1.77-11.64-5.06-17.13-7.81-1.72-.86-3.24,1.73-1.51,2.59,5.75,2.87,11.68,6.26,17.85,8.11,1.85.56,2.64-2.34.8-2.89Z" transform="translate(-450.18 -19.25)"/><path class="cls-22" d="M829.48,201.53s99-30,113-42c0,0-73,56.52-108,52.76C834.5,212.26,832.46,200.56,829.48,201.53Z" transform="translate(-450.18 -19.25)"/><path class="cls-24" d="M809,207.54a43.12,43.12,0,0,1,11.09-2.28c1.82-.15,9.55-1.42,10.53,1.06l1.85-1.85a29.5,29.5,0,0,0-18.35-.92c-1.72.45-1.22,2.81.4,2.95a11.69,11.69,0,0,0,5.44-.91,17.47,17.47,0,0,1,7.52-1.34c3.67.06,5.58-3.29,9.24-4.2l-.8-2.89c-3.59,1.35-6.72,3.23-6.24,7.47.18,1.55,2.53,2.18,2.95.4,1-4.26,8-5.76,11.46-6.93,3.67-1.25,7.41-2.3,11.13-3.39q11.5-3.35,22.76-7.43c7.61-2.76,15.13-5.72,22.64-8.73,5.13-2.06,12-3.49,15.4-8.21,1.13-1.57-1.48-3.07-2.59-1.51-2.6,3.63-9.59,5.22-13.6,6.83q-5.41,2.17-10.83,4.29c-8.14,3.16-16.34,6.18-24.65,8.86-7.54,2.43-15.27,4.33-22.74,7-4.46,1.59-10.65,3.21-11.87,8.44l2.95.4q.41-4,4-4.58a1.5,1.5,0,0,0-.8-2.89,14.75,14.75,0,0,0-4.94,2.08,6.67,6.67,0,0,1-5,1.6c-4,.08-7.43,3-11.45,2.66l.4,2.95a26.78,26.78,0,0,1,16.75.92,1.51,1.51,0,0,0,1.85-1.85c-1.31-3.31-4.27-3.54-7.5-3.54a53.15,53.15,0,0,0-17.81,2.66c-1.81.64-1,3.54.8,2.89Z" transform="translate(-450.18 -19.25)"/><path class="cls-24" d="M769.22,205.27c15.13.49,30.41,1.64,45.54,1.23,13.29-.36,26.17-3.78,38.57-8.4,12.66-4.71,24.84-10.58,37.37-15.61,8-3.22,21-5.58,23.11-15.56.41-1.88-2.48-2.69-2.89-.8-1.27,5.86-7.18,8.19-12.23,10.1-5.25,2-10.48,4-15.66,6.2-11.75,5-23.34,10.39-35.43,14.54-11.86,4.07-24,6.61-36.59,6.56-13.93,0-27.88-.82-41.8-1.27-1.93-.06-1.93,2.94,0,3Z" transform="translate(-450.18 -19.25)"/><path d="M528.75,171.81l-29.12-12.5c-1.72-.74-3.24,1.61-1.51,2.59l21.94,12.43,1.51-2.59a455.63,455.63,0,0,1-62-39.31c-1.37-1-3,1.21-1.82,2.36,15.26,14.2,33.18,24.86,51.67,34.29,17.72,9,36.77,20.48,57,22,1.93.14,1.92-2.86,0-3-10.71-.78-20.64-4.69-30.28-9.2q-13.49-6.33-26.77-13.14c-17.71-9.11-34.86-19.4-49.51-33L458.06,135a455.63,455.63,0,0,0,62,39.31c1.7.9,3.2-1.63,1.51-2.59L499.63,159.3l-1.51,2.59,29.12,12.5c1.75.75,3.28-1.83,1.51-2.59Z" transform="translate(-450.18 -19.25)"/><path class="cls-25" d="M556.6,158.62s-.56-24.07,1.67-23.09l271.19,0s2,15.16,0,27.08C829.48,162.58,579.71,171.73,556.6,158.62Z" transform="translate(-450.18 -19.25)"/><path class="cls-26" d="M717.21,282a153,153,0,0,1,93.48,3.25c1.82.65,2.6-2.24.8-2.89a155.84,155.84,0,0,0-95.07-3.25,1.5,1.5,0,0,0,.8,2.89Z" transform="translate(-450.18 -19.25)"/><path class="cls-26" d="M716.86,278.52c-6.46-4.48-3-11.68,2.77-14.6,4.32-2.2,9.38-3.2,14.13-3.95a149.2,149.2,0,0,1,33-1.26c19.35,1.32,39.68,8.82,48.59,27.33l2.36-1.82a11.16,11.16,0,0,0-8.78-3.6,1.51,1.51,0,0,0-.76,2.8,43,43,0,0,1,8.58,6.5c1.38,1.35,3.51-.77,2.12-2.12a46,46,0,0,0-9.19-7l-.76,2.8a8.08,8.08,0,0,1,6.66,2.72c1.24,1.28,3.07-.34,2.36-1.82-11.27-23.41-38.59-29.36-62.32-29.1-12.18.13-27.16.13-38.12,6.22-7.69,4.27-10,14-2.14,19.46,1.59,1.1,3.09-1.5,1.51-2.59Z" transform="translate(-450.18 -19.25)"/><path class="cls-26" d="M802.34,277a21.65,21.65,0,0,1,15.1,12.55c.78,1.76,3.36.24,2.59-1.51a24.44,24.44,0,0,0-16.9-13.93c-1.88-.44-2.68,2.46-.8,2.89Z" transform="translate(-450.18 -19.25)"/><path class="cls-26" d="M662.31,280.71c-5.59-5.24-13.4-6.8-20.19-10-7.49-3.49-14.54-7.84-21.75-11.87-14.71-8.23-29.91-13.56-46.92-13.76a1.5,1.5,0,0,0,0,3c17.14.2,32.15,5.85,46.89,14.19,6.45,3.64,12.8,7.47,19.49,10.66s14.85,4.71,20.35,9.86c1.41,1.32,3.53-.8,2.12-2.12Z" transform="translate(-450.18 -19.25)"/><path class="cls-26" d="M657.29,279.41c5.62,7.59,15.08-2.2,16.19-8.51,2-11.59-14.44-15.11-22.31-18.2-13.94-5.47-28.22-11-42.72-14.76-13.28-3.46-24.58.6-36.6,6.21-1.75.82-.23,3.4,1.51,2.59,8.58-4,17.67-8.17,27.39-7.24,9.91.95,19.95,5.3,29.28,8.56q13.36,4.66,26.48,10c4.22,1.71,11.11,3.35,13.41,7.75,1.77,3.38.18,7.54-2.13,10.18-1.61,1.84-5.71,4.89-7.9,1.93-1.14-1.53-3.74,0-2.59,1.51Z" transform="translate(-450.18 -19.25)"/><path class="cls-26" d="M663.1,277.39c-2.21,2-6.29.33-8.61-.56a60.92,60.92,0,0,1-8.7-3.92c-4.72-2.71-8.56-6.47-10.18-11.77l-2.2,1.69,18.35,11.34,1.51-2.59-15.75-7c-1.41-.62-3.26,1.18-1.82,2.36,5.66,4.62,12.4,6.56,18.92,9.59,4.32,2,7.59,4.14,11.13-.29,1.51-1.89,4.12-8.46-.88-8-1.45.14-2.54,1.54-3,2.8-.24.63-.08,2.53-.34,2.92-3,4.43-6.48-2.42-6.92-4.28l-1.85,1.85a11.56,11.56,0,0,1,7.38,5l.9-2.2a8.81,8.81,0,0,1-9.16-2.76l-1.46,2.51c.93.36,7.21,2.83,7.3,4.14s-5.64-1.09-6.47-1.48a104.07,104.07,0,0,1-10.82-5.93A105.65,105.65,0,0,1,621,255l-1.82,2.36,15.91,10.05c1.42.9,3.11-1.22,1.82-2.36q-7.75-6.79-15.14-14l-1.82,2.36,24.43,12.64,1.16-2.74a106.46,106.46,0,0,1-20.6-8.92L623.39,257l17.13,8.82a1.5,1.5,0,0,0,1.51-2.59L620.1,249l-1.51,2.59Q639,261.43,659,272.19l1.51-2.59a168.76,168.76,0,0,0-20-8,1.51,1.51,0,0,0-1.46,2.51,91.25,91.25,0,0,0,13.9,11.66c1.45,1,3-1.16,1.82-2.36l-9.86-10.43L643,265.29q10.09,5.63,20.36,10.91a1.51,1.51,0,0,0,1.82-2.36c-2.05-2.34-10.35-8.22-13.17-4-1.1,1.63.61,4.06,1.45,5.3.52.76,6.63,5.68,6.6,5.92l1.1-1.45c-5,1.77-11-2.17-14.17-5.65l-1.46,2.51c8.77,1.79,18.24,3.19,22.48-6.67l-2.74-.36q1.57,3.89-1.85,6.85l2.2,1.69a31.36,31.36,0,0,0,2.13-11l-2.95.4a11.22,11.22,0,0,1-.09,8.16l2.89.8c1.14-3.45,6-12.13.48-14.1-1.29-.46-2.28,1.13-1.69,2.2a10.22,10.22,0,0,1-.57,11.11l2.8.76c.27-3.85,2.27-8-1-11.15-1.56-1.46-3.82-2.31-5.67-3.3l-10.34-5.57L650.47,259q7.48,2.78,14.73,6.06a1.5,1.5,0,0,0,1.51-2.59,39,39,0,0,0-15.33-5.63c-1.51-.22-2.85,2-1.16,2.74a28.08,28.08,0,0,1,12.07,10.32l1.69-2.2a56.26,56.26,0,0,1-9.72-4.06l-1.51,2.59a54.13,54.13,0,0,1,12,8l1.82-2.36A84.56,84.56,0,0,1,656,263.62L654.15,266l9.49,4.82a1.51,1.51,0,0,0,1.82-2.36,44.73,44.73,0,0,0-15.12-11.56,1.5,1.5,0,0,0-1.51,2.59l16.7,11.37.36-2.74a21,21,0,0,1-15.26-2.52c-1.42-.82-3.2,1.28-1.82,2.36l13.3,10.38c1.49,1.16,3.63-.87,2.12-2.12a158.1,158.1,0,0,0-16.36-11.91,1.51,1.51,0,0,0-1.82,2.36l8.78,8.52c1.39,1.35,3.51-.77,2.12-2.12l-8.78-8.52-1.82,2.36a152,152,0,0,1,15.75,11.44l2.12-2.12-13.3-10.38-1.82,2.36A24.15,24.15,0,0,0,666.69,271c1.36-.28,1.35-2.07.36-2.74l-16.7-11.37-1.51,2.59a42.82,42.82,0,0,1,14.51,11.09l1.82-2.36-9.49-4.82c-1.45-.74-3.14,1.15-1.82,2.36a89.45,89.45,0,0,0,11.26,8.72c1.41.92,3.1-1.23,1.82-2.36a57.19,57.19,0,0,0-12.64-8.47c-1.72-.84-3.23,1.68-1.51,2.59a60.09,60.09,0,0,0,10.43,4.36,1.52,1.52,0,0,0,1.69-2.2A30.77,30.77,0,0,0,651.75,257l-1.16,2.74a37.16,37.16,0,0,1,14.61,5.33l1.51-2.59q-7.62-3.46-15.45-6.37c-1.6-.59-2.64,1.94-1.16,2.74,4,2.16,8,4.32,12.06,6.49,2.89,1.56,4.22,1.66,4.18,6.37,0,1.46-.58,3.07-.68,4.57s2,1.9,2.8.76a13.11,13.11,0,0,0,.57-14.14l-1.69,2.2c1.33.48-2.28,9.52-2.57,10.41-.61,1.85,2.23,2.58,2.89.8a13.64,13.64,0,0,0,.09-9.75,1.51,1.51,0,0,0-2.95.4,29.09,29.09,0,0,1-2,10.21c-.52,1.36,1.15,2.18,2.2,1.69,4.23-1.93,4-6.24,3.23-10.24-.24-1.19-2.23-1.54-2.74-.36-3.64,8.45-11.7,6.79-19.1,5.29a1.51,1.51,0,0,0-1.46,2.51c3.89,4.26,11.12,8.53,17.08,6.42a1.59,1.59,0,0,0,1.1-1.45c.31-2.3-1.68-2.87-3.32-4-1.3-.87-6.4-4.27-3.07-5.11,2.11-.53,5.2,2.66,6.39,4l1.82-2.36q-10.28-5.28-20.36-10.91a1.51,1.51,0,0,0-1.82,2.36l9.86,10.43,1.82-2.36a87.39,87.39,0,0,1-13.3-11.19l-1.46,2.51A162.6,162.6,0,0,1,659,272.19c1.72.82,3.23-1.66,1.51-2.59Q640.53,258.84,620.1,249a1.5,1.5,0,0,0-1.51,2.59l21.94,14.19,1.51-2.59-17.13-8.82c-1.71-.88-3.21,1.64-1.51,2.59a110.13,110.13,0,0,0,21.32,9.22,1.51,1.51,0,0,0,1.16-2.74l-24.43-12.64c-1.47-.76-3.09,1.12-1.82,2.36q7.4,7.17,15.14,14l1.82-2.36-15.91-10.05c-1.46-.92-3,1.15-1.82,2.36A104.74,104.74,0,0,0,653.47,281c2.5,1,7.62,2.23,7.74-2.11.11-4-7.07-6.57-10-7.71-1.49-.58-2.38,1.5-1.46,2.51a11.72,11.72,0,0,0,12.08,3.53,1.51,1.51,0,0,0,.9-2.2,14.68,14.68,0,0,0-9.18-6.35,1.52,1.52,0,0,0-1.85,1.85c.92,3.91,8.61,12.63,12.19,6.44a5.81,5.81,0,0,0,.51-1.68l.11-1.27q.34-2.22-.31-.81a2.46,2.46,0,0,1-2.74,1.38q-2.05,1.71-3.86.1a23.38,23.38,0,0,1-3.12-1.43c-5.75-2.51-11.73-4.36-16.66-8.38L636,267.22l15.75,7a1.5,1.5,0,0,0,1.51-2.59l-18.35-11.34a1.52,1.52,0,0,0-2.2,1.69c2.25,7.31,8,12,14.77,15.21,5,2.34,12.82,6.84,17.74,2.36,1.43-1.3-.7-3.42-2.12-2.12Z" transform="translate(-450.18 -19.25)"/><path class="cls-26" d="M646.39,261.67a37.13,37.13,0,0,1-12.73-9l-2.92,5a71.72,71.72,0,0,1,20.58,9.65c1.67,1.13,3.85-.06,4.41-1.79,2.19-6.86-4.28-10.09-9.69-11.89a223.94,223.94,0,0,1-27.93-11.4l-3,5.18,22.85,10.52,2.31-5.48L608.75,241c-3.26-1.18-5.17,3.79-2.31,5.48a45.14,45.14,0,0,1,14.94,14.16l4.1-4.1c-15.22-7.61-30.22-16.68-47.91-14.17l1.6,5.79A38.74,38.74,0,0,1,609,251.89a3,3,0,0,0,4.41-3.39,11,11,0,0,0-6.35-7.47l-2.31,5.48a93.39,93.39,0,0,1,33.26,11c2.86,1.59,6.35-2.46,3.64-4.71a65,65,0,0,0-56.76-13.36c-3.75.9-2.16,6.69,1.6,5.79A58.6,58.6,0,0,1,637.42,257l3.64-4.71a97.75,97.75,0,0,0-34.69-11.6c-3-.4-5.76,4-2.31,5.48a5.63,5.63,0,0,1,3.59,3.89l4.41-3.39a44.9,44.9,0,0,0-34.49-4.34c-3.83,1.05-2.12,6.31,1.6,5.79,15.72-2.23,29.84,6.84,43.29,13.56,2.5,1.25,5.88-1.42,4.1-4.1a52,52,0,0,0-17.09-16.31l-2.31,5.48,31.49,11.45c3.16,1.15,5.41-4.06,2.31-5.48l-22.85-10.52c-3.46-1.6-6.52,3.47-3,5.18,5.57,2.73,11.24,5.25,17,7.54,2.63,1,19.07,5.16,17.85,9l4.41-1.79a76.89,76.89,0,0,0-22-10.25c-3-.85-4.89,2.87-2.92,5a41.05,41.05,0,0,0,13.94,10c3.5,1.53,6.56-3.64,3-5.18Z" transform="translate(-450.18 -19.25)"/><path class="cls-26" d="M718.14,274.11c1-2.59-.49-4.75,1.66-7s5.26-2,8.07-2.44c5.77-.85,11.58-1.41,17.4-1.79a3,3,0,0,0,0-6c-9.36-.85-22.05-.83-30.19,4.7-7.67,5.21-4.64,13.11.6,18.79a3,3,0,0,0,5-1.32l2.46-12h-5.79c.64,4.44,2,9.44,6.59,11.29,5.29,2.16,13.09-.28,18.59-.82,15.18-1.49,30.5-2.27,45.48,1.15,3.76.86,5.36-4.93,1.6-5.79-11.8-2.69-23.83-3-35.87-2.29-5.92.37-11.82,1-17.72,1.6-2.69.28-6.36,1.37-9,.64-3.11-.85-3.45-4.53-3.85-7.38s-5.22-2.78-5.79,0l-2.46,12,5-1.32c-2.4-2.6-5.17-5.73-2.21-9,1.67-1.87,5.22-2.53,7.55-3.06a63.35,63.35,0,0,1,20-1.13v-6c-7,.46-13.91,1.2-20.81,2.28-4.86.76-10.34,1.49-11.71,7.08-.89,3.61-.49,9.83,2.89,12.17s6.92.61,8.28-2.73c1.45-3.58-4.35-5.13-5.79-1.6Z" transform="translate(-450.18 -19.25)"/><path class="cls-26" d="M780.8,265.77q-14.82-.44-29.64-.18-6.92.13-13.83.43c-3.29.14-12.26,2.16-14.5-1.3a3,3,0,0,0-5.18,3,22.61,22.61,0,0,0,9,9.61,3,3,0,0,0,4.51-2.59,22.09,22.09,0,0,0-3.86-11.89c-2.16-3.16-7.34-.21-5.18,3a22.75,22.75,0,0,0,11.29,9c2.88,1.11,4.95-3,2.92-5a20.41,20.41,0,0,1-4.29-6l-2.59,4.51,18.31-.18a3,3,0,0,0,.8-5.89,53.13,53.13,0,0,0-22.26-1.51c-2.62.35-2.82,4.35-.72,5.48,4.57,2.47,9.12,2.1,14.06,1.09a62.84,62.84,0,0,1,21.46-1.2c12.08,1.57,27,3.92,36.37,12.24l3.64-4.71a44.35,44.35,0,0,0-24.63-5.19c-3.19.25-4.29,5.06-.8,5.89q16.83,4,33.46,8.76a3,3,0,0,0,3.39-4.41c-11.15-18.6-33.69-21.29-53.42-22-7.65-.27-21.44-1.74-27,5.13a7.13,7.13,0,0,0-.12,8.92c2.91,3.84,7.7,3.89,12.06,3.33l-.8-5.89a154.33,154.33,0,0,0-29.88,7.13l3.69,2.1c-1.41-4.54-3.62-12.64,3.57-12.9,4.27-.15,8.88.94,13.11,1.4,3.83.41,3.8-5.59,0-6-5.88-.63-15.18-3.59-20.27.83-5.47,4.75-4.1,12.17-2.21,18.27a3,3,0,0,0,3.69,2.1,154.33,154.33,0,0,1,29.88-7.13c3.31-.45,2.56-6.32-.8-5.89-1.22.16-5.48,1-6.44-.2-2.31-2.8,1.31-3.65,2.8-4.09a42.34,42.34,0,0,1,11.53-1.23,181.29,181.29,0,0,1,20.58,1C786,265,800,269.6,807.3,281.79l3.39-4.41q-16.63-4.75-33.46-8.76l-.8,5.89A38.53,38.53,0,0,1,798,278.88c2.88,1.53,6.3-2.36,3.64-4.71-9.16-8.1-21.39-10.62-33.09-12.82-6.5-1.22-13.17-2.14-19.79-1.64-6.21.47-14.41,4.53-20.22,1.39l-.72,5.48a45.88,45.88,0,0,1,19.07,1.51l.8-5.89-18.31.18a3,3,0,0,0-2.59,4.51,24.91,24.91,0,0,0,5.23,7.22l2.92-5a15.85,15.85,0,0,1-7.7-6.23l-5.18,3a16.19,16.19,0,0,1,3,8.87l4.51-2.59a17,17,0,0,1-6.8-7.45l-5.18,3c5,7.75,18,4.3,25.6,4q18.77-.61,37.54,0c3.86.11,3.86-5.89,0-6Z" transform="translate(-450.18 -19.25)"/><path class="cls-26" d="M714.6,269.45q-1.26,4.7-2.36,9.44a3,3,0,0,0,3.69,3.69,158.14,158.14,0,0,1,26.19-5.1c3.8-.41,3.84-6.41,0-6a167.66,167.66,0,0,0-27.78,5.32l3.69,3.69q1.1-4.74,2.36-9.44c1-3.73-4.79-5.33-5.79-1.6Z" transform="translate(-450.18 -19.25)"/><path class="cls-27" d="M562.73,543.7s-3.23-19.2-41.23,22.8l11,11s30.28-24,33.64-22l-2.42-8.39Z" transform="translate(-450.18 -19.25)"/><path class="cls-28" d="M581.5,532.5s25,15,30,27c0,0-4,13-21,21,0,0-24-13-24-25l-4-12S577.5,530.5,581.5,532.5Z" transform="translate(-450.18 -19.25)"/><path class="cls-29" d="M580.63,530.71l-4-8.06a1.51,1.51,0,0,0-2.8.76,33.24,33.24,0,0,0,1.37,9,1.52,1.52,0,0,0,1.85,1l1.74-.59c1.82-.61,1-3.51-.8-2.89l-1.74.59,1.85,1a30.15,30.15,0,0,1-1.26-8.19l-2.8.76,4,8.06c.87,1.73,3.45.21,2.59-1.51Z" transform="translate(-450.18 -19.25)"/><polyline class="cls-3" points="159.62 545.75 178.32 564.26 174.71 567.25 157.82 548.57"/><path class="cls-30" d="M572.49,549.68q7.59,6.65,14.85,13.67c1.39,1.34,3.51-.78,2.12-2.12q-7.26-7-14.85-13.67c-1.45-1.27-3.58.85-2.12,2.12Z" transform="translate(-450.18 -19.25)"/><path class="cls-30" d="M578.71,545.75c2.74,1,5.18,3.44,7.29,5.39a62.69,62.69,0,0,1,5.77,6.16c1.23,1.49,3.34-.64,2.12-2.12-3.72-4.51-8.72-10.3-14.38-12.32-1.82-.65-2.61,2.25-.8,2.89Z" transform="translate(-450.18 -19.25)"/><path class="cls-30" d="M550,551.86a1.5,1.5,0,0,0,0-3,1.5,1.5,0,0,0,0,3Z" transform="translate(-450.18 -19.25)"/><path class="cls-30" d="M545.75,555.08a1.5,1.5,0,0,0,0-3,1.5,1.5,0,0,0,0,3Z" transform="translate(-450.18 -19.25)"/><path class="cls-30" d="M542,558.58a1.5,1.5,0,0,0,0-3,1.5,1.5,0,0,0,0,3Z" transform="translate(-450.18 -19.25)"/><path class="cls-31" d="M537.41,562.34a1.5,1.5,0,0,0,0-3,1.5,1.5,0,0,0,0,3Z" transform="translate(-450.18 -19.25)"/><path class="cls-31" d="M538.76,560.73a1.5,1.5,0,0,0,0-3,1.5,1.5,0,0,0,0,3Z" transform="translate(-450.18 -19.25)"/><path class="cls-6" d="M561,535.77a92.59,92.59,0,0,0,2.16,27c.43,1.88,3.32,1.09,2.89-.8A89.88,89.88,0,0,1,564,535.77c.13-1.93-2.87-1.92-3,0Z" transform="translate(-450.18 -19.25)"/></g></svg>
