<svg id="Layer_1" data-name="Layer 1" xmlns="http://www.w3.org/2000/svg" viewBox="0 0 800 600"><defs><style>.cls-1,.cls-2{fill:#f4840b;}.cls-2,.cls-4,.cls-44,.cls-47{stroke:#000;stroke-miterlimit:10;}.cls-2{stroke-width:3px;}.cls-3{font-size:15.3737px;fill:#f4f2ef;font-family:MyriadPro-Regular, Myriad Pro;}.cls-47,.cls-5{stroke-width:1.25px;}.cls-6{letter-spacing:0.018em;}.cls-7{letter-spacing:-0.008em;}.cls-8{letter-spacing:0.024em;}.cls-9{letter-spacing:-0.006em;}.cls-10{letter-spacing:0em;}.cls-11{letter-spacing:-0.004em;}.cls-12{letter-spacing:0.009em;}.cls-13{letter-spacing:0.017em;}.cls-14{letter-spacing:-0.0001em;}.cls-15{letter-spacing:-0.0119em;}.cls-16{letter-spacing:-0.083em;}.cls-17,.cls-44{letter-spacing:0.003em;}.cls-18{letter-spacing:0em;}.cls-19{letter-spacing:-0.004em;}.cls-20{letter-spacing:0.009em;}.cls-21{letter-spacing:0.017em;}.cls-22{letter-spacing:-0.025em;}.cls-23{letter-spacing:-0.086em;}.cls-24{letter-spacing:-0.01em;}.cls-25{letter-spacing:-0.053em;}.cls-26{letter-spacing:-0.007em;}.cls-27{letter-spacing:-0.01em;}.cls-28{letter-spacing:-0.053em;}.cls-29{letter-spacing:-0.039em;}.cls-30{letter-spacing:-0.003em;}.cls-31{letter-spacing:0.004em;}.cls-32{letter-spacing:0.0001em;}.cls-33{letter-spacing:-0.0099em;}.cls-34{letter-spacing:-0.0039em;}.cls-35{letter-spacing:-0.013em;}.cls-36{letter-spacing:-0.012em;}.cls-37{letter-spacing:-0.046em;}.cls-38{letter-spacing:-0.019em;}.cls-39{letter-spacing:-0.005em;}.cls-40{letter-spacing:-0.013em;}.cls-41{letter-spacing:-0.0101em;}.cls-42{letter-spacing:-0.006em;}.cls-43{letter-spacing:0.017em;}.cls-45{letter-spacing:-0.004em;}.cls-46{letter-spacing:-0.0031em;}.cls-48{letter-spacing:-0.041em;}.cls-49{letter-spacing:-0.064em;}.cls-50{letter-spacing:-0.007em;}</style></defs><title>speech1</title><ellipse class="cls-1" cx="356.4132" cy="276.312" rx="258.0865" ry="180.812"/><path d="M356.4133,97a351.6232,351.6232,0,0,1,100.1886,14.2028c30.6,9.09,58.0686,22.0937,81.6427,38.65,23.4958,16.5015,41.9284,35.6935,54.7859,57.0428C606.2813,228.8983,613,252.2534,613,276.3122s-6.7187,47.414-19.97,69.4165c-12.8575,21.3492-31.29,40.5412-54.7859,57.0428-23.5741,16.5564-51.0427,29.56-81.6427,38.65a360.4738,360.4738,0,0,1-200.3772,0c-30.6-9.09-58.0685-22.0938-81.6428-38.65-23.4957-16.5016-41.9283-35.6936-54.7857-57.0428-13.2509-22.0025-19.97-45.3576-19.97-69.4165s6.7187-47.4139,19.97-69.4164c12.8574-21.3493,31.29-40.5413,54.7857-57.0428,23.5743-16.5565,51.0428-29.56,81.6428-38.65A351.6232,351.6232,0,0,1,356.4133,97m0-3C213.0475,94,96.8266,175.6239,96.8266,276.3122S213.0475,458.6245,356.4133,458.6245,616,377.0005,616,276.3122,499.7791,94,356.4133,94Z"/><path class="cls-2" d="M206.05,417.719s6.92,48.9518-42.1288,71.1625c0,0,57.0119-4.06,92.3615-51.5411"/><text class="cls-3" transform="translate(151 155.2598) scale(0.8722 1)"><tspan class="cls-4"><tspan class="cls-5" xml:space="preserve">                                                               </tspan><tspan x="205.3216" y="0">ÅH N</tspan><tspan class="cls-6" x="238.1289" y="0">E</tspan><tspan x="245.9691" y="0">J !</tspan></tspan><tspan x="0" y="18.4487" xml:space="preserve">              </tspan><tspan class="cls-7" x="45.627" y="18.4487">S</tspan><tspan x="53.0832" y="18.4487">yndfloden sta</tspan><tspan class="cls-8" x="140.7583" y="18.4487">r</tspan><tspan class="cls-9" x="146.1544" y="18.4487">t</tspan><tspan class="cls-10" x="151.1507" y="18.4487">ede da du del</tspan><tspan class="cls-9" x="238.2263" y="18.4487">t</tspan><tspan x="243.2226" y="18.4487">e billedet uden sa</tspan><tspan class="cls-11" x="356.3402" y="18.4487">m</tspan><tspan class="cls-12" x="369.1006" y="18.4487">t</tspan><tspan x="374.327" y="18.4487">y</tspan><tspan class="cls-13" x="381.5676" y="18.4487">k</tspan><tspan class="cls-14" x="389.04" y="18.4487">k</tspan><tspan class="cls-15" x="396.2493" y="18.4487">e</tspan><tspan x="403.7676" y="18.4487">...</tspan><tspan x="0" y="36.897" xml:space="preserve">       </tspan><tspan class="cls-16" x="22.8135" y="36.897"> </tspan><tspan x="24.7969" y="36.897">“</tspan><tspan class="cls-17" x="30.2389" y="36.897">S</tspan><tspan class="cls-18" x="37.8641" y="36.897">a</tspan><tspan class="cls-19" x="45.2738" y="36.897">m</tspan><tspan class="cls-20" x="58.0342" y="36.897">t</tspan><tspan x="63.2611" y="36.897">y</tspan><tspan class="cls-21" x="70.5018" y="36.897">k</tspan><tspan class="cls-18" x="77.9736" y="36.897">k</tspan><tspan class="cls-22" x="85.1834" y="36.897">e</tspan><tspan class="cls-23" x="92.5013" y="36.897">”</tspan><tspan x="96.6215" y="36.897" xml:space="preserve"> be</tspan><tspan class="cls-12" x="116.3303" y="36.897">t</tspan><tspan class="cls-24" x="121.5567" y="36.897">y</tspan><tspan x="128.644" y="36.897">de</tspan><tspan class="cls-25" x="145.0168" y="36.897">r</tspan><tspan x="149.2294" y="36.897">, </tspan><tspan class="cls-11" x="155.6706" y="36.897">a</tspan><tspan x="163.0193" y="36.897">t man har fået l</tspan><tspan class="cls-26" x="259.1952" y="36.897">o</tspan><tspan x="267.528" y="36.897">v til </tspan><tspan class="cls-11" x="293.7553" y="36.897">a</tspan><tspan x="301.1034" y="36.897">t vide</tspan><tspan class="cls-27" x="336.8161" y="36.897">r</tspan><tspan x="341.6899" y="36.897">esende billedet af</tspan><tspan x="0" y="55.3457" xml:space="preserve"> dem det </tspan><tspan class="cls-6" x="60.433" y="55.3457">k</tspan><tspan x="67.9199" y="55.3457">an gå ud </tspan><tspan class="cls-26" x="126.7848" y="55.3457">o</tspan><tspan class="cls-24" x="135.1176" y="55.3457">v</tspan><tspan class="cls-10" x="142.3583" y="55.3457">e</tspan><tspan class="cls-28" x="150.0607" y="55.3457">r</tspan><tspan class="cls-10" x="154.2728" y="55.3457">. </tspan><tspan class="cls-20" x="160.714" y="55.3457">H</tspan><tspan x="170.8757" y="55.3457">vis du er i </tspan><tspan class="cls-12" x="234.4604" y="55.3457">t</tspan><tspan x="239.6868" y="55.3457">vivl om, om personen vil synes </tspan><tspan class="cls-11" x="438.0046" y="55.3457">a</tspan><tspan x="445.3527" y="55.3457">t det </tspan><tspan x="0" y="73.7939" xml:space="preserve">          er o</tspan><tspan class="cls-6" x="57.0192" y="73.7939">k</tspan><tspan class="cls-7" x="64.5062" y="73.7939">a</tspan><tspan class="cls-29" x="71.7933" y="73.7939">y</tspan><tspan x="78.4349" y="73.7939">, så lad </tspan><tspan class="cls-11" x="124.601" y="73.7939">v</tspan><tspan x="131.934" y="73.7939">æ</tspan><tspan class="cls-27" x="143.8177" y="73.7939">r</tspan><tspan x="148.6914" y="73.7939">e med </tspan><tspan class="cls-11" x="192.1061" y="73.7939">a</tspan><tspan x="199.4547" y="73.7939">t dele de</tspan><tspan class="cls-30" x="255.1371" y="73.7939">t</tspan><tspan x="260.1799" y="73.7939">. </tspan><tspan class="cls-31" x="266.6211" y="73.7939">D</tspan><tspan x="276.9211" y="73.7939">et er vi</tspan><tspan class="cls-31" x="319.9512" y="73.7939">r</tspan><tspan x="325.0399" y="73.7939">kelig då</tspan><tspan class="cls-31" x="375.1107" y="73.7939">r</tspan><tspan class="cls-32" x="380.1994" y="73.7939">lig sti</tspan><tspan class="cls-33" x="414.0513" y="73.7939">l</tspan><tspan x="417.5266" y="73.7939">. </tspan><tspan x="0" y="110.6909" xml:space="preserve">              </tspan><tspan class="cls-31" x="45.627" y="110.6909">D</tspan><tspan class="cls-10" x="55.927" y="110.6909">et er i</tspan><tspan class="cls-21" x="91.5625" y="110.6909">k</tspan><tspan class="cls-18" x="99.0343" y="110.6909">ke ba</tspan><tspan class="cls-24" x="133.3632" y="110.6909">r</tspan><tspan x="138.2364" y="110.6909">e då</tspan><tspan class="cls-31" x="165.2781" y="110.6909">r</tspan><tspan x="170.3669" y="110.6909">lig sti</tspan><tspan class="cls-24" x="204.2193" y="110.6909">l</tspan><tspan x="207.6935" y="110.6909">, det er også ul</tspan><tspan class="cls-26" x="300.7339" y="110.6909">o</tspan><tspan x="309.0662" y="110.6909">vligt </tspan><tspan class="cls-34" x="340.6273" y="110.6909">a</tspan><tspan class="cls-14" x="347.9766" y="110.6909">t dele og </tspan><tspan x="0" y="129.1396" xml:space="preserve">                   vide</tspan><tspan class="cls-24" x="89.2874" y="129.1396">r</tspan><tspan x="94.1606" y="129.1396">esende and</tspan><tspan class="cls-27" x="168.4299" y="129.1396">r</tspan><tspan x="173.3036" y="129.1396">e </tspan><tspan class="cls-35" x="184.2648" y="129.1396">f</tspan><tspan x="188.5541" y="129.1396">olks billeder uden de</tspan><tspan class="cls-27" x="322.149" y="129.1396">r</tspan><tspan x="327.0228" y="129.1396">es tilladels</tspan><tspan class="cls-36" x="393.5129" y="129.1396">e</tspan><tspan class="cls-32" x="401.0301" y="129.1396">. </tspan><tspan x="0" y="147.5879" xml:space="preserve">           </tspan><tspan class="cls-37" x="35.8499" y="147.5879"> </tspan><tspan class="cls-38" x="38.4021" y="147.5879">Y</tspan><tspan class="cls-18" x="46.427" y="147.5879">t</tspan><tspan class="cls-31" x="51.5151" y="147.5879">r</tspan><tspan x="56.6038" y="147.5879">ingsf</tspan><tspan class="cls-31" x="87.9041" y="147.5879">r</tspan><tspan x="92.9928" y="147.5879">iheden </tspan><tspan class="cls-9" x="140.989" y="147.5879">g</tspan><tspan x="149.4903" y="147.5879">i</tspan><tspan class="cls-27" x="153.0877" y="147.5879">v</tspan><tspan x="160.3288" y="147.5879">er dig i</tspan><tspan class="cls-21" x="204.0351" y="147.5879">k</tspan><tspan class="cls-18" x="211.507" y="147.5879">ke ube</tspan><tspan class="cls-9" x="254.5986" y="147.5879">g</tspan><tspan class="cls-39" x="263.0999" y="147.5879">r</tspan><tspan x="268.0503" y="147.5879">ænset </tspan><tspan class="cls-27" x="310.6046" y="147.5879">r</tspan><tspan x="315.4783" y="147.5879">et til o</tspan><tspan class="cls-40" x="355.5408" y="147.5879">ff</tspan><tspan x="364.3041" y="147.5879">e</tspan><tspan class="cls-11" x="372.006" y="147.5879">n</tspan><tspan x="380.4771" y="147.5879">tliggø</tspan><tspan class="cls-41" x="418.419" y="147.5879">r</tspan><tspan x="423.2916" y="147.5879">e </tspan><tspan x="0" y="166.0361" xml:space="preserve">                                             opl</tspan><tspan class="cls-42" x="167.4737" y="166.0361">y</tspan><tspan x="174.6226" y="166.0361">sninger der i</tspan><tspan class="cls-43" x="254.2112" y="166.0361">k</tspan><tspan x="261.6825" y="166.0361">ke er din</tspan><tspan class="cls-36" x="316.6427" y="166.0361">e</tspan><tspan class="cls-32" x="324.1599" y="166.0361">. </tspan><tspan x="0" y="184.4854" xml:space="preserve">                                                 </tspan><tspan class="cls-44" x="159.6946" y="184.4854">S</tspan><tspan class="cls-4" x="167.3198" y="184.4854">å tænk dig godt om.</tspan><tspan x="0" y="202.9336" xml:space="preserve">                       Husk </tspan><tspan class="cls-45" x="110.0106" y="202.9336">a</tspan><tspan x="117.3587" y="202.9336">t du også </tspan><tspan class="cls-6" x="179.8982" y="202.9336">k</tspan><tspan class="cls-18" x="187.3852" y="202.9336">an så</tspan><tspan class="cls-24" x="220.0844" y="202.9336">r</tspan><tspan class="cls-10" x="224.9576" y="202.9336">e and</tspan><tspan class="cls-27" x="260.5321" y="202.9336">r</tspan><tspan x="265.4058" y="202.9336">e mennesker med de</tspan><tspan class="cls-46" x="399.7705" y="202.9336">t</tspan><tspan class="cls-32" x="404.8122" y="202.9336">, </tspan><tspan x="0" y="221.3818" xml:space="preserve">                                          du s</tspan><tspan class="cls-43" x="163.3697" y="221.3818">k</tspan><tspan class="cls-31" x="170.841" y="221.3818">r</tspan><tspan x="175.9297" y="221.3818">i</tspan><tspan class="cls-27" x="179.5271" y="221.3818">v</tspan><tspan x="186.7683" y="221.3818">er eller o</tspan><tspan class="cls-35" x="242.1433" y="221.3818">ff</tspan><tspan class="cls-10" x="250.9061" y="221.3818">e</tspan><tspan class="cls-11" x="258.6085" y="221.3818">n</tspan><tspan x="267.0791" y="221.3818">tliggø</tspan><tspan class="cls-28" x="305.021" y="221.3818">r</tspan><tspan x="309.233" y="221.3818">. </tspan><tspan class="cls-47"><tspan x="0" y="239.8301" xml:space="preserve">                                  </tspan><tspan class="cls-48" x="110.8083" y="239.8301"> </tspan><tspan class="cls-49" x="113.4378" y="239.8301">T</tspan><tspan x="120.0945" y="239.8301">ænk </tspan><tspan class="cls-50" x="150.98" y="239.8301">o</tspan><tspan class="cls-27" x="159.3122" y="239.8301">v</tspan><tspan x="166.5534" y="239.8301">er </tspan><tspan class="cls-40" x="182.5417" y="239.8301">h</tspan><tspan class="cls-24" x="190.8745" y="239.8301">v</tspan><tspan x="198.1151" y="239.8301">or din egen </tspan><tspan class="cls-42" x="274.6903" y="239.8301">g</tspan><tspan class="cls-39" x="283.1922" y="239.8301">r</tspan><tspan x="288.1426" y="239.8301">ænse går!</tspan></tspan></text></svg>