<svg xmlns="http://www.w3.org/2000/svg" xmlns:xlink="http://www.w3.org/1999/xlink" viewBox="0 0 1800 600"><defs><style>.cls-1,.cls-2{fill:#f4840a;}.cls-12,.cls-13,.cls-14,.cls-15,.cls-2,.cls-4,.cls-5,.cls-6{stroke:#000;stroke-miterlimit:10;}.cls-2{stroke-width:3px;}.cls-3{font-size:36.7293px;}.cls-11,.cls-3{font-family:MyriadPro-Regular, Myriad Pro;}.cls-5{letter-spacing:-0.025em;}.cls-6{letter-spacing:0em;}.cls-7{letter-spacing:0.005em;}.cls-8{letter-spacing:-0.004em;}.cls-9{letter-spacing:-0.006em;}.cls-10{fill:none;}.cls-11{font-size:35.6624px;}.cls-12,.cls-13,.cls-14,.cls-15{stroke-width:0.25px;}.cls-12,.cls-22{letter-spacing:0.004em;}.cls-14{letter-spacing:0.025em;}.cls-15,.cls-20{letter-spacing:-0.01em;}.cls-16{letter-spacing:-0.004em;}.cls-17{letter-spacing:-0.006em;}.cls-18{letter-spacing:-0.005em;}.cls-19{letter-spacing:-0.007em;}.cls-21{letter-spacing:0.017em;}.cls-23{letter-spacing:0em;}.cls-24{letter-spacing:0.003em;}.cls-25{letter-spacing:0em;}.cls-26{letter-spacing:0.024em;}.cls-27{letter-spacing:0.009em;}.cls-28{letter-spacing:-0.008em;}.cls-29{letter-spacing:0em;}.cls-30{letter-spacing:0em;}.cls-31{letter-spacing:0.018em;}.cls-32{letter-spacing:-0.013em;}.cls-33{letter-spacing:-0.004em;}.cls-34{letter-spacing:0.012em;}.cls-35{letter-spacing:-0.039em;}.cls-36{letter-spacing:0.004em;}.cls-37{letter-spacing:0.014em;}</style><symbol id="bubposi" data-name="bubposi" viewBox="0 0 600 600"><ellipse class="cls-1" cx="328" cy="253.5" rx="225" ry="148.5"/><path d="M328,106.5c123.2383,0,223.5,65.9439,223.5,147s-100.2617,147-223.5,147-223.5-65.9439-223.5-147,100.2617-147,223.5-147m0-3c-125.0925,0-226.5,67.1573-226.5,150s101.4075,150,226.5,150,226.5-67.1573,226.5-150-101.4076-150-226.5-150Z"/><path class="cls-2" d="M196.0275,366.47S172,419,130,440c0,0,72.4-9.6822,110.2-56.3411"/><text class="cls-3" transform="translate(198.4995 231.2422) scale(0.6558 1)"><tspan xml:space="preserve">               </tspan><tspan class="cls-4" x="116.7939" y="0" xml:space="preserve"> FE</tspan><tspan class="cls-5" x="160.537" y="0">D</tspan><tspan class="cls-6" x="184.08" y="0">T! </tspan><tspan class="cls-7" x="0" y="44.0752">G</tspan><tspan x="23.91" y="44.0752">odt </tspan><tspan class="cls-8" x="84.733" y="44.0752">a</tspan><tspan x="102.2893" y="44.0752">t du slet</tspan><tspan class="cls-9" x="224.7423" y="44.0752">t</tspan><tspan x="236.6798" y="44.0752">ede billedet!</tspan></text><text></text><rect class="cls-10" width="600" height="600"/></symbol><symbol id="bubposi2" data-name="bubposi2" viewBox="0 0 600 600"><ellipse class="cls-1" cx="327.5" cy="254" rx="225" ry="148.5"/><path d="M327.5,107C450.7383,107,551,172.9439,551,254S450.7383,401,327.5,401,104,335.0561,104,254,204.2617,107,327.5,107m0-3C202.4075,104,101,171.1573,101,254S202.4075,404,327.5,404,554,336.8427,554,254,452.5924,104,327.5,104Z"/><path class="cls-2" d="M195.5275,366.97S171.5,419.5,129.5,440.5c0,0,72.4-9.6822,110.2-56.3411"/><text class="cls-11" transform="translate(161.0005 205.8496) scale(0.7239 1)"><tspan xml:space="preserve">  </tspan><tspan class="cls-12" x="15.1199" y="0">D</tspan><tspan class="cls-13" x="39.0133" y="0">et er nemlig </tspan><tspan class="cls-12" x="224.9892" y="0">r</tspan><tspan class="cls-13" x="236.7932" y="0">igtig ta</tspan><tspan class="cls-14" x="341.71" y="0">r</tspan><tspan class="cls-15" x="354.2627" y="0">v</tspan><tspan class="cls-13" x="371.0595" y="0">elig</tspan><tspan class="cls-13"><tspan class="cls-16" x="0" y="42.7949">a</tspan><tspan x="17.0463" y="42.7949">t dele et </tspan><tspan class="cls-17" x="145.4639" y="42.7949">g</tspan><tspan class="cls-18" x="165.1854" y="42.7949">r</tspan><tspan x="176.6683" y="42.7949">ænse</tspan><tspan class="cls-19" x="256.0169" y="42.7949">o</tspan><tspan class="cls-20" x="275.3458" y="42.7949">v</tspan><tspan x="292.1426" y="42.7949">ers</tspan><tspan class="cls-21" x="335.7931" y="42.7949">k</tspan><tspan class="cls-22" x="353.1241" y="42.7949">r</tspan><tspan x="364.9282" y="42.7949">idende </tspan><tspan x="0" y="85.5898">billede af and</tspan><tspan class="cls-20" x="201.1316" y="85.5898">r</tspan><tspan x="212.4365" y="85.5898">e uden man har </tspan><tspan x="0" y="128.3848" xml:space="preserve">    fået l</tspan><tspan class="cls-19" x="103.4895" y="128.3848">o</tspan><tspan class="cls-23" x="122.8184" y="128.3848">v!</tspan></tspan></text><text></text><rect class="cls-10" width="600" height="600"/></symbol><symbol id="bubposi3" data-name="bubposi3" viewBox="0 0 600 600"><ellipse class="cls-1" cx="327.5" cy="254" rx="225" ry="148.5"/><path d="M327.5,107C450.7383,107,551,172.9439,551,254S450.7383,401,327.5,401,104,335.0561,104,254,204.2617,107,327.5,107m0-3C202.4075,104,101,171.1573,101,254S202.4075,404,327.5,404,554,336.8427,554,254,452.5924,104,327.5,104Z"/><path class="cls-2" d="M195.5275,366.97S171.5,419.5,129.5,440.5c0,0,72.4-9.6822,110.2-56.3411"/><text class="cls-11" transform="translate(161.0005 205.8496) scale(0.7239 1)"> <tspan class="cls-24" x="7.56" y="0">D</tspan><tspan class="cls-25" x="31.4176" y="0">u har gjo</tspan><tspan class="cls-26" x="163.0094" y="0">r</tspan><tspan x="175.5264" y="0">t det helt </tspan><tspan class="cls-22" x="317.673" y="0">r</tspan><tspan x="329.477" y="0">igtige!</tspan><tspan class="cls-27" x="0" y="42.7949">H</tspan><tspan x="23.5723" y="42.7949">vis du har spø</tspan><tspan class="cls-28" x="228.2701" y="42.7949">r</tspan><tspan class="cls-29" x="239.6464" y="42.7949">gsmå</tspan><tspan class="cls-20" x="320.6354" y="42.7949">l</tspan><tspan class="cls-30" x="328.6959" y="42.7949">, </tspan><tspan class="cls-31" x="343.6364" y="42.7949">k</tspan><tspan x="361.0038" y="42.7949">an du </tspan><tspan x="0" y="85.5898" xml:space="preserve">       stille dem ano</tspan><tspan class="cls-32" x="261.293" y="85.5898">n</tspan><tspan x="280.6219" y="85.5898">y</tspan><tspan class="cls-33" x="297.4186" y="85.5898">m</tspan><tspan x="327.0191" y="85.5898">t på </tspan><tspan class="cls-4"><tspan x="0" y="128.3848" xml:space="preserve">          </tspan><tspan class="cls-34" x="75.601" y="128.3848">ww</tspan><tspan class="cls-35" x="128.9504" y="128.3848">w</tspan><tspan class="cls-25" x="153.8076" y="128.3848">.p</tspan><tspan class="cls-36" x="181.4803" y="128.3848">r</tspan><tspan x="193.2843" y="128.3848">i</tspan><tspan class="cls-16" x="201.6294" y="128.3848">va</tspan><tspan x="235.687" y="128.3848">tsna</tspan><tspan class="cls-37" x="298.5936" y="128.3848">k</tspan><tspan x="315.8181" y="128.3848">.dk</tspan></tspan></text><text></text><rect class="cls-10" width="600" height="600"/></symbol></defs><title>speechposi</title><g id="sprite"><use width="600" height="600" xlink:href="#bubposi"/><use width="600" height="600" transform="translate(600)" xlink:href="#bubposi2"/><use width="600" height="600" transform="translate(1200)" xlink:href="#bubposi3"/></g></svg>