<svg id="Layer_1" data-name="Layer 1" xmlns="http://www.w3.org/2000/svg" viewBox="0 0 847.33 611.32"><defs><style>.cls-1{fill:#152230;}.cls-2{fill:#f2902c;}.cls-3{fill:#fff;}</style></defs><title>PrivatSnak_logo</title><path class="cls-1" d="M250,434.24c-4.47,1.52-7.59,5-11.21,7.76-12.77,9.6-25.41,19.39-38.12,29.08-1,.77-1.92,2.25-3.36,1.67-1.8-.73-1.09-2.59-1.09-4,0-19.66-.2-39.33.08-59,.07-4.61-1.4-5.5-5.64-5.41-12.49.27-25,.17-37.48.05-15.18-.15-26.34-11.64-26.33-26.8,0-71.81.35-143.63-.17-215.43-.13-18.34,13-29.73,29.79-29.71q395.13.44,790.25.21c16.23,0,27.23,11,27.23,27.26q0,108.72.06,217.44c0,13.62-7.13,22.54-21.56,26.84-2.83.05-5.66.14-8.48.14H474.24q-90.45,0-180.89,0c-3.77,0-6.94.56-10.07,3.19-6.35,5.35-13.4,9.87-19.78,15.18C259,426.5,253.31,429,250,434.24Z" transform="translate(-126.66 -132.51)"/><path class="cls-2" d="M250,434.24c3.33-5.2,9-7.74,13.52-11.52,6.38-5.31,13.43-9.83,19.78-15.18,3.13-2.63,6.3-3.19,10.07-3.19q90.45.07,180.89,0H944c2.82,0,5.65-.09,8.48-.14,1.57,3,5.08,2.68,7.53,4.28,8.32,5.46,12.56,12.81,12.56,22.83,0,72-.26,144,.21,215.92.09,15.05-10.83,29-29,29q-192.93-.39-385.86-.14c-46.48,0-93,.12-139.45-.09a20.81,20.81,0,0,0-13.57,4.71q-32.68,25.31-65.48,50.46c-5,3.84-10.13,7.49-15.15,11.29-3.12,2.36-4.25,1.54-4.25-2.23q0-28.24-.13-56.48c0-7.53-.15-7.64-7.52-7.65-11.33,0-22.67-.36-34,.09-15.84.64-28.41-12-28.34-28.57.28-69.48.12-138.95.12-208.43C250.09,437.57,250,435.91,250,434.24Z" transform="translate(-126.66 -132.51)"/><path class="cls-3" d="M271.43,338.67H234.88V198.08h58.17q23.68,0,36.27,12.31t12.58,34.68q0,22.37-12.58,34.68t-36.27,12.3H271.43Zm0-76.08h12.11q20.15,0,20.14-17.52t-20.14-17.53H271.43Z" transform="translate(-126.66 -132.51)"/><path class="cls-3" d="M471.06,338.67H425.57L390.7,284.6v54.07H354.16V198.08H411a55.84,55.84,0,0,1,20.51,3.45,38.62,38.62,0,0,1,23,23.21,48,48,0,0,1,2.89,16.78q0,16-7.74,26t-22.84,13.52ZM390.7,260.92h6.9q10.81,0,16.6-4.48T420,243.58q0-8.4-5.78-12.87t-16.6-4.47h-6.9Z" transform="translate(-126.66 -132.51)"/><path class="cls-3" d="M518.76,198.08V338.67H482.22V198.08Z" transform="translate(-126.66 -132.51)"/><path class="cls-3" d="M569.07,198.08,603,283.66l34.12-85.58h39.72l-59.3,140.59H588.46L529.35,198.08Z" transform="translate(-126.66 -132.51)"/><path class="cls-3" d="M756.38,315.24H704.17l-8.39,24.43h-39l53.52-140.59h39.9l53.51,140.59h-39Zm-9.7-27.78-16.4-46.8-16.41,46.8Z" transform="translate(-126.66 -132.51)"/><path class="cls-3" d="M857.81,230V339.67H821.26V230h-30V199.08h96.58V230Z" transform="translate(-126.66 -132.51)"/><path class="cls-3" d="M435.24,504.61a45.26,45.26,0,0,0-11.9-7.16,31.6,31.6,0,0,0-11.53-2.32q-7.06,0-11.53,3.35a10.43,10.43,0,0,0-4.46,8.73,8.67,8.67,0,0,0,2.23,6.14,19.34,19.34,0,0,0,5.86,4.18,48.86,48.86,0,0,0,8.18,3.07q4.55,1.3,9,2.79,17.85,6,26.12,15.9t8.27,25.94a50.62,50.62,0,0,1-3.62,19.52,40.71,40.71,0,0,1-10.6,15,49,49,0,0,1-17.11,9.67,71.3,71.3,0,0,1-23,3.44q-26.59,0-49.27-15.81l15.62-29.38a63.27,63.27,0,0,0,16.17,10.79A39,39,0,0,0,399.54,582q8.93,0,13.29-4.09a12.47,12.47,0,0,0,4.37-9.3,12.61,12.61,0,0,0-1.11-5.48,12,12,0,0,0-3.72-4.28,29.76,29.76,0,0,0-6.79-3.62q-4.18-1.68-10.13-3.72-7.08-2.24-13.86-4.93a43.52,43.52,0,0,1-12.08-7.16A33.08,33.08,0,0,1,361,528.13q-3.25-6.78-3.26-17.2a49.74,49.74,0,0,1,3.44-18.87,41.94,41.94,0,0,1,9.67-14.5,43,43,0,0,1,15.25-9.39,57.62,57.62,0,0,1,20.17-3.35A88.47,88.47,0,0,1,428,467.7a96.44,96.44,0,0,1,21.75,8.46Z" transform="translate(-126.66 -132.51)"/><path class="cls-3" d="M469.26,608.92V468.73h36.45L573,554.44V468.73h36.26V608.92H573l-67.3-85.71v85.71Z" transform="translate(-126.66 -132.51)"/><path class="cls-3" d="M715.81,584.56H663.75l-8.37,24.36H616.52l53.37-140.19h39.79L763,608.92H724.18Zm-9.67-27.7-16.36-46.67-16.36,46.67Z" transform="translate(-126.66 -132.51)"/><path class="cls-3" d="M806.36,526.55l44.44-57.82h45L840.2,535.1,901,608.92H853.77l-47.41-60.8v60.8H769.92V468.73h36.44Z" transform="translate(-126.66 -132.51)"/></svg>
