<svg xmlns="http://www.w3.org/2000/svg" xmlns:xlink="http://www.w3.org/1999/xlink" viewBox="0 0 600 200"><defs><style>.cls-1,.cls-8{fill:none;}.cls-2{fill:#754c24;}.cls-2,.cls-3{stroke:#000;}.cls-2,.cls-3,.cls-4,.cls-5,.cls-7,.cls-8{stroke-miterlimit:10;}.cls-3,.cls-6{fill:red;}.cls-3,.cls-4{stroke-width:0.5px;}.cls-4{fill:#fff;}.cls-4,.cls-5,.cls-7,.cls-8{stroke:#231f20;stroke-linecap:round;}.cls-5{fill:#e6e7e8;}</style><symbol id="t01" data-name="t01" viewBox="0 0 100 200"><rect id="background" class="cls-1" width="100" height="200"/><path id="body" class="cls-2" d="M85.85,6.95S52.3,4.12,64.3,31.18c1,2.29,3.92,6.33,3.81,8.85s-3.11,6.27-4,8.78a43.5,43.5,0,0,0-1.71,20.68c.62,3.83,1.77,7.61,1.73,11.48-.09,9.8-7.62,18.54-7,28.32.38,6.22,4,11.88,4.39,18.1.3,5.16-1.69,10.13-3,15.14a55.58,55.58,0,0,0,7,43.06c-1.6-6.67,2.23-13.47,6.86-18.53s10.27-9.36,13.64-15.33,3.6-14.59-1.84-18.77c4.09-.89,6.28-5.32,7.38-9.36a51.14,51.14,0,0,0-8.77-44c-.07-.09,4.76-10.11,5.1-11.26a46.85,46.85,0,0,0,1.92-13.61,57,57,0,0,0-2.16-13.49c-1.09-4.42.91-6.95,2.89-11C97.13,16.87,85.85,6.95,85.85,6.95Z"/><g id="face"><g id="mouth"><path class="cls-3" d="M71.38,31.51A5.18,5.18,0,0,0,69,35.22a5.74,5.74,0,0,0,.6,3.25,6.55,6.55,0,0,0,4,3.3A11.58,11.58,0,0,0,77,42.1a14.17,14.17,0,0,0,3.61-.4,5.76,5.76,0,0,0,3-1.9A5,5,0,0,0,84.23,35a6.46,6.46,0,0,0-3.54-3.47,8.28,8.28,0,0,0-2.55-.6c-.82-.06-1.65.15-2.46.09C74.09,30.86,72.85,30.59,71.38,31.51Z"/><polygon class="cls-4" points="75.66 35.32 74.98 31.3 76.91 31.37 75.66 35.32"/><polygon class="cls-4" points="77.94 37.49 79.38 41.52 77.39 41.65 77.94 37.49"/><polygon class="cls-4" points="76.08 37.5 76.93 41.7 74.94 41.54 76.08 37.5"/><polygon class="cls-4" points="77.91 35.28 77.23 31.26 79.16 31.34 77.91 35.28"/><polygon class="cls-4" points="73.93 33.57 73.32 31.04 74.53 31.09 73.93 33.57"/><polygon class="cls-4" points="79.29 33.86 79.45 31.27 80.59 31.67 79.29 33.86"/></g><g id="eyes"><circle class="cls-5" cx="71.07" cy="22.75" r="4.25"/><ellipse class="cls-6" cx="71.07" cy="22.75" rx="1.33" ry="3.28"/><circle class="cls-7" cx="71.07" cy="22.96" r="0.65" transform="matrix(0.83, -0.55, 0.55, 0.83, -0.83, 43.18)"/><circle class="cls-5" cx="83.82" cy="22.75" r="4.25"/><ellipse class="cls-6" cx="83.82" cy="22.75" rx="1.33" ry="3.28"/><circle class="cls-7" cx="83.82" cy="22.96" r="0.65" transform="translate(1.3 50.24) rotate(-33.61)"/><path class="cls-8" d="M67,17c4-5,6-1,6-1"/><path class="cls-8" d="M79.53,19.34c.39-2,4.44-7.17,6.47-7.34s1.88,4.68,2.6,6.59"/></g></g></symbol><symbol id="t06" data-name="t06" viewBox="0 0 100 200"><rect id="background-2" data-name="background" class="cls-1" width="100" height="200"/><path id="body-2" data-name="body" class="cls-2" d="M85.85,7.95S52.3,5.12,64.3,32.18c1,2.29,3.92,6.33,3.81,8.85s-3.11,6.27-4,8.78a43.5,43.5,0,0,0-1.71,20.68c.62,3.83,1.77,7.61,1.73,11.48-.09,9.8-7.62,18.54-7,28.32.38,6.22,4,11.88,4.39,18.1.3,5.16-1.69,10.13-3,15.14C54.93,158,27,158,15,154c1,9,52.83,19.12,57.46,14s10.27-9.36,13.64-15.33,3.6-14.59-1.84-18.77c4.09-.89,6.28-5.32,7.38-9.36a51.14,51.14,0,0,0-8.77-44c-.07-.09,4.76-10.11,5.1-11.26a46.85,46.85,0,0,0,1.92-13.61,57,57,0,0,0-2.16-13.49c-1.09-4.42.91-6.95,2.89-11C97.13,17.87,85.85,7.95,85.85,7.95Z"/><g id="face_copy_5" data-name="face copy 5"><g id="mouth_copy_5" data-name="mouth copy 5"><path class="cls-3" d="M71.38,31.51A5.18,5.18,0,0,0,69,35.22a5.74,5.74,0,0,0,.6,3.25,6.55,6.55,0,0,0,4,3.3A11.58,11.58,0,0,0,77,42.1a14.17,14.17,0,0,0,3.61-.4,5.76,5.76,0,0,0,3-1.9A5,5,0,0,0,84.23,35a6.46,6.46,0,0,0-3.54-3.47,8.28,8.28,0,0,0-2.55-.6c-.82-.06-1.65.15-2.46.09C74.09,30.86,72.85,30.59,71.38,31.51Z"/><polygon class="cls-4" points="75.66 35.32 74.98 31.3 76.91 31.37 75.66 35.32"/><polygon class="cls-4" points="77.94 37.49 79.38 41.52 77.39 41.65 77.94 37.49"/><polygon class="cls-4" points="76.08 37.5 76.93 41.7 74.94 41.54 76.08 37.5"/><polygon class="cls-4" points="77.91 35.28 77.23 31.26 79.16 31.34 77.91 35.28"/><polygon class="cls-4" points="73.93 33.57 73.32 31.04 74.53 31.09 73.93 33.57"/><polygon class="cls-4" points="79.29 33.86 79.45 31.27 80.59 31.67 79.29 33.86"/></g><g id="eyes_copy_5" data-name="eyes copy 5"><circle class="cls-5" cx="71.07" cy="22.75" r="4.25"/><ellipse class="cls-6" cx="71.07" cy="22.75" rx="1.33" ry="3.28"/><circle class="cls-7" cx="71.07" cy="22.96" r="0.65" transform="matrix(0.83, -0.55, 0.55, 0.83, -0.83, 43.18)"/><circle class="cls-5" cx="83.82" cy="22.75" r="4.25"/><ellipse class="cls-6" cx="83.82" cy="22.75" rx="1.33" ry="3.28"/><circle class="cls-7" cx="83.82" cy="22.96" r="0.65" transform="translate(1.3 50.24) rotate(-33.61)"/><path class="cls-8" d="M67,17c4-5,6-1,6-1"/><path class="cls-8" d="M79.53,19.34c.39-2,4.44-7.17,6.47-7.34s1.88,4.68,2.6,6.59"/></g></g></symbol><symbol id="t02" data-name="t02" viewBox="0 0 100 200"><rect id="background-3" data-name="background" class="cls-1" width="100" height="200"/><path id="body-3" data-name="body" class="cls-2" d="M85.85,6.95S52.3,4.12,64.3,31.18c1,2.29,3.92,6.33,3.81,8.85s-3.11,6.27-4,8.78a43.5,43.5,0,0,0-1.71,20.68c.62,3.83,1.77,7.61,1.73,11.48-.09,9.8-7.62,18.54-7,28.32.38,6.22,4,11.88,4.39,18.1.3,5.16-1.69,10.13-3,15.14C54.93,157,51,172,57,186c0-7,10.83-13.88,15.46-19s10.27-9.36,13.64-15.33,3.6-14.59-1.84-18.77c4.09-.89,6.28-5.32,7.38-9.36a51.14,51.14,0,0,0-8.77-44c-.07-.09,4.76-10.11,5.1-11.26a46.85,46.85,0,0,0,1.92-13.61,57,57,0,0,0-2.16-13.49c-1.09-4.42.91-6.95,2.89-11C97.13,16.87,85.85,6.95,85.85,6.95Z"/><g id="face_copy" data-name="face copy"><g id="mouth_copy" data-name="mouth copy"><path class="cls-3" d="M71.38,31.51A5.18,5.18,0,0,0,69,35.22a5.74,5.74,0,0,0,.6,3.25,6.55,6.55,0,0,0,4,3.3A11.58,11.58,0,0,0,77,42.1a14.17,14.17,0,0,0,3.61-.4,5.76,5.76,0,0,0,3-1.9A5,5,0,0,0,84.23,35a6.46,6.46,0,0,0-3.54-3.47,8.28,8.28,0,0,0-2.55-.6c-.82-.06-1.65.15-2.46.09C74.09,30.86,72.85,30.59,71.38,31.51Z"/><polygon class="cls-4" points="75.66 35.32 74.98 31.3 76.91 31.37 75.66 35.32"/><polygon class="cls-4" points="77.94 37.49 79.38 41.52 77.39 41.65 77.94 37.49"/><polygon class="cls-4" points="76.08 37.5 76.93 41.7 74.94 41.54 76.08 37.5"/><polygon class="cls-4" points="77.91 35.28 77.23 31.26 79.16 31.34 77.91 35.28"/><polygon class="cls-4" points="73.93 33.57 73.32 31.04 74.53 31.09 73.93 33.57"/><polygon class="cls-4" points="79.29 33.86 79.45 31.27 80.59 31.67 79.29 33.86"/></g><g id="eyes_copy" data-name="eyes copy"><circle class="cls-5" cx="71.07" cy="22.75" r="4.25"/><ellipse class="cls-6" cx="71.07" cy="22.75" rx="1.33" ry="3.28"/><circle class="cls-7" cx="71.07" cy="22.96" r="0.65" transform="matrix(0.83, -0.55, 0.55, 0.83, -0.83, 43.18)"/><circle class="cls-5" cx="83.82" cy="22.75" r="4.25"/><ellipse class="cls-6" cx="83.82" cy="22.75" rx="1.33" ry="3.28"/><circle class="cls-7" cx="83.82" cy="22.96" r="0.65" transform="translate(1.3 50.24) rotate(-33.61)"/><path class="cls-8" d="M67,17c4-5,6-1,6-1"/><path class="cls-8" d="M79.53,19.34c.39-2,4.44-7.17,6.47-7.34s1.88,4.68,2.6,6.59"/></g></g></symbol><symbol id="t03" data-name="t03" viewBox="0 0 100 200"><rect id="background-4" data-name="background" class="cls-1" width="100" height="200"/><path id="body-4" data-name="body" class="cls-2" d="M85.85,6.95S52.3,4.12,64.3,31.18c1,2.29,3.92,6.33,3.81,8.85s-3.11,6.27-4,8.78a43.5,43.5,0,0,0-1.71,20.68c.62,3.83,1.77,7.61,1.73,11.48-.09,9.8-7.62,18.54-7,28.32.38,6.22,4,11.88,4.39,18.1.3,5.16-1.69,10.13-3,15.14C54.93,157,46,174,47,188c6-6,20.83-15.88,25.46-21s10.27-9.36,13.64-15.33,3.6-14.59-1.84-18.77c4.09-.89,6.28-5.32,7.38-9.36a51.14,51.14,0,0,0-8.77-44c-.07-.09,4.76-10.11,5.1-11.26a46.85,46.85,0,0,0,1.92-13.61,57,57,0,0,0-2.16-13.49c-1.09-4.42.91-6.95,2.89-11C97.13,16.87,85.85,6.95,85.85,6.95Z"/><g id="face_copy_2" data-name="face copy 2"><g id="mouth_copy_2" data-name="mouth copy 2"><path class="cls-3" d="M71.38,31.51A5.18,5.18,0,0,0,69,35.22a5.74,5.74,0,0,0,.6,3.25,6.55,6.55,0,0,0,4,3.3A11.58,11.58,0,0,0,77,42.1a14.17,14.17,0,0,0,3.61-.4,5.76,5.76,0,0,0,3-1.9A5,5,0,0,0,84.23,35a6.46,6.46,0,0,0-3.54-3.47,8.28,8.28,0,0,0-2.55-.6c-.82-.06-1.65.15-2.46.09C74.09,30.86,72.85,30.59,71.38,31.51Z"/><polygon class="cls-4" points="75.66 35.32 74.98 31.3 76.91 31.37 75.66 35.32"/><polygon class="cls-4" points="77.94 37.49 79.38 41.52 77.39 41.65 77.94 37.49"/><polygon class="cls-4" points="76.08 37.5 76.93 41.7 74.94 41.54 76.08 37.5"/><polygon class="cls-4" points="77.91 35.28 77.23 31.26 79.16 31.34 77.91 35.28"/><polygon class="cls-4" points="73.93 33.57 73.32 31.04 74.53 31.09 73.93 33.57"/><polygon class="cls-4" points="79.29 33.86 79.45 31.27 80.59 31.67 79.29 33.86"/></g><g id="eyes_copy_2" data-name="eyes copy 2"><circle class="cls-5" cx="71.07" cy="22.75" r="4.25"/><ellipse class="cls-6" cx="71.07" cy="22.75" rx="1.33" ry="3.28"/><circle class="cls-7" cx="71.07" cy="22.96" r="0.65" transform="matrix(0.83, -0.55, 0.55, 0.83, -0.83, 43.18)"/><circle class="cls-5" cx="83.82" cy="22.75" r="4.25"/><ellipse class="cls-6" cx="83.82" cy="22.75" rx="1.33" ry="3.28"/><circle class="cls-7" cx="83.82" cy="22.96" r="0.65" transform="translate(1.3 50.24) rotate(-33.61)"/><path class="cls-8" d="M67,17c4-5,6-1,6-1"/><path class="cls-8" d="M79.53,19.34c.39-2,4.44-7.17,6.47-7.34s1.88,4.68,2.6,6.59"/></g></g></symbol><symbol id="t04" data-name="t04" viewBox="0 0 100 200"><rect id="background-5" data-name="background" class="cls-1" width="100" height="200"/><path id="body-5" data-name="body" class="cls-2" d="M85.85,6.95S52.3,4.12,64.3,31.18c1,2.29,3.92,6.33,3.81,8.85s-3.11,6.27-4,8.78a43.5,43.5,0,0,0-1.71,20.68c.62,3.83,1.77,7.61,1.73,11.48-.09,9.8-7.62,18.54-7,28.32.38,6.22,4,11.88,4.39,18.1.3,5.16-1.69,10.13-3,15.14C54.93,157,43,169,36,181c7,0,31.83-8.88,36.46-14s10.27-9.36,13.64-15.33,3.6-14.59-1.84-18.77c4.09-.89,6.28-5.32,7.38-9.36a51.14,51.14,0,0,0-8.77-44c-.07-.09,4.76-10.11,5.1-11.26a46.85,46.85,0,0,0,1.92-13.61,57,57,0,0,0-2.16-13.49c-1.09-4.42.91-6.95,2.89-11C97.13,16.87,85.85,6.95,85.85,6.95Z"/><g id="face_copy_3" data-name="face copy 3"><g id="mouth_copy_3" data-name="mouth copy 3"><path class="cls-3" d="M71.38,31.51A5.18,5.18,0,0,0,69,35.22a5.74,5.74,0,0,0,.6,3.25,6.55,6.55,0,0,0,4,3.3A11.58,11.58,0,0,0,77,42.1a14.17,14.17,0,0,0,3.61-.4,5.76,5.76,0,0,0,3-1.9A5,5,0,0,0,84.23,35a6.46,6.46,0,0,0-3.54-3.47,8.28,8.28,0,0,0-2.55-.6c-.82-.06-1.65.15-2.46.09C74.09,30.86,72.85,30.59,71.38,31.51Z"/><polygon class="cls-4" points="75.66 35.32 74.98 31.3 76.91 31.37 75.66 35.32"/><polygon class="cls-4" points="77.94 37.49 79.38 41.52 77.39 41.65 77.94 37.49"/><polygon class="cls-4" points="76.08 37.5 76.93 41.7 74.94 41.54 76.08 37.5"/><polygon class="cls-4" points="77.91 35.28 77.23 31.26 79.16 31.34 77.91 35.28"/><polygon class="cls-4" points="73.93 33.57 73.32 31.04 74.53 31.09 73.93 33.57"/><polygon class="cls-4" points="79.29 33.86 79.45 31.27 80.59 31.67 79.29 33.86"/></g><g id="eyes_copy_3" data-name="eyes copy 3"><circle class="cls-5" cx="71.07" cy="22.75" r="4.25"/><ellipse class="cls-6" cx="71.07" cy="22.75" rx="1.33" ry="3.28"/><circle class="cls-7" cx="71.07" cy="22.96" r="0.65" transform="matrix(0.83, -0.55, 0.55, 0.83, -0.83, 43.18)"/><circle class="cls-5" cx="83.82" cy="22.75" r="4.25"/><ellipse class="cls-6" cx="83.82" cy="22.75" rx="1.33" ry="3.28"/><circle class="cls-7" cx="83.82" cy="22.96" r="0.65" transform="translate(1.3 50.24) rotate(-33.61)"/><path class="cls-8" d="M67,17c4-5,6-1,6-1"/><path class="cls-8" d="M79.53,19.34c.39-2,4.44-7.17,6.47-7.34s1.88,4.68,2.6,6.59"/></g></g></symbol><symbol id="t05" data-name="t05" viewBox="0 0 100 200"><rect id="background-6" data-name="background" class="cls-1" width="100" height="200"/><path id="body-6" data-name="body" class="cls-2" d="M85.85,6.95S52.3,4.12,64.3,31.18c1,2.29,3.92,6.33,3.81,8.85s-3.11,6.27-4,8.78a43.5,43.5,0,0,0-1.71,20.68c.62,3.83,1.77,7.61,1.73,11.48-.09,9.8-7.62,18.54-7,28.32.38,6.22,4,11.88,4.39,18.1.3,5.16-1.69,10.13-3,15.14C54.93,157,37,162,26,168c6,4,41.83,4.12,46.46-1s10.27-9.36,13.64-15.33,3.6-14.59-1.84-18.77c4.09-.89,6.9-5.2,7.38-9.36,1.7-14.76-2.18-31.49-8.77-44-.05-.1,4.76-10.11,5.1-11.26a46.85,46.85,0,0,0,1.92-13.61,57,57,0,0,0-2.16-13.49c-1.09-4.42.91-6.95,2.89-11C97.13,16.87,85.85,6.95,85.85,6.95Z"/><g id="face_copy_4" data-name="face copy 4"><g id="mouth_copy_4" data-name="mouth copy 4"><path class="cls-3" d="M71.38,31.51A5.18,5.18,0,0,0,69,35.22a5.74,5.74,0,0,0,.6,3.25,6.55,6.55,0,0,0,4,3.3A11.58,11.58,0,0,0,77,42.1a14.17,14.17,0,0,0,3.61-.4,5.76,5.76,0,0,0,3-1.9A5,5,0,0,0,84.23,35a6.46,6.46,0,0,0-3.54-3.47,8.28,8.28,0,0,0-2.55-.6c-.82-.06-1.65.15-2.46.09C74.09,30.86,72.85,30.59,71.38,31.51Z"/><polygon class="cls-4" points="75.66 35.32 74.98 31.3 76.91 31.37 75.66 35.32"/><polygon class="cls-4" points="77.94 37.49 79.38 41.52 77.39 41.65 77.94 37.49"/><polygon class="cls-4" points="76.08 37.5 76.93 41.7 74.94 41.54 76.08 37.5"/><polygon class="cls-4" points="77.91 35.28 77.23 31.26 79.16 31.34 77.91 35.28"/><polygon class="cls-4" points="73.93 33.57 73.32 31.04 74.53 31.09 73.93 33.57"/><polygon class="cls-4" points="79.29 33.86 79.45 31.27 80.59 31.67 79.29 33.86"/></g><g id="eyes_copy_4" data-name="eyes copy 4"><circle class="cls-5" cx="71.07" cy="22.75" r="4.25"/><ellipse class="cls-6" cx="71.07" cy="22.75" rx="1.33" ry="3.28"/><circle class="cls-7" cx="71.07" cy="22.96" r="0.65" transform="matrix(0.83, -0.55, 0.55, 0.83, -0.83, 43.18)"/><circle class="cls-5" cx="83.82" cy="22.75" r="4.25"/><ellipse class="cls-6" cx="83.82" cy="22.75" rx="1.33" ry="3.28"/><circle class="cls-7" cx="83.82" cy="22.96" r="0.65" transform="translate(1.3 50.24) rotate(-33.61)"/><path class="cls-8" d="M67,17c4-5,6-1,6-1"/><path class="cls-8" d="M79.53,19.34c.39-2,4.44-7.17,6.47-7.34s1.88,4.68,2.6,6.59"/></g></g></symbol></defs><title>Asset 1</title><g id="Layer_2" data-name="Layer 2"><g id="sprite"><use width="100" height="200" xlink:href="#t01"/><use width="100" height="200" transform="translate(500)" xlink:href="#t06"/><use width="100" height="200" transform="translate(100)" xlink:href="#t02"/><use width="100" height="200" transform="translate(200)" xlink:href="#t03"/><use width="100" height="200" transform="translate(300)" xlink:href="#t04"/><use width="100" height="200" transform="translate(400)" xlink:href="#t05"/></g></g></svg>